<?xml version="1.0" standalone="no"?>
<!DOCTYPE svg PUBLIC "-//W3C//DTD SVG 1.1//EN" "http://www.w3.org/Graphics/SVG/1.1/DTD/svg11.dtd" >
<svg>
<metadata>
Created by FontForge 20090622 at Fri Oct  5 07:05:07 2018
 By deploy user
AzBuki press 1991
</metadata>
<defs>
<font id="BaskervilleBold" horiz-adv-x="1421" >
  <font-face 
    font-family="Baskerville"
    font-weight="700"
    font-stretch="normal"
    units-per-em="4096"
    panose-1="2 2 -30 0 0 0 0 0 0 0"
    ascent="3276"
    descent="-820"
    x-height="1565"
    cap-height="2384"
    bbox="0 -991 3625 3232"
    underline-thickness="86"
    underline-position="-74"
    unicode-range="U+0020-U+2122"
  />
<missing-glyph horiz-adv-x="3072" 
d="M512 0v2560h2048v-2560h-2048zM2494 66v2428h-1916v-2428h1916z" />
    <glyph glyph-name=".notdef" horiz-adv-x="3072" 
d="M512 0v2560h2048v-2560h-2048zM2494 66v2428h-1916v-2428h1916z" />
    <glyph glyph-name=".null" horiz-adv-x="0" 
 />
    <glyph glyph-name="nonmarkingreturn" horiz-adv-x="0" 
 />
    <glyph glyph-name="space" unicode=" " 
 />
    <glyph glyph-name="exclam" unicode="!" horiz-adv-x="1130" 
d="M901 135q-30 -79 -111.5 -131.5t-166.5 -52.5q-41 0 -58 4q-108 19 -179 107t-71 192q0 35 21 111q37 87 114 137.5t168 50.5q93 0 173 -49q131 -94 131 -258q0 -65 -21 -111zM471 1430q-11 59 -58.5 243.5t-60.5 292.5q0 13 -4 39t-4 39q0 154 67 271.5t207 117.5h37
q133 -11 189.5 -121.5t56.5 -263.5q0 -19 -2 -60t-2 -59q-14 -96 -63.5 -285.5t-67.5 -279.5q-69 -357 -74 -635h-135q-5 316 -86 701z" />
    <glyph glyph-name="quotedbl" unicode="&#x22;" horiz-adv-x="1319" 
d="M389 1479h-70l-139 798q0 9 -4 27t-4 27q0 93 54.5 146.5t125.5 53.5q73 0 126.5 -52.5t53.5 -147.5q0 -9 -2 -27t-2 -27zM1118 2277l-139 -798h-70l-139 798q0 9 -4 27t-4 27q0 92 56 146t128 54q71 0 123.5 -51t52.5 -145q0 -41 -4 -58z" />
    <glyph glyph-name="numbersign" unicode="#" horiz-adv-x="2879" 
d="M1270 2540h377l-258 -721h442l258 721h369l-254 -721h487l-127 -344h-483l-152 -431h508l-123 -339h-508l-254 -717h-372l254 717h-439l-258 -717h-377l258 717h-499l127 339h495l156 431h-528l127 344h520zM1716 1479h-454l-156 -439h459z" />
    <glyph glyph-name="dollar" unicode="$" horiz-adv-x="1966" 
d="M905 2236q-85 0 -168 -47.5t-135.5 -125.5t-52.5 -167q0 -132 111.5 -231.5t244.5 -99.5v671zM905 -500v488q-237 1 -404 71t-248 172.5t-81 202.5q0 72 49 128t131 65h25q112 0 154 -78.5t79 -237.5q24 -89 103 -134.5t180 -45.5q2 0 6 2t6 2v869q-224 114 -355 197.5
t-226 217.5t-95 322q0 6 2 25t2 24q12 174 107 306.5t244.5 205.5t320.5 82v250h168v-246q225 -10 377.5 -78.5t225.5 -166t73 -189.5q0 -72 -41.5 -121.5t-114.5 -58.5q-5 0 -15.5 -2.5t-12.5 -2.5q-72 0 -126 45t-71 119q-37 170 -88 235t-207 73v-754q195 -86 344.5 -185
t251.5 -242t113 -327v-61q0 -194 -93.5 -339.5t-254 -230.5t-353.5 -110v-492h-176zM1409 492v12q0 122 -84.5 235t-251.5 183v-775q97 9 173 57t119 124t44 164z" />
    <glyph glyph-name="percent" unicode="%" horiz-adv-x="3142" 
d="M864 2425q66 8 103 8q165 0 393 -152q173 -110 344 -110q182 0 357 104t319 277h131l-1618 -2724h-197l1397 2343q-227 -111 -410 -111q-134 0 -274 70q29 -102 29 -225q0 -79 -13 -156q-36 -213 -141.5 -395t-275.5 -269q-128 -61 -254 -61q-207 0 -349.5 163
t-142.5 406q0 76 25 209q60 232 209.5 404t367.5 219zM737 1782q-53 -207 -53 -324q0 -232 172 -270q24 -8 49 -8q141 0 239.5 153t145.5 326q41 150 41 283q0 148 -57.5 233.5t-143.5 85.5q-101 0 -208.5 -120.5t-184.5 -358.5zM2879 1188q82 -125 82 -332q0 -98 -20 -201
q-42 -211 -145 -394.5t-269 -268.5q-122 -58 -258 -58q-209 0 -350 161t-141 405q0 86 28 209q55 225 205.5 395t368.5 223q49 12 106 12q120 0 236.5 -48.5t156.5 -102.5zM2806 565q45 172 45 279q0 150 -57 236.5t-144 86.5q-103 0 -212 -123t-181 -360q-57 -201 -57 -319
q0 -238 172 -271q32 -8 53 -8q141 0 237.5 152t143.5 327z" />
    <glyph glyph-name="ampersand" unicode="&#x26;" horiz-adv-x="3183" 
d="M1622 287q-354 -296 -688 -332q-15 0 -48 -2t-46 -2q-155 0 -291 54t-213 163q-82 127 -82 274q0 199 131 377q160 213 483 389q-233 343 -233 611q0 2 2 8t2 8q6 252 187 427t440 175q138 0 263 -58.5t201 -167.5t76 -253q0 -338 -417 -590q84 -107 454 -549l207 316
t240.5 271.5t298.5 104.5h28q147 -9 235.5 -108t88.5 -219q0 -168 -143 -234q-66 -32 -140 -32q-109 0 -176 61q-36 35 -53 118t-33 95q-24 8 -41 8q-49 0 -127 -115q-53 -71 -143.5 -213.5t-118.5 -183.5q177 -186 314 -291.5t276 -105.5q174 0 307 180l127 -98
q-304 -422 -696 -422q-348 0 -672 336zM1016 2040q0 -138 66 -251.5t204 -289.5q201 187 201 443v8q0 113 -49 210t-148 113q-8 0 -26 2t-23 2q-97 0 -161 -68t-64 -169zM1487 410q-264 247 -533 651q-103 -67 -160 -174.5t-57 -218.5q0 -207 168 -344q100 -82 225 -82
q101 0 198.5 46t158.5 122z" />
    <glyph glyph-name="quotesingle" unicode="'" horiz-adv-x="713" 
d="M389 1479h-70l-139 798q0 9 -4 27t-4 27q0 93 54.5 146.5t125.5 53.5q73 0 126.5 -52.5t53.5 -147.5q0 -9 -2 -27t-2 -27z" />
    <glyph glyph-name="parenleft" unicode="(" horiz-adv-x="1319" 
d="M1040 -762q-373 341 -580 735.5t-210 862.5q0 313 98.5 599t273.5 531t418 467l86 -74q-249 -338 -364 -704t-115 -799q0 -320 45.5 -574.5t151 -490t282.5 -479.5z" />
    <glyph glyph-name="parenright" unicode=")" horiz-adv-x="1208" 
d="M205 -762l-86 74q177 246 281.5 479.5t151 485t46.5 563.5v28q-3 437 -115 793t-364 698l82 74q374 -338 584 -735.5t210 -861.5q0 -313 -97 -598.5t-273.5 -533t-419.5 -466.5z" />
    <glyph glyph-name="asterisk" unicode="*" horiz-adv-x="1815" 
d="M954 1630q10 -106 30 -165.5t59 -135t67 -158.5q8 -40 8 -65q0 -74 -54 -125t-130 -51h-8q-83 0 -136 50t-53 126q0 40 13 70q22 69 61.5 145t59 135.5t30.5 173.5q-102 -67 -142.5 -114t-83.5 -118t-97 -128q-58 -70 -144 -70q-105 0 -160 103q-28 45 -28 102
q0 63 42.5 113.5t112.5 62.5q64 13 160 21t150.5 19t156.5 54q-113 55 -178.5 67t-162.5 16.5t-158 23.5q-59 17 -93 64.5t-34 103.5q0 72 49 135q52 69 139 69q107 0 168 -86q95 -142 146.5 -204t152.5 -135q-14 136 -39 201.5t-65.5 138t-51.5 118.5q-8 42 -8 58
q0 77 54.5 132.5t138.5 55.5h24q78 -6 119 -57t41 -123q0 -57 -16 -94q-21 -51 -59 -132t-54 -134t-31 -160q104 66 145.5 113t85.5 120.5t93 122.5q65 65 143 65q117 0 176 -122q17 -55 17 -86q0 -68 -50 -115t-130 -53q-159 -16 -251.5 -31.5t-195.5 -63.5q88 -43 153 -57
t166 -24t160 -21q66 -12 105 -63.5t39 -116.5q0 -50 -29 -103q-59 -98 -160 -98q-85 0 -143 70q-42 49 -97.5 131t-97.5 128t-125 101z" />
    <glyph glyph-name="plus" unicode="+" horiz-adv-x="2765" 
d="M1343 2118h353v-885h860v-344h-860v-889h-353v889h-864v344h864v885z" />
    <glyph glyph-name="comma" unicode="," horiz-adv-x="1057" 
d="M217 -549q204 105 321.5 230.5t120.5 318.5q-83 -25 -155 -25q-126 0 -200.5 80t-74.5 191q0 89 55.5 169t153.5 109q43 17 107 17q101 0 174.5 -64.5t111 -166.5t37.5 -212q0 -504 -602 -762z" />
    <glyph glyph-name="hyphen" unicode="-" horiz-adv-x="1245" 
d="M201 578v421h852v-421h-852z" />
    <glyph glyph-name="period" unicode="." horiz-adv-x="1057" 
d="M713 496q61 -40 96 -111t35 -147q0 -65 -21 -111q-30 -79 -110.5 -131.5t-167.5 -52.5q-41 0 -58 4q-108 18 -178.5 108t-70.5 195q0 30 20 110q37 85 114.5 137t168.5 52q83 0 172 -53z" />
    <glyph glyph-name="slash" unicode="/" horiz-adv-x="1286" 
d="M12 -328l893 2761h176l-901 -2761h-168z" />
    <glyph glyph-name="zero" unicode="0" horiz-adv-x="2040" 
d="M188 1188q0 192 48.5 408.5t148 406t259.5 309.5t372 121q275 0 463.5 -198t278 -485.5t89.5 -553.5q0 -197 -48 -413.5t-148.5 -407t-260.5 -309.5t-374 -119q-213 0 -372 119t-259 309.5t-147 401.5t-50 411zM737 1176q0 -283 12 -487.5t54 -373.5q64 -221 217 -221
q158 0 217 234q41 167 51 384.5t10 508.5q0 536 -53 798q-58 254 -233 254q-180 0 -221 -262q-58 -289 -58 -696q0 -23 2 -70t2 -69z" />
    <glyph glyph-name="one" unicode="1" horiz-adv-x="1552" 
d="M139 -8v135q137 7 203 23.5t99.5 73t33.5 182.5v1486q0 90 -23.5 135.5t-66.5 61.5t-103.5 17.5t-146.5 2.5v127q476 60 750 197h123q-9 -221 -9 -299v-1737q0 -175 73 -221t271 -49v-135q-408 8 -606 8q-204 0 -598 -8z" />
    <glyph glyph-name="two" unicode="2" horiz-adv-x="1929" 
d="M0 0h156q119 254 242 435t331 421q188 215 296.5 383t145.5 367q13 65 13 159q0 204 -82.5 356t-257.5 152h-13q-139 -6 -214.5 -99.5t-75.5 -211.5q0 -106 56 -184t144 -78q67 0 152 53q0 -10 2 -32t2 -29q0 -123 -86.5 -199t-212.5 -76q-8 0 -26 2t-23 2
q-162 16 -257 136.5t-95 281.5q0 275 229 442q230 156 524 156q200 0 378 -80t287 -235t109 -369v-4q0 -215 -103.5 -371t-305.5 -321q-48 -41 -228.5 -183t-279.5 -227.5t-193 -191.5h1110l-143 -656h-135q12 73 12 119q0 56 -36 69t-152 13h-1270z" />
    <glyph glyph-name="three" unicode="3" horiz-adv-x="1929" 
d="M1085 1380v-28q216 -1 365.5 -78t222 -204t72.5 -279t-72 -308t-210.5 -283.5t-327.5 -195.5q-189 -65 -369 -65q-171 0 -314 58t-224 149.5t-81 181.5q0 83 70 147q55 49 131 49q57 0 114.5 -32t86.5 -82q20 -33 58.5 -114.5t76.5 -128t102 -61.5q63 -12 62 -12
q149 0 239.5 144t104.5 311q12 159 12 201q0 169 -47 299t-158 163q-20 5 -61 5q-52 0 -91.5 -29t-69.5 -69.5l-72 -98.5q-42 -49 -107 -49q-67 0 -90 53q-16 21 -16 53q0 58 98 126l225 154t215 207.5t96 299.5v37q0 167 -94.5 261.5t-216.5 94.5q-83 0 -152 -48.5
t-94 -131.5q-16 -58 -16 -82q0 -65 44 -106.5t103 -41.5q63 0 131 41v-37q0 -126 -78 -200t-212 -74q-139 0 -213 86.5t-74 212.5q0 148 82 262q98 134 290 214.5t394 80.5q175 0 317 -62.5t215 -191.5q50 -88 50 -209q0 -146 -91 -291q-72 -100 -170 -162t-256 -137z" />
    <glyph glyph-name="four" unicode="4" horiz-adv-x="2122" 
d="M680 -4v139q136 7 206 17.5t105 56.5q41 56 41 270q0 57 -2 141t-2 97h-926v217l1180 1499h254v-1503h369v-213h-369q0 -75 -4 -183t-4 -137q0 -108 24.5 -157t93.5 -69t234 -36v-139q-217 4 -663 4q-361 0 -537 -4zM315 926h713l29 958z" />
    <glyph glyph-name="five" unicode="5" horiz-adv-x="1966" 
d="M418 2433h119q92 -68 248.5 -112t304.5 -44q300 0 421 156h131q-33 -173 -155 -314t-291 -202q-157 -53 -319 -53q-61 0 -168 11.5t-140 12.5l-16 -561q226 189 516 189q122 0 205 -25q237 -65 362 -249t125 -415q0 -278 -168 -508q-125 -167 -362.5 -273.5
t-480.5 -106.5q-279 0 -467 139q-144 105 -144 250q0 95 78 155q52 41 119 41q78 0 148.5 -54t101.5 -130q7 -14 25.5 -56t36.5 -71.5t39.5 -51t53.5 -38.5q87 -21 103 -21q68 0 139 38.5t115 97.5q51 72 85 215.5t34 300.5q0 150 -36 277t-100 181q-94 78 -209 78
q-83 0 -165 -47.5t-134 -128.5v-90q0 -152 -102 -152q-2 0 -7 2.5t-9 2.5q-103 5 -103 139q0 2 1.5 7.5t2.5 8.5q2 68 14.5 201.5t14.5 216.5z" />
    <glyph glyph-name="six" unicode="6" horiz-adv-x="2081" 
d="M737 1159q0 -62 -10 -218t-10 -236q0 -259 65 -431q36 -86 101 -133t137 -47q94 0 172.5 76t101.5 211q25 142 25 348q0 458 -135 561q-60 49 -156 49q-91 0 -172.5 -50t-118.5 -130zM918 2195q-106 -97 -132.5 -298t-31.5 -496q231 143 438 143q171 0 315 -82
q175 -95 266 -271.5t91 -379.5q0 -209 -93.5 -404.5t-259.5 -312.5q-202 -151 -491 -151q-171 0 -311 61q-163 71 -274.5 216t-168.5 323t-69 370q0 30 -4.5 76t-4.5 68q0 247 56.5 491t178 447.5t313.5 324.5t448 121h69q171 -11 311.5 -78.5t172.5 -208.5q8 -40 8 -65
q0 -80 -49 -135q-76 -70 -148 -70q-67 0 -132.5 51.5t-108.5 132.5l-41.5 89t-48 70.5t-78.5 37.5h-37q-107 0 -184 -70z" />
    <glyph glyph-name="seven" unicode="7" horiz-adv-x="2007" 
d="M213 1573l205 1032h131q-2 -31 -9.5 -73t-7.5 -62q0 -59 36.5 -81t131.5 -22h1110v-131q-457 -867 -565 -1626q-14 -127 -32 -273t-75.5 -253t-183.5 -133q-20 -4 -69 -4q-95 0 -163.5 48t-82.5 136q-8 58 -8 90q0 99 34.5 211.5t83 210.5t127.5 234l103 180l512 880
h-786q-130 0 -194.5 -40.5t-87.5 -97t-75 -226.5h-135z" />
    <glyph glyph-name="eight" unicode="8" horiz-adv-x="2007" 
d="M696 1163q-131 55 -222 147t-137 206t-46 237q0 173 88.5 329t260.5 255t404 100q203 0 360.5 -75.5t243 -200.5t85.5 -269q0 -138 -89 -272.5t-264 -235.5q439 -192 439 -679q0 -230 -108 -402.5t-295.5 -263t-416.5 -92.5q-288 0 -521 144t-257 413q0 9 -4 33t-4 36
q0 367 483 590zM709 1765q46 -64 133.5 -117.5t188 -97l214.5 -92.5q144 157 144 385q0 184 -101 315.5t-268 131.5q-88 0 -152 -25q-97 -36 -157 -128t-60 -191q0 -96 58 -181zM827 1073q-106 -91 -165.5 -233.5t-59.5 -282.5q0 -191 107 -325t303 -134q9 0 37 4t41 4
q173 22 270.5 129t97.5 261q0 90 -20 151q-36 112 -134 192.5t-193.5 121.5t-283.5 112z" />
    <glyph glyph-name="nine" unicode="9" horiz-adv-x="2040" 
d="M1266 979q-209 -135 -422 -135q-66 0 -148 20q-261 59 -405 259t-144 454q0 298 185 541q116 152 291.5 235.5t367.5 83.5q15 0 46 -2t44 -2q168 -12 306.5 -100.5t234 -228.5t143.5 -306q66 -243 66 -487q0 -386 -135 -733q-114 -275 -294 -431t-460 -192
q-135 -12 -151 -12q-287 0 -447 159q-78 86 -78 185q0 20 21 86q58 114 184 114t188 -94q17 -21 70 -125t90 -129q41 -28 99 -28q84 0 159 53q122 90 152.5 301.5t36.5 513.5zM893 1061q23 -3 46.5 -7.5t43.5 -4.5q95 0 178 47t121 125q2 66 9 214t7 224q0 245 -53 414
q-29 101 -98 154.5t-152 53.5q-85 0 -158 -60.5t-100 -168.5q-41 -190 -41 -430q0 -214 46.5 -371.5t150.5 -189.5z" />
    <glyph glyph-name="colon" unicode=":" horiz-adv-x="1130" 
d="M573 -53q-108 18 -178.5 108t-70.5 195q0 30 20 110q34 85 112.5 137t170.5 52q83 0 172 -53q61 -40 96 -111t35 -147q0 -51 -21 -111q-30 -79 -110.5 -131.5t-167.5 -52.5q-41 0 -58 4zM913 1184q-34 -81 -114.5 -135t-167.5 -54q-24 0 -53 9q-108 17 -179 104.5
t-71 194.5q0 55 20 110q34 88 112 138.5t171 50.5q92 0 172 -50q61 -42 96 -112.5t35 -145.5q0 -57 -21 -110z" />
    <glyph glyph-name="semicolon" unicode=";" horiz-adv-x="1171" 
d="M578 1004q-108 17 -179 104.5t-71 194.5q0 55 20 110q34 88 112 138.5t171 50.5q92 0 172 -50q61 -42 96 -112.5t35 -145.5q0 -57 -21 -110q-34 -81 -114.5 -135t-167.5 -54q-24 0 -53 9zM360 -664l-49 115q208 107 325.5 231.5t117.5 317.5q-84 -25 -156 -25
q-127 0 -198.5 79.5t-71.5 191.5q0 92 53 170.5t151 107.5q48 17 107 17q152 0 240 -135t88 -308q0 -505 -607 -762z" />
    <glyph glyph-name="less" unicode="&#x3c;" horiz-adv-x="2728" 
d="M2540 2073v-381l-1549 -635l1549 -631v-381l-2044 844v344z" />
    <glyph glyph-name="equal" unicode="=" horiz-adv-x="2765" 
d="M479 1606h2077v-344h-2077v344zM479 860h2077v-344h-2077v344z" />
    <glyph glyph-name="greater" unicode="&#x3e;" horiz-adv-x="2728" 
d="M496 2073l2044 -840v-344l-2044 -844v381l1552 631l-1552 635v381z" />
    <glyph glyph-name="question" unicode="?" horiz-adv-x="1667" 
d="M549 774v721q21 -1 71.5 -4.5t99.5 -5.5t79 -2q270 0 385 110q61 73 61 181q0 87 -40 167t-111 115q-59 33 -172 33q-70 0 -203 -20.5t-191 -20.5q-156 0 -200 106q-29 63 -29 99q0 83 81 129.5t210 46.5q147 0 308.5 -58.5t281.5 -166.5q77 -74 143 -177.5t104.5 -221.5
t38.5 -232q0 -213 -127 -344q-168 -168 -528 -168q-19 0 -56 2t-55 2v-291h-151zM791 487q58 -40 94.5 -111.5t36.5 -146.5q0 -69 -21 -110q-30 -80 -111.5 -132.5t-166.5 -52.5h-58q-108 19 -179 107.5t-71 196.5q0 23 21 110q37 88 114 138.5t168 50.5t173 -50z" />
    <glyph glyph-name="at" unicode="@" horiz-adv-x="3523" 
d="M1942 1647q-134 -19 -245.5 -172.5t-183.5 -353t-92 -339.5q-16 -82 -16 -139q0 -130 50.5 -222.5t154.5 -92.5q-1 0 86 12q108 32 223.5 205.5t191.5 400t76 406.5q0 135 -52 215t-157 80h-36zM2077 553q-226 -344 -512 -344q-13 0 -36 4t-34 4q-220 27 -339.5 191.5
t-119.5 390.5q0 11 4 40t4 42q20 240 158.5 442t336 320t374.5 118q144 0 247.5 -80t137.5 -239l86 287h332l-303 -1074q-29 -111 -29 -172q0 -159 131 -159q110 0 283 118q196 145 298.5 387.5t102.5 501.5v82q-16 266 -146 477t-345.5 341t-483.5 165q-130 8 -201 8
q-268 0 -525.5 -96t-464 -278t-324.5 -424q-160 -325 -160 -709q0 -251 81 -482.5t242 -402.5q133 -131 295.5 -214.5t344 -123t376.5 -39.5q266 0 520 70q88 26 163 58t136 64t124.5 69.5l154.5 91.5l66 -86q-236 -164 -444 -252t-474 -121q-150 -21 -279 -21
q-327 0 -630 100.5t-520 301.5q-213 195 -324 458t-111 545q0 198 54.5 401t159.5 385t253 329q244 241 571 370t679 129q170 0 323 -24q219 -38 405 -139.5t319.5 -254t206.5 -349t73 -425.5q0 -190 -50 -372t-152.5 -341.5t-248.5 -269.5q-200 -151 -409 -151
q-148 0 -252.5 88t-124.5 264z" />
    <glyph glyph-name="A" unicode="A" horiz-adv-x="2765" 
d="M791 909h655l-311 828zM877 -8q-280 8 -426 8q-136 0 -422 -8v143q246 30 352 279l856 2015h176l799 -2011q20 -21 53 -99.5t95.5 -124t211.5 -59.5v-143q-450 8 -676 8q-188 0 -548 -8v143q138 6 219 25t84 98v25q0 61 -24 141.5t-53 154l-63 158.5h-794l-70.5 -166
t-46.5 -128.5t-18 -110.5q0 -186 295 -197v-143z" />
    <glyph glyph-name="B" unicode="B" horiz-adv-x="2576" 
d="M172 -12v151q196 11 266 74t70 254v1487q0 122 -32.5 182t-100 82t-195.5 27v147q325 -25 455 -25q83 0 198.5 5.5t174.5 7.5q36 0 119 2t130 2q276 0 490.5 -48.5t341.5 -185.5q119 -131 119 -331q0 -144 -74 -254q-85 -133 -222.5 -191.5t-350.5 -99.5
q239 -29 426.5 -103.5t293.5 -228.5q82 -122 82 -299q0 -222 -127 -369q-102 -115 -246 -177t-303.5 -83.5t-343.5 -21.5h-126q-370 8 -562 8q-237 0 -483 -12zM1081 2204q-24 -11 -24 -41v-820q13 0 44 -2t46 -2q475 0 475 443q0 11 -2 43t-2 47q-9 159 -109.5 245
t-263.5 95h-69q-37 0 -95 -8zM1057 578q0 -143 23.5 -241t111.5 -136q71 -33 151 -33q167 0 267 98q127 121 127 381q0 173 -58 295q-61 136 -193.5 182.5t-318.5 46.5h-110v-593z" />
    <glyph glyph-name="C" unicode="C" horiz-adv-x="2576" 
d="M2232 831h148v-831h-144l-82 201q-198 -132 -380 -195t-394 -63q-98 0 -147 4q-313 28 -556.5 190t-378 424t-134.5 574l4 8v4q0 278 100.5 516.5t276 412.5t399 267.5t461.5 93.5q381 0 709 -229l61 196h156l20 -766h-147q-52 171 -142 309t-225.5 222t-308.5 84
q-195 0 -336.5 -98t-228.5 -257.5t-125.5 -343t-38.5 -366.5q0 -2 2 -6t2 -6q0 -185 36 -361.5t119.5 -329t221 -243.5t331.5 -95h13q531 0 708 684z" />
    <glyph glyph-name="D" unicode="D" horiz-adv-x="2843" 
d="M184 -8v147q127 2 196.5 28t98.5 89.5t29 185.5v1483q0 186 -66 249.5t-262 66.5v143q58 0 172 -6t168 -6q13 0 42 2t40 2q87 0 266 4t271 4q94 0 266 -8q283 -13 511 -105.5t388 -253.5t245 -382.5t85 -487.5q0 -139 -17 -246q-45 -309 -251.5 -545t-505.5 -315
q-185 -45 -484 -45q-57 0 -173 2t-171 2q-565 0 -848 -8zM1077 532q0 -160 53 -249.5t201 -110.5q17 0 49 -2t45 -2q288 0 425.5 238.5t148.5 572.5q4 70 4 221q0 242 -43 444t-165 353t-337 194q-136 33 -233 33q-148 0 -148 -94v-1598z" />
    <glyph glyph-name="E" unicode="E" horiz-adv-x="2462" 
d="M164 -12v147q161 6 230.5 49t85.5 125.5t16 268.5v1347q0 185 -72 257t-260 75v139q478 -20 868 -20q228 0 524.5 7l569.5 13v-622h-148q-47 172 -114 264.5t-173 128.5t-294 41q-9 0 -71 2t-101 2q-132 0 -156 -29q-16 -21 -16 -57q0 -4 2 -14t2 -11v-778q4 0 18 -2
t19 -2q158 0 242.5 34.5t131.5 119t84 247.5h152q-16 -302 -16 -463q0 -175 16 -495h-143q-35 166 -89 249t-148 114.5t-267 33.5v-639q0 -348 397 -348h33q304 6 446.5 122t200.5 415h131v-721q-270 6 -462 11.5t-405 9t-345 3.5q-446 0 -889 -24z" />
    <glyph glyph-name="F" unicode="F" horiz-adv-x="2347" 
d="M152 -8v143q159 9 230.5 43t96.5 112t25 238v1364q-2 139 -32 212.5t-104 104.5t-216 36v147q511 -25 987 -25q413 0 987 21l20 -623h-147q-49 203 -139.5 297t-219.5 119t-362 27h-70q-80 0 -119.5 -24t-39.5 -103v-778q6 0 15.5 -2.5t16.5 -2.5q218 0 320.5 89.5
t138.5 316.5h160q-1 -54 -4 -157t-5.5 -205.5t-2.5 -157.5q0 -51 2 -138.5t5.5 -174.5t4.5 -138h-152q-34 174 -85.5 259t-145 116t-268.5 31v-619q2 -176 26 -250t96.5 -99.5t249.5 -35.5v-147q-204 12 -614 12q-108 -2 -327 -3t-328 -5z" />
    <glyph glyph-name="G" unicode="G" horiz-adv-x="2994" 
d="M1671 1024h1114v-143q-131 0 -194.5 -44.5t-63.5 -164.5v-484h-16q-114 0 -220.5 -28.5t-254 -82.5t-230.5 -77q-188 -57 -417 -57q-154 0 -304 33.5t-285 99.5t-250.5 165.5t-201.5 229.5q-184 298 -184 651q0 336 156.5 644t429.5 491q269 180 614 180q196 0 395.5 -62
t366.5 -171l57 192h160l24 -749h-159q-121 450 -455 561q-98 37 -233 37q-168 0 -312 -82t-233 -238q-51 -86 -93 -218t-64.5 -278.5t-22.5 -293.5q0 -238 59 -450.5t187 -357t323 -180.5q82 -16 131 -16q134 0 253 49t165 144q45 84 45 225v82q0 147 -66.5 198.5
t-220.5 51.5v143z" />
    <glyph glyph-name="H" unicode="H" horiz-adv-x="3219" 
d="M172 -8v143q146 6 213 33.5t91 95t24 215.5v1442q0 192 -57 253.5t-234 61.5h-37v148q67 -1 186 -4.5t237 -5.5t187 -2q66 0 186.5 2.5t239.5 5.5t189 4v-148h-17q-171 0 -243 -71.5t-72 -243.5v-614h1053v614q0 139 -26.5 203.5t-95 87t-210.5 24.5v148
q117 -2 344.5 -9.5t376.5 -7.5q155 0 504 17v-148q-189 0 -258.5 -64t-69.5 -251v-1442q0 -130 28.5 -203t97.5 -104.5t202 -36.5v-143q-410 8 -615 8q-200 0 -610 -8v143q152 11 218.5 37t90 92.5t23.5 214.5v647h-1053v-647q0 -138 30 -207.5t100 -97.5t202 -39v-143
q-410 8 -615 8q-208 0 -610 -8z" />
    <glyph glyph-name="I" unicode="I" horiz-adv-x="1626" 
d="M193 -8v143q145 6 214 32.5t95 95.5t26 216v1442q0 134 -26.5 200t-92 90.5t-192.5 24.5h-24v148q73 -1 203 -4t260.5 -5.5t203.5 -2.5q63 0 177 2t228.5 5.5t176.5 4.5v-148h-17q-173 0 -246 -69t-73 -246v-1442q0 -138 30 -207t100 -97.5t206 -39.5v-143q-418 8 -627 8
q-214 0 -622 -8z" />
    <glyph glyph-name="J" unicode="J" horiz-adv-x="1933" 
d="M848 -385v2273q0 141 -26 211t-102 103t-228 39v147q357 -21 618 -21q268 0 627 21v-147q-140 -11 -206.5 -39t-92 -96t-25.5 -210v-1818q0 -359 -65 -600.5t-304 -354.5q-188 -94 -442 -94q-242 0 -401 94q-80 45 -128 122t-48 153q0 77 52.5 134.5t143.5 66.5q4 0 13 2
t12 2q97 0 138.5 -55t83 -166t81.5 -144q35 -29 82 -29q77 0 135 50q82 76 82 290v66z" />
    <glyph glyph-name="K" unicode="K" horiz-adv-x="2994" 
d="M164 -12v147q128 2 197.5 29t99.5 94t35 193v1491q0 175 -73 237t-259 78v135q327 -20 598 -20q200 0 594 16v-139h-21q-173 0 -227.5 -84.5t-54.5 -276.5v-778l327 373q451 499 455 639v4q0 115 -258 127v131q340 -17 487 -17q175 0 418 21v-135q-145 -14 -240 -70.5
t-202 -179.5l-443 -512l893 -1155q140 -176 308 -197v-151q-313 12 -635 12q-282 0 -566 -12v147h17q100 0 168.5 28.5t68.5 86.5q0 61 -57 135l-541 717l-200 -238v-397q0 -142 22.5 -208.5t88.5 -92t212 -31.5v-147q-434 16 -659 16q-313 0 -553 -16z" />
    <glyph glyph-name="L" unicode="L" horiz-adv-x="2535" 
d="M160 -12v147q200 0 263.5 73.5t63.5 283.5v1470q0 171 -74.5 223.5t-252.5 55.5v143q66 -1 187 -4t241 -5.5t186 -2.5q69 0 189 2t240 5.5t190 4.5v-143q-140 -5 -207.5 -24t-100 -80.5t-32.5 -194.5v-1303q2 -178 38.5 -278t132.5 -144.5t275 -44.5q2 0 6 -2t6 -2
q282 0 444.5 130t227.5 407h144l-13 -709q-132 0 -397 2t-393 2q-228 0 -684 -5t-680 -7z" />
    <glyph glyph-name="M" unicode="M" horiz-adv-x="3449" 
d="M184 -8v143q148 8 215.5 75t83 165.5t17.5 271.5v1487q-59 64 -130.5 86t-189.5 33v131q278 -17 398 -17q134 0 446 17l696 -1651l656 1651q83 -3 170.5 -7.5t160.5 -4.5q43 0 110 1.5t143.5 4.5t132 5.5t143.5 4.5v-139q-143 0 -218.5 -32t-104.5 -108.5t-29 -216.5
v-1450q0 -128 36.5 -193t109.5 -89.5t206 -32.5v-139q-121 2 -365 7t-364 5q-164 0 -484 -8v139q147 19 211.5 46.5t86.5 93t22 212.5v1303l-725 -1790h-168l-762 1839v-1188q0 -182 16.5 -277.5t86.5 -159t225 -79.5v-143q-80 2 -242 7t-242 5q-110 0 -348 -8z" />
    <glyph glyph-name="N" unicode="N" horiz-adv-x="3031" 
d="M180 -12v147q139 22 208.5 69t92.5 130t23 231v1495q-86 109 -148.5 142.5t-195.5 42.5v139q234 -17 336 -17q130 0 417 17l1418 -1622v1065q-3 215 -66.5 311t-265.5 107v139q47 -1 130.5 -4t166.5 -5.5t129 -2.5q44 0 127 2.5t165 5.5t130 4v-139q-197 -8 -262.5 -115
t-65.5 -324v-1859h-201l-1618 1888v-1270q5 -203 73.5 -312.5t254.5 -117.5v-143q-320 8 -491 8q-178 0 -357 -12z" />
    <glyph glyph-name="O" unicode="O" horiz-adv-x="3068" 
d="M2879 1192q0 -266 -106 -500.5t-294 -410.5t-432 -273.5t-507 -97.5q-266 0 -512.5 91.5t-439.5 260t-302.5 398.5t-109.5 495q0 354 178 657.5t483 480.5t666 177q263 0 511.5 -93.5t443.5 -265.5t308 -409t113 -510zM999 2028q-188 -252 -188 -787q0 -12 2 -34t2 -31
q0 -277 61 -514t222.5 -392t437.5 -155q406 0 547 303t145 770q0 395 -126.5 697.5t-454.5 363.5q-67 12 -148 12q-151 0 -282 -58.5t-218 -174.5z" />
    <glyph glyph-name="P" unicode="P" horiz-adv-x="2499" 
d="M184 -8v143q173 18 242.5 72.5t69.5 214.5v1540q0 165 -65 214t-247 65v139q65 -2 194.5 -7.5t219.5 -5.5q81 0 234 4.5t266 4.5h135q329 0 564 -52.5t382 -230.5q111 -139 111 -352q0 -138 -53 -264.5t-152 -206.5q-150 -121 -352 -161t-467 -40q-38 0 -107 2t-102 2
v-647q0 -176 84.5 -233.5t275.5 -57.5v-143q-116 2 -356 7t-356 5q-263 0 -521 -12zM1057 2109v-864h69q249 0 377 74q95 52 140 162t45 243q0 96 -21 189q-34 145 -150 220t-272 75h-24q-164 0 -164 -94v-5z" />
    <glyph glyph-name="Q" unicode="Q" horiz-adv-x="3142" 
d="M1249 -283q12 0 33 2t29 2q277 0 420.5 -32.5t484.5 -155.5q157 -53 274 -53q13 0 39 2t35 2q155 21 262 147q62 70 90 70q41 0 41 -90q-13 -216 -155 -385q-159 -205 -463 -205q-172 0 -300.5 63t-297 195.5t-278.5 201t-255 89.5q-96 12 -98 12q-105 0 -176 -28
t-165 -79t-134 -53h-4q-49 0 -76 27t-27 64q0 35 28 72t71 55q65 26 217.5 72t240.5 79q150 56 320 152q-252 12 -476.5 103t-397.5 254t-268 383t-95 480q4 0 4 13q1 283 110.5 516t300 398t433 252t504.5 87q235 0 430 -57q270 -73 482 -251t327.5 -421.5t115.5 -511.5
q0 -184 -57 -373q-77 -239 -242 -412t-373.5 -287.5t-456 -209zM815 1155q2 -252 71 -495.5t229.5 -406t416.5 -163.5q700 0 700 1114q0 192 -33.5 377t-111.5 339t-219 249.5t-344 95.5h-33q-247 -11 -400 -177t-216.5 -406.5t-63.5 -493.5q0 -6 2 -18t2 -15z" />
    <glyph glyph-name="R" unicode="R" horiz-adv-x="2916" 
d="M135 -8v147q150 5 225.5 30.5t107.5 96.5t32 217v1483q0 182 -78.5 229t-286.5 50v143q115 -3 236 -7.5t223 -4.5q45 0 141 4t142 4q40 1 201.5 6.5t248.5 5.5q587 0 819 -213q160 -153 160 -401q0 -166 -82 -299q-143 -234 -512 -295q91 -53 150.5 -127t165.5 -225
l344 -484q144 -197 331 -233v-131q-69 2 -212 7t-214 5q-97 0 -303 -8l-569 819q-87 126 -117.5 163.5t-90.5 68t-153 30.5v-610q0 -139 35 -207t105 -90t209 -27v-147q-484 8 -729 8q-185 0 -529 -8zM1044 2089v-852q14 0 46 -2t49 -2q179 0 302.5 37.5t192.5 159.5
q70 126 70 299q0 181 -74 311q-106 184 -405 184h-82q-99 -10 -99 -135z" />
    <glyph glyph-name="S" unicode="S" horiz-adv-x="2081" 
d="M0 0h180q13 200 13 377q0 175 -13 381h164q70 -280 219 -459.5t395 -179.5q62 0 91 4q161 17 258.5 126t97.5 247q0 178 -152 299q-109 82 -323.5 175t-329.5 156t-223 189q-160 185 -160 450q0 229 119 398q207 274 627 274q302 0 553 -184l45 151h168q0 -329 12 -667
h-160q-86 316 -287 446q-127 78 -307 78q-65 0 -98 -4q-114 -24 -186 -110t-72 -201q0 -194 258 -316l259 -113t238.5 -115t213 -139t165.5 -178q115 -165 115 -393q0 -184 -86 -356q-108 -196 -317 -292.5t-449 -96.5h-16q-193 0 -333 52t-290 173l-41 -172h-348z" />
    <glyph glyph-name="T" unicode="T" horiz-adv-x="2687" 
d="M1024 422v1761q-207 0 -317 -10t-197.5 -53t-146 -140.5t-93.5 -279.5h-143l29 684q440 -21 1069 -21q362 0 1233 17l32 -680h-139q-43 219 -124.5 321.5t-204 132t-334.5 29.5h-99v-1761q0 -126 40.5 -186.5t113 -79t211.5 -25.5v-143q-101 2 -301 7t-297 5
q-114 0 -342 -5t-338 -7v143q131 9 202 28.5t108.5 78.5t37.5 184z" />
    <glyph glyph-name="U" unicode="U" horiz-adv-x="3068" 
d="M479 963v868q0 160 -20 239t-88.5 119.5t-223.5 55.5v139q63 -1 177 -4.5t228 -5.5t177 -2q217 0 651 16v-143q-152 -16 -222 -49.5t-96 -109.5t-26 -231v-925q0 -240 49.5 -403t181.5 -257t371 -94l9 4q286 4 439 103.5t207 282t54 466.5v815q0 212 -64.5 296
t-263.5 110v131q315 -17 443 -17q123 0 401 17v-139q-138 -27 -203.5 -67t-90 -113.5t-29.5 -217.5v-815q0 -183 -13 -313.5t-60 -259t-140 -230.5q-255 -290 -816 -290q-556 0 -827 286q-126 127 -165.5 309.5t-39.5 428.5z" />
    <glyph glyph-name="V" unicode="V" horiz-adv-x="2765" 
d="M41 2380q81 -2 222 -7.5t245 -5.5q106 0 762 21v-152q-160 0 -231.5 -34t-71.5 -117q0 -72 53 -197l467 -1237l385 979q110 255 110 426v25q-3 98 -90.5 126.5t-212.5 28.5v148q228 -12 451 -12q227 0 455 12v-148q-130 -10 -205.5 -55t-120.5 -118.5t-100 -207.5
l-779 -1908h-176l-811 2031q-55 148 -125.5 200t-226.5 58v144z" />
    <glyph glyph-name="W" unicode="W" horiz-adv-x="3674" 
d="M90 2388q338 -21 590 -21q171 0 590 17v-135q-155 -9 -223 -46.5t-68 -121.5q0 -25 49 -201l348 -1118l529 1622h172l553 -1622l286 917q74 254 74 340q0 216 -291 222v143q99 -3 202 -7.5t191 -4.5q132 0 394 16v-147q-105 -20 -157 -59t-71 -81.5t-71 -195.5
l-647 -1958h-181l-544 1597l-525 -1597h-184l-688 2040q-44 135 -114 187.5t-214 74.5v139z" />
    <glyph glyph-name="X" unicode="X" horiz-adv-x="2916" 
d="M156 -8v139q273 45 528 352l487 590l-589 803q-114 161 -216 253.5t-247 119.5v139q343 -21 590 -21q190 0 651 17v-135q-258 -17 -258 -127q0 -53 57 -127l361 -500l303 369q119 142 119 237q0 129 -267 148v139q252 -21 430 -21q148 0 480 17v-135q-132 -11 -234 -77
t-165.5 -141t-198.5 -249l-361 -434l754 -1012q73 -100 144 -141.5t192 -55.5v-147q-378 8 -578 8q-234 0 -692 -8v147q141 0 218 20.5t77 86.5q0 71 -78 172l-381 508l-373 -459q-94 -114 -94 -184q0 -128 270 -148v-143q-93 2 -273 7t-267 5q-198 0 -389 -12z" />
    <glyph glyph-name="Y" unicode="Y" horiz-adv-x="2728" 
d="M680 -8v143q140 7 209.5 28t104 84.5t34.5 198.5v480l-565 1024q-63 112 -98 161.5t-92.5 83t-161.5 54.5v135q58 -1 164 -4.5t211 -5.5t165 -2q68 0 189.5 2t243.5 5.5t190 4.5v-139q-270 -18 -270 -140q0 -32 17.5 -74.5t64.5 -131t57 -109.5l348 -635l352 578
q139 218 139 340q0 53 -16 86q-34 51 -94 64t-148 18v139q56 -2 156 -7.5t172 -5.5q103 0 244 5.5t215 7.5v-139q-177 -36 -275 -193l-651 -1077v-508q1 -139 35 -207t105 -91t217 -30v-143q-452 8 -680 8q-206 0 -582 -8z" />
    <glyph glyph-name="Z" unicode="Z" horiz-adv-x="2273" 
d="M102 152l1303 2043q-35 0 -123.5 2.5t-171.5 2.5q-350 0 -496 -70q-191 -92 -254 -401h-131v643h1823v-152l-1302 -2032h467q200 0 340.5 53.5t227.5 172t124 311.5h139l-37 -725h-1909v152z" />
    <glyph glyph-name="bracketleft" unicode="[" horiz-adv-x="1286" 
d="M270 -700v3072h811v-140h-450v-2789h450v-143h-811z" />
    <glyph glyph-name="backslash" unicode="\" horiz-adv-x="1319" 
d="M45 2433h176l893 -2761h-168z" />
    <glyph glyph-name="bracketright" unicode="]" horiz-adv-x="1171" 
d="M967 -700h-811v143h446v2789h-446v140h811v-3072z" />
    <glyph glyph-name="asciicircum" unicode="^" horiz-adv-x="1626" 
d="M410 1798l397 602h229l398 -602h-131l-381 336l-385 -336h-127z" />
    <glyph glyph-name="underscore" unicode="_" horiz-adv-x="2007" 
d="M41 -479h1774v-357h-1774v357z" />
    <glyph glyph-name="grave" unicode="`" horiz-adv-x="1434" 
d="M1225 1798h-127l-520 316q-148 84 -148 188q0 48 34.5 79.5t88.5 31.5q110 0 192 -99z" />
    <glyph glyph-name="a" unicode="a" horiz-adv-x="2007" 
d="M1053 176q-128 -104 -239 -161t-236 -60h-29q-280 0 -377 205q-45 110 -45 188q0 109 57 212t156 169q128 84 385 180l153.5 53t100.5 42q86 40 86 143v65q0 199 -123 242q-40 8 -74 8q-116 0 -184 -82q-29 -32 -61.5 -110t-51.5 -113t-67 -63q-65 -37 -115 -37
q-76 0 -132 65.5t-56 147.5q0 86 61 160q74 77 245.5 126.5t369.5 49.5q277 0 468 -112.5t191 -354.5v-836q0 -102 57 -102q36 0 123 53l74 -94q-68 -95 -184 -150t-234 -55q-131 0 -203 50t-116 171zM680 303q42 -65 123 -65q88 0 167 74t79 167v389
q-141 -42 -243.5 -101.5t-146.5 -160.5q-28 -96 -28 -151q0 -97 49 -152z" />
    <glyph glyph-name="b" unicode="b" horiz-adv-x="2122" 
d="M754 1446q202 160 434 160q185 0 350.5 -103.5t264 -286t98.5 -409.5q-3 -218 -82 -401.5t-233.5 -303.5t-368.5 -143h-115q-290 0 -463 168l-373 -172v2179q0 90 -51.5 114.5t-157.5 32.5v132q462 40 697 114v-1081zM737 446q0 -130 66 -214.5t196 -84.5q385 0 385 648
q0 221 -79 407.5t-261 186.5q-25 0 -90 -9q-142 -35 -179.5 -148.5t-37.5 -301.5v-484z" />
    <glyph glyph-name="c" unicode="c" horiz-adv-x="1851" 
d="M1544 410l115 -111q-172 -223 -402 -299q-146 -45 -315 -45q-172 0 -295 45q-156 59 -264.5 173t-163.5 261.5t-55 306.5q0 183 70 354t200 285q239 222 610 222q67 0 205 -17q333 -51 389 -262q9 -56 9 -70q0 -83 -54 -139.5t-143 -56.5h-8q-78 0 -121 44t-82 135.5
t-51 111.5q-71 106 -180 106q-69 0 -134 -47.5t-96 -120.5q-94 -221 -94 -483q0 -215 70.5 -384.5t216.5 -221.5q77 -29 139 -29q119 0 232.5 67t201.5 175z" />
    <glyph glyph-name="d" unicode="d" horiz-adv-x="2347" 
d="M1458 -41l-37 283q-208 -287 -524 -287q-79 0 -160 12q-185 27 -315 146.5t-195.5 292.5t-70.5 360q0 2 -2 8t-2 8q0 239 108 428t285.5 294.5t372.5 105.5q282 0 495 -213v729q0 111 -65.5 139.5t-208.5 36.5v127q495 23 762 98v-2162q0 -87 62.5 -113t174.5 -35v-123
q-343 -42 -680 -135zM1405 1012q0 155 -91.5 261.5t-244.5 106.5h-4q-207 -5 -290 -184.5t-83 -421.5q0 -9 2 -34t2 -35q4 -195 85 -345.5t251 -150.5q2 0 11 2t10 2q178 6 263.5 120t88.5 298v381z" />
    <glyph glyph-name="e" unicode="e" horiz-adv-x="1929" 
d="M1589 410l119 -107q-124 -175 -312 -263.5t-392 -88.5q-220 0 -417.5 98t-318.5 284t-121 433v61q16 239 139 414.5t320 268t426 92.5q78 0 115 -5q157 -15 293 -99t211 -220q78 -140 86 -430h-1045q0 -3 -2 -19t-2 -22q0 -575 397 -635q11 0 33 -2t33 -2q218 0 438 242z
M1004 1458q-154 0 -233 -136.5t-79 -305.5h582q0 438 -270 442z" />
    <glyph glyph-name="f" unicode="f" horiz-adv-x="1778" 
d="M98 -12v123q150 6 209 58t62 196v1032h-258v168h258q0 30 -2 95t-2 97q0 367 135 541q183 229 557 229q125 0 229 -24q137 -25 208 -104.5t71 -170.5q0 -78 -50 -131t-135 -53q-108 0 -145 46t-77.5 145.5t-92.5 127.5q-27 9 -49 9q-70 0 -107 -58q-53 -78 -53 -291v-458
h438v-168h-430v-1032q3 -161 83 -204t265 -50v-119q-368 8 -557 8q-279 0 -557 -12z" />
    <glyph glyph-name="g" unicode="g" horiz-adv-x="2159" 
d="M573 537q-159 57 -251.5 195.5t-92.5 299.5q0 183 107 320q95 127 243 188.5t322 61.5q274 0 488 -119q190 151 344 151q49 0 69 -4q66 -9 115 -64.5t49 -123.5q0 -42 -16 -70q-41 -86 -140 -86q-40 0 -81 29q-117 94 -156 94q-43 0 -86 -29q131 -157 131 -364
q0 -164 -90 -291q-80 -114 -196 -165t-259.5 -62.5t-246 -18.5t-150.5 -37q-82 -51 -82 -135q0 -41 37 -78q36 -29 283 -37t406 -25t273 -89q213 -130 213 -414q0 -104 -33.5 -205t-99 -183.5t-153.5 -127.5q-240 -127 -631 -127q-225 0 -406 61.5t-266 188.5
q-53 82 -53 176q0 106 79 184t171 78q49 0 96.5 -31t67.5 -84q-111 -34 -111 -135q0 -63 48.5 -129t115.5 -96q126 -57 319 -57q132 0 247.5 33t192 106.5t85.5 187.5v25q0 121 -102 172t-292.5 60.5t-349 15.5t-252.5 39q-112 40 -179 131.5t-67 199.5q0 119 87 228
t253 162zM709 1044q0 -180 36.5 -303t172.5 -123q2 0 5.5 2.5t6.5 2.5q130 5 169.5 108.5t39.5 263.5v74q0 172 -39.5 289t-173.5 117q-142 0 -179.5 -123.5t-37.5 -307.5z" />
    <glyph glyph-name="h" unicode="h" horiz-adv-x="2310" 
d="M127 -4v123q125 7 177.5 44t55.5 161v1740q0 127 -42 167t-171 46v123q405 42 705 127v-1200q246 275 553 275q32 0 115 -9q217 -38 299 -193.5t82 -395.5v-746q0 -91 45 -113t155 -30v-119q-110 4 -336 4q-193 0 -569 -8v123q128 9 164.5 48.5t36.5 168.5v672
q0 163 -45 251t-189 88h-8q-155 -6 -229 -132t-74 -289v-557q0 -3 -2 -15t-2 -14q0 -117 39 -166t153 -55v-123q-344 8 -532 8q-254 0 -381 -4z" />
    <glyph glyph-name="i" unicode="i" horiz-adv-x="1286" 
d="M147 -8v131q132 10 179 41.5t47 146.5v840q0 125 -47 166t-179 47v123q262 30 504 78q34 7 82.5 21.5t80.5 21t63 6.5v-1303q0 -116 47 -147t178 -41v-127q-78 0 -238 2t-237 2q-160 0 -480 -8zM762 2462q119 -82 119 -242q0 -38 -17 -106q-34 -76 -110 -126.5
t-160 -50.5q-8 0 -22 2.5t-23 2.5q-99 18 -166.5 100.5t-67.5 181.5q0 20 21 107q34 82 104.5 127t157.5 45q86 0 164 -41z" />
    <glyph glyph-name="j" unicode="j" horiz-adv-x="1438" 
d="M729 -545v1594q-2 122 -22 179.5t-76 82t-172 32.5v119q243 29 422 66q22 4 145.5 39t190.5 35v-1876q0 -108 -31.5 -217.5t-91.5 -203t-144 -153.5q-171 -135 -454 -135q-169 0 -295 57q-93 42 -141 109t-48 133q0 69 46 122t122 62q10 0 25 2t20 2q88 0 124.5 -45.5
t78 -141t84.5 -120.5q27 -16 66 -16q72 0 111.5 93.5t39.5 180.5zM864 1954q-101 18 -167 99.5t-66 182.5q0 41 24 107q31 78 102.5 125t155.5 47q95 0 164 -41q119 -81 119 -242q0 -69 -16 -106q-30 -76 -107 -128t-164 -52q-6 0 -22 4t-23 4z" />
    <glyph glyph-name="k" unicode="k" horiz-adv-x="2195" 
d="M123 -4v123q124 10 172.5 46.5t48.5 145.5v1737q0 118 -49 161.5t-172 43.5v131q365 12 708 143v-1736l320 319q176 169 176 242q0 91 -205 102v115q280 -8 418 -8q123 0 369 8v-115q-249 -53 -393 -192l-263 -271l607 -798q13 -30 56 -50t79 -20v-131q-214 8 -324 8
q-151 0 -221 -8l-500 696l-119 -110q0 -62 -6 -146t-6 -108q0 -98 45.5 -141.5t184.5 -63.5v-127q-164 16 -381 16q-92 0 -276 -5t-269 -7z" />
    <glyph glyph-name="l" unicode="l" horiz-adv-x="1319" 
d="M139 -8v127q131 3 184.5 38.5t53.5 153.5v1819q0 74 -59 98t-162 33v127q337 11 712 139v-2216q0 -106 60 -145.5t178 -46.5v-127q-344 16 -524 16q-251 0 -443 -16z" />
    <glyph glyph-name="m" unicode="m" horiz-adv-x="3256" 
d="M135 -8v131q120 16 164.5 54t44.5 151v815q0 118 -42 168t-163 53v123q187 20 439 78q24 5 70.5 18.5t78.5 20t64 6.5l24 -320q218 305 553 312h21q319 0 442 -299q227 303 545 303q74 0 192 -29q176 -59 231.5 -186.5t55.5 -337.5v-693q0 -4 -2 -16t-2 -16
q0 -121 40 -158.5t173 -46.5v-131q-288 8 -447 8q-148 0 -442 -8v127q125 12 161.5 59t39.5 182v717q0 275 -205 275h-12q-158 -8 -237 -149.5t-79 -313.5v-520q0 -136 30.5 -185.5t154.5 -60.5v-131q-312 8 -476 8q-127 0 -389 -8v131q84 7 124 27t54 62t19 132v750
q0 258 -197 258h-20q-154 -5 -235 -148.5t-81 -314.5v-520q0 -85 12 -134t53.5 -77.5t123.5 -34.5v-131q-296 8 -443 8q-142 0 -438 -8z" />
    <glyph glyph-name="n" unicode="n" horiz-adv-x="2310" 
d="M135 -8v127q134 6 176 40.5t45 159.5v791q0 140 -44 183t-177 55v131q167 10 406 61q182 53 258 53l20 -303q250 312 586 312q37 0 111 -9q385 -68 385 -557v-717q0 -122 39.5 -154.5t168.5 -45.5v-127q-294 8 -454 8q-155 0 -451 -8v127q119 0 160 40t41 160v717
q0 133 -50.5 220t-158.5 87q-20 0 -70 -8q-141 -30 -209.5 -158t-68.5 -284v-557q-4 0 -4 -12q0 -110 49.5 -157.5t163.5 -47.5v-127q-304 8 -459 8q-159 0 -463 -8z" />
    <glyph glyph-name="o" unicode="o" horiz-adv-x="2081" 
d="M1896 782q0 -230 -117 -433t-316.5 -323t-430.5 -120q-235 0 -444.5 117.5t-335 321.5t-125.5 446q0 230 121.5 425t322.5 308.5t433 113.5q233 0 439 -114t329.5 -311t123.5 -431zM1020 1454q-156 -1 -235 -111.5t-100 -255.5t-21 -325q0 -14 -2.5 -31.5t-2.5 -25.5
q0 -607 349 -607q227 3 289.5 203t62.5 498q0 268 -63.5 461.5t-276.5 193.5z" />
    <glyph glyph-name="p" unicode="p" horiz-adv-x="2273" 
d="M98 -991v123q110 14 161 31t76 64.5t25 149.5v1667q0 154 -46 231t-195 77v139q108 9 295 33q62 10 148 32.5t138 34t115 11.5v-304q118 136 223 210.5t244 88.5q11 0 31 2.5t39 2.5q173 0 325.5 -82.5t256.5 -227t134 -317.5q17 -132 17 -201q0 -229 -97.5 -417.5
t-263 -297t-360.5 -108.5q-273 0 -520 201v-746q0 -112 22 -165.5t76.5 -75.5t171.5 -33v-123q-252 12 -508 12q-250 0 -508 -12zM844 918v-365q0 -168 79.5 -274.5t239.5 -106.5l8 4q372 9 381 569v46q0 213 -72.5 378.5t-254.5 178.5h-33q-165 0 -256.5 -128.5
t-91.5 -301.5z" />
    <glyph glyph-name="q" unicode="q" horiz-adv-x="2007" 
d="M1036 -991v131q122 10 169.5 19.5t78 51.5t31.5 138v819q-231 -217 -459 -217q-104 0 -201 29q-162 42 -276.5 159t-173 275.5t-58.5 322.5q0 4 2.5 15t2.5 18q6 188 73 342.5t179 263.5t254.5 167.5t299.5 58.5q279 0 521 -168l254 168h69v-2253q0 -1 -2 -11t-2 -14
q0 -99 48.5 -140t160.5 -44v-131q-258 12 -532 12q-217 0 -439 -12zM1315 610v430q0 173 -49.5 283.5t-200.5 118.5h-25q-144 0 -226.5 -105t-112 -251t-29.5 -295q0 -6 -2 -19t-2 -14q0 -578 340 -578q179 3 243 120t64 310z" />
    <glyph glyph-name="r" unicode="r" horiz-adv-x="1778" 
d="M147 -4v127q222 24 222 176v733q0 168 -38.5 243.5t-183.5 80.5v127q144 16 324 45q32 6 152 42t188 36l29 -308q209 295 454 295q81 0 144 -28q65 -29 100 -95t35 -139t-39 -129.5t-117 -75.5q-60 -12 -61 -12q-70 0 -100.5 27.5t-86 94.5t-92.5 67q-94 0 -151.5 -117
t-57.5 -219v-668q0 -113 59 -142.5t191 -33.5v-127q-83 0 -245 2t-242 2q-83 0 -244 -2t-240 -2z" />
    <glyph glyph-name="s" unicode="s" horiz-adv-x="1667" 
d="M209 -25q8 172 8 263q0 90 -8 262h127q54 -159 188.5 -280.5t290.5 -121.5q62 0 115 21q168 49 168 176q0 67 -51 130t-138 95q-28 11 -149 52t-209 79.5t-157.5 91t-110.5 125.5q-54 108 -54 217q0 171 95 312q64 103 187 156t267 53q252 0 406 -136l65 119h135
q-4 -78 -4 -237q0 -156 4 -234h-135q-50 134 -174.5 237t-263.5 103q-61 0 -123 -24q-50 -19 -84.5 -65t-34.5 -95q0 -1 2 -11t2 -14q14 -87 79.5 -122t203.5 -74q185 -61 308 -120t200 -159q98 -120 98 -307q0 -161 -78 -279q-75 -116 -222 -178.5t-310 -62.5
q-286 0 -455 155l-53 -127h-135z" />
    <glyph glyph-name="t" unicode="t" horiz-adv-x="1434" 
d="M303 438v963h-180v139q204 46 324 174t208 346h136v-495h368v-164h-368v-1032q0 -89 30.5 -135t75.5 -46q47 0 107 41t102 103l119 -103q-185 -274 -516 -274q-229 0 -319.5 116.5t-90.5 342.5q0 2 2 12t2 12z" />
    <glyph glyph-name="u" unicode="u" horiz-adv-x="2273" 
d="M336 455v700q0 116 -9.5 165.5t-52.5 78t-147 43.5v123q463 0 696 8v-1094q0 -111 48.5 -188.5t148.5 -77.5q5 0 25 4t28 4q183 28 243 182.5t60 378.5v394q0 109 -13.5 159t-58 73t-145.5 34v123q235 2 397 2.5t308 5.5v-1208q0 -97 49.5 -124.5t150.5 -27.5q2 0 9 2
t8 2v-123q-241 -33 -434 -78q-200 -41 -230 -41l-28 291q-110 -142 -257 -224.5t-313 -82.5h-53q-227 22 -328.5 145.5t-101.5 350.5z" />
    <glyph glyph-name="v" unicode="v" horiz-adv-x="2007" 
d="M836 -20l-553 1232q-46 108 -96 162t-146 68v123q79 0 191 -4.5t174 -4.5q121 0 288.5 5.5t255.5 7.5v-123q-94 -11 -143 -32.5t-49 -74.5q0 -32 24 -82l303 -708l123.5 262.5t108 260t59.5 239.5v16q0 65 -46.5 85t-141.5 34v123q148 -8 229 -8q63 0 194 4t195 4v-123
q-165 -28 -250 -221l-569 -1245h-151z" />
    <glyph glyph-name="w" unicode="w" horiz-adv-x="2765" 
d="M754 -16l-467 1200q-53 134 -95 188t-151 78v119q135 -4 414 -4q344 0 512 4v-119q-226 -13 -226 -127q0 -6 29 -115l225 -590l398 951h139l369 -1008l200 508q66 150 66 234q0 36 -4 49q-13 56 -63.5 72.5t-153.5 33.5v115q204 -8 315 -8t315 8v-123q-93 -15 -146 -72.5
t-90 -146l-71 -174.5l-446 -1073h-152l-385 921l-373 -921h-159z" />
    <glyph glyph-name="x" unicode="x" horiz-adv-x="2273" 
d="M160 -8v127q233 25 381 196l323 369l-512 627q-90 107 -205 123v131q99 0 236.5 -4.5t214.5 -4.5q110 0 265.5 5.5t242.5 7.5v-127q-65 0 -114.5 -19t-49.5 -55q0 -32 33 -70l233 -270l104 101.5t104 121.5t46 109v4q-1 35 -31.5 51t-86 21t-62.5 6v123q69 0 167 -4.5
t148 -4.5q61 0 174 4.5t195 4.5v-119q-116 -14 -200.5 -72.5t-184.5 -169.5l-278 -303l507 -639q76 -99 254 -143v-127q-294 8 -450 8q-185 0 -545 -8v127q176 0 176 69q0 41 -45 91l-242 278l-97 -101t-116 -138.5t-49 -116.5h4q5 -30 22 -46.5t46 -25.5t57.5 -12t46.5 -6
v-119q-236 8 -356 8q-118 0 -356 -8z" />
    <glyph glyph-name="y" unicode="y" horiz-adv-x="2081" 
d="M909 -12l-532 1229q-48 109 -64 138t-53 52.5t-121 38.5v127q234 -12 479 -12q219 0 435 12v-127q-105 -7 -149 -25t-44 -69q0 -42 33 -119l270 -701l213 467q86 208 86 308q0 49 -4 69q-24 70 -188 70v127q212 -8 315 -8t307 8v-127q-76 -7 -137 -68t-107 -150
t-94.5 -212.5t-62.5 -151.5l-573 -1253l-81.5 -176t-100 -189.5t-121 -149.5t-152.5 -79q-10 0 -29 -2t-24 -2q-82 0 -142 49t-63 127q0 4 -2 14t-2 15q0 106 87.5 166.5t207.5 74.5q122 17 163 66q44 46 86 121t99.5 201.5t64.5 140.5z" />
    <glyph glyph-name="z" unicode="z" horiz-adv-x="1741" 
d="M0 0h111v119l827 1294h-123q-155 0 -245.5 -21t-156.5 -98.5t-102 -236.5h-147l37 508h1306v-131l-815 -1278q37 0 97 -2t88 -2q150 0 242.5 25.5t157.5 109.5t103 258h140l-33 -545h-1487z" />
    <glyph glyph-name="braceleft" unicode="{" horiz-adv-x="1700" 
d="M1516 2630v-107q-160 -7 -239.5 -61t-102.5 -140.5t-23 -232.5q0 -20 2 -68t2 -71v-201q0 -186 -27 -302.5t-120 -203.5t-287 -141q192 -54 286 -141.5t121 -204.5t27 -301v-201q0 -26 -2 -81t-2 -79q0 -137 24 -221t103.5 -133t237.5 -55v-103q-250 3 -390 40
t-206.5 120t-85.5 215.5t-19 386.5v115q0 203 -26.5 310.5t-126.5 173t-314 93.5v131q215 26 314.5 93.5t126 178t26.5 318.5v103q0 330 41 479.5t186.5 215.5t473.5 75z" />
    <glyph glyph-name="bar" unicode="|" horiz-adv-x="1319" 
d="M750 2716h360v-3552h-360v3552z" />
    <glyph glyph-name="braceright" unicode="}" horiz-adv-x="1700" 
d="M336 2630q329 -9 475.5 -75t189.5 -217t43 -478q0 -19 -2 -58t-2 -57q0 -206 27 -314t127.5 -173t316.5 -91v-131q-215 -28 -315 -92t-128 -169t-28 -304q0 -18 2 -61t2 -66q0 -329 -41.5 -478.5t-187.5 -214t-479 -69.5v103q159 6 238.5 54.5t102.5 131t23 223.5v160
q0 37 -2 104t-2 97q0 185 28.5 301.5t123 204t287.5 141.5q-195 54 -288.5 140.5t-122 203.5t-28.5 303q0 27 2 97t2 104v151q0 141 -23.5 225.5t-102 135.5t-238.5 61v107z" />
    <glyph glyph-name="asciitilde" unicode="~" horiz-adv-x="1626" 
d="M1409 2347q-88 -397 -332 -397q-64 0 -189 34.5t-179 34.5q-132 0 -181 -155h-98q87 397 332 397q70 0 198 -33t175 -33q131 0 176 152h98z" />
    <glyph glyph-name="bullet" horiz-adv-x="1475" 
d="M565 1016q0 141 99.5 240.5t240.5 99.5q145 0 246.5 -99.5t101.5 -240.5t-101.5 -240.5t-246.5 -99.5q-141 0 -240.5 99.5t-99.5 240.5z" />
    <glyph glyph-name="quotesinglbase" unicode="&#x201a;" 
 />
    <glyph glyph-name="florin" unicode="&#x192;" 
 />
    <glyph glyph-name="quotedblbase" unicode="&#x201e;" 
 />
    <glyph glyph-name="ellipsis" unicode="&#x2026;" 
 />
    <glyph glyph-name="dagger" unicode="&#x2020;" 
 />
    <glyph glyph-name="daggerdbl" unicode="&#x2021;" 
 />
    <glyph glyph-name="perthousand" unicode="&#x2030;" 
 />
    <glyph glyph-name="Scaron" unicode="&#x160;" 
 />
    <glyph glyph-name="guilsinglleft" unicode="&#x2039;" horiz-adv-x="2728" 
d="M2540 2073v-381l-1549 -635l1549 -631v-381l-2044 844v344z" />
    <glyph glyph-name="OE" unicode="&#x152;" 
 />
    <glyph glyph-name="quoteleft" unicode="&#x2018;" horiz-adv-x="1130" 
d="M930 2531l-8 -118q-126 -7 -226 -73t-106 -186q0 -79 78 -86q111 0 188.5 -64t77.5 -173t-77.5 -185.5t-184.5 -76.5q-155 0 -241.5 126t-86.5 292q0 173 76 296t209.5 185.5t300.5 62.5z" />
    <glyph glyph-name="quoteright" unicode="&#x2019;" horiz-adv-x="1245" 
d="M446 1569l9 127q121 0 225.5 68t110.5 182q0 90 -82 90q-106 0 -186.5 66t-80.5 171q0 109 78.5 183.5t188.5 74.5q152 0 237.5 -124.5t85.5 -284.5q0 -261 -162.5 -405.5t-423.5 -147.5z" />
    <glyph glyph-name="quotedblleft" unicode="&#x201c;" horiz-adv-x="1892" 
d="M926 2531l-4 -118q-129 -7 -229.5 -73t-106.5 -186q0 -79 78 -86q111 0 188.5 -64t77.5 -173t-77.5 -185.5t-184.5 -76.5q-157 0 -242.5 126t-85.5 292q0 173 76 296t209.5 185.5t300.5 62.5zM1688 2531l-9 -118q-124 -7 -226.5 -73.5t-109.5 -185.5q0 -79 78 -86
q114 0 190.5 -63.5t76.5 -173.5q0 -109 -78.5 -185.5t-184.5 -76.5q-156 0 -241.5 126t-85.5 292q0 173 76.5 296.5t211 185.5t302.5 62z" />
    <glyph glyph-name="quotedblright" unicode="&#x201d;" horiz-adv-x="1892" 
d="M1094 1569l8 127q123 0 226 67t106 183q0 90 -74 90q-109 0 -189.5 64t-80.5 173t77.5 183.5t184.5 74.5q155 0 241 -124t86 -285q0 -261 -161.5 -405.5t-423.5 -147.5zM336 1569l8 127q122 0 226 68t110 182q0 90 -78 90q-108 0 -187 65.5t-79 171.5q0 110 76.5 184
t185.5 74q102 0 176 -60t111 -155.5t37 -193.5q0 -261 -162.5 -405.5t-423.5 -147.5z" />
    <glyph glyph-name="emdash" unicode="&#x2013;" horiz-adv-x="1815" 
d="M246 926h1376v-303h-1376v303z" />
    <glyph glyph-name="endash" unicode="&#x2014;" horiz-adv-x="2765" 
d="M270 926h2282v-303h-2282v303z" />
    <glyph glyph-name="trademark" unicode="&#x2122;" 
 />
    <glyph glyph-name="scaron" unicode="&#x161;" 
 />
    <glyph glyph-name="guilsinglright" unicode="&#x203a;" horiz-adv-x="2728" 
d="M496 2073l2044 -840v-344l-2044 -844v381l1552 631l-1552 635v381z" />
    <glyph glyph-name="oe" unicode="&#x153;" 
 />
    <glyph glyph-name="Ydieresis" unicode="&#x178;" horiz-adv-x="2232" 
d="M1192 688l-500 -696q-69 8 -225 8q-106 0 -320 -8v131q36 0 79.5 19.5t56.5 50.5l389 540l-8 -4q-162 0 -273.5 123.5t-111.5 306.5q0 181 113 272.5t271 116.5t373 25h107q310 -8 438 -8q136 0 438 8v-123q-91 -7 -135 -23t-64.5 -59t-21.5 -127v-930q0 -108 48.5 -145
t172.5 -47v-123q-85 2 -271 7t-278 5q-212 0 -376 -16v127q129 17 173 57.5t44 130.5q0 36 -6.5 122.5t-6.5 148.5v163q-75 0 -106 -53zM1303 885v360q0 130 -33 167.5t-168 37.5q-320 0 -320 -279q0 -124 60 -205t166 -81h295z" />
    <glyph glyph-name="exclamdown" unicode="&#xa1;" horiz-adv-x="2728" 
d="M1323 578l-741 1298q-220 373 -463 373v139q343 -21 590 -21q190 0 651 17v-135q-110 -7 -192.5 -53t-82.5 -115q0 -27 25 -66l483 -868l344 778q58 164 58 201q0 106 -238 123v139q252 -21 365 -21q69 0 401 17v-119q-119 0 -198.5 -59t-127 -141.5t-120.5 -245.5
l-668 -1434q-113 -230 -258 -328t-336 -98q-105 0 -191.5 61.5t-86.5 176.5q0 112 68.5 178.5t160.5 66.5q71 0 105.5 -21t90.5 -65.5t95 -44.5q57 0 112.5 37.5t75.5 81.5zM1311 2736q-133 0 -255 55.5t-200 168t-78 272.5h168q0 -217 365 -217q409 0 409 213v4h168
q0 -158 -88 -271.5t-221 -169t-268 -55.5z" />
    <glyph glyph-name="cent" unicode="&#xa2;" horiz-adv-x="2081" 
d="M909 -12l-532 1229q-48 109 -64 138t-53 52.5t-121 38.5v127q234 -12 479 -12q219 0 435 12v-127q-105 -7 -149 -25t-44 -69q0 -42 33 -119l270 -701l213 467q86 208 86 308q0 49 -4 69q-24 70 -188 70v127q212 -8 315 -8t307 8v-127q-76 -7 -137 -68t-107 -150
t-94.5 -212.5t-62.5 -151.5l-573 -1253l-81.5 -176t-100 -189.5t-121 -149.5t-152.5 -79q-10 0 -29 -2t-24 -2q-82 0 -142 49t-63 127q0 4 -2 14t-2 15q0 106 87.5 166.5t207.5 74.5q122 17 163 66q44 46 86 121t99.5 201.5t64.5 140.5zM1118 1753q-209 0 -370.5 129.5
t-161.5 366.5h168q0 -217 364 -217q410 0 410 209v8h172q0 -158 -89 -271t-224 -169t-269 -56z" />
    <glyph glyph-name="sterling" unicode="&#xa3;" horiz-adv-x="2081" 
d="M201 1372h1683v-229h-1683v229zM1040 2064q75 0 130 -55t55 -129t-56 -129t-129 -55q-72 0 -128 56t-56 128t55 128t129 56zM1040 815q76 0 128.5 -53.5t52.5 -130.5q0 -75 -54 -130t-127 -55q-72 0 -128 56t-56 129q0 76 53 130t131 54z" />
    <glyph glyph-name="currency" unicode="&#xa4;" horiz-adv-x="2462" 
d="M201 340l340 340q-176 279 -176 541q0 235 167 532l-335 340l151 156l344 -344q244 172 537 172q237 0 532 -176l353 352l155 -156l-356 -352q164 -289 164 -545q0 -224 -164 -508l348 -352l-152 -156l-344 348q-283 -172 -536 -172q-259 0 -533 164l-340 -340z
M1753 1217q0 140 -70 261.5t-191 194t-259 72.5q-143 0 -266 -71.5t-195 -193.5t-72 -263q0 -142 73 -264t196 -193.5t264 -71.5q138 0 259 72.5t191 194t70 262.5z" />
    <glyph glyph-name="yen" unicode="&#xa5;" horiz-adv-x="1475" 
d="M565 1016q0 141 99.5 240.5t240.5 99.5q145 0 246.5 -99.5t101.5 -240.5t-101.5 -240.5t-246.5 -99.5q-141 0 -240.5 99.5t-99.5 240.5z" />
    <glyph glyph-name="brokenbar" unicode="&#xa6;" horiz-adv-x="1094" 
d="M590 2367h303v-1232h-303v1232zM590 545h303v-1139h-303v1139z" />
    <glyph glyph-name="section" unicode="&#xa7;" horiz-adv-x="1966" 
d="M1458 283q160 -166 160 -389q0 -171 -104.5 -305t-266 -205.5t-329.5 -71.5q-306 0 -500 156q-160 135 -160 241q0 60 81.5 97.5t152.5 41.5q48 0 123.5 -118.5t141.5 -186t193 -67.5q79 0 142.5 39t100 104.5t36.5 142.5q0 165 -118 270t-371.5 260.5t-382 295
t-128.5 350.5q0 175 79 310t229 251q-140 139 -140 344q0 176 99 301t256.5 188.5t328.5 63.5q101 0 227.5 -48t218 -133.5t91.5 -191.5q0 -57 -87.5 -92t-154.5 -35q-35 0 -92.5 106.5t-111 170t-156.5 63.5q-102 0 -172 -70t-70 -171q0 -149 112.5 -246.5t364 -252
t381 -297.5t129.5 -355q0 -340 -303 -561zM631 1405q-131 -94 -131 -234q0 -129 86 -221q76 -86 194.5 -173t317.5 -218.5t270 -185.5q119 124 119 258q0 125 -98 229q-77 83 -201 173t-302 205z" />
    <glyph glyph-name="dieresis" unicode="&#xa8;" horiz-adv-x="2462" 
d="M164 -12v147q161 6 230.5 49t85.5 125.5t16 268.5v1347q0 185 -72 257t-260 75v139q478 -20 868 -20q228 0 524.5 7l569.5 13v-622h-148q-47 172 -114 264.5t-173 128.5t-294 41q-9 0 -71 2t-101 2q-132 0 -156 -29q-16 -21 -16 -57q0 -4 2 -14t2 -11v-778q4 0 18 -2
t19 -2q158 0 242.5 34.5t131.5 119t84 247.5h152q-16 -302 -16 -463q0 -175 16 -495h-143q-35 166 -89 249t-148 114.5t-267 33.5v-639q0 -348 397 -348h33q304 6 446.5 122t200.5 415h131v-721q-270 6 -462 11.5t-405 9t-345 3.5q-446 0 -889 -24zM1401 2847q0 123 88 211
t211 88t213 -88t90 -211q0 -125 -89.5 -212t-213.5 -87q-123 0 -211 87t-88 212zM631 2847q0 123 88 211t211 88q126 0 216.5 -88t90.5 -211q0 -125 -90 -212t-217 -87q-123 0 -211 87t-88 212z" />
    <glyph glyph-name="copyright" unicode="&#xa9;" horiz-adv-x="2765" 
d="M1864 1860v-426h-58q-42 138 -142.5 228.5t-238.5 90.5q-136 0 -223.5 -85.5t-126.5 -215.5t-39 -264q0 -231 88 -396t297 -165q258 0 459 307v-152q-209 -262 -516 -262q-187 0 -341.5 80.5t-242.5 227.5t-88 335q0 194 87 351.5t241 247t344 89.5q89 0 207 -41t158 -41
q44 0 73 86zM1348 -45q-333 0 -617 166t-450 450t-166 617q0 330 166 613t449.5 449.5t617.5 166.5q329 0 612.5 -166t449.5 -449t166 -614q0 -334 -166 -617.5t-449.5 -449.5t-612.5 -166zM1348 94q220 0 420 85t352 238t236.5 351.5t84.5 419.5q0 292 -148 544.5
t-400.5 400.5t-544.5 148q-223 0 -422.5 -84.5t-351.5 -237t-236 -352t-84 -419.5q0 -296 147 -547.5t399 -399t548 -147.5z" />
    <glyph glyph-name="ordfeminine" unicode="&#xaa;" horiz-adv-x="2613" 
d="M2404 831v-831h-143l-78 201q-202 -132 -384.5 -195t-393.5 -63q-98 0 -148 4q-312 28 -555.5 190t-378.5 424t-135 574l5 8l-5 4q0 278 101 516.5t278 412.5t402.5 267.5t464.5 93.5q377 0 704 -229l62 196h155l21 -766h-148q-49 169 -140 308t-227.5 223t-308.5 84
q-237 0 -391 -138.5t-230 -352.5t-91 -455h966v-181h-975q7 -244 77.5 -466t227 -366t404.5 -147h8q532 0 709 684h147z" />
    <glyph glyph-name="guillemotleft" unicode="&#xab;" horiz-adv-x="1741" 
d="M979 291l-82 -49l-557 483v82l557 491l82 -53l-307 -483zM1528 291l-90 -49l-553 483v82l553 491l90 -53l-311 -483z" />
    <glyph glyph-name="logicalnot" unicode="&#xac;" horiz-adv-x="1929" 
d="M1217 0v737h-1057v213h1552v-950h-495z" />
    <glyph glyph-name="minus" unicode="&#xad;" horiz-adv-x="1245" 
d="M201 578v421h852v-421h-852z" />
    <glyph glyph-name="registered" unicode="&#xae;" horiz-adv-x="2843" 
d="M1782 541l-352 614h-181v-414q0 -71 24.5 -103t94.5 -32h62v-65h-652v65q98 0 135 24.5t37 110.5v889q0 73 -24.5 104t-94.5 31h-65v70h668q528 0 528 -356q0 -219 -250 -324l275 -463q45 -86 155 -86v-65h-360zM1249 1217h140q136 0 201 61.5t65 200.5q0 176 -101 219
t-305 43v-524zM1405 -45q-333 0 -617 166t-450 450t-166 617q0 330 166 613t449.5 449.5t617.5 166.5q330 0 613 -166t449.5 -449t166.5 -614q0 -334 -166.5 -617.5t-449.5 -449.5t-613 -166zM1405 94q294 0 545.5 147t400 399.5t148.5 547.5q0 293 -148.5 545.5t-401.5 400
t-544 147.5q-223 0 -422 -84t-352.5 -237t-238.5 -352.5t-85 -419.5q0 -295 148.5 -547t401 -399.5t548.5 -147.5z" />
    <glyph glyph-name="macron" unicode="&#xaf;" horiz-adv-x="1626" 
d="M193 -8v143q145 6 214 32.5t95 95.5t26 216v1442q0 134 -26.5 200t-92 90.5t-192.5 24.5h-24v148q73 -1 203 -4t260.5 -5.5t203.5 -2.5q63 0 177 2t228.5 5.5t176.5 4.5v-148h-17q-173 0 -246 -69t-73 -246v-1442q0 -138 30 -207t100 -97.5t206 -39.5v-143q-418 8 -627 8
q-214 0 -622 -8zM926 2847q0 123 88 211t211 88q126 0 216.5 -88t90.5 -211q0 -125 -90 -212t-217 -87q-123 0 -211 87t-88 212zM160 2847q0 123 88 211t211 88q126 0 214.5 -87.5t88.5 -211.5q0 -126 -88.5 -212.5t-214.5 -86.5q-123 0 -211 87t-88 212z" />
    <glyph glyph-name="degree" unicode="&#xb0;" horiz-adv-x="1171" 
d="M594 2261h41q139 0 241.5 -106.5t102.5 -245.5q0 -127 -83.5 -221.5t-211.5 -106.5q-158 0 -273.5 92.5t-115.5 247.5q0 125 86.5 223.5t212.5 116.5zM446 1917q0 -76 55 -134.5t134 -58.5q78 0 141.5 54t63.5 131q0 82 -64.5 147.5t-148.5 65.5q-77 0 -129 -64.5
t-52 -140.5z" />
    <glyph glyph-name="plusminus" unicode="&#xb1;" horiz-adv-x="2081" 
d="M193 1393h720v704h238v-704h725v-230h-725v-680h-238v680h-720v230zM193 336h1683v-230h-1683v230z" />
    <glyph glyph-name="twosuperior" unicode="&#xb2;" horiz-adv-x="1626" 
d="M193 -8v143q145 6 214 32.5t95 95.5t26 216v1442q0 134 -26.5 200t-92 90.5t-192.5 24.5h-24v148q73 -1 203 -4t260.5 -5.5t203.5 -2.5q63 0 177 2t228.5 5.5t176.5 4.5v-148h-17q-173 0 -246 -69t-73 -246v-1442q0 -138 30 -207t100 -97.5t206 -39.5v-143q-418 8 -627 8
q-214 0 -622 -8zM528 2847q0 123 89 211t210 88q126 0 217 -88t91 -211q0 -125 -91 -212t-217 -87q-122 0 -210.5 87t-88.5 212z" />
    <glyph glyph-name="threesuperior" unicode="&#xb3;" horiz-adv-x="1286" 
d="M147 -8v131q132 10 179 41.5t47 146.5v840q0 125 -47 166t-179 47v123q262 30 504 78q34 7 82.5 21.5t80.5 21t63 6.5v-1303q0 -116 47 -147t178 -41v-127q-78 0 -238 2t-237 2q-160 0 -480 -8zM762 2462q119 -82 119 -242q0 -38 -17 -106q-34 -76 -110 -126.5
t-160 -50.5q-8 0 -22 2.5t-23 2.5q-99 18 -166.5 100.5t-67.5 181.5q0 20 21 107q34 82 104.5 127t157.5 45q86 0 164 -41z" />
    <glyph glyph-name="acute" unicode="&#xb4;" horiz-adv-x="1475" 
d="M565 1016q0 141 99.5 240.5t240.5 99.5q145 0 246.5 -99.5t101.5 -240.5t-101.5 -240.5t-246.5 -99.5q-141 0 -240.5 99.5t-99.5 240.5z" />
    <glyph glyph-name="mu" unicode="&#xb5;" horiz-adv-x="2273" 
d="M1823 1618v-1176q0 -116 24 -185t115 -69q17 0 45.5 4.5t52.5 4.5v-78l-549 -160h-36q-144 0 -205 213q-159 -214 -369 -225q-152 0 -240.5 67t-156.5 215q-8 -20 -8 -57q0 -82 27 -164t77.5 -190.5t77.5 -180.5t27 -133q0 -96 -84.5 -154.5t-186.5 -58.5
q-299 0 -299 242q0 69 37 229q119 507 119 1024v832h598v-1016l8 -172q0 -88 27.5 -160.5t95.5 -72.5q57 0 92 28.5t113 106.5v1286h598z" />
    <glyph glyph-name="paragraph" unicode="&#xb6;" horiz-adv-x="1929" 
d="M913 -373v1467q-195 0 -358 78.5t-256.5 228.5t-93.5 352q0 321 212 492.5t537 171.5h770v-144h-172v-2646h-172v2646h-295v-2646h-172z" />
    <glyph glyph-name="periodcentered" unicode="&#xb7;" horiz-adv-x="1130" 
d="M672 1028q105 0 179.5 -72.5t74.5 -177.5q0 -107 -74 -184.5t-180 -77.5t-182 77t-76 181q0 103 78 178.5t180 75.5z" />
    <glyph glyph-name="cedilla" unicode="&#xb8;" horiz-adv-x="1929" 
d="M1589 410l119 -107q-124 -175 -312 -263.5t-392 -88.5q-162 0 -316.5 56t-277 162.5t-193 259.5t-70.5 337v61q16 239 139 414.5t320 268t426 92.5q78 0 115 -5q157 -15 293 -99t211 -220q78 -140 86 -430h-1045q0 -3 -2 -19t-2 -22q0 -575 397 -635q11 0 33 -2t33 -2
q218 0 438 242zM692 1016h582q0 438 -270 442q-154 0 -233 -136.5t-79 -305.5zM1487 2462q119 -82 119 -242q0 -38 -17 -106q-34 -76 -110 -126.5t-160 -50.5q-7 0 -22 2.5t-27 2.5q-97 18 -163.5 100.5t-66.5 181.5q0 20 21 107q34 82 104.5 127t157.5 45q86 0 164 -41z
M774 2462q123 -85 123 -242q0 -53 -20 -106q-31 -76 -109 -126.5t-162 -50.5q-5 0 -18 2.5t-27 2.5q-100 18 -164.5 100.5t-64.5 181.5q0 52 20 107q31 80 101.5 126t156.5 46q92 0 164 -41z" />
    <glyph glyph-name="onesuperior" unicode="&#xb9;" horiz-adv-x="3715" 
d="M180 -12v147q139 22 208.5 69t92.5 130t23 231v1495q-86 109 -148.5 142.5t-195.5 42.5v139q234 -17 336 -17q130 0 417 17l1418 -1622v1065q-3 215 -66.5 311t-265.5 107v139q47 -1 130.5 -4t166.5 -5.5t129 -2.5q44 0 127 2.5t165 5.5t130 4v-139q-197 -8 -262.5 -115
t-65.5 -324v-1859h-201l-1618 1888v-1270q5 -203 73.5 -312.5t254.5 -117.5v-143q-320 8 -491 8q-178 0 -357 -12zM3174 1618q140 0 228 -96.5t88 -239.5t-86 -241.5t-230 -98.5q-141 0 -226 100.5t-85 247.5q0 136 86.5 232t224.5 96zM3174 1569q-180 0 -180 -287
q0 -291 180 -291q185 0 185 291q0 287 -185 287zM3518 799v-70h-684v70h684z" />
    <glyph glyph-name="ordmasculine" unicode="&#xba;" horiz-adv-x="1892" 
d="M1692 299q-169 -220 -402 -299q-152 -45 -315 -45q-172 0 -295 45q-155 59 -263.5 172.5t-164 261.5t-55.5 307q0 183 70 354t200 285q239 222 610 222q67 0 205 -17q333 -51 389 -262q0 -13 2 -36t2 -34q0 -83 -51.5 -139.5t-140.5 -56.5h-8q-79 0 -122 43.5t-81 132
t-55 115.5q-67 106 -177 106q-69 0 -133 -47t-96 -121q-72 -156 -78 -401h455v-144h-451q25 -461 267 -544q77 -29 139 -29q236 0 434 242z" />
    <glyph glyph-name="guillemotright" unicode="&#xbb;" horiz-adv-x="1700" 
d="M844 1249l86 49l557 -483v-78l-557 -495l-86 57l311 479zM299 1249l86 49l553 -483v-78l-553 -495l-86 57l307 479z" />
    <glyph glyph-name="onequarter" unicode="&#xbc;" horiz-adv-x="1892" 
d="M434 1962l537 -541l540 545l164 -168l-540 -541l536 -536l-160 -164l-536 541l-541 -545l-168 168l545 541l-537 536z" />
    <glyph glyph-name="onehalf" unicode="&#xbd;" horiz-adv-x="3068" 
d="M1028 1860q-270 0 -402 -23t-222.5 -126t-133.5 -335h-143l29 684q477 -20 864 -20q-14 117 -95 155.5t-249 45.5l24 151q100 -4 305.5 -31.5t317.5 -29.5q106 0 295.5 24.5t294.5 28.5l29 -143q-312 0 -357 -201q291 0 873 16l32 -680h-139q-43 217 -126.5 320
t-206.5 133.5t-335 30.5h-106v-517q519 0 808 -98t417 -282q82 -127 82 -304q0 -240 -131 -385q-149 -167 -374.5 -224.5t-518.5 -57.5h-123q-370 8 -561 8q-244 0 -484 -12v151q196 11 266 74t70 254v1393zM2200 942q-61 136 -187.5 182.5t-304.5 46.5h-131v-593
q0 -143 23 -241t108 -136q71 -33 152 -33q170 0 270 98q127 127 127 381q0 171 -57 295z" />
    <glyph glyph-name="threequarters" unicode="&#xbe;" horiz-adv-x="2462" 
d="M848 1565v327q-4 110 -82 377l184 53q71 -148 140 -344q74 243 98 336l188 -33q-7 -65 -28 -214.5t-21 -174.5v-327h664l37 -508h-148q-45 211 -146.5 290.5t-275.5 86.5q-113 -12 -119 -205v-316h37q232 0 386 -25t263.5 -84t198.5 -165q41 -58 41 -201q0 -205 -90 -291
q-179 -155 -553 -155h-74q-302 8 -463 8q-156 0 -458 -8v127q106 6 143 14t57 44.5t21 121.5v971q-3 93 -27 125.5t-84 38.5q-175 -6 -277 -85.5t-149 -291.5h-147l37 508h647zM1339 373q0 -77 24 -155.5t71 -94.5q14 -2 47.5 -9.5t54.5 -7.5q87 0 176 58q107 67 107 233
q0 118 -50 209q-49 91 -156 121.5t-274 30.5v-385z" />
    <glyph glyph-name="questiondown" unicode="&#xbf;" horiz-adv-x="1585" 
d="M1278 2462q123 -85 123 -242q0 -54 -21 -106q-31 -75 -108.5 -126t-161.5 -51q-5 0 -19 2.5t-26 2.5q-100 18 -164.5 100.5t-64.5 181.5q0 52 20 107q31 80 101.5 126t156.5 46q92 0 164 -41zM569 2462q119 -82 119 -242q0 -63 -16 -106q-31 -76 -109 -126.5t-162 -50.5
q-6 0 -20 2.5t-25 2.5q-100 18 -166.5 100.5t-66.5 181.5q0 41 24 107q31 80 101.5 126t157.5 46q91 0 163 -41zM319 -8v131q130 10 178 42t48 146v840q0 125 -47 166t-179 47v123q264 31 500 78q32 6 85 21.5t84 21.5t61 6v-1303q0 -116 46.5 -147t174.5 -41v-127
q-78 0 -238 2t-237 2q-156 0 -476 -8z" />
    <glyph glyph-name="Agrave" unicode="&#xc0;" horiz-adv-x="2765" 
d="M791 909h655l-311 828zM877 -8q-280 8 -426 8q-136 0 -422 -8v143q246 30 352 279l856 2015h176l799 -2011q20 -21 53 -99.5t95.5 -124t211.5 -59.5v-143q-450 8 -676 8q-188 0 -548 -8v143q138 6 219 25t84 98v25q0 61 -24 141.5t-53 154l-63 158.5h-794l-70.5 -166
t-46.5 -128.5t-18 -110.5q0 -186 295 -197v-143z" />
    <glyph glyph-name="Agrave" unicode="&#x410;" horiz-adv-x="2765" 
d="M791 909h655l-311 828zM877 -8q-280 8 -426 8q-136 0 -422 -8v143q246 30 352 279l856 2015h176l799 -2011q20 -21 53 -99.5t95.5 -124t211.5 -59.5v-143q-450 8 -676 8q-188 0 -548 -8v143q138 6 219 25t84 98v25q0 61 -24 141.5t-53 154l-63 158.5h-794l-70.5 -166
t-46.5 -128.5t-18 -110.5q0 -186 295 -197v-143z" />
    <glyph glyph-name="Aacute" unicode="&#xc1;" horiz-adv-x="2576" 
d="M180 2392q512 -25 979 -25q401 0 975 21l20 -623h-143q-49 203 -139 297t-219 119t-363 27h-73q-76 0 -118 -25.5t-42 -101.5v-738q949 -6 1224 -401q82 -122 82 -299q0 -222 -127 -369q-102 -115 -246 -177t-303.5 -83.5t-343.5 -21.5h-126q-370 8 -562 8
q-237 0 -483 -12v151q196 11 266 74t70 254v1487q0 122 -32.5 182t-100 82t-195.5 27v147zM1610 266q127 121 127 381q0 173 -58 295q-58 136 -185 182.5t-302 46.5h-135v-593q0 -143 23.5 -241t111.5 -136q71 -33 151 -33q167 0 267 98z" />
    <glyph glyph-name="Aacute" unicode="&#x411;" horiz-adv-x="2576" 
d="M180 2392q512 -25 979 -25q401 0 975 21l20 -623h-143q-49 203 -139 297t-219 119t-363 27h-73q-76 0 -118 -25.5t-42 -101.5v-738q949 -6 1224 -401q82 -122 82 -299q0 -222 -127 -369q-102 -115 -246 -177t-303.5 -83.5t-343.5 -21.5h-126q-370 8 -562 8
q-237 0 -483 -12v151q196 11 266 74t70 254v1487q0 122 -32.5 182t-100 82t-195.5 27v147zM1610 266q127 121 127 381q0 173 -58 295q-58 136 -185 182.5t-302 46.5h-135v-593q0 -143 23.5 -241t111.5 -136q71 -33 151 -33q167 0 267 98z" />
    <glyph glyph-name="Acircumflex" unicode="&#xc2;" horiz-adv-x="2576" 
d="M172 -12v151q196 11 266 74t70 254v1487q0 122 -32.5 182t-100 82t-195.5 27v147q325 -25 455 -25q83 0 198.5 5.5t174.5 7.5q36 0 119 2t130 2q276 0 490.5 -48.5t341.5 -185.5q119 -131 119 -331q0 -144 -74 -254q-85 -133 -222.5 -191.5t-350.5 -99.5
q239 -29 426.5 -103.5t293.5 -228.5q82 -122 82 -299q0 -222 -127 -369q-102 -115 -246 -177t-303.5 -83.5t-343.5 -21.5h-126q-370 8 -562 8q-237 0 -483 -12zM1057 1343q13 0 44 -2t46 -2q475 0 475 443q0 11 -2 43t-2 47q-9 159 -109.5 245t-263.5 95h-69q-37 0 -95 -8
q-24 -11 -24 -41v-820zM1679 942q-61 136 -193.5 182.5t-318.5 46.5h-110v-593q0 -143 23.5 -241t111.5 -136q71 -33 151 -33q167 0 267 98q127 121 127 381q0 173 -58 295z" />
    <glyph glyph-name="Acircumflex" unicode="&#x412;" horiz-adv-x="2576" 
d="M172 -12v151q196 11 266 74t70 254v1487q0 122 -32.5 182t-100 82t-195.5 27v147q325 -25 455 -25q83 0 198.5 5.5t174.5 7.5q36 0 119 2t130 2q276 0 490.5 -48.5t341.5 -185.5q119 -131 119 -331q0 -144 -74 -254q-85 -133 -222.5 -191.5t-350.5 -99.5
q239 -29 426.5 -103.5t293.5 -228.5q82 -122 82 -299q0 -222 -127 -369q-102 -115 -246 -177t-303.5 -83.5t-343.5 -21.5h-126q-370 8 -562 8q-237 0 -483 -12zM1057 1343q13 0 44 -2t46 -2q475 0 475 443q0 11 -2 43t-2 47q-9 159 -109.5 245t-263.5 95h-69q-37 0 -95 -8
q-24 -11 -24 -41v-820zM1679 942q-61 136 -193.5 182.5t-318.5 46.5h-110v-593q0 -143 23.5 -241t111.5 -136q71 -33 151 -33q167 0 267 98q127 121 127 381q0 173 -58 295z" />
    <glyph glyph-name="Atilde" unicode="&#xc3;" horiz-adv-x="2310" 
d="M1049 2081v-1561q2 -176 26 -250t96.5 -99.5t249.5 -35.5v-147q-204 12 -614 12q-108 -2 -327 -3t-328 -5v143q159 9 230.5 43t96.5 112t25 238v1364q-2 139 -32 212.5t-104 104.5t-216 36v147q511 -25 958 -25q389 0 963 21l20 -623h-147q-50 204 -128 297.5
t-195.5 118.5t-344.5 27h-70q-80 0 -119.5 -24t-39.5 -103z" />
    <glyph glyph-name="Atilde" unicode="&#x413;" horiz-adv-x="2310" 
d="M1049 2081v-1561q2 -176 26 -250t96.5 -99.5t249.5 -35.5v-147q-204 12 -614 12q-108 -2 -327 -3t-328 -5v143q159 9 230.5 43t96.5 112t25 238v1364q-2 139 -32 212.5t-104 104.5t-216 36v147q511 -25 958 -25q389 0 963 21l20 -623h-147q-50 204 -128 297.5
t-195.5 118.5t-344.5 27h-70q-80 0 -119.5 -24t-39.5 -103z" />
    <glyph glyph-name="Adieresis" unicode="&#xc4;" horiz-adv-x="2953" 
d="M496 217q252 216 360.5 612.5t142.5 1005.5v25q0 167 -97.5 271.5t-278.5 104.5h-17v148q78 -1 124.5 -3t167.5 -5.5t159 -3.5q36 0 155 3.5t168 5.5t127 3q119 -2 346 -9.5t375 -7.5q147 0 504 17v-148q-191 0 -261.5 -64t-70.5 -251v-1442q0 -131 29 -203t100 -104
t203 -37l37 -692h-139q-47 234 -128.5 353.5t-213 161.5t-355.5 42h-905q-240 0 -377.5 -40.5t-222.5 -160t-129 -356.5h-143l28 684q198 0 312 90zM651 135h856q150 11 216 37t89 92.5t23 214.5v1442q0 141 -25.5 205t-93 86t-209.5 24h-16q-171 0 -252.5 -75t-87.5 -244
q-18 -362 -57 -641t-101 -499t-146.5 -377.5t-195.5 -264.5z" />
    <glyph glyph-name="Adieresis" unicode="&#x414;" horiz-adv-x="2953" 
d="M496 217q252 216 360.5 612.5t142.5 1005.5v25q0 167 -97.5 271.5t-278.5 104.5h-17v148q78 -1 124.5 -3t167.5 -5.5t159 -3.5q36 0 155 3.5t168 5.5t127 3q119 -2 346 -9.5t375 -7.5q147 0 504 17v-148q-191 0 -261.5 -64t-70.5 -251v-1442q0 -131 29 -203t100 -104
t203 -37l37 -692h-139q-47 234 -128.5 353.5t-213 161.5t-355.5 42h-905q-240 0 -377.5 -40.5t-222.5 -160t-129 -356.5h-143l28 684q198 0 312 90zM651 135h856q150 11 216 37t89 92.5t23 214.5v1442q0 141 -25.5 205t-93 86t-209.5 24h-16q-171 0 -252.5 -75t-87.5 -244
q-18 -362 -57 -641t-101 -499t-146.5 -377.5t-195.5 -264.5z" />
    <glyph glyph-name="Aring" unicode="&#xc5;" horiz-adv-x="2462" 
d="M164 -12v147q161 6 230.5 49t85.5 125.5t16 268.5v1347q0 185 -72 257t-260 75v139q478 -20 868 -20q228 0 524.5 7l569.5 13v-622h-148q-47 172 -114 264.5t-173 128.5t-294 41q-9 0 -71 2t-101 2q-132 0 -156 -29q-16 -21 -16 -57q0 -4 2 -14t2 -11v-778q4 0 18 -2
t19 -2q158 0 242.5 34.5t131.5 119t84 247.5h152q-16 -302 -16 -463q0 -175 16 -495h-143q-35 166 -89 249t-148 114.5t-267 33.5v-639q0 -348 397 -348h33q304 6 446.5 122t200.5 415h131v-721q-270 6 -462 11.5t-405 9t-345 3.5q-446 0 -889 -24z" />
    <glyph glyph-name="Aring" unicode="&#x415;" horiz-adv-x="2462" 
d="M164 -12v147q161 6 230.5 49t85.5 125.5t16 268.5v1347q0 185 -72 257t-260 75v139q478 -20 868 -20q228 0 524.5 7l569.5 13v-622h-148q-47 172 -114 264.5t-173 128.5t-294 41q-9 0 -71 2t-101 2q-132 0 -156 -29q-16 -21 -16 -57q0 -4 2 -14t2 -11v-778q4 0 18 -2
t19 -2q158 0 242.5 34.5t131.5 119t84 247.5h152q-16 -302 -16 -463q0 -175 16 -495h-143q-35 166 -89 249t-148 114.5t-267 33.5v-639q0 -348 397 -348h33q304 6 446.5 122t200.5 415h131v-721q-270 6 -462 11.5t-405 9t-345 3.5q-446 0 -889 -24z" />
    <glyph glyph-name="AE" unicode="&#xc6;" horiz-adv-x="3830" 
d="M2298 -12q-110 2 -273.5 7t-234.5 5q-182 0 -434 -12v143q84 5 128 32t64.5 96.5t20.5 207.5v516l-103 115l-491 -717q-57 -82 -57 -135q0 -60 61.5 -89.5t150.5 -29.5q3 0 9 2t8 2v-143q-86 2 -262 7t-262 5q-97 0 -294 -5t-288 -7v147q159 22 283 201l823 1151
l-406 512q-91 121 -181.5 178t-227.5 72v135q222 -21 385 -21q142 0 446 17v-131q-229 -14 -229 -127l4 -4q0 -95 135 -283t279 -356l217 -303v712q0 178 -42 265.5t-143 87.5h-12v143q238 -17 418 -17q66 0 491 17v-143h-20q-96 0 -136 -87t-40 -266v-721l217 312
q180 219 299.5 382t122.5 257v4q0 115 -238 127v131q323 -17 455 -17q160 0 389 21v-135q-138 -14 -227 -70.5t-187 -179.5l-413 -512l831 -1151q131 -180 291 -201v-147q-101 2 -297 7t-293 5q-88 0 -265 -5t-267 -7v143h16q221 0 221 115q0 50 -53 135l-504 717l-94 -111
l-4 -520q0 -197 47 -263.5t166 -72.5v-143z" />
    <glyph glyph-name="AE" unicode="&#x416;" horiz-adv-x="3830" 
d="M2298 -12q-110 2 -273.5 7t-234.5 5q-182 0 -434 -12v143q84 5 128 32t64.5 96.5t20.5 207.5v516l-103 115l-491 -717q-57 -82 -57 -135q0 -60 61.5 -89.5t150.5 -29.5q3 0 9 2t8 2v-143q-86 2 -262 7t-262 5q-97 0 -294 -5t-288 -7v147q159 22 283 201l823 1151
l-406 512q-91 121 -181.5 178t-227.5 72v135q222 -21 385 -21q142 0 446 17v-131q-229 -14 -229 -127l4 -4q0 -95 135 -283t279 -356l217 -303v712q0 178 -42 265.5t-143 87.5h-12v143q238 -17 418 -17q66 0 491 17v-143h-20q-96 0 -136 -87t-40 -266v-721l217 312
q180 219 299.5 382t122.5 257v4q0 115 -238 127v131q323 -17 455 -17q160 0 389 21v-135q-138 -14 -227 -70.5t-187 -179.5l-413 -512l831 -1151q131 -180 291 -201v-147q-101 2 -297 7t-293 5q-88 0 -265 -5t-267 -7v143h16q221 0 221 115q0 50 -53 135l-504 717l-94 -111
l-4 -520q0 -197 47 -263.5t166 -72.5v-143z" />
    <glyph glyph-name="Ccedilla" unicode="&#xc7;" horiz-adv-x="2388" 
d="M1135 2253q-450 0 -623 -615h-152l25 766h156l61 -196q337 241 672 241h33q400 -27 622 -262q115 -127 115 -336q0 -175 -86 -311q-57 -87 -147 -139.5t-165.5 -71.5t-261.5 -55q537 -67 721 -332q82 -122 82 -299q0 -229 -127 -369q-94 -106 -221 -180.5t-269 -112
t-292 -42.5q-204 3 -384 67t-374 195l-78 -201h-143v831h147q58 -217 131 -366t204 -241.5t333 -92.5q189 0 316 127q131 137 131 397q0 166 -54 287q-48 104 -114.5 158.5t-148.5 73t-187 18.5h-66v164q17 0 49 -2t45 -2q211 0 306.5 93t95.5 308q0 82 -4 119
q-12 165 -104 267t-244 114z" />
    <glyph glyph-name="Ccedilla" unicode="&#x417;" horiz-adv-x="2388" 
d="M1135 2253q-450 0 -623 -615h-152l25 766h156l61 -196q337 241 672 241h33q400 -27 622 -262q115 -127 115 -336q0 -175 -86 -311q-57 -87 -147 -139.5t-165.5 -71.5t-261.5 -55q537 -67 721 -332q82 -122 82 -299q0 -229 -127 -369q-94 -106 -221 -180.5t-269 -112
t-292 -42.5q-204 3 -384 67t-374 195l-78 -201h-143v831h147q58 -217 131 -366t204 -241.5t333 -92.5q189 0 316 127q131 137 131 397q0 166 -54 287q-48 104 -114.5 158.5t-148.5 73t-187 18.5h-66v164q17 0 49 -2t45 -2q211 0 306.5 93t95.5 308q0 82 -4 119
q-12 165 -104 267t-244 114z" />
    <glyph glyph-name="Egrave" unicode="&#xc8;" horiz-adv-x="3219" 
d="M172 -8v143q146 6 213 33.5t91 95t24 215.5v1442q0 192 -57 253.5t-234 61.5h-37v148q67 -1 186 -4.5t237 -5.5t187 -2q66 0 186.5 2.5t239.5 5.5t189 4v-148h-17q-171 0 -243 -71.5t-72 -243.5v-1106l1053 1020v86q0 139 -26.5 203.5t-95 87t-210.5 24.5v148
q117 -2 344.5 -9.5t376.5 -7.5q155 0 504 17v-148q-189 0 -258.5 -64t-69.5 -251v-1442q0 -130 28.5 -203t97.5 -104.5t202 -36.5v-143q-410 8 -615 8q-200 0 -610 -8v143q152 11 218.5 37t90 92.5t23.5 214.5v1151l-1053 -1028v-123q0 -138 30 -207.5t100 -97.5t202 -39
v-143q-410 8 -615 8q-208 0 -610 -8z" />
    <glyph glyph-name="Egrave" unicode="&#x418;" horiz-adv-x="3219" 
d="M172 -8v143q146 6 213 33.5t91 95t24 215.5v1442q0 192 -57 253.5t-234 61.5h-37v148q67 -1 186 -4.5t237 -5.5t187 -2q66 0 186.5 2.5t239.5 5.5t189 4v-148h-17q-171 0 -243 -71.5t-72 -243.5v-1106l1053 1020v86q0 139 -26.5 203.5t-95 87t-210.5 24.5v148
q117 -2 344.5 -9.5t376.5 -7.5q155 0 504 17v-148q-189 0 -258.5 -64t-69.5 -251v-1442q0 -130 28.5 -203t97.5 -104.5t202 -36.5v-143q-410 8 -615 8q-200 0 -610 -8v143q152 11 218.5 37t90 92.5t23.5 214.5v1151l-1053 -1028v-123q0 -138 30 -207.5t100 -97.5t202 -39
v-143q-410 8 -615 8q-208 0 -610 -8z" />
    <glyph glyph-name="Eacute" unicode="&#xc9;" horiz-adv-x="3219" 
d="M1610 2744q102 0 161 74.5t64 138.5q17 95 131 95q98 0 98 -152q0 -108 -140.5 -187t-313.5 -79q-175 0 -313 78.5t-138 187.5q0 152 98 152q115 0 127 -95q12 -70 68.5 -141.5t157.5 -71.5zM172 -8v143q146 6 213 33.5t91 95t24 215.5v1442q0 192 -57 253.5t-234 61.5
h-37v148q67 -1 186 -4.5t237 -5.5t187 -2q66 0 186.5 2.5t239.5 5.5t189 4v-148h-17q-171 0 -243 -71.5t-72 -243.5v-1106l1053 1020v86q0 139 -26.5 203.5t-95 87t-210.5 24.5v148q117 -2 344.5 -9.5t376.5 -7.5q155 0 504 17v-148q-189 0 -258.5 -64t-69.5 -251v-1442
q0 -130 28.5 -203t97.5 -104.5t202 -36.5v-143q-410 8 -615 8q-200 0 -610 -8v143q152 11 218.5 37t90 92.5t23.5 214.5v1151l-1053 -1028v-123q0 -138 30 -207.5t100 -97.5t202 -39v-143q-410 8 -615 8q-208 0 -610 -8z" />
    <glyph glyph-name="Eacute" unicode="&#x419;" horiz-adv-x="3219" 
d="M1610 2744q102 0 161 74.5t64 138.5q17 95 131 95q98 0 98 -152q0 -108 -140.5 -187t-313.5 -79q-175 0 -313 78.5t-138 187.5q0 152 98 152q115 0 127 -95q12 -70 68.5 -141.5t157.5 -71.5zM172 -8v143q146 6 213 33.5t91 95t24 215.5v1442q0 192 -57 253.5t-234 61.5
h-37v148q67 -1 186 -4.5t237 -5.5t187 -2q66 0 186.5 2.5t239.5 5.5t189 4v-148h-17q-171 0 -243 -71.5t-72 -243.5v-1106l1053 1020v86q0 139 -26.5 203.5t-95 87t-210.5 24.5v148q117 -2 344.5 -9.5t376.5 -7.5q155 0 504 17v-148q-189 0 -258.5 -64t-69.5 -251v-1442
q0 -130 28.5 -203t97.5 -104.5t202 -36.5v-143q-410 8 -615 8q-200 0 -610 -8v143q152 11 218.5 37t90 92.5t23.5 214.5v1151l-1053 -1028v-123q0 -138 30 -207.5t100 -97.5t202 -39v-143q-410 8 -615 8q-208 0 -610 -8z" />
    <glyph glyph-name="Ecircumflex" unicode="&#xca;" horiz-adv-x="2994" 
d="M164 -12v147q128 2 197.5 29t99.5 94t35 193v1491q0 175 -73 237t-259 78v135q327 -20 598 -20q200 0 594 16v-139h-21q-173 0 -227.5 -84.5t-54.5 -276.5v-778l327 373q451 499 455 639v4q0 115 -258 127v131q340 -17 487 -17q175 0 418 21v-135q-145 -14 -240 -70.5
t-202 -179.5l-443 -512l893 -1155q140 -176 308 -197v-151q-313 12 -635 12q-282 0 -566 -12v147q3 0 9 -2t8 -2q233 0 233 119q0 66 -53 135l-541 717l-200 -238v-397q0 -142 22.5 -208.5t88.5 -92t212 -31.5v-147q-434 16 -659 16q-313 0 -553 -16z" />
    <glyph glyph-name="Ecircumflex" unicode="&#x41a;" horiz-adv-x="2994" 
d="M164 -12v147q128 2 197.5 29t99.5 94t35 193v1491q0 175 -73 237t-259 78v135q327 -20 598 -20q200 0 594 16v-139h-21q-173 0 -227.5 -84.5t-54.5 -276.5v-778l327 373q451 499 455 639v4q0 115 -258 127v131q340 -17 487 -17q175 0 418 21v-135q-145 -14 -240 -70.5
t-202 -179.5l-443 -512l893 -1155q140 -176 308 -197v-151q-313 12 -635 12q-282 0 -566 -12v147q3 0 9 -2t8 -2q233 0 233 119q0 66 -53 135l-541 717l-200 -238v-397q0 -142 22.5 -208.5t88.5 -92t212 -31.5v-147q-434 16 -659 16q-313 0 -553 -16z" />
    <glyph glyph-name="Edieresis" unicode="&#xcb;" horiz-adv-x="3068" 
d="M1139 1835q0 171 -123.5 286t-315.5 115h-16v148q95 -2 151 -3.5t117 -3.5t112 -3.5t99 -1.5q51 0 103.5 1.5l109.5 3t116.5 3.5t154.5 4q117 -2 344.5 -9.5t375.5 -7.5q147 0 504 17v-148q-192 0 -261.5 -63.5t-69.5 -251.5v-1442q0 -130 28.5 -203t98.5 -104.5
t204 -36.5v-143q-418 8 -614 8q-210 0 -610 -8v143q148 11 214.5 37t89.5 92.5t23 214.5v1442q0 138 -26 203t-93 87.5t-208 24.5h-17q-171 0 -252.5 -75t-87.5 -244q-80 -1608 -635 -1905q-94 -53 -282 -53q-105 0 -192 61.5t-87 176.5q0 113 68 179t162 66q72 0 105.5 -21
t89.5 -65.5t95 -44.5q69 0 127 45q200 152 292 558t106 921z" />
    <glyph glyph-name="Edieresis" unicode="&#x41b;" horiz-adv-x="3068" 
d="M1139 1835q0 171 -123.5 286t-315.5 115h-16v148q95 -2 151 -3.5t117 -3.5t112 -3.5t99 -1.5q51 0 103.5 1.5l109.5 3t116.5 3.5t154.5 4q117 -2 344.5 -9.5t375.5 -7.5q147 0 504 17v-148q-192 0 -261.5 -63.5t-69.5 -251.5v-1442q0 -130 28.5 -203t98.5 -104.5
t204 -36.5v-143q-418 8 -614 8q-210 0 -610 -8v143q148 11 214.5 37t89.5 92.5t23 214.5v1442q0 138 -26 203t-93 87.5t-208 24.5h-17q-171 0 -252.5 -75t-87.5 -244q-80 -1608 -635 -1905q-94 -53 -282 -53q-105 0 -192 61.5t-87 176.5q0 113 68 179t162 66q72 0 105.5 -21
t89.5 -65.5t95 -44.5q69 0 127 45q200 152 292 558t106 921z" />
    <glyph glyph-name="Igrave" unicode="&#xcc;" horiz-adv-x="3449" 
d="M184 -8v143q148 8 215.5 75t83 165.5t17.5 271.5v1487q-59 64 -130.5 86t-189.5 33v131q278 -17 398 -17q134 0 446 17l696 -1651l656 1651q83 -3 170.5 -7.5t160.5 -4.5q43 0 110 1.5t143.5 4.5t132 5.5t143.5 4.5v-139q-143 0 -218.5 -32t-104.5 -108.5t-29 -216.5
v-1450q0 -128 36.5 -193t109.5 -89.5t206 -32.5v-139q-121 2 -365 7t-364 5q-164 0 -484 -8v139q147 19 211.5 46.5t86.5 93t22 212.5v1303l-725 -1790h-168l-762 1839v-1188q0 -182 16.5 -277.5t86.5 -159t225 -79.5v-143q-80 2 -242 7t-242 5q-110 0 -348 -8z" />
    <glyph glyph-name="Igrave" unicode="&#x41c;" horiz-adv-x="3449" 
d="M184 -8v143q148 8 215.5 75t83 165.5t17.5 271.5v1487q-59 64 -130.5 86t-189.5 33v131q278 -17 398 -17q134 0 446 17l696 -1651l656 1651q83 -3 170.5 -7.5t160.5 -4.5q43 0 110 1.5t143.5 4.5t132 5.5t143.5 4.5v-139q-143 0 -218.5 -32t-104.5 -108.5t-29 -216.5
v-1450q0 -128 36.5 -193t109.5 -89.5t206 -32.5v-139q-121 2 -365 7t-364 5q-164 0 -484 -8v139q147 19 211.5 46.5t86.5 93t22 212.5v1303l-725 -1790h-168l-762 1839v-1188q0 -182 16.5 -277.5t86.5 -159t225 -79.5v-143q-80 2 -242 7t-242 5q-110 0 -348 -8z" />
    <glyph glyph-name="Iacute" unicode="&#xcd;" horiz-adv-x="3219" 
d="M172 -8v143q146 6 213 33.5t91 95t24 215.5v1442q0 192 -57 253.5t-234 61.5h-37v148q67 -1 186 -4.5t237 -5.5t187 -2q66 0 186.5 2.5t239.5 5.5t189 4v-148h-17q-171 0 -243 -71.5t-72 -243.5v-614h1053v614q0 139 -26.5 203.5t-95 87t-210.5 24.5v148
q117 -2 344.5 -9.5t376.5 -7.5q155 0 504 17v-148q-189 0 -258.5 -64t-69.5 -251v-1442q0 -130 28.5 -203t97.5 -104.5t202 -36.5v-143q-410 8 -615 8q-200 0 -610 -8v143q152 11 218.5 37t90 92.5t23.5 214.5v647h-1053v-647q0 -138 30 -207.5t100 -97.5t202 -39v-143
q-410 8 -615 8q-208 0 -610 -8z" />
    <glyph glyph-name="Iacute" unicode="&#x41d;" horiz-adv-x="3219" 
d="M172 -8v143q146 6 213 33.5t91 95t24 215.5v1442q0 192 -57 253.5t-234 61.5h-37v148q67 -1 186 -4.5t237 -5.5t187 -2q66 0 186.5 2.5t239.5 5.5t189 4v-148h-17q-171 0 -243 -71.5t-72 -243.5v-614h1053v614q0 139 -26.5 203.5t-95 87t-210.5 24.5v148
q117 -2 344.5 -9.5t376.5 -7.5q155 0 504 17v-148q-189 0 -258.5 -64t-69.5 -251v-1442q0 -130 28.5 -203t97.5 -104.5t202 -36.5v-143q-410 8 -615 8q-200 0 -610 -8v143q152 11 218.5 37t90 92.5t23.5 214.5v647h-1053v-647q0 -138 30 -207.5t100 -97.5t202 -39v-143
q-410 8 -615 8q-208 0 -610 -8z" />
    <glyph glyph-name="Icircumflex" unicode="&#xce;" horiz-adv-x="3068" 
d="M2879 1192q0 -266 -106 -500.5t-294 -410.5t-432 -273.5t-507 -97.5q-266 0 -512.5 91.5t-439.5 260t-302.5 398.5t-109.5 495q0 354 178 657.5t483 480.5t666 177q263 0 511.5 -93.5t443.5 -265.5t308 -409t113 -510zM999 2028q-188 -252 -188 -787q0 -12 2 -34t2 -31
q0 -277 61 -514t222.5 -392t437.5 -155q406 0 547 303t145 770q0 241 -49 470t-178.5 399.5t-353.5 211.5q-67 12 -136 12q-321 0 -512 -253z" />
    <glyph glyph-name="Icircumflex" unicode="&#x41e;" horiz-adv-x="3068" 
d="M2879 1192q0 -266 -106 -500.5t-294 -410.5t-432 -273.5t-507 -97.5q-266 0 -512.5 91.5t-439.5 260t-302.5 398.5t-109.5 495q0 354 178 657.5t483 480.5t666 177q263 0 511.5 -93.5t443.5 -265.5t308 -409t113 -510zM999 2028q-188 -252 -188 -787q0 -12 2 -34t2 -31
q0 -277 61 -514t222.5 -392t437.5 -155q406 0 547 303t145 770q0 241 -49 470t-178.5 399.5t-353.5 211.5q-67 12 -136 12q-321 0 -512 -253z" />
    <glyph glyph-name="Idieresis" unicode="&#xcf;" horiz-adv-x="3219" 
d="M172 -8v143q146 6 213 33.5t91 95t24 215.5v1442q0 192 -57 253.5t-234 61.5h-37v148q336 -8 582 -8q95 0 258.5 2t332.5 5.5t236 4.5q113 -2 413 -11.5t496 -9.5q206 0 521 17v-148q-189 0 -258.5 -64t-69.5 -251v-1442q0 -130 28.5 -203t97.5 -104.5t202 -36.5v-143
q-410 8 -615 8q-200 0 -610 -8v143q152 11 218.5 37t90 92.5t23.5 214.5v1442q0 138 -18.5 204t-66 88.5t-141.5 22.5h-626q-117 0 -159 -66t-42 -249v-1442q0 -138 30 -207.5t100 -97.5t202 -39v-143q-410 8 -615 8q-208 0 -610 -8z" />
    <glyph glyph-name="Idieresis" unicode="&#x41f;" horiz-adv-x="3219" 
d="M172 -8v143q146 6 213 33.5t91 95t24 215.5v1442q0 192 -57 253.5t-234 61.5h-37v148q336 -8 582 -8q95 0 258.5 2t332.5 5.5t236 4.5q113 -2 413 -11.5t496 -9.5q206 0 521 17v-148q-189 0 -258.5 -64t-69.5 -251v-1442q0 -130 28.5 -203t97.5 -104.5t202 -36.5v-143
q-410 8 -615 8q-200 0 -610 -8v143q152 11 218.5 37t90 92.5t23.5 214.5v1442q0 138 -18.5 204t-66 88.5t-141.5 22.5h-626q-117 0 -159 -66t-42 -249v-1442q0 -138 30 -207.5t100 -97.5t202 -39v-143q-410 8 -615 8q-208 0 -610 -8z" />
    <glyph glyph-name="Eth" unicode="&#xd0;" horiz-adv-x="2499" 
d="M184 -8v143q173 18 242.5 72.5t69.5 214.5v1540q0 165 -65 214t-247 65v139q65 -2 194.5 -7.5t219.5 -5.5q81 0 234 4.5t266 4.5h135q329 0 564 -52.5t382 -230.5q111 -139 111 -352q0 -138 -53 -264.5t-152 -206.5q-150 -121 -352 -161t-467 -40q-38 0 -108 2t-101 2
v-647q0 -176 84.5 -233.5t275.5 -57.5v-143q-116 2 -356 7t-356 5q-263 0 -521 -12zM1057 1245h69q249 0 377 74q95 52 140 162t45 243q0 96 -21 189q-34 145 -150 220t-272 75h-24q-164 0 -164 -94v-869z" />
    <glyph glyph-name="Eth" unicode="&#x420;" horiz-adv-x="2499" 
d="M184 -8v143q173 18 242.5 72.5t69.5 214.5v1540q0 165 -65 214t-247 65v139q65 -2 194.5 -7.5t219.5 -5.5q81 0 234 4.5t266 4.5h135q329 0 564 -52.5t382 -230.5q111 -139 111 -352q0 -138 -53 -264.5t-152 -206.5q-150 -121 -352 -161t-467 -40q-38 0 -108 2t-101 2
v-647q0 -176 84.5 -233.5t275.5 -57.5v-143q-116 2 -356 7t-356 5q-263 0 -521 -12zM1057 1245h69q249 0 377 74q95 52 140 162t45 243q0 96 -21 189q-34 145 -150 220t-272 75h-24q-164 0 -164 -94v-869z" />
    <glyph glyph-name="Ntilde" unicode="&#xd1;" horiz-adv-x="2576" 
d="M2232 831h148v-831h-144l-82 201q-198 -132 -380 -195t-394 -63q-98 0 -147 4q-313 28 -556.5 190t-378 424t-134.5 574l4 8l-4 4q0 278 101.5 517.5t276.5 412.5t400 266.5t463 93.5q381 0 709 -229l61 196h156l20 -766h-147q-52 171 -142 309t-225.5 222t-308.5 84
q-195 0 -336.5 -98t-228.5 -257.5t-125.5 -343t-38.5 -366.5q0 -2 2 -6t2 -6q0 -185 36 -361.5t119.5 -329t221 -243.5t331.5 -95h13q531 0 708 684z" />
    <glyph glyph-name="Ntilde" unicode="&#x421;" horiz-adv-x="2576" 
d="M2232 831h148v-831h-144l-82 201q-198 -132 -380 -195t-394 -63q-98 0 -147 4q-313 28 -556.5 190t-378 424t-134.5 574l4 8l-4 4q0 278 101.5 517.5t276.5 412.5t400 266.5t463 93.5q381 0 709 -229l61 196h156l20 -766h-147q-52 171 -142 309t-225.5 222t-308.5 84
q-195 0 -336.5 -98t-228.5 -257.5t-125.5 -343t-38.5 -366.5q0 -2 2 -6t2 -6q0 -185 36 -361.5t119.5 -329t221 -243.5t331.5 -95h13q531 0 708 684z" />
    <glyph glyph-name="Ograve" unicode="&#xd2;" horiz-adv-x="2687" 
d="M1024 422v1761q-207 0 -317 -10t-197.5 -53t-146 -140.5t-93.5 -279.5h-143l29 684q440 -21 1069 -21q362 0 1233 17l32 -680h-139q-43 219 -124.5 321.5t-204 132t-334.5 29.5h-99v-1761q0 -126 40.5 -186.5t113 -79t211.5 -25.5v-143q-101 2 -301 7t-297 5
q-114 0 -342 -5t-338 -7v143q131 9 202 28.5t108.5 78.5t37.5 184z" />
    <glyph glyph-name="Ograve" unicode="&#x422;" horiz-adv-x="2687" 
d="M1024 422v1761q-207 0 -317 -10t-197.5 -53t-146 -140.5t-93.5 -279.5h-143l29 684q440 -21 1069 -21q362 0 1233 17l32 -680h-139q-43 219 -124.5 321.5t-204 132t-334.5 29.5h-99v-1761q0 -126 40.5 -186.5t113 -79t211.5 -25.5v-143q-101 2 -301 7t-297 5
q-114 0 -342 -5t-338 -7v143q131 9 202 28.5t108.5 78.5t37.5 184z" />
    <glyph glyph-name="Oacute" unicode="&#xd3;" horiz-adv-x="2728" 
d="M1323 578l-741 1298q-220 373 -463 373v139q343 -21 590 -21q190 0 651 17v-135q-110 -7 -192.5 -53t-82.5 -115q0 -27 25 -66l483 -868l344 778q58 164 58 201q0 106 -238 123v139q252 -21 365 -21q69 0 401 17v-119q-119 0 -198.5 -59t-127 -141.5t-120.5 -245.5
l-668 -1434q-113 -230 -258 -328t-336 -98q-105 0 -191.5 61.5t-86.5 176.5q0 112 68.5 178.5t160.5 66.5q71 0 105.5 -21t90.5 -65.5t95 -44.5q57 0 112.5 37.5t75.5 81.5z" />
    <glyph glyph-name="Oacute" unicode="&#x423;" horiz-adv-x="2728" 
d="M1323 578l-741 1298q-220 373 -463 373v139q343 -21 590 -21q190 0 651 17v-135q-110 -7 -192.5 -53t-82.5 -115q0 -27 25 -66l483 -868l344 778q58 164 58 201q0 106 -238 123v139q252 -21 365 -21q69 0 401 17v-119q-119 0 -198.5 -59t-127 -141.5t-120.5 -245.5
l-668 -1434q-113 -230 -258 -328t-336 -98q-105 0 -191.5 61.5t-86.5 176.5q0 112 68.5 178.5t160.5 66.5q71 0 105.5 -21t90.5 -65.5t95 -44.5q57 0 112.5 37.5t75.5 81.5z" />
    <glyph glyph-name="Ocircumflex" unicode="&#xd4;" horiz-adv-x="2879" 
d="M2023 -8q-416 8 -626 8q-209 0 -627 -8v143q130 10 195.5 31.5t99.5 73t45 153.5q-41 -4 -123 -4q-232 0 -430 89t-318 268.5t-120 433.5q0 253 127.5 434t333.5 272.5t436 91.5q9 0 36 2t38 2h20q-14 146 -90.5 200t-249.5 54v148q73 -1 203.5 -4t261 -5.5t203.5 -2.5
q64 0 178.5 2t229.5 5.5t177 4.5v-148q-170 0 -246.5 -54.5t-88.5 -199.5h12q11 0 40 -2t42 -2q230 0 435.5 -91.5t333.5 -272.5t128 -434t-120 -432.5t-319.5 -269t-433.5 -89.5q-77 0 -118 4q7 -101 42 -153t100 -73.5t193 -31.5v-143zM1769 1827l-38 7t-43 5v-1290
q167 0 271 98.5t147.5 247t43.5 309.5q0 227 -90 408.5t-291 214.5zM1028 1827q-201 -33 -291 -216t-90 -407q0 -161 43 -310t147 -247t273 -98v1290q-17 0 -42 -5t-40 -7z" />
    <glyph glyph-name="Ocircumflex" unicode="&#x424;" horiz-adv-x="2879" 
d="M2023 -8q-416 8 -626 8q-209 0 -627 -8v143q130 10 195.5 31.5t99.5 73t45 153.5q-41 -4 -123 -4q-232 0 -430 89t-318 268.5t-120 433.5q0 253 127.5 434t333.5 272.5t436 91.5q9 0 36 2t38 2h20q-14 146 -90.5 200t-249.5 54v148q73 -1 203.5 -4t261 -5.5t203.5 -2.5
q64 0 178.5 2t229.5 5.5t177 4.5v-148q-170 0 -246.5 -54.5t-88.5 -199.5h12q11 0 40 -2t42 -2q230 0 435.5 -91.5t333.5 -272.5t128 -434t-120 -432.5t-319.5 -269t-433.5 -89.5q-77 0 -118 4q7 -101 42 -153t100 -73.5t193 -31.5v-143zM1769 1827l-38 7t-43 5v-1290
q167 0 271 98.5t147.5 247t43.5 309.5q0 227 -90 408.5t-291 214.5zM1028 1827q-201 -33 -291 -216t-90 -407q0 -161 43 -310t147 -247t273 -98v1290q-17 0 -42 -5t-40 -7z" />
    <glyph glyph-name="Otilde" unicode="&#xd5;" horiz-adv-x="2916" 
d="M156 -8v139q273 45 528 352l487 590l-589 803q-114 161 -216 253.5t-247 119.5v139q343 -21 590 -21q190 0 651 17v-135q-258 -17 -258 -127q0 -53 57 -127l361 -500l303 369q119 142 119 237q0 129 -267 148v139q252 -21 430 -21q148 0 480 17v-135q-132 -11 -234 -77
t-165.5 -141t-198.5 -249l-361 -434l754 -1012q73 -100 144 -141.5t192 -55.5v-147q-378 8 -578 8q-234 0 -692 -8v147q141 0 218 20.5t77 86.5q0 71 -78 172l-381 508l-373 -459q-94 -114 -94 -184q0 -128 270 -148v-143q-93 2 -273 7t-267 5q-198 0 -389 -12z" />
    <glyph glyph-name="Otilde" unicode="&#x425;" horiz-adv-x="2916" 
d="M156 -8v139q273 45 528 352l487 590l-589 803q-114 161 -216 253.5t-247 119.5v139q343 -21 590 -21q190 0 651 17v-135q-258 -17 -258 -127q0 -53 57 -127l361 -500l303 369q119 142 119 237q0 129 -267 148v139q252 -21 430 -21q148 0 480 17v-135q-132 -11 -234 -77
t-165.5 -141t-198.5 -249l-361 -434l754 -1012q73 -100 144 -141.5t192 -55.5v-147q-378 8 -578 8q-234 0 -692 -8v147q141 0 218 20.5t77 86.5q0 71 -78 172l-381 508l-373 -459q-94 -114 -94 -184q0 -128 270 -148v-143q-93 2 -273 7t-267 5q-198 0 -389 -12z" />
    <glyph glyph-name="Odieresis" unicode="&#xd6;" horiz-adv-x="3256" 
d="M3011 135l49 -692h-140q-46 234 -128 353.5t-213 161.5t-355 42h-553q-925 0 -1499 -8v143q146 6 213 33.5t91 95t24 215.5v1442q0 192 -57 253.5t-234 61.5h-37v148q67 -1 186 -4.5t237 -5.5t187 -2q66 0 186.5 2.5t239.5 5.5t189 4v-148h-17q-171 0 -243 -71.5
t-72 -243.5v-1442q0 -193 56 -268.5t202 -75.5h569q101 0 148.5 27t62.5 97.5t15 219.5v1442q0 139 -26.5 203.5t-95 87t-210.5 24.5v148q117 -2 344.5 -9.5t376.5 -7.5q155 0 504 17v-148q-189 0 -258.5 -64t-69.5 -251v-1442q0 -130 28.5 -203t97.5 -104.5t202 -36.5z" />
    <glyph glyph-name="Odieresis" unicode="&#x426;" horiz-adv-x="3256" 
d="M3011 135l49 -692h-140q-46 234 -128 353.5t-213 161.5t-355 42h-553q-925 0 -1499 -8v143q146 6 213 33.5t91 95t24 215.5v1442q0 192 -57 253.5t-234 61.5h-37v148q67 -1 186 -4.5t237 -5.5t187 -2q66 0 186.5 2.5t239.5 5.5t189 4v-148h-17q-171 0 -243 -71.5
t-72 -243.5v-1442q0 -193 56 -268.5t202 -75.5h569q101 0 148.5 27t62.5 97.5t15 219.5v1442q0 139 -26.5 203.5t-95 87t-210.5 24.5v148q117 -2 344.5 -9.5t376.5 -7.5q155 0 504 17v-148q-189 0 -258.5 -64t-69.5 -251v-1442q0 -130 28.5 -203t97.5 -104.5t202 -36.5z" />
    <glyph glyph-name="multiply" unicode="&#xd7;" horiz-adv-x="3142" 
d="M500 1544v377q0 192 -57 253.5t-234 61.5h-37v148q67 -1 186 -4.5t237 -5.5t187 -2q66 0 186.5 2.5t239.5 5.5t189 4v-148h-17q-171 0 -243 -71.5t-72 -243.5v-385q0 -203 164 -283q124 -57 241 -57q256 0 566 221v504q0 139 -26.5 203.5t-95 87t-210.5 24.5v148
q121 -2 346.5 -9.5t374.5 -7.5q151 0 508 17v-148q-191 0 -261.5 -64t-70.5 -251v-1442q0 -131 29 -203.5t99 -104t204 -36.5v-143q-418 8 -619 8q-200 0 -610 -8v143q152 11 218.5 37t90 92.5t23.5 214.5v750q-429 -361 -807 -361q-247 0 -492 164q-106 71 -171.5 207.5
t-65.5 304.5z" />
    <glyph glyph-name="multiply" unicode="&#x427;" horiz-adv-x="3142" 
d="M500 1544v377q0 192 -57 253.5t-234 61.5h-37v148q67 -1 186 -4.5t237 -5.5t187 -2q66 0 186.5 2.5t239.5 5.5t189 4v-148h-17q-171 0 -243 -71.5t-72 -243.5v-385q0 -203 164 -283q124 -57 241 -57q256 0 566 221v504q0 139 -26.5 203.5t-95 87t-210.5 24.5v148
q121 -2 346.5 -9.5t374.5 -7.5q151 0 508 17v-148q-191 0 -261.5 -64t-70.5 -251v-1442q0 -131 29 -203.5t99 -104t204 -36.5v-143q-418 8 -619 8q-200 0 -610 -8v143q152 11 218.5 37t90 92.5t23.5 214.5v750q-429 -361 -807 -361q-247 0 -492 164q-106 71 -171.5 207.5
t-65.5 304.5z" />
    <glyph glyph-name="Oslash" unicode="&#xd8;" horiz-adv-x="3752" 
d="M172 -8v143q146 6 213 33.5t91 95t24 215.5v1442q0 192 -57 253.5t-234 61.5h-37v148q336 -8 442 -8q59 0 176 2.5t228 5.5t199 4v-152h-21q-82 0 -106.5 -65.5t-24.5 -249.5v-1442q0 -217 25 -279t127 -65h200q70 2 102.5 30t43 97.5t10.5 216.5v1442q0 181 -27.5 248
t-111.5 67h-17v148q77 -1 128 -3t163 -5.5t147 -3.5q33 0 143 3.5t162.5 5.5t129.5 3v-148h-17q-84 0 -109.5 -61t-25.5 -238v-1462q0 -145 10 -214t42 -96.5t100 -29.5h209q70 2 100 29.5t38.5 94.5t8.5 220v1442q0 184 -25 249.5t-110 65.5h-12v152q82 -1 193.5 -4
t226 -5.5t173.5 -2.5q107 0 451 8v-148h-45q-178 0 -232.5 -61t-54.5 -254v-1442q0 -148 24 -215.5t92 -95t216 -33.5v-143q-582 8 -774 8h-664q-181 0 -753 -8q-410 8 -590 8q-188 0 -590 -8z" />
    <glyph glyph-name="Oslash" unicode="&#x428;" horiz-adv-x="3752" 
d="M172 -8v143q146 6 213 33.5t91 95t24 215.5v1442q0 192 -57 253.5t-234 61.5h-37v148q336 -8 442 -8q59 0 176 2.5t228 5.5t199 4v-152h-21q-82 0 -106.5 -65.5t-24.5 -249.5v-1442q0 -217 25 -279t127 -65h200q70 2 102.5 30t43 97.5t10.5 216.5v1442q0 181 -27.5 248
t-111.5 67h-17v148q77 -1 128 -3t163 -5.5t147 -3.5q33 0 143 3.5t162.5 5.5t129.5 3v-148h-17q-84 0 -109.5 -61t-25.5 -238v-1462q0 -145 10 -214t42 -96.5t100 -29.5h209q70 2 100 29.5t38.5 94.5t8.5 220v1442q0 184 -25 249.5t-110 65.5h-12v152q82 -1 193.5 -4
t226 -5.5t173.5 -2.5q107 0 451 8v-148h-45q-178 0 -232.5 -61t-54.5 -254v-1442q0 -148 24 -215.5t92 -95t216 -33.5v-143q-582 8 -774 8h-664q-181 0 -753 -8q-410 8 -590 8q-188 0 -590 -8z" />
    <glyph glyph-name="Ugrave" unicode="&#xd9;" horiz-adv-x="3789" 
d="M3543 135l45 -692h-139q-44 233 -127 353t-217 162t-361 42h-168q6 0 13.5 1.5t11.5 2.5q-8 -1 -44 -2.5t-116 -1.5h-336q-181 0 -753 -8q-410 8 -590 8q-188 0 -590 -8v143q146 6 213 33.5t91 95t24 215.5v1442q0 192 -57 253.5t-234 61.5h-37v148q336 -8 442 -8
q59 0 176 2.5t228 5.5t199 4v-152h-21q-82 0 -106.5 -65.5t-24.5 -249.5v-1442q0 -217 25 -279t127 -65h200q70 2 102.5 30t43 97.5t10.5 216.5v1442q0 181 -27.5 248t-111.5 67h-17v148q77 -1 128 -3t163 -5.5t147 -3.5q33 0 143 3.5t162.5 5.5t129.5 3v-148h-17
q-84 0 -109.5 -61t-25.5 -238v-1462q0 -145 10 -214t42 -96.5t100 -29.5h209q70 2 100 29.5t38.5 94.5t8.5 220v1442q0 184 -25 249.5t-110 65.5h-12v152q82 -1 193.5 -4t226 -5.5t173.5 -2.5q107 0 451 8v-148h-45q-178 0 -232.5 -61t-54.5 -254v-1442q0 -148 24 -215.5
t92 -95t216 -33.5z" />
    <glyph glyph-name="Ugrave" unicode="&#x429;" horiz-adv-x="3789" 
d="M3543 135l45 -692h-139q-44 233 -127 353t-217 162t-361 42h-168q6 0 13.5 1.5t11.5 2.5q-8 -1 -44 -2.5t-116 -1.5h-336q-181 0 -753 -8q-410 8 -590 8q-188 0 -590 -8v143q146 6 213 33.5t91 95t24 215.5v1442q0 192 -57 253.5t-234 61.5h-37v148q336 -8 442 -8
q59 0 176 2.5t228 5.5t199 4v-152h-21q-82 0 -106.5 -65.5t-24.5 -249.5v-1442q0 -217 25 -279t127 -65h200q70 2 102.5 30t43 97.5t10.5 216.5v1442q0 181 -27.5 248t-111.5 67h-17v148q77 -1 128 -3t163 -5.5t147 -3.5q33 0 143 3.5t162.5 5.5t129.5 3v-148h-17
q-84 0 -109.5 -61t-25.5 -238v-1462q0 -145 10 -214t42 -96.5t100 -29.5h209q70 2 100 29.5t38.5 94.5t8.5 220v1442q0 184 -25 249.5t-110 65.5h-12v152q82 -1 193.5 -4t226 -5.5t173.5 -2.5q107 0 451 8v-148h-45q-178 0 -232.5 -61t-54.5 -254v-1442q0 -148 24 -215.5
t92 -95t216 -33.5z" />
    <glyph glyph-name="Uacute" unicode="&#xda;" horiz-adv-x="2994" 
d="M1815 2384v-148h-17q-170 0 -240.5 -71t-70.5 -244v-578q492 -3 792 -101.5t424 -278.5q86 -128 86 -312q0 -230 -127 -377q-102 -115 -246 -177t-303.5 -83.5t-343.5 -21.5h-122q-378 8 -562 8q-243 0 -483 -12v151q193 11 262.5 74t69.5 254v1475q0 237 -143 237h-5
q-232 -6 -349 -105.5t-167 -373.5h-143l29 684q579 -21 737 -21q141 0 399.5 8t522.5 13zM2036 266q127 121 127 381q0 173 -58 295q-58 136 -185 182.5t-302 46.5h-131v-593q0 -143 23 -241t108 -136q71 -33 151 -33q167 0 267 98z" />
    <glyph glyph-name="Uacute" unicode="&#x42a;" horiz-adv-x="2994" 
d="M1815 2384v-148h-17q-170 0 -240.5 -71t-70.5 -244v-578q492 -3 792 -101.5t424 -278.5q86 -128 86 -312q0 -230 -127 -377q-102 -115 -246 -177t-303.5 -83.5t-343.5 -21.5h-122q-378 8 -562 8q-243 0 -483 -12v151q193 11 262.5 74t69.5 254v1475q0 237 -143 237h-5
q-232 -6 -349 -105.5t-167 -373.5h-143l29 684q579 -21 737 -21q141 0 399.5 8t522.5 13zM2036 266q127 121 127 381q0 173 -58 295q-58 136 -185 182.5t-302 46.5h-131v-593q0 -143 23 -241t108 -136q71 -33 151 -33q167 0 267 98z" />
    <glyph glyph-name="Ucircumflex" unicode="&#xdb;" horiz-adv-x="3789" 
d="M1057 1913v-570q351 0 594.5 -44t390.5 -125.5t231 -202.5q86 -128 86 -320q0 -233 -123 -377q-102 -115 -246 -177t-303.5 -83.5t-343.5 -21.5h-126q-370 8 -562 8q-237 0 -483 -12v151q196 11 266 74t70 254v1487q0 122 -32.5 182t-100 82t-195.5 27v147
q130 -2 213 -4.5t200 -5.5t215 -4.5t163 -1.5q138 0 426 8v-148h-17q-172 0 -247.5 -74.5t-75.5 -248.5zM2343 2384q123 -2 347.5 -9.5t373.5 -7.5q151 0 508 17v-148q-191 0 -261.5 -64t-70.5 -251v-1442q0 -131 29 -203.5t99 -104t204 -36.5v-143q-418 8 -615 8
q-204 0 -614 -8v143q152 11 218.5 37t90 92.5t23.5 214.5v1442q0 139 -26.5 203.5t-95 87t-210.5 24.5v148zM1192 201q71 -33 151 -33q167 0 267 98q127 121 127 381q0 173 -58 295q-58 136 -185 182.5t-302 46.5h-135v-593q0 -143 23.5 -241t111.5 -136z" />
    <glyph glyph-name="Ucircumflex" unicode="&#x42b;" horiz-adv-x="3789" 
d="M1057 1913v-570q351 0 594.5 -44t390.5 -125.5t231 -202.5q86 -128 86 -320q0 -233 -123 -377q-102 -115 -246 -177t-303.5 -83.5t-343.5 -21.5h-126q-370 8 -562 8q-237 0 -483 -12v151q196 11 266 74t70 254v1487q0 122 -32.5 182t-100 82t-195.5 27v147
q130 -2 213 -4.5t200 -5.5t215 -4.5t163 -1.5q138 0 426 8v-148h-17q-172 0 -247.5 -74.5t-75.5 -248.5zM2343 2384q123 -2 347.5 -9.5t373.5 -7.5q151 0 508 17v-148q-191 0 -261.5 -64t-70.5 -251v-1442q0 -131 29 -203.5t99 -104t204 -36.5v-143q-418 8 -615 8
q-204 0 -614 -8v143q152 11 218.5 37t90 92.5t23.5 214.5v1442q0 139 -26.5 203.5t-95 87t-210.5 24.5v148zM1192 201q71 -33 151 -33q167 0 267 98q127 121 127 381q0 173 -58 295q-58 136 -185 182.5t-302 46.5h-135v-593q0 -143 23.5 -241t111.5 -136z" />
    <glyph glyph-name="Udieresis" unicode="&#xdc;" horiz-adv-x="2576" 
d="M1057 1913v-570q963 0 1229 -380q81 -125 81 -304q0 -233 -131 -385q-102 -115 -246 -177t-303.5 -83.5t-343.5 -21.5h-126q-370 8 -562 8q-237 0 -483 -12v151q196 11 266 74t70 254v1487q0 122 -32.5 182t-100 82t-195.5 27v147q130 -2 213 -4.5t200 -5.5t215 -4.5
t163 -1.5q138 0 426 8v-148h-17q-172 0 -247.5 -74.5t-75.5 -248.5zM1679 942q-58 136 -185 182.5t-302 46.5h-135v-593q0 -143 23.5 -241t111.5 -136q71 -33 151 -33q167 0 267 98q127 121 127 381q0 173 -58 295z" />
    <glyph glyph-name="Udieresis" unicode="&#x42c;" horiz-adv-x="2576" 
d="M1057 1913v-570q963 0 1229 -380q81 -125 81 -304q0 -233 -131 -385q-102 -115 -246 -177t-303.5 -83.5t-343.5 -21.5h-126q-370 8 -562 8q-237 0 -483 -12v151q196 11 266 74t70 254v1487q0 122 -32.5 182t-100 82t-195.5 27v147q130 -2 213 -4.5t200 -5.5t215 -4.5
t163 -1.5q138 0 426 8v-148h-17q-172 0 -247.5 -74.5t-75.5 -248.5zM1679 942q-58 136 -185 182.5t-302 46.5h-135v-593q0 -143 23.5 -241t111.5 -136q71 -33 151 -33q167 0 267 98q127 121 127 381q0 173 -58 295z" />
    <glyph glyph-name="Yacute" unicode="&#xdd;" horiz-adv-x="2765" 
d="M336 831h151q171 -684 705 -684h12q247 3 403.5 147t227.5 366t78 466h-975v181h967q-17 242 -92 455.5t-229.5 352t-391.5 138.5q-174 0 -311 -84t-227 -222.5t-138 -308.5h-151l24 766h156l57 -196q327 229 705 229q239 0 464.5 -94t402 -267t277.5 -411.5t101 -517.5
v-12q0 -314 -133.5 -575t-376.5 -423t-555 -190q-53 -4 -152 -4q-210 0 -393 63t-381 195l-78 -201h-147v831z" />
    <glyph glyph-name="Yacute" unicode="&#x42d;" horiz-adv-x="2765" 
d="M336 831h151q171 -684 705 -684h12q247 3 403.5 147t227.5 366t78 466h-975v181h967q-17 242 -92 455.5t-229.5 352t-391.5 138.5q-174 0 -311 -84t-227 -222.5t-138 -308.5h-151l24 766h156l57 -196q327 229 705 229q239 0 464.5 -94t402 -267t277.5 -411.5t101 -517.5
v-12q0 -314 -133.5 -575t-376.5 -423t-555 -190q-53 -4 -152 -4q-210 0 -393 63t-381 195l-78 -201h-147v831z" />
    <glyph glyph-name="Thorn" unicode="&#xde;" horiz-adv-x="3752" 
d="M1315 1126h-250v-647q0 -138 30 -207.5t100 -97.5t202 -39v-143q-410 8 -615 8q-208 0 -610 -8v143q146 6 213 33.5t91 95t24 215.5v1442q0 192 -57 253.5t-234 61.5h-37v148q67 -1 186 -4.5t237 -5.5t187 -2q66 0 186.5 2.5t239.5 5.5t189 4v-148h-17q-171 0 -243 -71.5
t-72 -243.5v-614h254q30 323 183.5 589t396 420t526.5 154q218 0 424 -93t369 -265.5t256.5 -410t93.5 -509.5q0 -354 -154 -649t-410 -464t-550 -169q-219 0 -421.5 88t-365.5 254.5t-255.5 390t-96.5 483.5zM2036 2028q-144 -253 -144 -775q0 -11 2 -38t2 -39
q11 -1061 553 -1061q315 0 422 299t115 774q0 395 -99 698t-352 363q-48 12 -114 12q-247 0 -385 -233z" />
    <glyph glyph-name="Thorn" unicode="&#x42e;" horiz-adv-x="3752" 
d="M1315 1126h-250v-647q0 -138 30 -207.5t100 -97.5t202 -39v-143q-410 8 -615 8q-208 0 -610 -8v143q146 6 213 33.5t91 95t24 215.5v1442q0 192 -57 253.5t-234 61.5h-37v148q67 -1 186 -4.5t237 -5.5t187 -2q66 0 186.5 2.5t239.5 5.5t189 4v-148h-17q-171 0 -243 -71.5
t-72 -243.5v-614h254q30 323 183.5 589t396 420t526.5 154q218 0 424 -93t369 -265.5t256.5 -410t93.5 -509.5q0 -354 -154 -649t-410 -464t-550 -169q-219 0 -421.5 88t-365.5 254.5t-255.5 390t-96.5 483.5zM2036 2028q-144 -253 -144 -775q0 -11 2 -38t2 -39
q11 -1061 553 -1061q315 0 422 299t115 774q0 395 -99 698t-352 363q-48 12 -114 12q-247 0 -385 -233z" />
    <glyph glyph-name="germandbls" unicode="&#xdf;" horiz-adv-x="2843" 
d="M2646 -8q-344 8 -532 8q-243 0 -725 -8v147q138 5 208 27t105 90.5t35 206.5v610q-132 0 -190 -52t-167 -210l-573 -819q-196 8 -307 8q-71 0 -213 -5t-209 -7v131q186 35 332 233l344 484q113 161 168 229t147 123q-367 60 -512 295q-86 140 -86 299q0 245 164 401
q232 213 819 213q84 0 247 -5.5t204 -6.5q45 0 139 -4t139 -4q51 0 141 2t180 5.5t142 4.5v-143q-138 -2 -213.5 -18.5t-115.5 -75t-40 -185.5q0 -2 2 -6t2 -6v-1471q0 -146 32 -217t107.5 -96.5t225.5 -30.5v-147zM1737 1237v852q0 125 -99 135h-86q-295 0 -401 -184
q-78 -137 -78 -311q0 -166 74 -299q69 -122 192.5 -159.5t302.5 -37.5q14 0 47 2t48 2z" />
    <glyph glyph-name="germandbls" unicode="&#x42f;" horiz-adv-x="2843" 
d="M2646 -8q-344 8 -532 8q-243 0 -725 -8v147q138 5 208 27t105 90.5t35 206.5v610q-132 0 -190 -52t-167 -210l-573 -819q-196 8 -307 8q-71 0 -213 -5t-209 -7v131q186 35 332 233l344 484q113 161 168 229t147 123q-367 60 -512 295q-86 140 -86 299q0 245 164 401
q232 213 819 213q84 0 247 -5.5t204 -6.5q45 0 139 -4t139 -4q51 0 141 2t180 5.5t142 4.5v-143q-138 -2 -213.5 -18.5t-115.5 -75t-40 -185.5q0 -2 2 -6t2 -6v-1471q0 -146 32 -217t107.5 -96.5t225.5 -30.5v-147zM1737 1237v852q0 125 -99 135h-86q-295 0 -401 -184
q-78 -137 -78 -311q0 -166 74 -299q69 -122 192.5 -159.5t302.5 -37.5q14 0 47 2t48 2z" />
    <glyph glyph-name="agrave" unicode="&#xe0;" horiz-adv-x="2007" 
d="M1053 176q-128 -104 -239 -161t-236 -60h-29q-280 0 -377 205q-45 110 -45 188q0 109 57 212t156 169q128 84 385 180l153.5 53t100.5 42q86 40 86 143v65q0 199 -123 242q-40 8 -74 8q-116 0 -184 -82q-29 -32 -61.5 -110t-51.5 -113t-67 -63q-65 -37 -115 -37
q-77 0 -132.5 64.5t-55.5 148.5q0 86 61 160q74 77 245.5 126.5t369.5 49.5q277 0 468 -112.5t191 -354.5v-836q0 -102 57 -102q36 0 123 53l74 -94q-68 -95 -184 -150t-234 -55q-131 0 -203 50t-116 171zM1049 479v389q-141 -42 -243.5 -101.5t-146.5 -160.5
q-28 -96 -28 -151q0 -97 49 -152q42 -65 123 -65q88 0 167 74t79 167z" />
    <glyph glyph-name="agrave" unicode="&#x430;" horiz-adv-x="2007" 
d="M1053 176q-128 -104 -239 -161t-236 -60h-29q-280 0 -377 205q-45 110 -45 188q0 109 57 212t156 169q128 84 385 180l153.5 53t100.5 42q86 40 86 143v65q0 199 -123 242q-40 8 -74 8q-116 0 -184 -82q-29 -32 -61.5 -110t-51.5 -113t-67 -63q-65 -37 -115 -37
q-77 0 -132.5 64.5t-55.5 148.5q0 86 61 160q74 77 245.5 126.5t369.5 49.5q277 0 468 -112.5t191 -354.5v-836q0 -102 57 -102q36 0 123 53l74 -94q-68 -95 -184 -150t-234 -55q-131 0 -203 50t-116 171zM1049 479v389q-141 -42 -243.5 -101.5t-146.5 -160.5
q-28 -96 -28 -151q0 -97 49 -152q42 -65 123 -65q88 0 167 74t79 167z" />
    <glyph glyph-name="aacute" unicode="&#xe1;" horiz-adv-x="2081" 
d="M311 1249q111 193 307 291t414 98q170 0 326.5 -65.5t278 -183t190.5 -273t69 -334.5q0 -230 -117 -433t-316.5 -323t-430.5 -120q-236 0 -445.5 119t-334.5 323t-125 443q0 2 -2 12t-2 12q0 387 44 650.5t154.5 438t308 269.5t505.5 117q182 11 296.5 73.5t133.5 122.5
h151q0 -562 -549 -606q-288 -25 -460.5 -77.5t-257.5 -130.5t-111.5 -176t-26.5 -247zM664 762q0 -14 -2.5 -31.5t-2.5 -25.5q0 -607 349 -607q227 3 289.5 203t62.5 498q0 268 -63.5 461.5t-276.5 193.5q-156 -1 -235 -111.5t-100 -255.5t-21 -325z" />
    <glyph glyph-name="aacute" unicode="&#x431;" horiz-adv-x="2081" 
d="M311 1249q111 193 307 291t414 98q170 0 326.5 -65.5t278 -183t190.5 -273t69 -334.5q0 -230 -117 -433t-316.5 -323t-430.5 -120q-236 0 -445.5 119t-334.5 323t-125 443q0 2 -2 12t-2 12q0 387 44 650.5t154.5 438t308 269.5t505.5 117q182 11 296.5 73.5t133.5 122.5
h151q0 -562 -549 -606q-288 -25 -460.5 -77.5t-257.5 -130.5t-111.5 -176t-26.5 -247zM664 762q0 -14 -2.5 -31.5t-2.5 -25.5q0 -607 349 -607q227 3 289.5 203t62.5 498q0 268 -63.5 461.5t-276.5 193.5q-156 -1 -235 -111.5t-100 -255.5t-21 -325z" />
    <glyph glyph-name="acircumflex" unicode="&#xe2;" horiz-adv-x="2007" 
d="M1278 844q340 -42 471 -226q37 -59 37 -176q0 -204 -103 -295q-173 -155 -548 -155h-78q-304 8 -459 8q-159 0 -463 -8v127q109 6 146.5 14t57.5 44.5t21 121.5v971q-1 82 -21 117t-56.5 42t-147.5 13v123q61 0 171 -2t165 -2q171 0 549 8h139q312 0 459 -152
q61 -67 61 -205q0 -142 -65 -213q-76 -79 -143.5 -106.5t-192.5 -48.5zM848 885q397 0 397 286v46q-11 115 -92 174t-203 59q-28 0 -86 -8q-20 -7 -20 -21q0 -2 2 -8t2 -8v-520zM1221 164q106 67 106 233q0 119 -49 209q-51 91 -157.5 121.5t-272.5 30.5v-385
q0 -77 24.5 -155.5t73.5 -94.5q17 -2 48 -9.5t50 -7.5q86 0 177 58z" />
    <glyph glyph-name="acircumflex" unicode="&#x432;" horiz-adv-x="2007" 
d="M1278 844q340 -42 471 -226q37 -59 37 -176q0 -204 -103 -295q-173 -155 -548 -155h-78q-304 8 -459 8q-159 0 -463 -8v127q109 6 146.5 14t57.5 44.5t21 121.5v971q-1 82 -21 117t-56.5 42t-147.5 13v123q61 0 171 -2t165 -2q171 0 549 8h139q312 0 459 -152
q61 -67 61 -205q0 -142 -65 -213q-76 -79 -143.5 -106.5t-192.5 -48.5zM848 885q397 0 397 286v46q-11 115 -92 174t-203 59q-28 0 -86 -8q-20 -7 -20 -21q0 -2 2 -8t2 -8v-520zM1221 164q106 67 106 233q0 119 -49 209q-51 91 -157.5 121.5t-272.5 30.5v-385
q0 -77 24.5 -155.5t73.5 -94.5q17 -2 48 -9.5t50 -7.5q86 0 177 58z" />
    <glyph glyph-name="atilde" unicode="&#xe3;" horiz-adv-x="1778" 
d="M131 1569h1413l45 -512h-151q-46 208 -156.5 289t-286.5 88q-151 0 -151 -213q0 -1 2 -6t2 -7v-872q-4 0 -4 -12q0 -110 49.5 -157.5t163.5 -47.5v-127q-304 8 -459 8q-159 0 -463 -8v127q134 6 176 40.5t45 159.5v906q-3 127 -45 161.5t-176 43.5z" />
    <glyph glyph-name="atilde" unicode="&#x433;" horiz-adv-x="1778" 
d="M131 1569h1413l45 -512h-151q-46 208 -156.5 289t-286.5 88q-151 0 -151 -213q0 -1 2 -6t2 -7v-872q-4 0 -4 -12q0 -110 49.5 -157.5t163.5 -47.5v-127q-304 8 -459 8q-159 0 -463 -8v127q134 6 176 40.5t45 159.5v906q-3 127 -45 161.5t-176 43.5z" />
    <glyph glyph-name="adieresis" unicode="&#xe4;" horiz-adv-x="2159" 
d="M135 119q90 0 139 37q173 132 253.5 389.5t103.5 642.5v12q0 106 -69 174t-193 68h-13v123q139 0 240 -4.5t145 -4.5q21 0 79.5 2.5t125.5 2.5q65 0 145.5 -2.5t129.5 -2.5q119 0 338 4.5t362 4.5v-123q-92 -10 -132 -24t-58.5 -52t-18.5 -125v-922q0 -85 18.5 -123.5
t56.5 -51t134 -25.5l41 -508h-152q-40 190 -96 271.5t-142 99.5t-282 18h-553q-194 0 -274 -18t-128.5 -97t-92.5 -274h-148zM1217 319v922q0 201 -111 201h-229q-97 0 -115 -197q-25 -321 -62.5 -532.5t-99 -354t-158.5 -239.5h574q119 0 160 40t41 160z" />
    <glyph glyph-name="adieresis" unicode="&#x434;" horiz-adv-x="2159" 
d="M135 119q90 0 139 37q173 132 253.5 389.5t103.5 642.5v12q0 106 -69 174t-193 68h-13v123q139 0 240 -4.5t145 -4.5q21 0 79.5 2.5t125.5 2.5q65 0 145.5 -2.5t129.5 -2.5q119 0 338 4.5t362 4.5v-123q-92 -10 -132 -24t-58.5 -52t-18.5 -125v-922q0 -85 18.5 -123.5
t56.5 -51t134 -25.5l41 -508h-152q-40 190 -96 271.5t-142 99.5t-282 18h-553q-194 0 -274 -18t-128.5 -97t-92.5 -274h-148zM1217 319v922q0 201 -111 201h-229q-97 0 -115 -197q-25 -321 -62.5 -532.5t-99 -354t-158.5 -239.5h574q119 0 160 40t41 160z" />
    <glyph glyph-name="aring" unicode="&#xe5;" horiz-adv-x="1929" 
d="M1589 410l119 -107q-124 -175 -312 -263.5t-392 -88.5q-162 0 -316.5 56t-277 162.5t-193 259.5t-70.5 337v61q16 239 139 414.5t320 268t426 92.5q78 0 115 -5q157 -15 293 -99t211 -220q78 -140 86 -430h-1045q0 -3 -2 -19t-2 -22q0 -575 397 -635q11 0 33 -2t33 -2
q218 0 438 242zM692 1016h582q0 438 -270 442q-154 0 -233 -136.5t-79 -305.5z" />
    <glyph glyph-name="aring" unicode="&#x435;" horiz-adv-x="1929" 
d="M1589 410l119 -107q-124 -175 -312 -263.5t-392 -88.5q-162 0 -316.5 56t-277 162.5t-193 259.5t-70.5 337v61q16 239 139 414.5t320 268t426 92.5q78 0 115 -5q157 -15 293 -99t211 -220q78 -140 86 -430h-1045q0 -3 -2 -19t-2 -22q0 -575 397 -635q11 0 33 -2t33 -2
q218 0 438 242zM692 1016h582q0 438 -270 442q-154 0 -233 -136.5t-79 -305.5z" />
    <glyph glyph-name="ae" unicode="&#xe6;" horiz-adv-x="3109" 
d="M1753 602q0 -54 -4 -135t-4 -107q0 -78 17 -124.5t67.5 -75t144.5 -41.5v-127q-147 16 -348 16q-96 0 -289.5 -7t-283.5 -9v127q139 20 182 71t43 170q0 26 -2 107t-2 135l-90 86l-500 -696q-70 8 -221 8q-110 0 -324 -8v131q36 0 78.5 19.5t56.5 50.5l607 798l-263 271
q-85 82 -175 124.5t-214 67.5v115q238 -8 340 -8q114 0 394 8v-115q-209 -11 -209 -82q0 -51 209 -274l307 -307v462q0 107 -33 152t-135 45v123q302 -8 409 -8q112 0 414 8v-123q-101 0 -136.5 -45.5t-35.5 -151.5v-462l311 307q205 219 205 274q0 71 -205 82v115
q280 -8 390 -8q106 0 344 8v-115q-243 -51 -390 -192l-262 -271l607 -798q10 -30 54 -50t81 -20v-131q-214 8 -328 8q-147 0 -217 -8l-500 696z" />
    <glyph glyph-name="ae" unicode="&#x436;" horiz-adv-x="3109" 
d="M1753 602q0 -54 -4 -135t-4 -107q0 -78 17 -124.5t67.5 -75t144.5 -41.5v-127q-147 16 -348 16q-96 0 -289.5 -7t-283.5 -9v127q139 20 182 71t43 170q0 26 -2 107t-2 135l-90 86l-500 -696q-70 8 -221 8q-110 0 -324 -8v131q36 0 78.5 19.5t56.5 50.5l607 798l-263 271
q-85 82 -175 124.5t-214 67.5v115q238 -8 340 -8q114 0 394 8v-115q-209 -11 -209 -82q0 -51 209 -274l307 -307v462q0 107 -33 152t-135 45v123q302 -8 409 -8q112 0 414 8v-123q-101 0 -136.5 -45.5t-35.5 -151.5v-462l311 307q205 219 205 274q0 71 -205 82v115
q280 -8 390 -8q106 0 344 8v-115q-243 -51 -390 -192l-262 -271l607 -798q10 -30 54 -50t81 -20v-131q-214 8 -328 8q-147 0 -217 -8l-500 696z" />
    <glyph glyph-name="ccedilla" unicode="&#xe7;" horiz-adv-x="1851" 
d="M311 410q83 -104 219 -171t261 -67q40 0 114 16q110 33 172 125.5t62 190.5q0 81 -25 114q-40 74 -75.5 94.5t-120.5 20.5h-87v160q158 0 237 74.5t79 195.5v54q-11 132 -88 207t-174 75q-144 0 -230 -139q-15 -21 -53 -110t-81 -141t-111 -52q-92 0 -146.5 57t-54.5 139
q0 15 4.5 33.5t7.5 36.5q27 108 128.5 161.5t256.5 100.5q154 41 340 41q185 0 341.5 -41t223.5 -123q99 -103 99 -245q0 -112 -70 -193q-123 -139 -344 -176q125 -15 231 -69.5t158 -123.5q70 -87 70 -217q0 -192 -148 -291q-268 -180 -639 -180q-137 0 -266 33
q-216 57 -401 299z" />
    <glyph glyph-name="ccedilla" unicode="&#x437;" horiz-adv-x="1851" 
d="M311 410q83 -104 219 -171t261 -67q40 0 114 16q110 33 172 125.5t62 190.5q0 81 -25 114q-40 74 -75.5 94.5t-120.5 20.5h-87v160q158 0 237 74.5t79 195.5v54q-11 132 -88 207t-174 75q-144 0 -230 -139q-15 -21 -53 -110t-81 -141t-111 -52q-92 0 -146.5 57t-54.5 139
q0 15 4.5 33.5t7.5 36.5q27 108 128.5 161.5t256.5 100.5q154 41 340 41q185 0 341.5 -41t223.5 -123q99 -103 99 -245q0 -112 -70 -193q-123 -139 -344 -176q125 -15 231 -69.5t158 -123.5q70 -87 70 -217q0 -192 -148 -291q-268 -180 -639 -180q-137 0 -266 33
q-216 57 -401 299z" />
    <glyph glyph-name="egrave" unicode="&#xe8;" horiz-adv-x="2310" 
d="M1405 950l-553 -557l-4 -57q-4 0 -4 -12q0 -110 49.5 -157.5t163.5 -47.5v-127q-304 8 -459 8q-159 0 -463 -8v127q134 6 176 40.5t45 159.5v906q-3 127 -45 161.5t-176 43.5v122q304 -8 463 -8q155 0 459 8v-122q-113 0 -163 -50.5t-50 -162.5q4 0 4 -9v-606l557 557v66
q0 121 -41.5 161.5t-159.5 43.5v122q296 -8 451 -8q160 0 454 8v-122q-129 -16 -168.5 -48.5t-39.5 -156.5v-906q0 -122 39.5 -154.5t168.5 -45.5v-127q-294 8 -454 8q-155 0 -451 -8v127q119 0 160 40t41 160v631z" />
    <glyph glyph-name="egrave" unicode="&#x438;" horiz-adv-x="2310" 
d="M1405 950l-553 -557l-4 -57q-4 0 -4 -12q0 -110 49.5 -157.5t163.5 -47.5v-127q-304 8 -459 8q-159 0 -463 -8v127q134 6 176 40.5t45 159.5v906q-3 127 -45 161.5t-176 43.5v122q304 -8 463 -8q155 0 459 8v-122q-113 0 -163 -50.5t-50 -162.5q4 0 4 -9v-606l557 557v66
q0 121 -41.5 161.5t-159.5 43.5v122q296 -8 451 -8q160 0 454 8v-122q-129 -16 -168.5 -48.5t-39.5 -156.5v-906q0 -122 39.5 -154.5t168.5 -45.5v-127q-294 8 -454 8q-155 0 -451 -8v127q119 0 160 40t41 160v631z" />
    <glyph glyph-name="eacute" unicode="&#xe9;" horiz-adv-x="2310" 
d="M1405 950l-553 -557l-4 -57q-4 0 -4 -12q0 -110 49.5 -157.5t163.5 -47.5v-127q-304 8 -459 8q-159 0 -463 -8v127q134 6 176 40.5t45 159.5v906q-3 127 -45 161.5t-176 43.5v122q304 -8 463 -8q155 0 459 8v-122q-113 0 -163 -50.5t-50 -162.5q4 0 4 -9v-614l557 565v66
q0 121 -41.5 161.5t-159.5 43.5v122q296 -8 451 -8q160 0 454 8v-122q-129 -16 -168.5 -48.5t-39.5 -156.5v-906q0 -122 39.5 -154.5t168.5 -45.5v-127q-294 8 -454 8q-155 0 -451 -8v127q119 0 160 40t41 160v631zM1139 2019q89 0 142 60t62 116q13 86 115 86q86 0 86 -139
q0 -95 -125.5 -166t-279.5 -71q-152 0 -277 71t-125 166q0 139 90 139q97 0 115 -86q9 -59 57.5 -117.5t139.5 -58.5z" />
    <glyph glyph-name="eacute" unicode="&#x439;" horiz-adv-x="2310" 
d="M1405 950l-553 -557l-4 -57q-4 0 -4 -12q0 -110 49.5 -157.5t163.5 -47.5v-127q-304 8 -459 8q-159 0 -463 -8v127q134 6 176 40.5t45 159.5v906q-3 127 -45 161.5t-176 43.5v122q304 -8 463 -8q155 0 459 8v-122q-113 0 -163 -50.5t-50 -162.5q4 0 4 -9v-614l557 565v66
q0 121 -41.5 161.5t-159.5 43.5v122q296 -8 451 -8q160 0 454 8v-122q-129 -16 -168.5 -48.5t-39.5 -156.5v-906q0 -122 39.5 -154.5t168.5 -45.5v-127q-294 8 -454 8q-155 0 -451 -8v127q119 0 160 40t41 160v631zM1139 2019q89 0 142 60t62 116q13 86 115 86q86 0 86 -139
q0 -95 -125.5 -166t-279.5 -71q-152 0 -277 71t-125 166q0 139 90 139q97 0 115 -86q9 -59 57.5 -117.5t139.5 -58.5z" />
    <glyph glyph-name="ecircumflex" unicode="&#xea;" horiz-adv-x="2195" 
d="M119 1450v123q310 -8 438 -8q132 0 442 8v-123q-104 0 -140 -45.5t-36 -151.5q0 -4 2 -15t2 -17v-463l336 332q197 211 197 270q0 83 -189 94v115q280 -8 394 -8q98 0 344 8v-115q-249 -53 -393 -192l-263 -271l607 -798q13 -30 56 -50t79 -20v-131q-214 8 -324 8
q-151 0 -221 -8l-500 696l-119 -110q0 -62 -6 -146t-6 -108q0 -98 45.5 -141.5t184.5 -63.5v-127q-164 16 -381 16q-92 0 -276 -5t-269 -7v123q124 10 172.5 46.5t48.5 145.5v930q-1 84 -21.5 127t-65 59t-138.5 23z" />
    <glyph glyph-name="ecircumflex" unicode="&#x43a;" horiz-adv-x="2195" 
d="M119 1450v123q310 -8 438 -8q132 0 442 8v-123q-104 0 -140 -45.5t-36 -151.5q0 -4 2 -15t2 -17v-463l336 332q197 211 197 270q0 83 -189 94v115q280 -8 394 -8q98 0 344 8v-115q-249 -53 -393 -192l-263 -271l607 -798q13 -30 56 -50t79 -20v-131q-214 8 -324 8
q-151 0 -221 -8l-500 696l-119 -110q0 -62 -6 -146t-6 -108q0 -98 45.5 -141.5t184.5 -63.5v-127q-164 16 -381 16q-92 0 -276 -5t-269 -7v123q124 10 172.5 46.5t48.5 145.5v930q-1 84 -21.5 127t-65 59t-138.5 23z" />
    <glyph glyph-name="edieresis" unicode="&#xeb;" horiz-adv-x="2310" 
d="M1319 1430h-246q-92 0 -110 -197q-102 -1270 -615 -1270q-99 0 -176.5 56.5t-77.5 144.5q0 65 51.5 118.5t137.5 53.5q44 0 94 -24.5t69 -24.5q44 0 88 24.5t64 40.5q74 109 115.5 210t66.5 245t39 381v12q0 107 -67 174.5t-191 67.5h-12v123q40 0 232 -2t325 -2
q635 0 1003 8v-139q-129 -16 -168.5 -48.5t-39.5 -156.5v-906q0 -122 39.5 -154.5t168.5 -45.5v-127q-294 8 -454 8q-155 0 -451 -8v127q119 0 160 40t41 160v906q0 122 -18 163.5t-68 41.5z" />
    <glyph glyph-name="edieresis" unicode="&#x43b;" horiz-adv-x="2310" 
d="M1319 1430h-246q-92 0 -110 -197q-102 -1270 -615 -1270q-99 0 -176.5 56.5t-77.5 144.5q0 65 51.5 118.5t137.5 53.5q44 0 94 -24.5t69 -24.5q44 0 88 24.5t64 40.5q74 109 115.5 210t66.5 245t39 381v12q0 107 -67 174.5t-191 67.5h-12v123q40 0 232 -2t325 -2
q635 0 1003 8v-139q-129 -16 -168.5 -48.5t-39.5 -156.5v-906q0 -122 39.5 -154.5t168.5 -45.5v-127q-294 8 -454 8q-155 0 -451 -8v127q119 0 160 40t41 160v906q0 122 -18 163.5t-68 41.5z" />
    <glyph glyph-name="igrave" unicode="&#xec;" horiz-adv-x="2687" 
d="M131 1569q82 -4 320 -4q307 0 405 4l463 -1090l434 1090q23 0 94 -2t111 -2q115 0 520 12v-147q-133 -16 -173 -48.5t-40 -156.5v-906q0 -87 18.5 -125t60.5 -52.5t134 -22.5v-127q-75 0 -256 4t-276 4q-68 0 -196 -4t-181 -4v127q122 0 163.5 39.5t41.5 160.5l-5 861
l-479 -1180h-291l-503 1208v-782q0 -2 -2 -8t-2 -8q0 -126 51.5 -208.5t156.5 -82.5v-119h-106q-77 0 -231 -4t-228 -4v127q119 6 160.5 82t44.5 225v786q-3 130 -40.5 169.5t-164.5 48.5z" />
    <glyph glyph-name="igrave" unicode="&#x43c;" horiz-adv-x="2687" 
d="M131 1569q82 -4 320 -4q307 0 405 4l463 -1090l434 1090q23 0 94 -2t111 -2q115 0 520 12v-147q-133 -16 -173 -48.5t-40 -156.5v-906q0 -87 18.5 -125t60.5 -52.5t134 -22.5v-127q-75 0 -256 4t-276 4q-68 0 -196 -4t-181 -4v127q122 0 163.5 39.5t41.5 160.5l-5 861
l-479 -1180h-291l-503 1208v-782q0 -2 -2 -8t-2 -8q0 -126 51.5 -208.5t156.5 -82.5v-119h-106q-77 0 -231 -4t-228 -4v127q119 6 160.5 82t44.5 225v786q-3 130 -40.5 169.5t-164.5 48.5z" />
    <glyph glyph-name="iacute" unicode="&#xed;" horiz-adv-x="2310" 
d="M1405 741h-557v-405q-4 0 -4 -12q0 -110 49.5 -157.5t163.5 -47.5v-127q-304 8 -459 8q-159 0 -463 -8v127q134 6 176 40.5t45 159.5v926q-2 88 -21 128.5t-63.5 55.5t-136.5 21v123q304 -8 463 -8q155 0 459 8v-123q-213 0 -213 -209q0 -2 2 -6t2 -6v-344h557v360
q0 121 -41 161.5t-160 43.5v123q296 -8 451 -8q160 0 454 8v-123q-129 -13 -168.5 -46.5t-39.5 -158.5v-926q0 -122 39.5 -154.5t168.5 -45.5v-127q-294 8 -454 8q-155 0 -451 -8v127q119 0 160 40t41 160v422z" />
    <glyph glyph-name="iacute" unicode="&#x43d;" horiz-adv-x="2310" 
d="M1405 741h-557v-405q-4 0 -4 -12q0 -110 49.5 -157.5t163.5 -47.5v-127q-304 8 -459 8q-159 0 -463 -8v127q134 6 176 40.5t45 159.5v926q-2 88 -21 128.5t-63.5 55.5t-136.5 21v123q304 -8 463 -8q155 0 459 8v-123q-213 0 -213 -209q0 -2 2 -6t2 -6v-344h557v360
q0 121 -41 161.5t-160 43.5v123q296 -8 451 -8q160 0 454 8v-123q-129 -13 -168.5 -46.5t-39.5 -158.5v-926q0 -122 39.5 -154.5t168.5 -45.5v-127q-294 8 -454 8q-155 0 -451 -8v127q119 0 160 40t41 160v422z" />
    <glyph glyph-name="icircumflex" unicode="&#xee;" horiz-adv-x="2081" 
d="M1896 782q0 -230 -117 -433t-316.5 -323t-430.5 -120q-235 0 -444.5 117.5t-335 321.5t-125.5 446q0 230 121.5 425t322.5 308.5t433 113.5q233 0 439 -114t329.5 -311t123.5 -431zM1020 1454q-156 -1 -235 -111.5t-100 -255.5t-21 -325q0 -14 -2.5 -31.5t-2.5 -25.5
q0 -607 349 -607q227 3 289.5 203t62.5 498q0 268 -63.5 461.5t-276.5 193.5z" />
    <glyph glyph-name="icircumflex" unicode="&#x43e;" horiz-adv-x="2081" 
d="M1896 782q0 -230 -117 -433t-316.5 -323t-430.5 -120q-235 0 -444.5 117.5t-335 321.5t-125.5 446q0 230 121.5 425t322.5 308.5t433 113.5q233 0 439 -114t329.5 -311t123.5 -431zM1020 1454q-156 -1 -235 -111.5t-100 -255.5t-21 -325q0 -14 -2.5 -31.5t-2.5 -25.5
q0 -607 349 -607q227 3 289.5 203t62.5 498q0 268 -63.5 461.5t-276.5 193.5z" />
    <glyph glyph-name="idieresis" unicode="&#xef;" horiz-adv-x="2310" 
d="M848 1229v-893q-4 0 -4 -12q0 -110 49.5 -157.5t163.5 -47.5v-127q-304 8 -459 8q-159 0 -463 -8v127q134 6 176 40.5t45 159.5v926q-2 88 -21 128.5t-63.5 55.5t-136.5 21v123q378 -8 610 -8q64 0 192 2t185 2q56 0 180 -2t189 -2q250 0 618 8v-123
q-129 -13 -168.5 -46.5t-39.5 -158.5v-926q0 -122 39.5 -154.5t168.5 -45.5v-127q-294 8 -454 8q-155 0 -451 -8v127q119 0 160 40t41 160v926q0 205 -111 205h-323q-72 0 -99.5 -45.5t-27.5 -147.5q0 -4 2 -14t2 -14z" />
    <glyph glyph-name="idieresis" unicode="&#x43f;" horiz-adv-x="2310" 
d="M848 1229v-893q-4 0 -4 -12q0 -110 49.5 -157.5t163.5 -47.5v-127q-304 8 -459 8q-159 0 -463 -8v127q134 6 176 40.5t45 159.5v926q-2 88 -21 128.5t-63.5 55.5t-136.5 21v123q378 -8 610 -8q64 0 192 2t185 2q56 0 180 -2t189 -2q250 0 618 8v-123
q-129 -13 -168.5 -46.5t-39.5 -158.5v-926q0 -122 39.5 -154.5t168.5 -45.5v-127q-294 8 -454 8q-155 0 -451 -8v127q119 0 160 40t41 160v926q0 205 -111 205h-323q-72 0 -99.5 -45.5t-27.5 -147.5q0 -4 2 -14t2 -14z" />
    <glyph glyph-name="eth" unicode="&#xf0;" horiz-adv-x="2273" 
d="M98 -991v123q110 14 161 31t76 64.5t25 149.5v1667q0 154 -46 231t-195 77v139q108 9 295 33q62 10 148 32.5t138 34t115 11.5v-304q118 136 223 210.5t244 88.5q11 0 31 2.5t39 2.5q173 0 325.5 -82.5t256.5 -227t134 -317.5q17 -132 17 -201q0 -228 -96.5 -417
t-262 -297.5t-362.5 -108.5q-273 0 -520 201v-746q0 -112 22 -165.5t76.5 -75.5t171.5 -33v-123q-252 12 -508 12q-250 0 -508 -12zM844 553q0 -168 79.5 -274.5t239.5 -106.5l8 4q372 9 381 569v46q0 213 -72.5 378.5t-254.5 178.5h-33q-165 0 -256.5 -128.5t-91.5 -301.5
v-365z" />
    <glyph glyph-name="eth" unicode="&#x440;" horiz-adv-x="2273" 
d="M98 -991v123q110 14 161 31t76 64.5t25 149.5v1667q0 154 -46 231t-195 77v139q108 9 295 33q62 10 148 32.5t138 34t115 11.5v-304q118 136 223 210.5t244 88.5q11 0 31 2.5t39 2.5q173 0 325.5 -82.5t256.5 -227t134 -317.5q17 -132 17 -201q0 -228 -96.5 -417
t-262 -297.5t-362.5 -108.5q-273 0 -520 201v-746q0 -112 22 -165.5t76.5 -75.5t171.5 -33v-123q-252 12 -508 12q-250 0 -508 -12zM844 553q0 -168 79.5 -274.5t239.5 -106.5l8 4q372 9 381 569v46q0 213 -72.5 378.5t-254.5 178.5h-33q-165 0 -256.5 -128.5t-91.5 -301.5
v-365z" />
    <glyph glyph-name="ntilde" unicode="&#xf1;" horiz-adv-x="1851" 
d="M1544 410l115 -111q-172 -223 -402 -299q-146 -45 -315 -45q-172 0 -295 45q-156 59 -264.5 173t-163.5 261.5t-55 306.5q0 183 70 354t200 285q239 222 610 222q67 0 205 -17q333 -51 389 -262q9 -56 9 -70q0 -83 -54 -139.5t-143 -56.5h-8q-78 0 -121 44t-82 135.5
t-51 111.5q-71 106 -180 106q-69 0 -134 -47.5t-96 -120.5q-94 -221 -94 -483q0 -215 70.5 -384.5t216.5 -221.5q77 -29 139 -29q119 0 232.5 67t201.5 175z" />
    <glyph glyph-name="ntilde" unicode="&#x441;" horiz-adv-x="1851" 
d="M1544 410l115 -111q-172 -223 -402 -299q-146 -45 -315 -45q-172 0 -295 45q-156 59 -264.5 173t-163.5 261.5t-55 306.5q0 183 70 354t200 285q239 222 610 222q67 0 205 -17q333 -51 389 -262q9 -56 9 -70q0 -83 -54 -139.5t-143 -56.5h-8q-78 0 -121 44t-82 135.5
t-51 111.5q-71 106 -180 106q-69 0 -134 -47.5t-96 -120.5q-94 -221 -94 -483q0 -215 70.5 -384.5t216.5 -221.5q77 -29 139 -29q119 0 232.5 67t201.5 175z" />
    <glyph glyph-name="ograve" unicode="&#xf2;" horiz-adv-x="2273" 
d="M1110 1565h905l37 -508h-147q-34 153 -88.5 230t-134.5 101.5t-212 24.5q-110 0 -110 -168v-934q0 -113 47.5 -145.5t177.5 -42.5v-131q-160 4 -475 4q-319 0 -479 -4v131q131 10 178 41.5t47 146.5v934q0 168 -111 168q-128 0 -209 -24.5t-136.5 -102.5t-88.5 -229h-147
l37 508h909z" />
    <glyph glyph-name="ograve" unicode="&#x442;" horiz-adv-x="2273" 
d="M1110 1565h905l37 -508h-147q-34 153 -88.5 230t-134.5 101.5t-212 24.5q-110 0 -110 -168v-934q0 -113 47.5 -145.5t177.5 -42.5v-131q-160 4 -475 4q-319 0 -479 -4v131q131 10 178 41.5t47 146.5v934q0 168 -111 168q-128 0 -209 -24.5t-136.5 -102.5t-88.5 -229h-147
l37 508h909z" />
    <glyph glyph-name="oacute" unicode="&#xf3;" horiz-adv-x="2081" 
d="M909 -12l-532 1229q-48 109 -64 138t-53 52.5t-121 38.5v127q234 -12 479 -12q219 0 435 12v-127q-105 -7 -149 -25t-44 -69q0 -42 33 -119l270 -701l213 467q86 208 86 308q0 49 -4 69q-24 70 -188 70v127q212 -8 315 -8t307 8v-127q-76 -7 -137 -68t-107 -150
t-94.5 -212.5t-62.5 -151.5l-573 -1253l-81.5 -176t-100 -189.5t-121 -149.5t-152.5 -79q-10 0 -29 -2t-24 -2q-82 0 -142 49t-63 127q0 4 -2 14t-2 15q0 106 87.5 166.5t207.5 74.5q122 17 163 66q44 46 86 121t99.5 201.5t64.5 140.5z" />
    <glyph glyph-name="oacute" unicode="&#x443;" horiz-adv-x="2081" 
d="M909 -12l-532 1229q-48 109 -64 138t-53 52.5t-121 38.5v127q234 -12 479 -12q219 0 435 12v-127q-105 -7 -149 -25t-44 -69q0 -42 33 -119l270 -701l213 467q86 208 86 308q0 49 -4 69q-24 70 -188 70v127q212 -8 315 -8t307 8v-127q-76 -7 -137 -68t-107 -150
t-94.5 -212.5t-62.5 -151.5l-573 -1253l-81.5 -176t-100 -189.5t-121 -149.5t-152.5 -79q-10 0 -29 -2t-24 -2q-82 0 -142 49t-63 127q0 4 -2 14t-2 15q0 106 87.5 166.5t207.5 74.5q122 17 163 66q44 46 86 121t99.5 201.5t64.5 140.5z" />
    <glyph glyph-name="ocircumflex" unicode="&#xf4;" horiz-adv-x="3031" 
d="M1737 1458q179 144 364 144h13q157 -3 288.5 -68.5t227.5 -180t146.5 -254.5t53.5 -296v-25q0 -238 -98 -427t-264 -294.5t-363 -105.5q-183 0 -368 98v-643q0 -112 22.5 -165.5t77.5 -75.5t174 -33v-123q-258 12 -516 12q-254 0 -512 -12v123q109 14 160 31t76.5 64.5
t25.5 149.5v672q-185 -98 -373 -98q-193 0 -360 105.5t-266 295.5t-99 426q0 4 2.5 11.5t2.5 13.5q6 205 96.5 387t251.5 295t368 117h13q181 0 364 -140v668q0 74 -53 94.5t-164 36.5v127q339 11 709 139v-1069zM963 1364q-175 0 -243.5 -163.5t-68.5 -455.5
q0 -289 69 -435t259 -146q291 0 291 389v365q0 251 -73 348.5t-234 97.5zM2019 1364q-160 0 -231.5 -97t-71.5 -349v-365q0 -389 291 -389q190 0 259 144.5t69 436.5q0 294 -70.5 456.5t-245.5 162.5z" />
    <glyph glyph-name="ocircumflex" unicode="&#x444;" horiz-adv-x="3031" 
d="M1737 1458q179 144 364 144h13q157 -3 288.5 -68.5t227.5 -180t146.5 -254.5t53.5 -296v-25q0 -238 -98 -427t-264 -294.5t-363 -105.5q-183 0 -368 98v-643q0 -112 22.5 -165.5t77.5 -75.5t174 -33v-123q-258 12 -516 12q-254 0 -512 -12v123q109 14 160 31t76.5 64.5
t25.5 149.5v672q-185 -98 -373 -98q-193 0 -360 105.5t-266 295.5t-99 426q0 4 2.5 11.5t2.5 13.5q6 205 96.5 387t251.5 295t368 117h13q181 0 364 -140v668q0 74 -53 94.5t-164 36.5v127q339 11 709 139v-1069zM963 1364q-175 0 -243.5 -163.5t-68.5 -455.5
q0 -289 69 -435t259 -146q291 0 291 389v365q0 251 -73 348.5t-234 97.5zM2019 1364q-160 0 -231.5 -97t-71.5 -349v-365q0 -389 291 -389q190 0 259 144.5t69 436.5q0 294 -70.5 456.5t-245.5 162.5z" />
    <glyph glyph-name="otilde" unicode="&#xf5;" horiz-adv-x="2273" 
d="M160 -8v127q233 25 381 196l323 369l-512 627q-90 107 -205 123v131q99 0 236.5 -4.5t214.5 -4.5q110 0 265.5 5.5t242.5 7.5v-127q-65 0 -114.5 -19t-49.5 -55q0 -32 33 -70l233 -270l104 101.5t104 121.5t46 109v4q-1 35 -31.5 51t-86 21t-62.5 6v123q69 0 167 -4.5
t148 -4.5q61 0 174 4.5t195 4.5v-119q-116 -14 -200.5 -72.5t-184.5 -169.5l-278 -303l507 -639q76 -99 254 -143v-127q-294 8 -450 8q-185 0 -545 -8v127q176 0 176 69q0 41 -45 91l-242 278l-97 -101t-116 -138.5t-49 -116.5h4q5 -30 22 -46.5t46 -25.5t57.5 -12t46.5 -6
v-119q-236 8 -356 8q-118 0 -356 -8z" />
    <glyph glyph-name="otilde" unicode="&#x445;" horiz-adv-x="2273" 
d="M160 -8v127q233 25 381 196l323 369l-512 627q-90 107 -205 123v131q99 0 236.5 -4.5t214.5 -4.5q110 0 265.5 5.5t242.5 7.5v-127q-65 0 -114.5 -19t-49.5 -55q0 -32 33 -70l233 -270l104 101.5t104 121.5t46 109v4q-1 35 -31.5 51t-86 21t-62.5 6v123q69 0 167 -4.5
t148 -4.5q61 0 174 4.5t195 4.5v-119q-116 -14 -200.5 -72.5t-184.5 -169.5l-278 -303l507 -639q76 -99 254 -143v-127q-294 8 -450 8q-185 0 -545 -8v127q176 0 176 69q0 41 -45 91l-242 278l-97 -101t-116 -138.5t-49 -116.5h4q5 -30 22 -46.5t46 -25.5t57.5 -12t46.5 -6
v-119q-236 8 -356 8q-118 0 -356 -8z" />
    <glyph glyph-name="odieresis" unicode="&#xf6;" horiz-adv-x="2347" 
d="M2122 119l37 -508h-148q-44 194 -100 274.5t-142 99.5t-282 19h-275q-375 0 -1077 -12v127q134 6 176 40.5t45 159.5v926q-2 88 -21 128.5t-63.5 55.5t-136.5 21v123q304 -8 463 -8q155 0 459 8v-123q-213 0 -213 -209q0 -2 2 -6t2 -6v-893q0 -221 119 -221q2 0 10 2
t10 2h291q73 0 98.5 41.5t28.5 158.5v926q0 121 -41 161.5t-160 43.5v123q296 -8 451 -8q160 0 454 8v-123q-129 -13 -168.5 -46.5t-39.5 -158.5v-926q0 -83 21 -122.5t61.5 -52t138.5 -25.5z" />
    <glyph glyph-name="odieresis" unicode="&#x446;" horiz-adv-x="2347" 
d="M2122 119l37 -508h-148q-44 194 -100 274.5t-142 99.5t-282 19h-275q-375 0 -1077 -12v127q134 6 176 40.5t45 159.5v926q-2 88 -21 128.5t-63.5 55.5t-136.5 21v123q304 -8 463 -8q155 0 459 8v-123q-213 0 -213 -209q0 -2 2 -6t2 -6v-893q0 -221 119 -221q2 0 10 2
t10 2h291q73 0 98.5 41.5t28.5 158.5v926q0 121 -41 161.5t-160 43.5v123q296 -8 451 -8q160 0 454 8v-123q-129 -13 -168.5 -46.5t-39.5 -158.5v-926q0 -83 21 -122.5t61.5 -52t138.5 -25.5z" />
    <glyph glyph-name="divide" unicode="&#xf7;" horiz-adv-x="2310" 
d="M1405 741q-320 -184 -590 -184q-107 0 -209 41q-107 45 -178.5 134.5t-71.5 189.5v323q-2 88 -21 128.5t-63.5 55.5t-136.5 21v123q304 -8 463 -8q155 0 459 8v-123q-213 0 -213 -209q0 -2 2 -6t2 -6v-262q0 -111 90 -164q35 -21 106 -21q162 0 361 103v360
q0 121 -41 161.5t-160 43.5v123q296 -8 451 -8q160 0 454 8v-123q-129 -13 -168.5 -46.5t-39.5 -158.5v-926q0 -122 39.5 -154.5t168.5 -45.5v-127q-294 8 -454 8q-155 0 -451 -8v127q119 0 160 40t41 160v422z" />
    <glyph glyph-name="divide" unicode="&#x447;" horiz-adv-x="2310" 
d="M1405 741q-320 -184 -590 -184q-107 0 -209 41q-107 45 -178.5 134.5t-71.5 189.5v323q-2 88 -21 128.5t-63.5 55.5t-136.5 21v123q304 -8 463 -8q155 0 459 8v-123q-213 0 -213 -209q0 -2 2 -6t2 -6v-262q0 -111 90 -164q35 -21 106 -21q162 0 361 103v360
q0 121 -41 161.5t-160 43.5v123q296 -8 451 -8q160 0 454 8v-123q-129 -13 -168.5 -46.5t-39.5 -158.5v-926q0 -122 39.5 -154.5t168.5 -45.5v-127q-294 8 -454 8q-155 0 -451 -8v127q119 0 160 40t41 160v422z" />
    <glyph glyph-name="oslash" unicode="&#xf8;" horiz-adv-x="3256" 
d="M344 1217v12q0 114 -46 153t-163 52v131q99 0 232 -4.5t206 -4.5q72 0 207.5 4.5t235.5 4.5v-131q-83 -4 -124 -32t-53 -76.5t-12 -133.5v-823q0 -234 119 -234h279q70 0 99.5 43t35.5 166v873q-6 128 -41 168t-156 49v131q66 0 196 -2t193 -2q78 0 238 2t238 2v-131
q-124 -8 -154.5 -58t-30.5 -184v-823q0 -124 30.5 -179t100.5 -55h287q110 0 115 225v840q-3 135 -40 182t-161 56v127q99 0 235.5 -4.5t206.5 -4.5q75 0 212.5 4.5t234.5 4.5v-131q-131 -6 -172 -44.5t-41 -160.5q0 -3 2 -14t2 -15v-840q0 -4 -2 -16t-2 -16
q0 -121 40 -158.5t173 -46.5v-131q-288 8 -447 8q-148 0 -442 -8q-312 8 -557 8q-193 0 -455 -8q-294 8 -516 8q-216 0 -512 -8v131q120 16 164.5 54t44.5 151v889z" />
    <glyph glyph-name="oslash" unicode="&#x448;" horiz-adv-x="3256" 
d="M344 1217v12q0 114 -46 153t-163 52v131q99 0 232 -4.5t206 -4.5q72 0 207.5 4.5t235.5 4.5v-131q-83 -4 -124 -32t-53 -76.5t-12 -133.5v-823q0 -234 119 -234h279q70 0 99.5 43t35.5 166v873q-6 128 -41 168t-156 49v131q66 0 196 -2t193 -2q78 0 238 2t238 2v-131
q-124 -8 -154.5 -58t-30.5 -184v-823q0 -124 30.5 -179t100.5 -55h287q110 0 115 225v840q-3 135 -40 182t-161 56v127q99 0 235.5 -4.5t206.5 -4.5q75 0 212.5 4.5t234.5 4.5v-131q-131 -6 -172 -44.5t-41 -160.5q0 -3 2 -14t2 -15v-840q0 -4 -2 -16t-2 -16
q0 -121 40 -158.5t173 -46.5v-131q-288 8 -447 8q-148 0 -442 -8q-312 8 -557 8q-193 0 -455 -8q-294 8 -516 8q-216 0 -512 -8v131q120 16 164.5 54t44.5 151v889z" />
    <glyph glyph-name="ugrave" unicode="&#xf9;" horiz-adv-x="3297" 
d="M2429 4h-320q-632 0 -946 -12q-294 8 -516 8q-216 0 -512 -8v131q120 16 164.5 54t44.5 151v901q0 114 -46 153t-163 52v131q99 0 232 -4.5t206 -4.5q72 0 207.5 4.5t235.5 4.5v-131q-83 -4 -124 -32t-53 -76.5t-12 -133.5v-823q0 -234 119 -234h279q70 0 99.5 43
t35.5 166v873q-6 128 -41 168t-156 49v131q66 0 196 -2t193 -2q78 0 238 2t238 2v-131q-124 -8 -154.5 -58t-30.5 -184v-823q0 -124 30.5 -179t100.5 -55h287q110 0 115 225v840q-3 135 -40 182t-161 56v127q99 0 235.5 -4.5t206.5 -4.5q75 0 212.5 4.5t234.5 4.5v-131
q-131 -6 -172 -44.5t-41 -160.5q0 -3 2 -14t2 -15v-840q0 -4 -2 -16t-2 -16q0 -121 40 -158.5t173 -46.5l41 -512h-148q-44 194 -100.5 274.5t-143 99.5t-284.5 19z" />
    <glyph glyph-name="ugrave" unicode="&#x449;" horiz-adv-x="3297" 
d="M2429 4h-320q-632 0 -946 -12q-294 8 -516 8q-216 0 -512 -8v131q120 16 164.5 54t44.5 151v901q0 114 -46 153t-163 52v131q99 0 232 -4.5t206 -4.5q72 0 207.5 4.5t235.5 4.5v-131q-83 -4 -124 -32t-53 -76.5t-12 -133.5v-823q0 -234 119 -234h279q70 0 99.5 43
t35.5 166v873q-6 128 -41 168t-156 49v131q66 0 196 -2t193 -2q78 0 238 2t238 2v-131q-124 -8 -154.5 -58t-30.5 -184v-823q0 -124 30.5 -179t100.5 -55h287q110 0 115 225v840q-3 135 -40 182t-161 56v127q99 0 235.5 -4.5t206.5 -4.5q75 0 212.5 4.5t234.5 4.5v-131
q-131 -6 -172 -44.5t-41 -160.5q0 -3 2 -14t2 -15v-840q0 -4 -2 -16t-2 -16q0 -121 40 -158.5t173 -46.5l41 -512h-148q-44 194 -100.5 274.5t-143 99.5t-284.5 19z" />
    <glyph glyph-name="uacute" unicode="&#xfa;" horiz-adv-x="2462" 
d="M737 1434q-174 0 -276.5 -82t-149.5 -295h-147l37 508q24 0 86 -2t102 -2q67 0 234 2t254 2q361 0 671 8v-123q-209 0 -209 -221v-320h70q384 0 618 -118t234 -369q0 -215 -165 -322.5t-548 -107.5h-458q-52 0 -156 2t-156 2q-25 0 -76 -2t-75 -2v127q101 5 141.5 15
t60 46.5t19.5 118.5v971q0 164 -111 164zM1532 106q143 0 215 80.5t72 219.5q0 352 -480 352v-385q0 -267 193 -267z" />
    <glyph glyph-name="uacute" unicode="&#x44a;" horiz-adv-x="2462" 
d="M737 1434q-174 0 -276.5 -82t-149.5 -295h-147l37 508q24 0 86 -2t102 -2q67 0 234 2t254 2q361 0 671 8v-123q-209 0 -209 -221v-320h70q384 0 618 -118t234 -369q0 -215 -165 -322.5t-548 -107.5h-458q-52 0 -156 2t-156 2q-25 0 -76 -2t-75 -2v127q101 5 141.5 15
t60 46.5t19.5 118.5v971q0 164 -111 164zM1532 106q143 0 215 80.5t72 219.5q0 352 -480 352v-385q0 -267 193 -267z" />
    <glyph glyph-name="ucircumflex" unicode="&#xfb;" horiz-adv-x="2953" 
d="M2744 1573v-123q-131 -13 -172 -47t-41 -158v-926q0 -121 41 -154t172 -46v-127q-302 8 -454 8q-151 0 -455 -8v127q122 0 163.5 39.5t41.5 160.5v926q0 122 -41.5 162t-163.5 43v123q304 -8 455 -8q152 0 454 8zM848 909h74q382 0 617 -118t235 -369q0 -215 -166 -322.5
t-551 -107.5q-108 0 -312 2t-303 2q-51 0 -155 -2t-152 -2v127q103 5 144.5 15t61 46.5t19.5 118.5v971q0 115 -41 140t-184 32v123h271q225 0 651 8v-123q-209 0 -209 -221v-320zM1040 106q143 0 215 80.5t72 219.5q0 352 -479 352v-385q0 -127 51.5 -197t140.5 -70z" />
    <glyph glyph-name="ucircumflex" unicode="&#x44b;" horiz-adv-x="2953" 
d="M2744 1573v-123q-131 -13 -172 -47t-41 -158v-926q0 -121 41 -154t172 -46v-127q-302 8 -454 8q-151 0 -455 -8v127q122 0 163.5 39.5t41.5 160.5v926q0 122 -41.5 162t-163.5 43v123q304 -8 455 -8q152 0 454 8zM848 909h74q382 0 617 -118t235 -369q0 -215 -166 -322.5
t-551 -107.5q-108 0 -312 2t-303 2q-51 0 -155 -2t-152 -2v127q103 5 144.5 15t61 46.5t19.5 118.5v971q0 115 -41 140t-184 32v123h271q225 0 651 8v-123q-209 0 -209 -221v-320zM1040 106q143 0 215 80.5t72 219.5q0 352 -479 352v-385q0 -127 51.5 -197t140.5 -70z" />
    <glyph glyph-name="udieresis" unicode="&#xfc;" horiz-adv-x="1966" 
d="M848 909h74q382 0 617 -118t235 -369q0 -215 -166 -322.5t-551 -107.5q-108 0 -312 2t-303 2q-51 0 -155 -2t-152 -2v127q103 5 144.5 15t61 46.5t19.5 118.5v971q0 115 -41 140t-184 32v123h271q225 0 651 8v-123q-209 0 -209 -221v-320zM1040 106q143 0 215 80.5
t72 219.5q0 352 -479 352v-385q0 -127 51.5 -197t140.5 -70z" />
    <glyph glyph-name="udieresis" unicode="&#x44c;" horiz-adv-x="1966" 
d="M848 909h74q382 0 617 -118t235 -369q0 -215 -166 -322.5t-551 -107.5q-108 0 -312 2t-303 2q-51 0 -155 -2t-152 -2v127q103 5 144.5 15t61 46.5t19.5 118.5v971q0 115 -41 140t-184 32v123h271q225 0 651 8v-123q-209 0 -209 -221v-320zM1040 106q143 0 215 80.5
t72 219.5q0 352 -479 352v-385q0 -127 51.5 -197t140.5 -70z" />
    <glyph glyph-name="yacute" unicode="&#xfd;" horiz-adv-x="1929" 
d="M221 299l115 111q196 -242 426 -242q70 0 147 29q130 46 192.5 194t69.5 350h-446v144h455q-14 249 -78 401q-33 73 -99.5 120.5t-134.5 47.5q-111 0 -176 -106q-7 -11 -50.5 -107.5t-86.5 -140t-121 -43.5h-4q-89 0 -145 57.5t-56 138.5q0 15 5 35t8 35q52 211 389 262
q138 17 200 17q370 0 615 -222q130 -116 198 -285t68 -354q0 -245 -124.5 -450t-354.5 -291q-128 -45 -299 -45q-165 0 -311 45q-231 76 -402 299z" />
    <glyph glyph-name="yacute" unicode="&#x44d;" horiz-adv-x="1929" 
d="M221 299l115 111q196 -242 426 -242q70 0 147 29q130 46 192.5 194t69.5 350h-446v144h455q-14 249 -78 401q-33 73 -99.5 120.5t-134.5 47.5q-111 0 -176 -106q-7 -11 -50.5 -107.5t-86.5 -140t-121 -43.5h-4q-89 0 -145 57.5t-56 138.5q0 15 5 35t8 35q52 211 389 262
q138 17 200 17q370 0 615 -222q130 -116 198 -285t68 -354q0 -245 -124.5 -450t-354.5 -291q-128 -45 -299 -45q-165 0 -311 45q-231 76 -402 299z" />
    <glyph glyph-name="thorn" unicode="&#xfe;" horiz-adv-x="2994" 
d="M1909 98q227 3 289.5 203t62.5 498q0 655 -344 655q-155 -1 -234 -112.5t-98.5 -255.5t-19.5 -324q0 -9 -2 -29t-2 -28q0 -607 348 -607zM848 885l184 4q27 209 150.5 380t314 270t404.5 99q234 0 440.5 -114t331.5 -312t125 -430q0 -231 -118.5 -433.5t-319 -322.5
t-431.5 -120q-228 0 -430 111t-329 303t-142 421h-180v-405q-4 0 -4 -12q0 -110 49.5 -157.5t163.5 -47.5v-127q-304 8 -459 8q-159 0 -463 -8v127q134 6 176 40.5t45 159.5v926q-2 88 -21 128.5t-63.5 55.5t-136.5 21v123q304 -8 463 -8q155 0 459 8v-123q-213 0 -213 -209
q0 -2 2 -6t2 -6v-344z" />
    <glyph glyph-name="thorn" unicode="&#x44e;" horiz-adv-x="2994" 
d="M1909 98q227 3 289.5 203t62.5 498q0 655 -344 655q-155 -1 -234 -112.5t-98.5 -255.5t-19.5 -324q0 -9 -2 -29t-2 -28q0 -607 348 -607zM848 885l184 4q27 209 150.5 380t314 270t404.5 99q234 0 440.5 -114t331.5 -312t125 -430q0 -231 -118.5 -433.5t-319 -322.5
t-431.5 -120q-228 0 -430 111t-329 303t-142 421h-180v-405q-4 0 -4 -12q0 -110 49.5 -157.5t163.5 -47.5v-127q-304 8 -459 8q-159 0 -463 -8v127q134 6 176 40.5t45 159.5v926q-2 88 -21 128.5t-63.5 55.5t-136.5 21v123q304 -8 463 -8q155 0 459 8v-123q-213 0 -213 -209
q0 -2 2 -6t2 -6v-344z" />
    <glyph glyph-name="ydieresis" unicode="&#xff;" horiz-adv-x="2232" 
d="M1192 688l-500 -696q-69 8 -225 8q-106 0 -320 -8v131q36 0 79.5 19.5t56.5 50.5l389 540l-8 -4q-162 0 -273.5 123.5t-111.5 306.5q0 181 113 272.5t271 116.5t373 25h107q310 -8 438 -8q136 0 438 8v-123q-91 -7 -135 -23t-64.5 -59t-21.5 -127v-930q0 -108 48.5 -145
t172.5 -47v-123q-85 2 -271 7t-278 5q-212 0 -376 -16v127q129 17 173 57.5t44 130.5q0 36 -6.5 122.5t-6.5 148.5v163q-75 0 -106 -53zM1303 885v360q0 130 -33 167.5t-168 37.5q-320 0 -320 -279q0 -124 60 -205t166 -81h295z" />
    <glyph glyph-name="ydieresis" unicode="&#x44f;" horiz-adv-x="2232" 
d="M1192 688l-500 -696q-69 8 -225 8q-106 0 -320 -8v131q36 0 79.5 19.5t56.5 50.5l389 540l-8 -4q-162 0 -273.5 123.5t-111.5 306.5q0 181 113 272.5t271 116.5t373 25h107q310 -8 438 -8q136 0 438 8v-123q-91 -7 -135 -23t-64.5 -59t-21.5 -127v-930q0 -108 48.5 -145
t172.5 -47v-123q-85 2 -271 7t-278 5q-212 0 -376 -16v127q129 17 173 57.5t44 130.5q0 36 -6.5 122.5t-6.5 148.5v163q-75 0 -106 -53zM1303 885v360q0 130 -33 167.5t-168 37.5q-320 0 -320 -279q0 -124 60 -205t166 -81h295z" />
    <glyph glyph-name="nonbreakingspace" unicode="&#xa0;" horiz-adv-x="1434" 
 />
  </font>
</defs>
</svg>
