<?xml version="1.0" standalone="no"?>
<!DOCTYPE svg PUBLIC "-//W3C//DTD SVG 1.1//EN" "http://www.w3.org/Graphics/SVG/1.1/DTD/svg11.dtd" >
<svg>
<metadata>
Created by FontForge 20090914 at Thu Apr 29 04:02:39 2021
 By www-data
Copyright &#194;&#169; 2018 by Jorge Cisterna. All rights reserved.
</metadata>
<defs>
<font id="Recoleta-Regular" horiz-adv-x="600" >
  <font-face 
    font-family="Recoleta"
    font-weight="400"
    font-stretch="normal"
    units-per-em="1000"
    panose-1="0 0 5 0 0 0 0 0 0 0"
    ascent="800"
    descent="-200"
    x-height="479.999"
    cap-height="710.001"
    bbox="-701 -300.065 1351 958.999"
    underline-thickness="50"
    underline-position="-150"
    unicode-range="U+0020-U+FB02"
  />
<missing-glyph horiz-adv-x="530" 
d="M50 730h430v-730h-430v730zM115 695l150 -287l150 287h-300zM243 365l-153 292v-584zM288 365l152 -292v584zM265 322l-150 -287h300z" />
    <glyph glyph-name="fi" unicode="fi" horiz-adv-x="603" 
d="M314 705c-34 0 -63.3301 -14.3301 -87.9971 -42.9971s-37 -66.334 -37 -113.001v-69h141c4 0 7.33301 -1.5 10 -4.5s4 -6.16699 4 -9.5v-13c0 -8.66699 -4.66699 -13 -14 -13h-141v-369c0 -10 3.66699 -18.333 11 -25s14.833 -12.334 22.5 -17.001
s11.5 -9.33398 11.5 -14.001v-3c0 -8 -5 -12 -15 -12h-139c-10 0 -15 4 -15 12v3c0 4.66699 3.16699 9.33398 9.5 14.001s12.666 10.334 18.999 17.001s9.5 15 9.5 25v369h-83c-10 0 -15 4.33301 -15 13v13c0 9.33301 5 14 15 14h83v61c0 60.667 20.833 108.5 62.5 143.5
s95.5 52.5 161.5 52.5c56 0 101.333 -13.5 136 -40.5s52 -53.5 52 -79.5c0 -10.667 -3.33301 -19.334 -10 -26.001s-15.334 -10 -26.001 -10c-13.333 0 -24.666 4.16699 -33.999 12.5s-17.333 18.666 -24 30.999s-13.834 24.5 -21.501 36.5s-18.834 22.333 -33.501 31
s-32 13 -52 13zM529.003 71.0029c0 -8 2 -14.8301 6 -20.4971s8.5 -9.83398 13.5 -12.501s9.5 -5.83398 13.5 -9.50098s6 -7.5 6 -11.5v-4c0 -8.66699 -6.66699 -13 -20 -13h-125c-12.667 0 -19 4.33301 -19 13v4c0 4.66699 3 9.16699 9 13.5s12 9.66602 18 15.999
s9 14.5 9 24.5v298c0 15.333 -6 28.666 -18 39.999s-18 18.666 -18 21.999v2c0 4.66699 5 9.66699 15 15l79 38c10 4.66699 17.667 5.33398 23 2.00098s8 -8.66602 8 -15.999v-401z" />
    <glyph glyph-name="fl" unicode="fl" horiz-adv-x="603" 
d="M529 70c0 -12.667 6.5 -23.5029 19.5 -32.5029s19.5 -16.167 19.5 -21.5v-3c0 -8.66699 -6.66699 -13 -20 -13h-125c-12.667 0 -19 4.33301 -19 13v3c0 5.33301 5.83301 12.5 17.5 21.5s17.5 19.833 17.5 32.5v528c-4.66699 5.33301 -12.5 18.5 -23.5 39.5
s-24 37.333 -39 49s-35.833 17.834 -62.5 18.501c-34 0.666992 -63.333 -13.5 -88 -42.5s-37 -66.833 -37 -113.5v-69h141c4 0 7.33301 -1.5 10 -4.5s4 -6.16699 4 -9.5v-13c0 -8.66699 -4.66699 -13 -14 -13h-141v-369c0 -10 3.66699 -18.333 11 -25
s14.833 -12.334 22.5 -17.001s11.5 -9.33398 11.5 -14.001v-3c0 -8 -5 -12 -15 -12h-139c-10 0 -15 4 -15 12v3c0 4.66699 3.16699 9.33398 9.5 14.001s12.666 10.334 18.999 17.001s9.5 15 9.5 25v369h-83c-10 0 -15 4.33301 -15 13v13c0 9.33301 5 14 15 14h83v61
c0 60.667 20.833 108.5 62.5 143.5s95.5 52.5 161.5 52.5c44.667 0 83.334 -9 116.001 -27l55 27c9.33301 4.66699 16.833 5.33398 22.5 2.00098s8.5 -8.66602 8.5 -15.999v-653z" />
    <glyph glyph-name=".notdef" horiz-adv-x="530" 
d="M50 730h430v-730h-430v730zM115 695l150 -287l150 287h-300zM243 365l-153 292v-584zM288 365l152 -292v584zM265 322l-150 -287h300z" />
    <glyph glyph-name="space" unicode=" " horiz-adv-x="225" 
 />
    <glyph glyph-name="exclam" unicode="!" horiz-adv-x="244" 
d="M101 186c-12.667 123.333 -21.666 290.668 -26.999 502.001c0 15.333 8.16699 26.333 24.5 33s32.666 7 48.999 1s24.5 -17 24.5 -33c-4.66699 -198.667 -15 -366.334 -31 -503.001c-1.33301 -9.33301 -8 -14 -20 -14s-18.667 4.66699 -20 14zM123.001 -10.998
c-18 0 -33.167 5.16699 -45.5 15.5s-18.5 24.833 -18.5 43.5s6.16699 33.5 18.5 44.5s27.5 16.5 45.5 16.5s33 -5.5 45 -16.5s18 -25.833 18 -44.5s-6 -33.167 -18 -43.5s-27 -15.5 -45 -15.5z" />
    <glyph glyph-name="quotedbl" unicode="&#x22;" horiz-adv-x="365" 
d="M70 450c-11.333 59.333 -18.665 135.333 -21.998 228c-0.666992 15.333 3.66602 27.333 12.999 36s20.666 13 33.999 13c14 0 25.667 -4.16699 35 -12.5s14 -20.5 14 -36.5c-1.33301 -28.667 -5 -69 -11 -121s-11 -87.667 -15 -107c-3.33301 -12.667 -11.5 -19 -24.5 -19
s-20.833 6.33301 -23.5 19zM246.001 450c-11.333 59.333 -18.665 135.333 -21.998 228c-0.666992 15.333 3.66602 27.333 12.999 36s20.666 13 33.999 13c14 0 25.667 -4.16699 35 -12.5s14 -20.5 14 -36.5c-1.33301 -28.667 -5 -69 -11 -121s-11 -87.667 -15 -107
c-3.33301 -12.667 -11.5 -19 -24.5 -19s-20.833 6.33301 -23.5 19z" />
    <glyph glyph-name="numbersign" unicode="#" horiz-adv-x="681" 
d="M637 480c9.33301 0 14 -3.66699 14 -11v-26c0 -7.33301 -4.66699 -11 -14 -11h-128l-40 -151h131c10 0 15 -3.33301 15 -10v-28c0 -6.66699 -5 -10 -15 -10h-143l-59 -224c-0.666992 -6 -6.33398 -9 -17.001 -9h-32c-9.33301 0 -12.333 5.66699 -9 17l58 216h-186
l-59 -224c-0.666992 -6 -6 -9 -16 -9h-33c-8 0 -11 5.66699 -9 17l58 216h-107c-10 0 -15 3.33301 -15 10v28c0 6.66699 5 10 15 10h120l40 151h-125c-9.33301 0 -14 3.66699 -14 11v26c0 7.33301 4.66699 11 14 11h138l48 180c2 6.66699 7 10 15 10h31
c8.66699 0 12 -5.66699 10 -17l-46 -173h187l48 180c0.666992 6.66699 5.33398 10 14.001 10h32c9.33301 0 12.333 -5.66699 9 -17l-45 -173h115zM411 281l40 151h-186l-40 -151h186z" />
    <glyph glyph-name="dollar" unicode="$" horiz-adv-x="545" 
d="M509 188c0 -48 -20.5049 -90.6689 -61.5049 -128.002s-92.833 -58 -155.5 -62v-95c0 -10 -3.66699 -15 -11 -15h-19c-6.66699 0 -10 5 -10 15v94c-34.667 2 -66.667 8.83301 -96 20.5s-52.666 25.334 -69.999 41.001s-30.666 31.334 -39.999 47.001s-14 29.5 -14 41.5
c0 14.667 3.66699 26 11 34s17.333 12 30 12c14 0 27.167 -7.66699 39.5 -23s22.833 -32.5 31.5 -51.5s22.5 -37.5 41.5 -55.5s41.167 -29 66.5 -33v286c-23.333 8.66699 -40.166 15.167 -50.499 19.5s-25.5 11.333 -45.5 21s-35 19 -45 28s-20.833 20.333 -32.5 34
s-20 29.334 -25 47.001s-7.5 37.167 -7.5 58.5c0 51.333 19.333 94.333 58 129s89.334 53.334 152.001 56.001v65c0 9.33301 3.66699 14 11 14h18c7.33301 0 11 -4.66699 11 -14v-66c59.333 -4 107 -20.333 143 -49s54 -58 54 -88c0 -32 -14.333 -48 -43 -48
c-13.333 0 -24.833 7.16699 -34.5 21.5s-17.667 30.166 -24 47.499s-17.666 34.333 -33.999 51s-36.833 27 -61.5 31v-276c67.333 -24.667 113 -45.334 137 -62.001c50.667 -34.667 76 -84 76 -148zM136.995 552.998c0 -36 10.333 -64.499 31 -85.499s50 -39.167 88 -54.5
v262c-35.333 -2.66699 -64 -15.334 -86 -38.001s-33 -50.667 -33 -84zM291.995 28.999c34 3.33301 63.333 18.001 88 44.001s37 55.333 37 88c0 35.333 -10.667 63.166 -32 83.499s-52.333 38.833 -93 55.5v-271z" />
    <glyph glyph-name="percent" unicode="%" horiz-adv-x="873" 
d="M204 341c-49.333 0 -90.833 18.167 -124.5 54.5s-50.5 81.5 -50.5 135.5c0 55.333 15.833 100.666 47.5 135.999s73.167 53 124.5 53c48 0 88.667 -18.667 122 -56s50 -82.666 50 -135.999c0 -55.333 -16.167 -100.333 -48.5 -135s-72.5 -52 -120.5 -52zM223 0
c-5.33301 0 -8.83301 1.66699 -10.5 5s-1.16699 7.33301 1.5 12l388 684c4 6 8.66699 9 14 9h32c5.33301 0 8.83301 -1.66699 10.5 -5s1.16699 -7.33301 -1.5 -12l-385 -684c-3.33301 -6 -9 -9 -17 -9h-32zM213 370c27.333 0 48.501 12.333 63.501 37s22.5 55.667 22.5 93
c0 49.333 -10.333 93.333 -31 132s-47.334 58 -80.001 58c-28.667 0 -50.667 -12.5 -66 -37.5s-23 -56.5 -23 -94.5c0 -50.667 10.5 -94.667 31.5 -132s48.5 -56 82.5 -56zM675.001 -10c-49.333 0 -90.833 18.333 -124.5 55s-50.5 82 -50.5 136
c0 55.333 15.833 100.5 47.5 135.5s73.167 52.5 124.5 52.5c48 0 88.667 -18.5 122 -55.5s50 -82.167 50 -135.5c0 -55.333 -16.167 -100.5 -48.5 -135.5s-72.5 -52.5 -120.5 -52.5zM684.001 20c27.333 0 48.501 12.168 63.501 36.501s22.5 55.166 22.5 92.499
c0 49.333 -10.333 93.5 -31 132.5s-47.334 58.5 -80.001 58.5c-28 0 -49.833 -12.5 -65.5 -37.5s-23.5 -56.5 -23.5 -94.5c0 -50.667 10.5 -94.667 31.5 -132s48.5 -56 82.5 -56z" />
    <glyph glyph-name="ampersand" unicode="&#x26;" horiz-adv-x="710" 
d="M691 51c11.333 0 17 -4.33496 17 -13.002v-5c0 -10 -7.5 -19.667 -22.5 -29s-32.5 -14 -52.5 -14c-40.667 0 -80.667 21.333 -120 64l-14 16c-62 -53.333 -136 -80 -222 -80c-76 0 -135.167 16.167 -177.5 48.5s-63.5 78.5 -63.5 138.5
c0 42.667 15.5 80.334 46.5 113.001s74.167 63.334 129.5 92.001c-31.333 34.667 -54.5 64.834 -69.5 90.501s-22.5 54.5 -22.5 86.5c0 48 16.833 86.667 50.5 116s78.167 44 133.5 44c50 0 90.667 -13.5 122 -40.5s47 -62.167 47 -105.5
c0 -40 -14.167 -75.167 -42.5 -105.5s-63.833 -55.833 -106.5 -76.5l193 -210c34.667 69.333 52 150 52 242c0 9.33301 5.5 16.166 16.5 20.499s22.167 4.5 33.5 0.5s17 -11.333 17 -22c0 -112.667 -26 -207.667 -78 -285l30 -33c32.667 -35.333 58.667 -53 78 -53h25z
M295 685.998c-25.333 0 -45.833 -9.83398 -61.5 -29.501s-23.5 -45.167 -23.5 -76.5c0 -28 6.66699 -53.167 20 -75.5s34 -48.833 62 -79.5c63.333 36.667 95 86.334 95 149.001c0 33.333 -8.5 60.333 -25.5 81s-39.167 31 -66.5 31zM288 20.9971
c70 0 129.667 27.999 179 83.999l-225 245c-77.333 -47.333 -116 -107.666 -116 -180.999c0 -43.333 14.5 -78.833 43.5 -106.5s68.5 -41.5 118.5 -41.5z" />
    <glyph glyph-name="quotesingle" unicode="'" horiz-adv-x="189" 
d="M70 450c-11.333 59.333 -18.665 135.333 -21.998 228c-0.666992 15.333 3.66602 27.333 12.999 36s20.666 13 33.999 13c14 0 25.667 -4.16699 35 -12.5s14 -20.5 14 -36.5c-1.33301 -28.667 -5 -69 -11 -121s-11 -87.667 -15 -107c-3.33301 -12.667 -11.5 -19 -24.5 -19
s-20.833 6.33301 -23.5 19z" />
    <glyph glyph-name="parenleft" unicode="(" horiz-adv-x="256" 
d="M202 -95c-108.667 110 -163 254.002 -163 432.002c0 178.667 54.667 322.667 164 432c10 9.33301 18.833 11.166 26.5 5.49902s8.16699 -14.5 1.5 -26.5c-72.667 -102.667 -109 -239.667 -109 -411s36.333 -308.333 109 -411c6.66699 -12 6 -20.833 -2 -26.5
s-17 -3.83398 -27 5.49902z" />
    <glyph glyph-name="parenright" unicode=")" horiz-adv-x="257" 
d="M54 -95c-10 -9.33301 -19 -11.168 -27 -5.50098s-8.66699 14.5 -2 26.5c73.333 103.333 110 240.333 110 411s-36.667 307.667 -110 411c-6.66699 12 -6.16699 20.833 1.5 26.5s16.5 3.83398 26.5 -5.49902c109.333 -109.333 164 -253.333 164 -432
c0 -176.667 -54.333 -320.667 -163 -432z" />
    <glyph glyph-name="asterisk" unicode="*" horiz-adv-x="383" 
d="M146 424c-8.66699 -18.667 -22.666 -24.3359 -41.999 -17.0029c-16 6.66699 -24 17 -24 31c0.666992 8.66699 4.33398 16 11.001 22l80 79l-105 19c-19.333 1.33301 -29.333 10.333 -30 27c-1.33301 15.333 4.66699 26.333 18 33c8.66699 4 18.334 3.33301 29.001 -2
l95 -49l-19 107c-2.66699 12.667 -0.833984 22.834 5.49902 30.501s16.166 11.834 29.499 12.501c12.667 0.666992 22.167 -3 28.5 -11s7.83301 -18.667 4.5 -32l-20 -107l94 49c18 10 31.667 7 41 -9c9.33301 -15.333 8.66602 -28.666 -2.00098 -39.999
c-4.66699 -5.33301 -11.667 -8.33301 -21 -9l-104 -19l80 -80c14 -13.333 14.333 -27.333 1 -42c-12 -13.333 -25.333 -16.666 -40 -9.99902c-7.33301 3.33301 -13 9.66602 -17 18.999l-46 97z" />
    <glyph glyph-name="plus" unicode="+" 
d="M281 66c-7.33301 0 -11.001 5 -11.001 15v161h-159c-9.33301 0 -14.666 3.33301 -15.999 10l1 37c0 6.66699 5 10 15 10h159v161c0 10 3.66699 15 11 15h38c7.33301 0 11 -5 11 -15v-161l160 1c10 0 15 -3.66699 15 -11v-37c0 -6.66699 -5 -10 -15 -10h-159v-161
c0 -10 -4 -15 -12 -15h-38z" />
    <glyph glyph-name="comma" unicode="," horiz-adv-x="209" 
d="M64 -135c-7.33301 -4.66699 -13.832 -4 -19.499 2s-5.16699 12.333 1.5 19c30.667 30 49 59.667 55 89c2 10 -0.666992 15 -8 15c-14.667 0 -26.667 5.5 -36 16.5s-14 25.5 -14 43.5c0 19.333 5.5 35 16.5 47s25.833 18 44.5 18c17.333 0 32.166 -6.83301 44.499 -20.5
s18.5 -31.5 18.5 -53.5c0 -70 -34.333 -128.667 -103 -176z" />
    <glyph glyph-name="hyphen" unicode="-" horiz-adv-x="458" 
d="M70 294c-9.33301 0 -14 5 -14 15v21c0 8.66699 4.66699 13 14 13h318c9.33301 0 14 -4.33301 14 -13v-21c0 -10 -4.66699 -15 -14 -15h-318z" />
    <glyph glyph-name="period" unicode="." horiz-adv-x="223" 
d="M112 -10c-18.667 0 -34 5.16699 -46 15.5s-18 24.833 -18 43.5c0 19.333 6 34.333 18 45s27.333 16 46 16c18 0 33 -5.33301 45 -16s18 -25.667 18 -45c0 -18.667 -6 -33.167 -18 -43.5s-27 -15.5 -45 -15.5z" />
    <glyph glyph-name="slash" unicode="/" horiz-adv-x="367" 
d="M39 -102c-10 0 -13.333 5.33301 -10 16l251 873c2 6.66699 7.33301 10 16 10h32c9.33301 0 12.333 -5.66699 9 -17l-248 -872c-2 -6.66699 -8 -10 -18 -10h-32z" />
    <glyph glyph-name="zero" unicode="0" horiz-adv-x="658" 
d="M336 -10c-85.333 0 -155.332 33.5 -209.999 100.5s-82 156.5 -82 268.5s25.167 200.167 75.5 264.5s120.166 96.5 209.499 96.5c82.667 0 151 -34 205 -102s81 -156 81 -264c0 -112 -26 -200.667 -78 -266s-119 -98 -201 -98zM349.001 30c52 0 94.499 25.5 127.499 76.5
s49.5 120.167 49.5 207.5c0 102 -20.167 188.333 -60.5 259s-91.166 106 -152.499 106c-53.333 0 -96.666 -25.667 -129.999 -77s-50 -121.333 -50 -210c0 -104 20.167 -190.333 60.5 -259s92.166 -103 155.499 -103z" />
    <glyph glyph-name="one" unicode="1" horiz-adv-x="292" 
d="M80 0c-12 0 -17.999 4 -17.999 12v2c0 4.66699 3.83301 9.5 11.5 14.5s15.334 11.167 23.001 18.5s11.5 17 11.5 29v507c0 13.333 -3.33301 23.166 -10 29.499s-13.834 9.33301 -21.501 9s-14.834 0.666992 -21.501 3s-10 6.83301 -10 13.5v3c0 8 6.33301 14.333 19 19
l110 47c13.333 5.33301 23.833 6.33301 31.5 3s11.5 -9.33301 11.5 -18c0 -4.66699 -4.16699 -13.167 -12.5 -25.5s-12.5 -27.166 -12.5 -44.499v-546c0 -12 4 -21.667 12 -29s16.167 -13.5 24.5 -18.5s12.5 -9.83301 12.5 -14.5v-2c0 -8 -6 -12 -18 -12h-143z" />
    <glyph glyph-name="two" unicode="2" horiz-adv-x="569" 
d="M526 152c5.33301 0 9.33398 -1.66309 12.001 -4.99609s3.33398 -8 2.00098 -14l-28 -112c-4.66699 -14 -12.667 -21 -24 -21h-434c-12.667 0 -19 6 -19 18v8c0 31.333 9.16699 63 27.5 95s41.333 60.833 69 86.5l90 81l90 79.5c27.667 24.667 50.667 52.167 69 82.5
s27.5 60.166 27.5 89.499c0 42 -12.833 75.667 -38.5 101s-54.834 38 -87.501 38c-32 0 -58.833 -8.83301 -80.5 -26.5s-36.5 -37 -44.5 -58s-17.667 -40.333 -29 -58s-24 -26.5 -38 -26.5s-25.333 4 -34 12s-13 19 -13 33c0 37.333 22 74.166 66 110.499s100 54.5 168 54.5
c65.333 0 118.5 -16.333 159.5 -49s61.5 -78.667 61.5 -138c0 -38.667 -12.333 -76 -37 -112s-55.167 -68 -91.5 -96l-109.5 -82c-36.667 -26.667 -69.334 -55.334 -98.001 -86.001s-45.667 -61.334 -51 -92.001h319c17.333 0 31.5 7.16699 42.5 21.5s20 28.833 27 43.5
s13.5 22 19.5 22h7z" />
    <glyph glyph-name="three" unicode="3" horiz-adv-x="555" 
d="M277 411c70 -1.33301 127 -20.832 171 -58.499s66 -87.167 66 -148.5s-22.667 -112.333 -68 -153s-107 -61 -185 -61c-72 0 -127.667 13.5 -167 40.5s-59 54.833 -59 83.5c0 14.667 3.83301 26.167 11.5 34.5s17.834 12.5 30.501 12.5c10.667 0 20.334 -4.5 29.001 -13.5
s16.667 -19.833 24 -32.5s16 -25.334 26 -38.001s24.167 -23.5 42.5 -32.5s40.166 -13.5 65.499 -13.5c48.667 0 87.667 14.333 117 43s44 66.667 44 114c0 56.667 -16.833 100.667 -50.5 132s-76.167 47 -127.5 47h-11c-10.667 0 -17.834 4 -21.501 12s-2.16699 16 4.5 24
l187 230h-343c-13.333 0 -20 6.66699 -20 20v39c0 12 6.33301 18 19 18h425c13.333 0 20 -5.66699 20 -17v-9c0 -9.33301 -5 -19.333 -15 -30z" />
    <glyph glyph-name="four" unicode="4" horiz-adv-x="562" 
d="M525 213c9.33301 0 14 -4.33203 14 -12.999v-18c0 -8.66699 -4.66699 -13 -14 -13h-82v-97c0 -12 3.5 -21.333 10.5 -28s14 -12.167 21 -16.5s10.5 -8.83301 10.5 -13.5v-2c0 -8 -6 -12 -18 -12h-136c-12.667 0 -19 4 -19 12v2c0 4.66699 6.66699 11.667 20 21
s20 21.666 20 36.999v97h-319c-17.333 0 -26 7.33301 -26 22v3c0 12.667 3 23.667 9 33l317 455c12 18.667 26.667 28 44 28h49c11.333 0 17 -6 17 -18v-479h82zM62 213.001h290l1 419z" />
    <glyph glyph-name="five" unicode="5" horiz-adv-x="560" 
d="M291 442c66 0 121.335 -19.998 166.002 -59.998s67 -91.333 67 -154c0 -69.333 -23.333 -126.333 -70 -171s-108.334 -67 -185.001 -67c-75.333 0 -133.333 13.5 -174 40.5s-61 55.5 -61 85.5c0 14.667 4.33301 25.667 13 33s19.334 11 32.001 11
c10 0 18.833 -4.33301 26.5 -13s15.167 -19.334 22.5 -32.001s16.166 -25.167 26.499 -37.5s25.333 -22.833 45 -31.5s43.167 -13 70.5 -13c48 0 87.333 16.5 118 49.5s46 76.167 46 129.5c0 56.667 -14.833 102 -44.5 136s-70.5 51 -122.5 51
c-46 0 -95.333 -17.333 -148 -52c-10.667 -8 -22.167 -8.83301 -34.5 -2.5s-17.833 16.166 -16.5 29.499l44 323c0 8.66699 5.33301 13 16 13h361c8.66699 0 13 -4.66699 13 -14v-44c0 -9.33301 -4.33301 -14 -13 -14h-332l-44 -249c49.333 35.333 108.666 53 177.999 53z
" />
    <glyph glyph-name="six" unicode="6" horiz-adv-x="591" 
d="M320 454c66 0 120.336 -21.665 163.003 -64.998s64 -101.333 64 -174c0 -64.667 -23 -118.334 -69 -161.001s-103.333 -64 -172 -64c-78.667 0 -142 32.5 -190 97.5s-72 151.5 -72 259.5c0 67.333 9.66699 128.666 29 183.999s50.166 100.666 92.499 135.999
s93.166 53 152.499 53c70 0 125 -18 165 -54s60 -71 60 -105c0 -15.333 -4.16699 -26.666 -12.5 -33.999s-18.833 -11 -31.5 -11c-14 0 -25.833 5.5 -35.5 16.5s-18 24.5 -25 40.5s-15 32 -24 48s-22.167 29.667 -39.5 41s-38.333 17 -63 17
c-54.667 0.666992 -97.834 -28.333 -129.501 -87s-48.167 -134 -49.5 -226c20 27.333 46.5 48.833 79.5 64.5s68.833 23.5 107.5 23.5zM314.003 31.002c43.333 0 78.332 15.332 104.999 45.999s40 71.334 40 122.001c0 60.667 -15 111.5 -45 152.5s-70 61.5 -120 61.5
c-41.333 0 -77.166 -14.167 -107.499 -42.5s-46.833 -60.833 -49.5 -97.5c8.66699 -75.333 28.5 -134.5 59.5 -177.5s70.167 -64.5 117.5 -64.5z" />
    <glyph glyph-name="seven" unicode="7" horiz-adv-x="512" 
d="M486 710c12.667 0 18.999 -5.33301 18.999 -16v-9c0 -6 -3.66699 -17.667 -11 -35l-267 -633c-4 -11.333 -12.333 -17 -25 -17h-52c-7.33301 0 -12.333 2.66699 -15 8s-3 10.333 -1 15l307 617h-322c-14 0 -25.667 -7.66699 -35 -23s-17.666 -30.5 -24.999 -45.5
s-15 -22.5 -23 -22.5h-9c-11.333 0 -16 6.66699 -14 20l21 118c3.33301 15.333 12 23 26 23h426z" />
    <glyph glyph-name="eight" unicode="8" horiz-adv-x="599" 
d="M389 377c26 -11.333 47.8311 -21.833 65.498 -31.5s35.334 -22.167 53.001 -37.5s30.834 -33.166 39.501 -53.499s13 -43.5 13 -69.5c0 -60.667 -24 -108.334 -72 -143.001s-109.333 -52 -184 -52c-82.667 0 -147.667 17.667 -195 53s-71 78 -71 128c0 84 61 149 183 195
c-47.333 22 -84 46.167 -110 72.5s-39 60.833 -39 103.5c0 52.667 21.167 95.334 63.5 128.001s98.833 49 169.5 49c69.333 0 124 -16.667 164 -50s60 -74 60 -122c0 -74.667 -46.667 -131.334 -140 -170.001zM155.998 564c0 -40.667 14.5 -72.502 43.5 -95.502
s71.833 -45.5 128.5 -67.5c32 15.333 60.667 36.333 86 63s38 58.334 38 95.001c0 33.333 -14.167 62 -42.5 86s-64.5 36 -108.5 36c-42.667 0 -77.5 -11.167 -104.5 -33.5s-40.5 -50.166 -40.5 -83.499zM312.998 30.998c47.333 0 86.333 12.166 117 36.499s46 55.5 46 93.5
c0 24 -4.5 45 -13.5 63s-25.333 34.833 -49 50.5s-42.334 26.834 -56.001 33.501s-38.5 17.334 -74.5 32.001c-7.33301 3.33301 -12.666 5.66602 -15.999 6.99902c-40 -16.667 -74.5 -40.5 -103.5 -71.5s-43.5 -66.167 -43.5 -105.5c0 -41.333 17.833 -74.833 53.5 -100.5
s82.167 -38.5 139.5 -38.5z" />
    <glyph glyph-name="nine" unicode="9" horiz-adv-x="588" 
d="M281 720c81.333 0 145.498 -32.5 192.498 -97.5s70.5 -151.5 70.5 -259.5c0 -113.333 -22.667 -203.833 -68 -271.5s-111 -101.5 -197 -101.5c-69.333 0 -124 17.333 -164 52s-60 70 -60 106c0 14 4.33301 25 13 33s19.667 12 33 12c12 0 22.333 -5.5 31 -16.5
s16.334 -24.5 23.001 -40.5s14.5 -32 23.5 -48s22.5 -29.5 40.5 -40.5s40 -16.5 66 -16.5c58.667 0 101.667 29.333 129 88s41 137 41 235c-35.333 -61.333 -97.666 -92 -186.999 -92c-66.667 0 -121.167 21.333 -163.5 64s-63.5 100 -63.5 172c0 62 22.5 114.5 67.5 157.5
s102.5 64.5 172.5 64.5zM293.998 303c46 0 83.168 14.166 111.501 42.499s42.5 63.833 42.5 106.5c-9.33301 68 -29.333 122.833 -60 164.5s-70.334 62.5 -119.001 62.5c-42 0 -76 -15.167 -102 -45.5s-39 -70.166 -39 -119.499c0 -57.333 15.333 -106.833 46 -148.5
s70.667 -62.5 120 -62.5z" />
    <glyph glyph-name="colon" unicode=":" horiz-adv-x="235" 
d="M118 343c-18.667 0 -33.834 5.16699 -45.501 15.5s-17.5 24.833 -17.5 43.5c0 19.333 5.83301 34.333 17.5 45s26.834 16 45.501 16c18 0 33 -5.33301 45 -16s18 -25.667 18 -45c0 -18 -6 -32.333 -18 -43s-27 -16 -45 -16zM118 -10
c-18.667 0 -33.834 5.16699 -45.501 15.5s-17.5 24.833 -17.5 43.5c0 19.333 5.83301 34.333 17.5 45s26.834 16 45.501 16c18 0 33 -5.33301 45 -16s18 -25.667 18 -45c0 -18 -6 -32.333 -18 -43s-27 -16 -45 -16z" />
    <glyph glyph-name="semicolon" unicode=";" horiz-adv-x="255" 
d="M130 343c-18 0 -33 5.16699 -45 15.5s-18 24.833 -18 43.5c0 19.333 6 34.333 18 45s27 16 45 16c18.667 0 34 -5.33301 46 -16s18 -25.667 18 -45c0 -18.667 -6 -33.167 -18 -43.5s-27.333 -15.5 -46 -15.5zM89 -135c-7.33301 -4.66699 -14 -3.99902 -20 2.00098
s-5.66699 12.333 1 19c30 28 49 57.667 57 89c1.33301 10 -2 15 -10 15c-14 0 -25.833 5.66699 -35.5 17s-14.5 25.666 -14.5 42.999c0 19.333 5.5 35 16.5 47s25.833 18 44.5 18c18 0 33.167 -6.66699 45.5 -20s18.5 -31.333 18.5 -54c0 -70 -34.333 -128.667 -103 -176z
" />
    <glyph glyph-name="less" unicode="&#x3c;" 
d="M448 132c10 -4.66699 15.001 -10 15.001 -16v-48c0 -12 -7 -15 -21 -9l-309 158c-12 6 -18 14 -18 24v53c0 9.33301 6 17 18 23l309 161c5.33301 2 9.66602 1.66699 12.999 -1s5 -6 5 -10v-48c0 -7.33301 -4.66699 -13 -14 -17l-276 -136z" />
    <glyph glyph-name="equal" unicode="=" 
d="M114 330c-10 0 -15 3.66699 -15 11v37c0 7.33301 5 11 15 11h372c9.33301 0 14 -3.66699 14 -11v-37c0 -7.33301 -4.66699 -11 -14 -11h-372zM114 151c-10 0 -15 3.33301 -15 10v38c0 6.66699 5 10 15 10h372c9.33301 0 14 -3.33301 14 -10v-38
c0 -6.66699 -4.66699 -10 -14 -10h-372z" />
    <glyph glyph-name="greater" unicode="&#x3e;" 
d="M466 317c12.667 -6 19.001 -13.6689 19.001 -23.002v-54c0 -10 -6.33301 -17.667 -19 -23l-309 -159c-6.66699 -2.66699 -11.834 -3 -15.501 -1s-5.5 5.33301 -5.5 10v48c0 6.66699 5 12.334 15 17.001l283 134l-277 136c-10 2.66699 -15 8.33398 -15 17.001v48
c0 4 1.5 7.33301 4.5 10s7.16699 3 12.5 1z" />
    <glyph glyph-name="question" unicode="?" horiz-adv-x="511" 
d="M195 192c-2.66699 26 0.167969 50.334 8.50098 73.001s19.666 41.667 33.999 57l48 49l49.5 48.5c15.333 15 28.166 33.5 38.499 55.5s15.5 45.333 15.5 70c0 40.667 -12.833 73.167 -38.5 97.5s-55.5 36.5 -89.5 36.5c-26.667 0 -49.167 -5.83301 -67.5 -17.5
s-32.166 -25.834 -41.499 -42.501s-17.5 -33.167 -24.5 -49.5s-14.833 -30.333 -23.5 -42s-19 -17.5 -31 -17.5c-14 0 -25.333 4 -34 12s-13 19 -13 33c0 36 22 72.5 66 109.5s99 55.5 165 55.5c64.667 0 117.667 -15.667 159 -47s62 -77 62 -137
c0 -32 -7.5 -61.333 -22.5 -88s-33 -49.167 -54 -67.5l-63.5 -53.5c-21.333 -17.333 -39.5 -37.5 -54.5 -60.5s-22.5 -47.833 -22.5 -74.5c0 -8 -5 -13.667 -15 -17s-20.5 -3.33301 -31.5 0s-17.5 9 -19.5 17zM229.002 -10.999c-18 0 -32.833 5 -44.5 15s-17.5 24 -17.5 42
c0 18.667 5.83301 33.167 17.5 43.5s26.5 15.5 44.5 15.5s32.667 -5.16699 44 -15.5s17 -24.833 17 -43.5c0 -18 -5.66699 -32 -17 -42s-26 -15 -44 -15z" />
    <glyph glyph-name="at" unicode="@" horiz-adv-x="904" 
d="M499 737c114 0 206.665 -33.167 277.998 -99.5s107 -148.166 107 -245.499c0 -73.333 -17.667 -135.666 -53 -186.999s-84.333 -77 -147 -77c-27.333 0 -52.166 6.66699 -74.499 20s-37.5 31.333 -45.5 54c-37.333 -50 -90 -75 -158 -75c-48 0 -88.667 15.833 -122 47.5
s-50 72.5 -50 122.5c0 71.333 22.667 130.166 68 176.499s103.666 69.5 174.999 69.5c59.333 0 104 -19.333 134 -58l8 39c0.666992 8 5 12 13 12h48c11.333 0 15.333 -5 12 -15l-55 -264c-5.33301 -26 -1.83301 -46.833 10.5 -62.5s29.166 -23.5 50.499 -23.5
c37.333 0 67.833 21.5 91.5 64.5s35.5 93.833 35.5 152.5c0 89.333 -31.333 162.666 -94 219.999s-143.667 86 -243 86c-108.667 0 -201.667 -38.333 -279 -115s-116 -168 -116 -274c0 -90.667 29.5 -166.167 88.5 -226.5s137.5 -90.5 235.5 -90.5
c65.333 0 127 12.333 185 37c6.66699 2.66699 11.167 2.33398 13.5 -0.999023s2.5 -8.33301 0.5 -15l-5 -13c-2.66699 -6.66699 -9 -12.334 -19 -17.001c-49.333 -22 -110.666 -33 -183.999 -33c-111.333 0 -201.5 34.333 -270.5 103s-103.5 153.667 -103.5 255
c0 56.667 11.167 111.167 33.5 163.5s53.333 98.333 93 138s88.834 71.5 147.501 95.5s122.334 36 191.001 36zM423.998 158c32 0 61.666 11.833 88.999 35.5s44.666 52.167 51.999 85.5h1l21 93l4 18h-1c6 36.667 -0.833008 66 -20.5 88s-45.5 33 -77.5 33
c-46.667 0 -86.167 -22.167 -118.5 -66.5s-49.166 -96.5 -50.499 -156.5c-0.666992 -40 8.33301 -71.667 27 -95s43.334 -35 74.001 -35z" />
    <glyph glyph-name="A" unicode="A" horiz-adv-x="669" 
d="M621 70c6 -13.333 15.5 -24.498 28.5 -33.498s19.5 -16.5 19.5 -22.5v-2c0 -8 -6.33301 -12 -19 -12h-141c-12.667 0 -19 4 -19 12v2c0 4 2.33301 8 7 12s9.5 7.33301 14.5 10s9.16699 7 12.5 13s3.33301 13 0 21l-48 118h-324l-44 -118c-3.33301 -8 -3.5 -15 -0.5 -21
s7 -10.333 12 -13s10 -6 15 -10s7.5 -8 7.5 -12v-2c0 -8 -7 -12 -21 -12h-95c-13.333 0 -20 4 -20 12v2c0 5.33301 6.5 12.5 19.5 21.5s22.167 20.5 27.5 34.5l222 567c4.66699 11.333 0.666992 23.166 -12 35.499s-19 20.166 -19 23.499v3c0 7.33301 4.66699 11 14 11h58
c22 0 37.667 -11 47 -33zM169 231.002h290l-150 371z" />
    <glyph glyph-name="B" unicode="B" horiz-adv-x="660" 
d="M423 381c65.333 -8.66699 115.666 -29.3301 150.999 -61.9971s53 -74 53 -124c0 -61.333 -25.167 -109.166 -75.5 -143.499s-116.166 -51.5 -197.499 -51.5h-274c-13.333 0 -20 4 -20 12v3c0 4.66699 6 11.667 18 21s18 20.666 18 33.999v570
c0 13.333 -6 24.666 -18 33.999s-18 16.666 -18 21.999v2c0 8 6.66699 12 20 12h218c80 0 143.333 -16.333 190 -49s70 -75.334 70 -128.001c0 -38 -12 -70.5 -36 -97.5s-57 -45.167 -99 -54.5zM187 635.004l-1 -200c0 -11.333 3.66699 -20.5 11 -27.5
s16.666 -10.5 27.999 -10.5h104c44 0 79.5 11.333 106.5 34s40.5 51.667 40.5 87c0 47.333 -16.167 84.333 -48.5 111s-76.166 40 -131.499 40l-79 -1c-20 0 -30 -11 -30 -33zM346 41.0039c59.333 0 105.499 11.668 138.499 35.001s49.5 58 49.5 104
c0 50.667 -20.167 92.667 -60.5 126s-96.5 50 -168.5 50h-118v-267c0 -14.667 3.83301 -26.334 11.5 -35.001s17.834 -13 30.501 -13h117z" />
    <glyph glyph-name="C" unicode="C" horiz-adv-x="678" 
d="M370 -10c-88.667 0 -166.998 37.3311 -234.998 111.998s-102 161.334 -102 260.001c0 104.667 31.167 190.334 93.5 257.001s141.833 100 238.5 100c73.333 0 137.166 -20.833 191.499 -62.5s81.5 -82.5 81.5 -122.5c0 -13.333 -3.83301 -23.833 -11.5 -31.5
s-18.5 -11.5 -32.5 -11.5c-13.333 0 -25.5 6.5 -36.5 19.5s-21.833 28.5 -32.5 46.5s-22.834 36.167 -36.501 54.5s-33 34 -58 47s-54.5 19.5 -88.5 19.5c-60 0 -111.5 -25 -154.5 -75s-64.5 -113.667 -64.5 -191c0 -98 27.167 -179.5 81.5 -244.5
s117.833 -97.5 190.5 -97.5c54 0 99.5 16.333 136.5 49s64.833 71.667 83.5 117c6 10.667 14.333 14.667 25 12s14.667 -11 12 -25c-12 -64.667 -42.5 -119.667 -91.5 -165s-112.5 -68 -190.5 -68z" />
    <glyph glyph-name="D" unicode="D" horiz-adv-x="741" 
d="M80 0c-14 0 -21 3.99805 -21 11.998v2c0 5.33301 6.16699 12.833 18.5 22.5s18.5 20.834 18.5 33.501v570c0 13.333 -6.16699 24.833 -18.5 34.5s-18.5 16.834 -18.5 21.501v2c0 8 7 12 21 12h219c112.667 0 208.167 -32.5 286.5 -97.5s117.5 -148.833 117.5 -251.5
c0 -110 -34.833 -197.667 -104.5 -263s-157.5 -98 -263.5 -98h-255zM232 40.998l97 -0.000976562c80 0 146.833 25.833 200.5 77.5s80.5 121.834 80.5 210.501c0 100.667 -32.5 182.5 -97.5 245.5s-141.5 94.5 -229.5 94.5h-70c-18.667 0 -28 -10.667 -28 -32v-541
c0 -17.333 4.16699 -30.833 12.5 -40.5s19.833 -14.5 34.5 -14.5z" />
    <glyph glyph-name="E" unicode="E" 
d="M80 0c-14 0 -20.9971 3.99902 -20.9971 11.999v2c0 4.66699 6.16699 11.834 18.5 21.501s18.5 21.5 18.5 35.5v568c0 10.667 -3 19.5 -9 26.5s-12.167 12.667 -18.5 17s-9.5 8.83301 -9.5 13.5v3c0 7.33301 6 11 18 11h424c13.333 0 21.666 -7.33301 24.999 -22l24 -99
c2.66699 -13.333 -1.33301 -20 -12 -20h-5c-6.66699 0 -14.167 5.16699 -22.5 15.5s-16 21.833 -23 34.5s-16 24.167 -27 34.5s-22.5 15.5 -34.5 15.5h-212c-18.667 0 -28 -11.333 -28 -34v-251h182c8.66699 0 16 3 22 9s10.5 12.833 13.5 20.5s6.33301 14.5 10 20.5
s7.83398 9 12.501 9h4c8.66699 0 13 -5.66699 13 -17v-123c0 -11.333 -4.33301 -17 -13 -17h-4c-4.66699 0 -8.83398 3 -12.501 9s-7 12.5 -10 19.5s-7.5 13.5 -13.5 19.5s-13.333 9 -22 9h-182l-1 -259c0 -12 3.16699 -22.167 9.5 -30.5s15.5 -12.5 27.5 -12.5h235
c12 0 23.333 5.33301 34 16s19.167 22.5 25.5 35.5s13.666 24.833 21.999 35.5s16.166 16 23.499 16h6c4.66699 0 8.16699 -2 10.5 -6s2.83301 -8.66699 1.5 -14l-24 -101c-3.33301 -15.333 -12 -23 -26 -23h-450z" />
    <glyph glyph-name="F" unicode="F" horiz-adv-x="564" 
d="M80 0c-14 0 -20.999 4 -20.999 12v2c0 4.66699 6.16699 11.834 18.5 21.501s18.5 21.167 18.5 34.5v570c0 8.66699 -2 16 -6 22s-8.16699 10.333 -12.5 13s-8.5 5.83398 -12.5 9.50098s-6 7.5 -6 11.5v2c0 8 6 12 18 12h421c13.333 0 21.666 -7.66699 24.999 -23l24 -99
c3.33301 -13.333 -1 -20 -13 -20h-4c-8.66699 0 -18.334 8.33301 -29.001 25s-22.667 33.5 -36 50.5s-27.666 25.5 -42.999 25.5h-206c-19.333 0 -29 -10.667 -29 -32v-284h185c7.33301 0 14 3 20 9s10.5 12.833 13.5 20.5s6.5 14.5 10.5 20.5s8.33301 9 13 9h6
c8.66699 0 13 -5.66699 13 -17v-123c0 -11.333 -4.33301 -17 -13 -17h-6c-4.66699 0 -9 2.83301 -13 8.5s-7.5 12.167 -10.5 19.5s-7.5 13.833 -13.5 19.5s-12.667 8.5 -20 8.5h-185v-241c0 -10 3.16699 -18.333 9.5 -25s12.833 -12.334 19.5 -17.001
s10 -9.33398 10 -14.001v-2c0 -8 -6.66699 -12 -20 -12h-126z" />
    <glyph glyph-name="G" unicode="G" horiz-adv-x="724" 
d="M383 -10c-92.667 0 -173.502 36.001 -242.502 108.001s-103.5 156.667 -103.5 254c0 108.667 32 197 96 265s143.667 102 239 102c78 0 143.5 -20.333 196.5 -61s79.5 -81.667 79.5 -123c0 -12.667 -4 -23 -12 -31s-18.333 -12 -31 -12
c-13.333 0 -25.833 6.33301 -37.5 19s-23.167 28.167 -34.5 46.5s-24.166 36.666 -38.499 54.999s-34.166 33.833 -59.499 46.5s-55 19 -89 19c-61.333 0 -113.333 -26.167 -156 -78.5s-64 -116.833 -64 -193.5c0 -99.333 28.167 -183.333 84.5 -252
s121.833 -103 196.5 -103c64 0 116 14.333 156 43v173c0 9.33301 -3.5 17 -10.5 23s-14.833 10.333 -23.5 13s-16.5 5.66699 -23.5 9s-10.5 6.66602 -10.5 9.99902v4c0 9.33301 7 14 21 14l171 -1c13.333 0 20 -4.33301 20 -13v-4c0 -3.33301 -3 -6.66602 -9 -9.99902
s-12.833 -6.33301 -20.5 -9s-14.5 -7 -20.5 -13s-9 -13.667 -9 -23v-155c0 -18 -8.66699 -34 -26 -48c-59.333 -49.333 -139 -74 -239 -74z" />
    <glyph glyph-name="H" unicode="H" horiz-adv-x="767" 
d="M80 0c-13.333 0 -20 4.00391 -20 12.0039v2c0 4.66699 6 11.834 18 21.501s18 21.167 18 34.5v570c0 13.333 -6 24.833 -18 34.5s-18 16.834 -18 21.501v2c0 8 6.66699 12 20 12h125c13.333 0 20 -4 20 -12v-2c0 -4.66699 -3.16699 -9.33398 -9.5 -14.001
s-12.666 -10.334 -18.999 -17.001s-9.5 -15 -9.5 -25l-1 -256h393l-1 256c0 13.333 -6 24.833 -18 34.5s-18 16.834 -18 21.501v2c0 8 6.66699 12 20 12h125c14 0 21 -4 21 -12v-2c0 -4.66699 -3.33301 -9.33398 -10 -14.001s-13.167 -10.334 -19.5 -17.001
s-9.5 -15 -9.5 -25v-570c0 -10 3.16699 -18.333 9.5 -25s12.833 -12.334 19.5 -17.001s10 -9.33398 10 -14.001v-2c0 -8 -7 -12 -21 -12h-125c-13.333 0 -20 4 -20 12v2c0 4.66699 6 11.834 18 21.501s18 21.167 18 34.5l1 270h-392v-270c0 -10 3.16699 -18.333 9.5 -25
s12.666 -12.334 18.999 -17.001s9.5 -9.33398 9.5 -14.001v-2c0 -8 -6.66699 -12 -20 -12h-125z" />
    <glyph glyph-name="I" unicode="I" horiz-adv-x="284" 
d="M60 12l-0.000976562 2.00098c0 4.66699 6 11.667 18 21s18 20.666 18 33.999v571c0 13.333 -6 24.833 -18 34.5s-18 16.834 -18 21.501v2c0 8 6.66699 12 20 12h125c13.333 0 20 -4 20 -12v-2c0 -4.66699 -3.16699 -9.33398 -9.5 -14.001
s-12.666 -10.334 -18.999 -17.001s-9.5 -15 -9.5 -25v-571c0 -13.333 6.33301 -24.666 19 -33.999s19 -16.333 19 -21v-2c0 -8 -6.66699 -12 -20 -12h-125c-13.333 0 -20 4 -20 12z" />
    <glyph glyph-name="J" unicode="J" horiz-adv-x="517" 
d="M340 640c0 13.333 -6.16797 24.8301 -18.501 34.4971s-18.5 16.834 -18.5 21.501v2c0 8 7 12 21 12h126c12.667 0 19 -4 19 -12v-2c0 -4.66699 -3.16699 -9.33398 -9.5 -14.001s-12.666 -10.334 -18.999 -17.001s-9.5 -15 -9.5 -25l-1 -385
c-0.666992 -175.333 -71.334 -263.666 -212.001 -264.999c-36 0 -68 5.33301 -96 16s-49.833 24.667 -65.5 42s-27.334 34.833 -35.001 52.5s-11.5 34.5 -11.5 50.5c0 14 3.83301 25.167 11.5 33.5s18.167 12.5 31.5 12.5c14.667 0 26.334 -5.66699 35.001 -17
s15.334 -25.166 20.001 -41.499s10.5 -32.666 17.5 -48.999s18.833 -30.166 35.5 -41.499s38.334 -17 65.001 -17c33.333 0 60.666 15.833 81.999 47.5s32 76.5 32 134.5v427z" />
    <glyph glyph-name="K" unicode="K" horiz-adv-x="679" 
d="M643 71c6 -10 12.502 -18.332 19.502 -24.999s12.667 -11.167 17 -13.5s7.83301 -5 10.5 -8s4 -6.5 4 -10.5v-2c0 -8 -5.66699 -12 -17 -12h-143c-12 0 -18 4 -18 12v2c0 4 5.66699 10.833 17 20.5s13.666 20.167 6.99902 31.5l-208 330l-145 -143v-182
c0 -12.667 6.5 -24 19.5 -34s19.5 -17.667 19.5 -23v-2c0 -8 -7 -12 -21 -12h-125c-13.333 0 -20 4 -20 12v2c0 5.33301 6 13 18 23s18 21.333 18 34v569c0 13.333 -6 24.833 -18 34.5s-18 16.834 -18 21.501v2c0 8 6.66699 12 20 12h125c13.333 0 20 -4 20 -12v-2
c0 -4.66699 -3.16699 -9.33398 -9.5 -14.001s-12.666 -10.334 -18.999 -17.001s-9.5 -15 -9.5 -25v-326l326 323c9.33301 12 13 20.5 11 25.5s-6.33301 10.833 -13 17.5s-10 12 -10 16v2c0 8 7 12 21 12h104c13.333 0 20 -4 20 -12v-2c0 -5.33301 -3.33301 -10.333 -10 -15
s-16.334 -11 -29.001 -19s-23.334 -16.333 -32.001 -25l-182 -180z" />
    <glyph glyph-name="L" unicode="L" horiz-adv-x="575" 
d="M80 0c-13.333 0 -20.002 4.00195 -20.002 12.002v2c0 5.33301 6 12.666 18 21.999s18 20.666 18 33.999v570c0 14 -6 25.5 -18 34.5s-18 16.167 -18 21.5v2c0 8 6.66699 12 20 12h126c13.333 0 20 -4 20 -12v-2c0 -5.33301 -6.5 -12.5 -19.5 -21.5
s-19.5 -20.5 -19.5 -34.5v-560c0 -26 10.667 -39 32 -39h222c13.333 0 25.333 5.66699 36 17s19 24 25 38s13 26.667 21 38s15.667 17 23 17h8c10.667 0 14.334 -6 11.001 -18l-25 -110c-3.33301 -15.333 -11.666 -23 -24.999 -23h-435z" />
    <glyph glyph-name="M" unicode="M" horiz-adv-x="895" 
d="M835 73c2.66699 -14.667 10.168 -26.834 22.501 -36.501s18.5 -17.167 18.5 -22.5v-2c0 -8 -7 -12 -21 -12h-123c-13.333 0 -20 4 -20 12v2c0 4.66699 3.33301 9.33398 10 14.001s12.667 10.5 18 17.5s7 16.167 5 27.5l-88 499l-201 -550c-6 -14 -14.667 -21 -26 -21
c-12 0 -21 6.66699 -27 20l-203 563l-86 -511c-1.33301 -8.66699 -0.333008 -16.167 3 -22.5s7.66602 -11 12.999 -14s10.333 -6.5 15 -10.5s7 -8 7 -12v-2c0 -8 -6.66699 -12 -20 -12h-91c-13.333 0 -20 4 -20 12v2c0 5.33301 6 13 18 23s19.333 22 22 36l97 565
c2 13.333 -3 24.833 -15 34.5s-18 17.167 -18 22.5v2c0 8.66699 5.66699 13 17 13h66c20 0 33 -8.66699 39 -26l195 -565l201 566c6 16.667 18 25 36 25h71c10 0 15 -3.66699 15 -11v-3c0 -5.33301 -3.5 -10.5 -10.5 -15.5s-13.167 -11.5 -18.5 -19.5s-7 -18.333 -5 -31z
" />
    <glyph glyph-name="N" unicode="N" horiz-adv-x="750" 
d="M676 710c13.333 0 19.999 -4.33203 19.999 -12.999v-2c0 -4.66699 -6.66699 -11.667 -20 -21s-20 -20.666 -20 -33.999v-613c0 -18 -8.33301 -27 -25 -27h-25c-10 0 -20.667 8.66699 -32 26l-427 582v-535c0 -10.667 3.5 -19.5 10.5 -26.5s14.167 -13 21.5 -18
s11 -9.83301 11 -14.5v-2c0 -8 -7 -12 -21 -12h-91c-13.333 0 -20 4 -20 12v2c0 4.66699 6.33301 12.167 19 22.5s19 22.5 19 36.5v566c0 10 -3.16699 18.167 -9.5 24.5s-12.666 11.666 -18.999 15.999s-9.5 8.83301 -9.5 13.5v4c0 8.66699 6.66699 13 20 13h76
c14.667 0 26.667 -6.66699 36 -20l415 -574v524c0 13.333 -6.83301 24.666 -20.5 33.999s-20.5 16.333 -20.5 21v2c0 8.66699 7 13 21 13h91z" />
    <glyph glyph-name="O" unicode="O" horiz-adv-x="772" 
d="M394 -10c-102.667 0 -187.667 36.332 -255 108.999s-101 158.667 -101 258c0 104.667 32.667 191.334 98 260.001s149 103 251 103c100.667 0 183.667 -36 249 -108s98 -159 98 -261c0 -99.333 -32.833 -184.333 -98.5 -255s-146.167 -106 -241.5 -106zM416 32.999
c65.333 0 119.669 25.668 163.002 77.001s65 111.666 65 180.999c0 108 -27 199.333 -81 274s-123 112 -207 112c-66.667 0 -121.334 -24.667 -164.001 -74s-64 -111 -64 -185c0 -106 27.167 -196.667 81.5 -272s123.166 -113 206.499 -113z" />
    <glyph glyph-name="P" unicode="P" horiz-adv-x="605" 
d="M80 0c-14 0 -21.001 4.33301 -21.001 13v2c0 4 6.16699 10.833 18.5 20.5s18.5 21.167 18.5 34.5v570c0 12 -6.16699 23 -18.5 33s-18.5 17.333 -18.5 22v3c0 8 7 12 21 12h186c43.333 0 83.333 -4.33301 120 -13s69.834 -22 99.501 -40s53 -42.167 70 -72.5
s25.5 -65.5 25.5 -105.5c0 -76 -25.667 -134.667 -77 -176s-123 -62 -215 -62h-103v-171c0 -13.333 6.5 -24.833 19.5 -34.5s19.5 -16.5 19.5 -20.5v-2c0 -8.66699 -6.66699 -13 -20 -13h-125zM221.999 282h67c61.333 0 109.833 15.5 145.5 46.5s53.5 73.833 53.5 128.5
c0 68.667 -21.5 121.167 -64.5 157.5s-95.5 54.5 -157.5 54.5h-54c-17.333 0 -26 -10.667 -26 -32v-319c0 -24 12 -36 36 -36z" />
    <glyph glyph-name="Q" unicode="Q" horiz-adv-x="771" 
d="M745 -58c4 2 7.83496 1.16699 11.502 -2.5s3.5 -8.5 -0.5 -14.5c-10 -21.333 -30 -39 -60 -53s-63 -21 -99 -21c-30.667 0 -61.667 6.33301 -93 19s-57.833 26.667 -79.5 42s-47.334 29.333 -77.001 42s-58.834 19 -87.501 19c-44.667 0 -87 -10.333 -127 -31
c-10 -4 -16.667 -1.5 -20 7.5s-1.33301 17.167 6 24.5c34 30 72 48 114 54c-60 30.667 -107.5 75.834 -142.5 135.501s-52.5 124.167 -52.5 193.5c0 104.667 32.667 191.334 98 260.001s149 103 251 103c100.667 0 183.667 -36 249 -108s98 -159 98 -261
c0 -97.333 -31.333 -181 -94 -251s-140.334 -106.667 -233.001 -110c5.33301 -2.66699 17 -9.33398 35 -20.001s31.333 -18.167 40 -22.5s20.834 -9.83301 36.501 -16.5s31.167 -11.334 46.5 -14.001s31.333 -4 48 -4c56 0 100 9.66699 132 29zM128.002 418
c0 -106 27.1699 -196.666 81.5029 -271.999s123.166 -113 206.499 -113c65.333 0 119.666 25.667 162.999 77s65 111.666 65 180.999c0 108 -27 199.333 -81 274s-123 112 -207 112c-66.667 0 -121.334 -24.667 -164.001 -74s-64 -111 -64 -185z" />
    <glyph glyph-name="R" unicode="R" horiz-adv-x="648" 
d="M578 70c7.33301 -10.667 16.499 -19.499 27.499 -26.499s19.667 -12.333 26 -16s9.5 -8.16699 9.5 -13.5v-2c0 -8 -6.66699 -12 -20 -12h-139c-13.333 0 -20 4 -20 12v2c0 4.66699 3.5 9.66699 10.5 15s11.833 10.166 14.5 14.499s1 13.166 -5 26.499l-150 207
c-5.33301 -0.666992 -13.666 -1 -24.999 -1l-120 -2v-204c0 -10 3.16699 -18.333 9.5 -25s12.833 -12.334 19.5 -17.001s10 -9.33398 10 -14.001v-2c0 -8 -6.66699 -12 -20 -12h-126c-13.333 0 -20 4 -20 12v2c0 4.66699 6 11.834 18 21.501s18 21.167 18 34.5v570
c0 13.333 -6 24.833 -18 34.5s-18 16.834 -18 21.501v2c0 8 6.66699 12 20 12h205c90 0 162.667 -18.5 218 -55.5s83.333 -91.833 84 -164.5c0 -46.667 -14.667 -87.667 -44 -123s-71 -60.666 -125 -75.999zM297.999 316.001c58.667 0 106 14.332 142 42.999s54 68 54 118
c0 62.667 -20.5 110.334 -61.5 143.001s-91.833 49 -152.5 49h-67c-17.333 0 -26 -11.333 -26 -34v-272c0 -31.333 14 -47 42 -47h69z" />
    <glyph glyph-name="S" unicode="S" horiz-adv-x="606" 
d="M315 -10c-88 0 -156.996 19.833 -206.996 59.5s-75 78.5 -75 116.5c0 12 3.33301 21.667 10 29s16 11 28 11c12.667 -0.666992 23.834 -7.16699 33.501 -19.5s19 -27.166 28 -44.499s19.833 -34.5 32.5 -51.5s32.167 -31.5 58.5 -43.5s58.166 -18 95.499 -18
c47.333 0 85.833 12.5 115.5 37.5s44.5 57.167 44.5 96.5c0 33.333 -7.83301 60.666 -23.5 81.999s-36 36.833 -61 46.5s-52.667 17.5 -83 23.5s-60.833 12.667 -91.5 20s-58.5 17.166 -83.5 29.499s-45.333 31.833 -61 58.5s-23.5 60.334 -23.5 101.001
c0 57.333 22.167 104.166 66.5 140.499s105.166 54.5 182.499 54.5c78.667 0 141.5 -17.333 188.5 -52s70.5 -71.667 70.5 -111c0 -26.667 -13.667 -40 -41 -40c-13.333 0 -24.5 5.66699 -33.5 17s-17.167 25 -24.5 41s-16.333 32 -27 48s-27.5 29.667 -50.5 41
s-51.5 17 -85.5 17c-48.667 0 -86.667 -12.667 -114 -38s-41 -57.666 -41 -96.999c0 -31.333 7.83301 -57 23.5 -77s36.167 -34.667 61.5 -44s53.166 -17.166 83.499 -23.499s60.666 -13.5 90.999 -21.5s58.166 -18.5 83.499 -31.5s45.833 -33.333 61.5 -61
s23.5 -61.834 23.5 -102.501c0 -58.667 -24.667 -105.667 -74 -141s-110 -53 -182 -53z" />
    <glyph glyph-name="T" unicode="T" horiz-adv-x="608" 
d="M238 0c-13.333 0 -20 4.00098 -20 12.001v2c0 4.66699 6.16699 11.834 18.5 21.501s18.5 21.167 18.5 34.5v597h-136c-11.333 0 -21.5 -5.66699 -30.5 -17s-15.833 -23.666 -20.5 -36.999s-10.167 -25.666 -16.5 -36.999s-12.5 -17 -18.5 -17h-9
c-10.667 0 -15 6.66699 -13 20l16 109c2 14.667 10.333 22 25 22h497c14 0 22.667 -7.33301 26 -22l22 -110c2.66699 -12.667 -1.33301 -19 -12 -19h-10c-6 0 -12.5 5.66699 -19.5 17s-13.167 23.666 -18.5 36.999s-12.833 25.666 -22.5 36.999s-20.167 17 -31.5 17h-138
v-597c0 -10 3.16699 -18.333 9.5 -25s12.833 -12.334 19.5 -17.001s10 -9.33398 10 -14.001v-2c0 -8 -7 -12 -21 -12h-125z" />
    <glyph glyph-name="U" unicode="U" horiz-adv-x="719" 
d="M367 -10c-84 0 -152.168 26 -204.501 78s-78.5 121.333 -78.5 208v364c0 13.333 -6 24.666 -18 33.999s-18 16.333 -18 21v3c0 8 6.66699 12 20 12h126c13.333 0 20 -4 20 -12v-3c0 -4.66699 -6.33301 -11.667 -19 -21s-19 -20.666 -19 -33.999v-364
c0 -74 19 -133 57 -177s88.333 -66 151 -66c55.333 0 102.333 21.5 141 64.5s58 102.5 58 178.5v364c0 13.333 -6.33301 24.666 -19 33.999s-19 16.333 -19 21v3c0 8 7 12 21 12h88c14 0 21 -4 21 -12v-3c0 -4.66699 -6.83301 -11.667 -20.5 -21
s-20.5 -20.666 -20.5 -33.999v-365c0 -86 -24.667 -155 -74 -207s-113.666 -78 -192.999 -78z" />
    <glyph glyph-name="V" unicode="V" horiz-adv-x="700" 
d="M679 710c12.667 0 19 -3.66797 19 -11.001v-3c0 -5.33301 -6.33301 -12.333 -19 -21s-22 -20.334 -28 -35.001l-258 -614c-8 -17.333 -20 -26 -36 -26c-14.667 0 -26 8.33301 -34 25l-280 614c-6.66699 14 -15.834 25.5 -27.501 34.5s-17.5 16.5 -17.5 22.5v2
c0 8 7 12 21 12h143c14 0 21 -4 21 -12v-2c0 -4 -2.66699 -8 -8 -12s-10.666 -7.5 -15.999 -10.5s-9.83301 -7.5 -13.5 -13.5s-3.5 -13 0.5 -21l232 -540l218 541c4 10 2.66699 18.333 -4 25s-14.5 12.334 -23.5 17.001s-13.5 9.33398 -13.5 14.001v3
c0 7.33301 6.66699 11 20 11h104z" />
    <glyph glyph-name="W" unicode="W" horiz-adv-x="981" 
d="M955 710c12 0 17.999 -3.66992 17.999 -11.0029v-3c0 -5.33301 -6.66699 -12.5 -20 -21.5s-22.666 -20.5 -27.999 -34.5l-197 -614c-6 -17.333 -19 -26 -39 -26c-16.667 0 -28 8.33301 -34 25l-147 428l-154 -427c-5.33301 -17.333 -17 -26 -35 -26
c-16 0 -27.333 8.33301 -34 25l-239 614c-4.66699 12 -11.334 21.333 -20.001 28s-16 12 -22 16s-9 8.66699 -9 14v2c0 7.33301 6 11 18 11h141c12.667 0 19 -4 19 -12v-2c0 -5.33301 -3.66699 -10.166 -11 -14.499s-13.666 -9.66602 -18.999 -15.999s-6 -15.166 -2 -26.499
l195 -526l147 412l-39 115c-4.66699 14 -14.167 25.667 -28.5 35s-21.5 16.666 -21.5 21.999v2c0 7.33301 5.33301 11 16 11h143c11.333 0 17 -3.66699 17 -11v-2c0 -4.66699 -3.83301 -9 -11.5 -13s-14.5 -9.33301 -20.5 -16s-7.33301 -16 -4 -28l174 -526l163 526
c2.66699 8 2.5 15 -0.5 21s-7 10.333 -12 13s-9.83301 5.83398 -14.5 9.50098s-7 7.5 -7 11.5v2c0 8.66699 6 13 18 13h100z" />
    <glyph glyph-name="X" unicode="X" horiz-adv-x="663" 
d="M606 70c6.66699 -9.33301 15 -17.5 25 -24.5s17.667 -12.667 23 -17s8 -9.16602 8 -14.499v-2c0 -8 -6.66699 -12 -20 -12h-145c-12.667 0 -19 4 -19 12v2c0 4.66699 3.83301 10 11.5 16s13.167 11.333 16.5 16s2 12.667 -4 24l-191 255l-189 -255
c-6 -11.333 -7.66699 -19.333 -5 -24s7.16699 -10 13.5 -16s9.5 -11.333 9.5 -16v-2c0 -8 -6.66699 -12 -20 -12h-104c-13.333 0 -20 4 -20 12v2c0 5.33301 3.5 10.166 10.5 14.499l27 17c11 7 19.833 15.167 26.5 24.5l224 291l-210 279c-7.33301 10 -16 18.5 -26 25.5
l-23.5 16.5c-5.66699 4 -8.5 8.66699 -8.5 14v2c0 8 6.66699 12 20 12h142c13.333 0 20 -4 20 -12v-2c0 -4.66699 -3.66699 -10 -11 -16s-12.666 -11.333 -15.999 -16s-2 -12.667 4 -24l181 -239l174 239c6 11.333 7.16699 19.333 3.5 24s-9.33398 10 -17.001 16
s-11.5 11.333 -11.5 16v2c0 8 6.33301 12 19 12h109c13.333 0 20 -4 20 -12v-2c0 -5.33301 -3.5 -10 -10.5 -14s-16 -9.5 -27 -16.5s-20.167 -15.5 -27.5 -25.5l-205 -275z" />
    <glyph glyph-name="Y" unicode="Y" horiz-adv-x="660" 
d="M631 710c13.333 0 19.999 -3.66504 19.999 -10.998v-3c0 -6 -6.83301 -13.333 -20.5 -22s-24.5 -20 -32.5 -34l-216 -353v-217c0 -10 3.16699 -18.333 9.5 -25s12.666 -12.334 18.999 -17.001s9.5 -9.33398 9.5 -14.001v-2c0 -8 -6.33301 -12 -19 -12h-126
c-13.333 0 -20 4 -20 12v2c0 4.66699 6 11.834 18 21.501s18 21.167 18 34.5v211l-232 359c-7.33301 12 -18.333 22.833 -33 32.5s-22 17.5 -22 23.5v2c0 8 6.66699 12 20 12h146c13.333 0 20 -4 20 -12v-2c0 -4.66699 -4.16699 -9.83398 -12.5 -15.501
s-14.666 -10.834 -18.999 -15.501s-4.16602 -13 0.500977 -25l195 -321l195 321c5.33301 12.667 5.5 21.334 0.5 26.001s-12 9.66699 -21 15s-13.5 10.333 -13.5 15v2c0 8 6 12 18 12h98z" />
    <glyph glyph-name="Z" unicode="Z" horiz-adv-x="604" 
d="M577 148c14 0 19.334 -6.66602 16.001 -19.999l-28 -107c-4.66699 -14 -12.667 -21 -24 -21h-499c-5.33301 0 -10 1.83301 -14 5.5s-6 7.83398 -6 12.501v6c0 5.33301 4.33301 14.333 13 27l424 618h-314c-10 0 -19.833 -5.33301 -29.5 -16s-17.5 -22.5 -23.5 -35.5
s-13 -24.833 -21 -35.5s-16 -16 -24 -16h-4c-13.333 0 -18.333 8 -15 24l27 98c3.33301 14.667 11.666 22 24.999 22h466c5.33301 0 9.83301 -1.83301 13.5 -5.5s5.5 -7.83398 5.5 -12.501v-9c0 -4.66699 -5 -14.334 -15 -29.001l-422 -613h338c12.667 0 24.667 5.5 36 16.5
s20.5 23.333 27.5 37s14.5 26 22.5 37s15.667 16.5 23 16.5h2z" />
    <glyph glyph-name="bracketleft" unicode="[" horiz-adv-x="289" 
d="M100 -105c-11.333 0 -17 5.33301 -17 16v852c0 10.667 5.66699 16 17 16h161c8.66699 0 13 -4.33301 13 -13v-19c0 -8 -4.33301 -12 -13 -12h-100v-796h100c8.66699 0 13 -4 13 -12v-19c0 -8.66699 -4.33301 -13 -13 -13h-161z" />
    <glyph glyph-name="backslash" unicode="\" horiz-adv-x="359" 
d="M292 -102c-10 0 -16 3.33301 -18 10l-245 872c-3.33301 11.333 -0.333008 17 9 17h28c9.33301 0 15 -3.33301 17 -10l247 -873c3.33301 -10.667 -0.666992 -16 -12 -16h-26z" />
    <glyph glyph-name="bracketright" unicode="]" horiz-adv-x="289" 
d="M28 -105c-8.66699 0 -13 4.33301 -13 13v19c0 8 4.33301 12 13 12h100v796h-100c-8.66699 0 -13 4 -13 12v19c0 8.66699 4.33301 13 13 13h161c11.333 0 17 -5.33301 17 -16v-852c0 -10.667 -5.66699 -16 -17 -16h-161z" />
    <glyph glyph-name="asciicircum" unicode="^" 
d="M452 614c5.33301 -7.33301 7.33496 -14.668 6.00195 -22.001s-4.83301 -11.666 -10.5 -12.999s-12.167 0.666992 -19.5 6l-133 124l-124 -124c-4.66699 -4.66699 -10.167 -6.16699 -16.5 -4.5s-10.333 5.66699 -12 12s0.166016 13.5 5.49902 21.5l110 146
c6 9.33301 16 14 30 14h18c13.333 0 23.666 -4.33301 30.999 -13z" />
    <glyph glyph-name="underscore" unicode="_" horiz-adv-x="485" 
d="M45 -49c-8.66699 0 -13 4.66699 -13 14v21c0 9.33301 4.33301 14 13 14h395c8.66699 -0 13 -4.66699 13 -14v-21c0 -9.33301 -4.33301 -14 -13 -14h-395z" />
    <glyph glyph-name="grave" unicode="`" 
d="M333 554l-195.002 86c-16.667 5.33301 -21 16 -13 32l16 32c8.66699 16 20.667 18.333 36 7l176 -126c8.66699 -7.33301 10.334 -15.333 5.00098 -24s-13.666 -11 -24.999 -7z" />
    <glyph glyph-name="a" unicode="a" horiz-adv-x="506" 
d="M448 80c1.33301 -14 5.00098 -24.8311 11.001 -32.498s12.333 -12.334 19 -14.001s12.667 -3.83398 18 -6.50098s8 -6.66699 8 -12c0 -14 -21.333 -21 -64 -21c-24 0 -41.667 4.5 -53 13.5s-18 26.5 -20 52.5c-25.333 -46.667 -73.333 -70 -144 -70
c-56 0 -101 13.333 -135 40s-51 63.667 -51 111c-0.666992 46.667 16.166 83 50.499 109s78.5 39 132.5 39c53.333 0 94.333 -13.333 123 -40l-2 27c-6 61.333 -18.333 107 -37 137s-47.334 45 -86.001 45c-23.333 0 -42.666 -6 -57.999 -18s-25.833 -25 -31.5 -39
s-12.5 -27 -20.5 -39s-17.333 -18 -28 -18c-12 0 -21.5 3.33301 -28.5 10s-10.5 15.667 -10.5 27c0 28 16.5 53.167 49.5 75.5s75.5 33.5 127.5 33.5c60.667 0 109.167 -18.5 145.5 -55.5s57.833 -88.833 64.5 -155.5zM245.001 22.002c32.667 0 59.334 10.5 80.001 31.5
s30.334 47.167 29.001 78.5l-4 45c-5.33301 24 -17.833 43.333 -37.5 58s-43.834 22 -72.501 22c-34 0 -61.667 -9.66699 -83 -29s-32 -44.333 -32 -75c0 -37.333 11.167 -68.5 33.5 -93.5s51.166 -37.5 86.499 -37.5z" />
    <glyph glyph-name="b" unicode="b" horiz-adv-x="569" 
d="M306 490c63.333 0 117.501 -22.498 162.501 -67.498s67.5 -103.5 67.5 -175.5c0 -73.333 -22.167 -134.5 -66.5 -183.5s-98.5 -73.5 -162.5 -73.5c-66 0 -117.333 25.333 -154 76l1 -51c0 -10.667 -5.66699 -16 -17 -16l-87 1c-10 0 -15 3.66699 -15 11v3
c0 4.66699 6.16699 12 18.5 22s18.5 21.667 18.5 35v560c0 12 -3.33301 21.667 -10 29s-13.334 13.166 -20.001 17.499s-10 8.83301 -10 13.5v3c0 6 5.66699 11.333 17 16l79 38c9.33301 4.66699 16.833 5.66699 22.5 3s8.5 -8.33398 8.5 -17.001v-309
c34.667 43.333 83.667 65 147 65zM294.001 22.002c46.667 0 83.832 18.168 111.499 54.501s41.5 85.166 41.5 146.499c0 69.333 -15.167 125.833 -45.5 169.5s-69.833 65.5 -118.5 65.5c-33.333 0 -62.333 -12.5 -87 -37.5s-37 -54.5 -37 -88.5v-142l-1 -14h1
c0 -40 13.833 -75.667 41.5 -107s58.834 -47 93.501 -47z" />
    <glyph glyph-name="c" unicode="c" horiz-adv-x="502" 
d="M279 -10c-70 0 -129.17 24.168 -177.503 72.501s-72.5 108.5 -72.5 180.5c0 73.333 23.5 132.666 70.5 177.999s105.5 68.333 175.5 69c52 0.666992 97.5 -12.5 136.5 -39.5s58.5 -55.167 58.5 -84.5c0 -24 -13.333 -35.667 -40 -35
c-12.667 0.666992 -24.5 7.5 -35.5 20.5s-20.667 27.333 -29 43s-21.666 30.167 -39.999 43.5s-40.5 20 -66.5 20c-41.333 0 -75.333 -16.833 -102 -50.5s-40 -75.5 -40 -125.5c0 -69.333 17.667 -124.833 53 -166.5s81 -62.5 137 -62.5
c32.667 0 60.834 8.83301 84.501 26.5s41.834 40.167 54.501 67.5c4 8 10.333 11 19 9s12 -7.66699 10 -17c-8 -40.667 -29.167 -75.667 -63.5 -105s-78.5 -44 -132.5 -44z" />
    <glyph glyph-name="d" unicode="d" horiz-adv-x="568" 
d="M498 70c0 -13.333 6.16504 -25.002 18.498 -35.002s18.5 -17 18.5 -21v-3c0 -7.33301 -5 -11 -15 -11h-84c-10 0 -15.667 5.33301 -17 16l-2 50c-16.667 -24.667 -38.5 -43.5 -65.5 -56.5s-55.833 -19.5 -86.5 -19.5c-63.333 0 -117.666 23.333 -162.999 70
s-68 107 -68 181c0 72.667 22.333 132.334 67 179.001s100.334 70 167.001 70c58.667 0 107 -21.667 145 -65v218c0 12 -3.5 21.667 -10.5 29s-14 13 -21 17s-10.5 8.33301 -10.5 13v2c0 6.66699 5 12.334 15 17.001l81 27c20.667 8 31 3 31 -15v-663zM285.998 22.998
c32 0 61.168 12.833 87.501 38.5s39.5 60.834 39.5 105.501h1l-1 51v100c0 34 -14.5 65.833 -43.5 95.5s-63.167 44.5 -102.5 44.5c-43.333 0 -78.5 -17.167 -105.5 -51.5s-40.833 -79.5 -41.5 -135.5c-1.33301 -69.333 13.667 -127.833 45 -175.5
s71.666 -71.834 120.999 -72.501z" />
    <glyph glyph-name="e" unicode="e" horiz-adv-x="495" 
d="M440 141c4.66699 7.33301 10.9961 10.167 18.9961 8.5s11.333 -7.16699 10 -16.5c-7.33301 -35.333 -28.666 -68 -63.999 -98s-81.666 -45 -138.999 -45c-66 0 -121.167 23.333 -165.5 70s-66.5 108 -66.5 184c0 70 22.667 128.5 68 175.5s101.333 70.5 168 70.5
c56.667 0 101.834 -15.167 135.501 -45.5s50.5 -64.5 50.5 -102.5c0 -28.667 -15.667 -48.334 -47 -59.001l-277 -91c11.333 -43.333 31.5 -77.166 60.5 -101.499s63.833 -36.5 104.5 -36.5c68.667 0 116.334 29 143.001 87zM254.996 458.001
c-40 0 -72.333 -17.334 -97 -52.001s-37 -78 -37 -130c0 -20 1.33301 -37 4 -51l223 80c16 6.66699 24 18.334 24 35.001c0 25.333 -11.5 51.333 -34.5 78s-50.5 40 -82.5 40z" />
    <glyph glyph-name="f" unicode="f" horiz-adv-x="341" 
d="M266 737c35.333 0 66.167 -9.66797 92.5 -29.001s39.5 -42.333 39.5 -69c0 -9.33301 -3.33301 -17.5 -10 -24.5s-15.667 -10.5 -27 -10.5c-17.333 0 -29.833 5.16699 -37.5 15.5s-12 21.833 -13 34.5s-6 24.334 -15 35.001s-23.5 16 -43.5 16
c-32.667 0.666992 -54.167 -19.333 -64.5 -60s-9.16602 -86.667 3.50098 -138v-27h139c4 0 7.33301 -1.5 10 -4.5s4 -6.16699 4 -9.5v-13c0 -8.66699 -4.66699 -13 -14 -13h-139v-369c0 -10 3.66699 -18.333 11 -25s14.833 -12.334 22.5 -17.001s11.5 -9.33398 11.5 -14.001
v-3c0 -8 -5 -12 -15 -12h-141c-10 0 -15 4 -15 12v3c0 4.66699 3.16699 9.33398 9.5 14.001s12.666 10.334 18.999 17.001s9.5 15 9.5 25v369h-83c-10 0 -15 4.33301 -15 13v13c0 9.33301 5 14 15 14h83v87c0 50.667 14.333 91.667 43 123s68.667 47 120 47z" />
    <glyph glyph-name="g" unicode="g" horiz-adv-x="531" 
d="M464 480c23.333 0 34.668 -5.33105 34.001 -15.998c-0.666992 -3.33301 -2.66699 -6.33301 -6 -9c-5.33301 -5.33301 -12.333 -9.33301 -21 -12s-19.334 -4.66699 -32.001 -6s-22.334 -3 -29.001 -5c21.333 -16 38.333 -36.5 51 -61.5s19 -50.5 19 -76.5
c0 -41.333 -10.667 -77.666 -32 -108.999s-50.666 -55 -87.999 -71c42.667 -9.33301 75 -25.166 97 -47.499s33 -48.5 33 -78.5c0 -46 -21.5 -82.5 -64.5 -109.5s-98.833 -40.5 -167.5 -40.5c-70.667 0 -126.334 16.167 -167.001 48.5s-61 66.833 -61 103.5
c0 10.667 3.16699 19.667 9.5 27s15.5 11 27.5 11c9.33301 0 17.5 -3.83301 24.5 -11.5s12.667 -17.334 17 -29.001s10.333 -24.334 18 -38.001s16.334 -26.334 26.001 -38.001s24.167 -21.5 43.5 -29.5s42 -12 68 -12c40.667 0 73.667 10.333 99 31s38 47.667 38 81
c0 32 -10 58.167 -30 78.5s-47 32.166 -81 35.499c-17.333 -1.33301 -30 -2 -38 -2c-60 0 -110.667 18.833 -152 56.5s-62 83.5 -62 137.5c0 59.333 20.333 107.833 61 145.5s94 56.5 160 56.5c18 0 45 -1.66699 81 -5s77.333 -5 124 -5zM268.002 127.002
c38 0 68.332 12.834 90.999 38.501s34 58.167 34 97.5c0 53.333 -14.167 99.166 -42.5 137.499s-64.166 57.5 -107.499 57.5c-35.333 0 -63.833 -12.667 -85.5 -38s-32.5 -57.333 -32.5 -96c0 -54 13.833 -100.333 41.5 -139s61.5 -58 101.5 -58z" />
    <glyph glyph-name="h" unicode="h" horiz-adv-x="568" 
d="M507 72c1.33301 -13.333 7.66602 -24.6689 18.999 -34.002s17 -16.666 17 -21.999v-4c0 -8 -6.66699 -12 -20 -12h-120c-13.333 0 -20 4 -20 12v4c0 4.66699 3.16699 9.33398 9.5 14.001s12.5 10.167 18.5 16.5s8.66699 14.5 8 24.5l-10 204
c-2.66699 57.333 -15 101 -37 131s-50.667 45 -86 45c-36.667 0 -66.667 -13 -90 -39s-35 -59 -35 -99v-243c0 -12.667 6.66699 -23.5 20 -32.5s20 -16.167 20 -21.5v-3c0 -8.66699 -7 -13 -21 -13h-125c-12.667 -0 -19 4.33301 -19 13v3c0 5.33301 6.16699 12.5 18.5 21.5
s18.5 19.833 18.5 32.5v565c0 11.333 -3.16699 20.5 -9.5 27.5s-12.666 12.667 -18.999 17s-9.5 8.5 -9.5 12.5v3c0 7.33301 4.66699 13 14 17l82 36c8.66699 4 15.667 4.83301 21 2.5s8 -7.5 8 -15.5l-2 -324c34 52.667 83.667 79 149 79c52 0 95.5 -18.167 130.5 -54.5
s54.5 -90.5 58.5 -162.5z" />
    <glyph glyph-name="i" unicode="i" horiz-adv-x="243" 
d="M120 575c-20.667 0 -37 5.66699 -49 17s-18 26.333 -18 45s6.16699 33.834 18.5 45.501s28.5 17.5 48.5 17.5c19.333 0 35 -5.83301 47 -17.5s18 -26.834 18 -45.501s-6 -33.667 -18 -45s-27.667 -17 -47 -17zM62 0c-12.667 0 -19 4.33789 -19 13.0049v4
c0 4.66699 3 9.16699 9 13.5s12 9.66602 18 15.999s9 14.5 9 24.5v298c0 15.333 -6 28.666 -18 39.999s-18 18.666 -18 21.999v2c0 4.66699 5 9.66699 15 15l77 38c10.667 4 18.5 4.66699 23.5 2s7.5 -8 7.5 -16v-401c0 -8 2 -14.833 6 -20.5s8.66699 -9.83398 14 -12.501
s10 -5.83398 14 -9.50098s6 -7.5 6 -11.5v-4c0 -8.66699 -7 -13 -21 -13h-123z" />
    <glyph glyph-name="j" unicode="j" horiz-adv-x="240" 
d="M123 575c-20.667 0 -37 5.66699 -49 17s-18 26.333 -18 45s6.16699 33.834 18.5 45.501s28.5 17.5 48.5 17.5c19.333 0 35 -5.83301 47 -17.5s18 -26.834 18 -45.501s-6 -33.667 -18 -45s-27.667 -17 -47 -17zM53 -184c-32.667 0 -59.334 7.33203 -80.001 21.999
s-31 34 -31 58c0 11.333 3.66699 20.666 11 27.999s17 11 29 11c12.667 0 22.667 -4.33301 30 -13s12 -18.334 14 -29.001s6.33301 -20.334 13 -29.001s16.334 -13 29.001 -13c14 0 25.167 5 33.5 15s12.5 23 12.5 39c0 16.667 -4.66699 37.334 -14 62.001
s-14 44.334 -14 59.001v343c0 15.333 -6 28.333 -18 39s-18 18 -18 22v3c0 4.66699 4.66699 9.66699 14 15l80 38c10 4.66699 17.833 5.33398 23.5 2.00098s8.5 -8.66602 8.5 -15.999v-469c0 -38.667 -5.66699 -75.667 -17 -111c-16.667 -50.667 -52 -76 -106 -76z" />
    <glyph glyph-name="k" unicode="k" horiz-adv-x="521" 
d="M483 57c5.33301 -6.66699 15 -13.833 29 -21.5s21 -14.834 21 -21.501v-2c0 -8 -5 -12 -15 -12h-133c-10 0 -15 4 -15 12v2c0 4.66699 4.83301 10.834 14.5 18.501s10.834 15.834 3.50098 24.501l-152 191l-76 -70v-108c0 -12.667 6.5 -23.5 19.5 -32.5
s19.5 -16.167 19.5 -21.5v-3c0 -8.66699 -7 -13 -21 -13h-122c-13.333 0 -20 4.33301 -20 13v3c0 5.33301 6 12.5 18 21.5s18 19.833 18 32.5v562c0 11.333 -3.33301 20.833 -10 28.5s-13.167 13.834 -19.5 18.501s-9.5 9 -9.5 13v2c0 5.33301 4.66699 10.666 14 15.999
l81 38c10 4 17.833 4.5 23.5 1.5s8.5 -8.16699 8.5 -15.5v-502l202 178c7.33301 9.33301 9.33301 16.166 6 20.499s-8.83301 10 -16.5 17s-11.5 12.833 -11.5 17.5v3c0 8 5.33301 12 16 12h113c9.33301 0 14 -3.66699 14 -11v-3c0 -5.33301 -3.33301 -10.5 -10 -15.5
s-16.334 -11.167 -29.001 -18.5s-23 -14.333 -31 -21l-119 -110z" />
    <glyph glyph-name="l" unicode="l" horiz-adv-x="236" 
d="M57 0c-12.667 0 -19 4.33301 -19 13v3c0 5.33301 5.83301 12.5 17.5 21.5s17.5 19.833 17.5 32.5v562c0 11.333 -2.83301 20.833 -8.5 28.5s-11.5 13.834 -17.5 18.501s-9 9 -9 13v2c0 5.33301 4.66699 10.666 14 15.999l78 38c10 4 17.667 4.5 23 1.5
s8 -8.16699 8 -15.5v-664c0 -12.667 6.5 -23.5 19.5 -32.5s19.5 -16.167 19.5 -21.5v-3c0 -8.66699 -6.66699 -13 -20 -13h-123z" />
    <glyph glyph-name="m" unicode="m" horiz-adv-x="900" 
d="M840 71c0.666992 -13.333 6.99902 -24.8301 18.999 -34.4971s18 -16.834 18 -21.501v-4c0 -8 -6.66699 -12 -20 -12h-120c-13.333 0 -20 4 -20 12v4c0 4.66699 6 11.667 18 21s17.667 20.666 17 33.999l-10 195c-3.33301 65.333 -15.5 112.666 -36.5 141.999
s-50.5 44 -88.5 44c-32 0 -59.5 -12.667 -82.5 -38s-35.167 -56.666 -36.5 -93.999c2.66699 -13.333 4 -29.666 4 -48.999v-200c0 -13.333 5.83301 -24.666 17.5 -33.999s17.5 -16.333 17.5 -21v-4c0 -8 -6.33301 -12 -19 -12h-118c-14 0 -21 4 -21 12v4
c0 4.66699 5.83301 11.667 17.5 21s17.5 20.666 17.5 33.999v205c0 54 -11.833 96.833 -35.5 128.5s-53.167 47.5 -88.5 47.5c-34.667 0 -63.667 -13 -87 -39s-35.666 -58 -36.999 -96l1 -246c0 -13.333 6.5 -24.666 19.5 -33.999s19.5 -16.333 19.5 -21v-4
c0 -8 -6.66699 -12 -20 -12h-125c-13.333 0 -20 4 -20 12v4c0 4.66699 6.33301 11.667 19 21s19 20.666 19 33.999v303c0 11.333 -3.33301 20.666 -10 27.999s-13.334 13.166 -20.001 17.499s-10 8.83301 -10 13.5v3c0 6 5 11 15 15l78 36
c9.33301 4.66699 16.5 5.33398 21.5 2.00098s7.5 -9 7.5 -17v-71c14.667 27.333 35.167 49.166 61.5 65.499s55.166 24.5 86.499 24.5c37.333 0 71.166 -9.5 101.499 -28.5s53.5 -46.167 69.5 -81.5c12.667 34 33.334 60.833 62.001 80.5s61.334 29.5 98.001 29.5
c54 0 97.833 -18.167 131.5 -54.5s52.834 -93.833 57.501 -172.5z" />
    <glyph glyph-name="n" unicode="n" horiz-adv-x="574" 
d="M514 72c0.666992 -10.667 4.00098 -19.3301 10.001 -25.9971s11.833 -12.167 17.5 -16.5s8.5 -8.83301 8.5 -13.5v-4c0 -8.66699 -7 -13 -21 -13h-119c-14 0 -21 4.33301 -21 13v4c0 4.66699 6.16699 11.667 18.5 21s18.166 20.666 17.499 33.999l-10 200
c-2.66699 59.333 -14.834 104.166 -36.501 134.499s-50.5 45.5 -86.5 45.5c-36.667 0 -66.667 -13 -90 -39s-35 -59 -35 -99v-243c0 -8 2.16699 -14.833 6.5 -20.5s8.83301 -9.83398 13.5 -12.501s9.16699 -5.83398 13.5 -9.50098s6.5 -7.5 6.5 -11.5v-4
c0 -8.66699 -7 -13 -21 -13h-125c-13.333 0 -20 4.33301 -20 13v4c0 5.33301 6.5 12.333 19.5 21s19.5 19.667 19.5 33v303c0 12.667 -3.5 22.5 -10.5 29.5s-14 12.5 -21 16.5s-10.5 8.33301 -10.5 13v3c0 6 5.33301 11 16 15l75 36
c9.33301 4.66699 16.333 5.33398 21 2.00098s7 -9 7 -17v-73c14.667 28 35.834 50.333 63.501 67s58.5 25 92.5 25c52 0 95.5 -18.333 130.5 -55s54.833 -92 59.5 -166z" />
    <glyph glyph-name="o" unicode="o" horiz-adv-x="565" 
d="M294 -10c-77.333 0 -140.168 25.168 -188.501 75.501s-72.5 110.833 -72.5 181.5c0 69.333 23.333 127.166 70 173.499s104.334 69.5 173.001 69.5c74 0 134.833 -24.5 182.5 -73.5s71.5 -109.167 71.5 -180.5c0 -70 -22 -128.5 -66 -175.5s-100.667 -70.5 -170 -70.5z
M305.998 23.001c39.333 0 71.834 16.6689 97.501 50.002s38.5 77.666 38.5 132.999c0 70.667 -16.667 130.167 -50 178.5s-75.333 72.5 -126 72.5c-42.667 0 -77.334 -16.5 -104.001 -49.5s-40 -77.167 -40 -132.5c0 -66.667 17.333 -125.334 52 -176.001
s78.667 -76 132 -76z" />
    <glyph glyph-name="p" unicode="p" horiz-adv-x="572" 
d="M307 490c63.333 0 117.5 -22.501 162.5 -67.501s67.5 -103.5 67.5 -175.5c0 -73.333 -22.167 -134.5 -66.5 -183.5s-98.5 -73.5 -162.5 -73.5c-61.333 0 -110.666 23 -147.999 69v-215c0 -10.667 3.33301 -19.334 10 -26.001s13.167 -12.167 19.5 -16.5
s9.5 -8.83301 9.5 -13.5v-3c0 -8.66699 -6.66699 -13 -20 -13h-123c-14 0 -21 4.33301 -21 13v3c0 4 2 7.83301 6 11.5s8.16699 6.83398 12.5 9.50098s8.5 7 12.5 13s6 13.333 6 22v530c0 12.667 -6.66699 23.834 -20 33.501s-20 17.167 -20 22.5v3c0 8 5.33301 14 16 18
l72 35c18.667 8.66699 28 4 28 -14l-1 -66c15.333 26 37.166 46.5 65.499 61.5s59.833 22.5 94.5 22.5zM296 21.999c46 0 82.833 18.1689 110.5 54.502s41.5 85.166 41.5 146.499c0 69.333 -15 125.833 -45 169.5s-69.333 65.5 -118 65.5
c-30.667 0 -58.167 -10.833 -82.5 -32.5s-38.5 -47.834 -42.5 -78.501v-171c0 -40 13.833 -75.667 41.5 -107s59.167 -47 94.5 -47z" />
    <glyph glyph-name="q" unicode="q" horiz-adv-x="570" 
d="M537 448c0 -4 -3.16797 -8.33203 -9.50098 -12.999s-12.666 -10.834 -18.999 -18.501s-9.5 -17.167 -9.5 -28.5v-545c0 -10 3.16699 -18.333 9.5 -25s12.666 -12.334 18.999 -17.001s9.5 -9.33398 9.5 -14.001v-3c0 -8 -7 -12 -21 -12h-121c-13.333 0 -20 4 -20 12v3
c0 4.66699 3.16699 9.33398 9.5 14.001s12.833 10.334 19.5 17.001s10 15 10 25v219c-34 -48 -83.667 -72 -149 -72c-63.333 0 -117.666 23.333 -162.999 70s-68 107 -68 181c0 72.667 22.333 132.334 67 179.001s100.667 70 168 70c64.667 0 115.667 -25 153 -75v54
c0 8 3 13.667 9 17s13.667 3.33301 23 0l68 -18c10 -2.66699 15 -8.33398 15 -17.001v-3zM285.999 23.001c32 0 61.333 12.833 88 38.5s40 60.834 40 105.501v154c-0.666992 33.333 -15.5 64.5 -44.5 93.5s-62.833 43.5 -101.5 43.5
c-43.333 0 -78.666 -17.167 -105.999 -51.5s-41.333 -79.5 -42 -135.5c-1.33301 -69.333 13.667 -127.833 45 -175.5s71.666 -71.834 120.999 -72.501z" />
    <glyph glyph-name="r" unicode="r" horiz-adv-x="381" 
d="M286 490c28.667 0 51.167 -7.33398 67.5 -22.001s24.5 -33 24.5 -55c0 -31.333 -13.333 -47 -40 -47c-11.333 0 -20.333 3.66699 -27 11s-11.167 15.333 -13.5 24s-7.5 16.667 -15.5 24s-19 11 -33 11c-26.667 0 -47.5 -13.167 -62.5 -39.5s-22.5 -59.166 -22.5 -98.499
v-228c0 -13.333 7 -24.5 21 -33.5s21 -15.833 21 -20.5v-4c0 -8 -6.66699 -12 -20 -12h-124c-13.333 0 -20 4 -20 12v4c0 4.66699 6.16699 11.5 18.5 20.5s18.5 20.167 18.5 33.5v304c0 14 -6.66699 26 -20 36s-20 17.333 -20 22v2c0 6.66699 5 12.667 15 18l76 34
c17.333 8 26 3.33301 26 -14v-80c22.667 65.333 66 98 130 98z" />
    <glyph glyph-name="s" unicode="s" horiz-adv-x="467" 
d="M234 -9c-61.333 0 -110.5 12.334 -147.5 37.001s-55.5 50.334 -55.5 77.001c0 24.667 13 37 39 37c11.333 0 20.5 -4.16699 27.5 -12.5s13.167 -18.5 18.5 -30.5s11.833 -24 19.5 -36s19.834 -22.167 36.501 -30.5s37.334 -12.5 62.001 -12.5
c33.333 0 60.666 7.83301 81.999 23.5s32 37.167 32 64.5c0 26.667 -10.5 47.334 -31.5 62.001s-46.5 25.167 -76.5 31.5s-60 13.5 -90 21.5s-55.5 22.667 -76.5 44s-31.5 50 -31.5 86c0 38.667 17.667 71.167 53 97.5s80.333 39.5 135 39.5c58 0 105 -12.333 141 -37
s54 -51.667 54 -81c0 -10 -3.5 -18.333 -10.5 -25s-15.5 -10 -25.5 -10c-12 0 -22.333 6.33301 -31 19s-15.834 26.667 -21.501 42s-17.167 29.333 -34.5 42s-40 19 -68 19c-29.333 0 -53.833 -8.33301 -73.5 -25s-29.5 -37.334 -29.5 -62.001
c0 -26 10.5 -46.167 31.5 -60.5s46.5 -24.833 76.5 -31.5s59.833 -14 89.5 -22s55 -22.833 76 -44.5s31.5 -50.834 31.5 -87.501c0 -38.667 -18.5 -70.834 -55.5 -96.501s-85.833 -38.5 -146.5 -38.5z" />
    <glyph glyph-name="t" unicode="t" horiz-adv-x="356" 
d="M217 -10c-40 0 -71.4971 12.834 -94.4971 38.501s-34.5 63.167 -34.5 112.5v299h-66c-10 0 -15 5 -15 15v10c0 10 5 15 15 15h36c45.333 0 70.666 31.667 75.999 95c1.33301 13.333 7 20 17 20h10c10.667 0 16 -6.66699 16 -20l1 -95h138c4 0 7.5 -1.5 10.5 -4.5
s4.5 -6.5 4.5 -10.5v-10c0 -10 -5 -15 -15 -15h-138v-300c0 -26.667 5.66699 -47.334 17 -62.001s26.666 -22 45.999 -22c21.333 0 38.5 5.5 51.5 16.5s20.5 25.5 22.5 43.5c3.33301 8 9.16602 11.5 17.499 10.5s12.5 -5.83301 12.5 -14.5
c0 -32.667 -11.833 -61.167 -35.5 -85.5s-54.5 -36.5 -92.5 -36.5z" />
    <glyph glyph-name="u" unicode="u" horiz-adv-x="565" 
d="M486 86c0 -16.667 3 -29.334 9 -38.001s12.333 -13.5 19 -14.5s13 -2.83301 19 -5.5s9 -7 9 -13c0 -14 -20.667 -21 -62 -21c-50.667 0 -75 24.667 -73 74l-2 6c-30.667 -56 -82 -84 -154 -84c-56 0 -100.833 19.833 -134.5 59.5s-50.5 95.834 -50.5 168.501v177
c0 14.667 -6.16699 27 -18.5 37s-18.5 17 -18.5 21v3c0 8 5 13 15 15l84 15c18 3.33301 27 -0.666992 27 -12l-1 -263c0 -58 10.167 -102.833 30.5 -134.5s49.5 -47.5 87.5 -47.5c36 0 66.167 14 90.5 42s36.5 64.667 36.5 110v214c0 14 -6.5 26 -19.5 36
s-19.5 17.333 -19.5 22v3c0 8 5 13 15 15l85 15c17.333 3.33301 26 -0.666992 26 -12v-388z" />
    <glyph glyph-name="v" unicode="v" horiz-adv-x="516" 
d="M502 480c10 0 15 -3.66602 15 -10.999v-3c0 -6 -7.33301 -14 -22 -24s-24.334 -20.667 -29.001 -32l-158 -390c-5.33301 -13.333 -14 -20 -26 -20h-31c-12 0 -21 6.66699 -27 20l-179 390c-5.33301 11.333 -13.833 22 -25.5 32s-17.5 18 -17.5 24v3c0 7.33301 5 11 15 11
h139c9.33301 0 14 -4 14 -12v-3c0 -2.66699 -5.66699 -9.5 -17 -20.5s-14.666 -22.833 -9.99902 -35.5l141 -346l137 337c4 10.667 4.5 19.667 1.5 27s-7.16699 12.666 -12.5 15.999l-16 10.5c-5.33301 3.66699 -8 7.5 -8 11.5v3c0 8 5 12 15 12h101z" />
    <glyph glyph-name="w" unicode="w" horiz-adv-x="743" 
d="M728 480c9.33301 0 13.998 -3.99805 13.998 -11.998v-3c0 -5.33301 -6.16699 -12.5 -18.5 -21.5s-21.166 -20.5 -26.499 -34.5l-140 -389c-4.66699 -13.333 -13 -20 -25 -20h-19c-14 0 -23 6.66699 -27 20l-113 354l-114 -354c-4 -13.333 -12.333 -20 -25 -20h-13
c-12.667 0 -21.667 6.66699 -27 20l-154 389c-5.33301 13.333 -13.166 24.666 -23.499 33.999s-15.5 16.666 -15.5 21.999v3c0 8 5 12 15 12h126c9.33301 0 14 -4 14 -12v-3c0 -4.66699 -3.33301 -9 -10 -13s-12.334 -9.33301 -17.001 -16s-5 -16 -1 -28l114 -318l118 372
c2.66699 10.667 8.33398 16 17.001 16l33 1c8 0 13.667 -5.33301 17 -16l115 -377l111 316c4.66699 13.333 4 23.666 -2 30.999s-13.167 13.333 -21.5 18s-12.5 9.33398 -12.5 14.001v3c0 8 5 12 15 12h96z" />
    <glyph glyph-name="x" unicode="x" horiz-adv-x="502" 
d="M437 74c6.66699 -8.66699 15 -16.834 25 -24.501s17.5 -14 22.5 -19s7.5 -10.167 7.5 -15.5v-3c0 -8 -5 -12 -15 -12h-140c-10 0 -15 4.33301 -15 13v2c0 4 3.66699 8.83301 11 14.5s12.166 11 14.499 16s-1.16699 14.833 -10.5 29.5l-103 130l-111 -132
c-8 -9.33301 -12.167 -17.5 -12.5 -24.5s1.83398 -11.833 6.50098 -14.5s9.33398 -5.66699 14.001 -9s7 -6.66602 7 -9.99902v-2c0 -8.66699 -5.33301 -13 -16 -13h-108c-10 0 -15 4 -15 12v3c0 4.66699 2.83301 9 8.5 13l26.5 18.5c12 8.33301 23 18.166 33 29.499l140 163
l-130 165c-9.33301 12 -19.166 21.833 -29.499 29.5l-22.5 17c-4.66699 3.66699 -7 8.5 -7 14.5v3c0 8 4.66699 12 14 12h137c10 0 15 -4 15 -12v-3c0 -4.66699 -2.83301 -10.5 -8.5 -17.5s-9.16699 -13 -10.5 -18s2 -13.833 10 -26.5l100 -125l110 125
c8.66699 13.333 12 22.666 10 27.999s-6.66699 11.333 -14 18s-11 12 -11 16v3c0 8 5 12 15 12h89c10 0 15 -4 15 -12v-3c0 -5.33301 -1.83301 -10.166 -5.5 -14.499s-10.334 -10.666 -20.001 -18.999s-18.834 -17.5 -27.501 -27.5l-136 -158z" />
    <glyph glyph-name="y" unicode="y" horiz-adv-x="522" 
d="M507 480c9.33301 0 14 -4 14 -12v-3c0 -6 -5.83301 -14 -17.5 -24s-20.834 -22.667 -27.501 -38l-189 -417c-11.333 -26 -19.666 -44.5 -24.999 -55.5s-14.5 -27.833 -27.5 -50.5s-24.833 -39.167 -35.5 -49.5s-24.5 -20 -41.5 -29s-34.833 -13.5 -53.5 -13.5
c-35.333 0 -64.666 9.5 -87.999 28.5s-35 39.167 -35 60.5c0 12 3.33301 21.667 10 29s16 11 28 11c11.333 0 21 -4.83301 29 -14.5s13.833 -20.5 17.5 -32.5s10 -22.833 19 -32.5s20.5 -14.5 34.5 -14.5c39.333 0 80 52.667 122 158l-192 423
c-7.33301 14.667 -17.166 27 -29.499 37s-18.5 18 -18.5 24v3c0 8 5 12 15 12h130c9.33301 0 14 -4 14 -12v-3c0 -4.66699 -2.83301 -9.83398 -8.5 -15.501s-9.83398 -11 -12.501 -16s-1.33398 -15.167 3.99902 -30.5l144 -339l143 331c5.33301 12 6.33301 21.833 3 29.5
s-8 13.334 -14 17.001l-18 11.5c-6 4 -9 8 -9 12v3c0 8 5 12 15 12h100z" />
    <glyph glyph-name="z" unicode="z" horiz-adv-x="476" 
d="M451 131c12.667 0 16.667 -7.00195 12 -21.002l-27 -89c-4.66699 -14 -12.667 -21 -24 -21h-367c-5.33301 0 -10 1.83301 -14 5.5s-6 7.83398 -6 12.501v6c0 4 4.33301 13 13 27l297 399h-185c-11.333 0 -22.166 -5 -32.499 -15s-18.5 -21.167 -24.5 -33.5
s-12.833 -23.5 -20.5 -33.5s-15.167 -15 -22.5 -15h-4c-13.333 0 -17.333 8 -12 24l25 81c5.33301 14.667 14 22 26 22h328c4.66699 0 8.83398 -1.66699 12.501 -5s5.5 -7.66602 5.5 -12.999v-9c0 -5.33301 -5.33301 -15 -16 -29l-296 -394h217
c13.333 0 25.666 5.33301 36.999 16s20.333 22.167 27 34.5s14.167 23.833 22.5 34.5s16.166 16 23.499 16h5z" />
    <glyph glyph-name="braceleft" unicode="{" horiz-adv-x="294" 
d="M261 -55c8 0 13.667 -3.33203 17 -9.99902s3.5 -13.334 0.5 -20.001s-8.5 -10 -16.5 -10c-49.333 0 -89 13.5 -119 40.5s-45 67.833 -45 122.5v124c0 40 -5.5 69.5 -16.5 88.5s-24.5 28.5 -40.5 28.5c-9.33301 0 -16 4.16699 -20 12.5s-4.16699 16.666 -0.5 24.999
s10.5 12.5 20.5 12.5c16 0 29.5 9 40.5 27s16.5 45.333 16.5 82v146c0 52.667 15.333 92.5 46 119.5s71 40.167 121 39.5c7.33301 0 12.833 -3.16699 16.5 -9.5s4 -12.833 1 -19.5s-8.83301 -10 -17.5 -10c-26 0 -46.5 -10 -61.5 -30s-22.833 -49 -23.5 -87l-1 -145
c0 -77.333 -25 -123.666 -75 -138.999c50 -14 74.667 -62.667 74 -146v-123c-0.666992 -79.333 27 -119 83 -119z" />
    <glyph glyph-name="bar" unicode="|" horiz-adv-x="227" 
d="M93 -90c-6.66699 0 -10 5 -10 15v771c0 8.66699 3.66699 13.667 11 15l38 -1c8 0 12 -4.66699 12 -14v-771c0 -4.66699 -1 -8.5 -3 -11.5s-4.66699 -4.16699 -8 -3.5h-40z" />
    <glyph glyph-name="braceright" unicode="}" horiz-adv-x="295" 
d="M255 359c9.33301 0 15.833 -4.1709 19.5 -12.5039s3.5 -16.666 -0.5 -24.999s-10.333 -12.5 -19 -12.5c-16 0 -29.667 -9.5 -41 -28.5s-17 -48.5 -17 -88.5v-124c0 -54.667 -15 -95.5 -45 -122.5s-69.667 -40.5 -119 -40.5c-7.33301 0 -12.5 3.33301 -15.5 10
s-2.83301 13.334 0.5 20.001s9 10 17 10c55.333 0 83 39.667 83 119l-1 123c-0.666992 48.667 7 84.167 23 106.5s33.667 35.5 53 39.5c-19.333 4.66699 -37 17.834 -53 39.501s-24 54.834 -24 99.501v145c-0.666992 38 -8.5 67 -23.5 87s-35.5 30 -61.5 30
c-8.66699 0 -14.5 3.33301 -17.5 10s-2.66699 13.167 1 19.5s9.16699 9.5 16.5 9.5c49.333 0.666992 89.333 -12.5 120 -39.5s46 -66.833 46 -119.5v-146c0.666992 -36.667 6.5 -64 17.5 -82s24.5 -27 40.5 -27z" />
    <glyph glyph-name="asciitilde" unicode="~" 
d="M192 375c30 0 67.332 -11.334 111.999 -34.001s78.334 -34 101.001 -34c16.667 0 32 3.83301 46 11.5s24 18.834 30 33.501c5.33301 8.66699 11.666 13 18.999 13h17c9.33301 0 13 -5.33301 11 -16c-6 -33.333 -20.833 -59.666 -44.5 -78.999s-50.834 -29 -81.501 -29
c-36 0 -75 11.333 -117 34s-73 34 -93 34c-30.667 0 -54 -15.667 -70 -47c-5.33301 -10 -13.666 -15 -24.999 -15h-11c-8.66699 0 -12 5.66699 -10 17c5.33301 29.333 17.833 55.166 37.5 77.499s45.834 33.5 78.501 33.5z" />
    <glyph glyph-name="exclamdown" unicode="&#xa1;" horiz-adv-x="222" 
d="M111 337c-18 0 -33 5.16699 -45 15.5s-18 24.833 -18 43.5c0 19.333 6 34.333 18 45s27 16 45 16s33 -5.33301 45 -16s18 -25.667 18 -45c0 -18.667 -6 -33.167 -18 -43.5s-27 -15.5 -45 -15.5zM161 -175c0 -16 -8 -27.167 -24 -33.5s-32.167 -6 -48.5 1
s-24.5 18.167 -24.5 33.5c2 152 10.667 298.333 26 439c1.33301 8.66699 8 13 20 13s18.667 -4.33301 20 -13c16.667 -122 27 -268.667 31 -440z" />
    <glyph glyph-name="cent" unicode="&#xa2;" horiz-adv-x="526" 
d="M461 268c4 7.33301 11.002 9.99805 21.002 7.99805s14 -7.66699 12 -17c-8 -40 -27.667 -76.667 -59 -110s-75.333 -51.666 -132 -54.999v-78c0 -11.333 -4 -17 -12 -17h-15c-8.66699 0 -13 5.66699 -13 17v79c-62 6.66699 -114.833 35.334 -158.5 86.001
s-65.5 110 -65.5 178c0 74 21.333 134.833 64 182.5s96 74.167 160 79.5v80c0 10 4 15 12 15h17c7.33301 0 11 -5 11 -15v-80c47.333 -3.33301 88.666 -17.833 123.999 -43.5s53 -52.167 53 -79.5c0 -10.667 -3.66699 -19.667 -11 -27s-17 -11 -29 -11
c-12.667 0 -24 5.33301 -34 16s-18.167 22.667 -24.5 36s-16.333 27 -30 41s-29.834 23.333 -48.501 28v-419c3.33301 -0.666992 8.33301 -1 15 -1c63.333 0 111 35.667 143 107zM129.002 402.998c0 -58.667 12.333 -108.669 37 -150.002s57 -69 97 -83v415
c-36 -1.33301 -67.333 -19.666 -94 -54.999s-40 -77.666 -40 -126.999z" />
    <glyph glyph-name="sterling" unicode="&#xa3;" horiz-adv-x="655" 
d="M589 143c4.66699 8.66699 12.001 11.9971 22.001 9.99707s14 -8.66699 12 -20c-10.667 -42.667 -32.834 -77.667 -66.501 -105s-79.834 -41 -138.501 -41c-47.333 0 -103.333 20 -168 60c-30 -38 -67.667 -57 -113 -57c-27.333 0 -48.5 7 -63.5 21s-22.5 32 -22.5 54
c0 21.333 8.33301 38.833 25 52.5s38.667 20.5 66 20.5c24 0 50 -5 78 -15c2.66699 12.667 4 28 4 46c0 41.333 -12.333 86.666 -37 135.999h-133c-10 0 -15 3.33301 -15 10v25c0 6 5 9 15 9h110c-29.333 56 -44 107.667 -44 155c0 66 22 119 66 159s105.333 60 184 60
c57.333 0 107.833 -13 151.5 -39s65.5 -54.667 65.5 -86c0 -12 -3.83301 -22.333 -11.5 -31s-18.167 -13 -31.5 -13c-12 0 -22.667 4.33301 -32 13s-17.666 19.334 -24.999 32.001s-15.833 25.334 -25.5 38.001s-23.5 23.334 -41.5 32.001s-39.667 13 -65 13
c-46.667 0 -82.5 -16 -107.5 -48s-37.5 -72.667 -37.5 -122c0 -50.667 12.667 -105 38 -163h191c10 0 15 -3.33301 15 -10v-24c0 -6.66699 -5 -10 -15 -10h-174c17.333 -46 26 -90.333 26 -133c0 -25.333 -4.33301 -49.666 -13 -72.999c62.667 -29.333 114 -44 154 -44
c36.667 0 69.5 8.5 98.5 25.5s48.5 37.833 58.5 62.5zM135.001 25.9971c30 0 53.001 16.334 69.001 49.001c-26 14.667 -48.667 22 -68 22c-14.667 0 -26 -3.16699 -34 -9.5s-12 -14.833 -12 -25.5s4.16699 -19.334 12.5 -26.001s19.166 -10 32.499 -10z" />
    <glyph glyph-name="currency" unicode="&#xa4;" horiz-adv-x="619" 
d="M489 217l67 -66.001c7.33301 -7.33301 7.66602 -14 0.999023 -20l-15 -15c-5.33301 -4.66699 -12.333 -4.33398 -21 0.999023l-66 69c-42 -30.667 -91.667 -46 -149 -46c-56 0 -103.333 14.667 -142 44l-66 -67c-6.66699 -5.33301 -13 -5.66602 -19 -0.999023l-16 15
c-7.33301 6 -6.66602 12.667 2.00098 20l64 65c-32 36 -48 79.333 -48 130c0 48.667 15.667 91.334 47 128.001l-63 64c-3.33301 2.66699 -5.33301 6 -6 10s0.666016 7 3.99902 9l16 15c6 6 12.333 5.66699 19 -1l65 -65c40.667 30 88.334 45 143.001 45
c58.667 0 108.667 -15.333 150 -46l65 66c8 6.66699 15 7 21 1l15 -15c7.33301 -4.66699 7 -11 -1 -19l-66 -65c32 -36 48 -78.333 48 -127c0 -48 -16.333 -91 -49 -129zM308 191.999c46 0 83.667 15 113 45s44 66.333 44 109c0 42 -14.667 77.833 -44 107.5
s-67 44.5 -113 44.5c-45.333 0 -82.166 -14.833 -110.499 -44.5s-42.5 -65.5 -42.5 -107.5c0 -42.667 14.167 -79 42.5 -109s65.166 -45 110.499 -45z" />
    <glyph glyph-name="yen" unicode="&#xa5;" horiz-adv-x="704" 
d="M651 710c12.667 0 19.002 -3.66504 19.002 -10.998v-3c0 -6 -6.66699 -13.333 -20 -22s-24 -20 -32 -34l-196 -321h188c9.33301 0 14 -3.33301 14 -10v-17c0 -6.66699 -4.66699 -10 -14 -10h-208v-63h190c10 0 15 -3.33301 15 -10v-17c0 -6.66699 -5 -10 -15 -10h-190
v-112c0 -10 3.16699 -18.333 9.5 -25s12.666 -12.334 18.999 -17.001s9.5 -9.33398 9.5 -14.001v-2c0 -8 -6.66699 -12 -20 -12h-125c-13.333 0 -20 4 -20 12v2c0 4.66699 6 11.834 18 21.501s18 21.167 18 34.5v112h-180c-9.33301 0 -14 3.33301 -14 10v17
c0 6.66699 4.66699 10 14 10h180v62l-1 1h-197c-9.33301 0 -14 3.33301 -14 10v17c0 6.66699 4.66699 10 14 10h173l-207 321c-7.33301 12 -18.333 22.833 -33 32.5s-22 17.5 -22 23.5v2c0 8 6.66699 12 20 12h145c14 0 21 -4 21 -12v-2
c0 -4.66699 -4.16699 -9.83398 -12.5 -15.501s-14.833 -10.834 -19.5 -15.501s-4.33398 -13 0.999023 -25l195 -321l195 321c6 10.667 6 19.167 0 25.5s-13.333 11.833 -22 16.5s-13 9.33398 -13 14.001v2c0 8 6.33301 12 19 12h98z" />
    <glyph glyph-name="brokenbar" unicode="&#xa6;" horiz-adv-x="227" 
d="M93 349c-6.66699 0 -10 4.66699 -10 14v332c0 8.66699 3.66699 13.667 11 15h38c8 0 12 -5 12 -15v-332c0 -4 -1 -7.5 -3 -10.5s-4.66699 -4.16699 -8 -3.5h-40zM93 -90c-6.66699 0 -10 5 -10 15v312c0 10 3.66699 15 11 15h38c8 0 12 -5 12 -15v-312
c0 -4.66699 -1 -8.5 -3 -11.5s-4.66699 -4.16699 -8 -3.5h-40z" />
    <glyph glyph-name="section" unicode="&#xa7;" horiz-adv-x="612" 
d="M496 152c44 -30 66 -73.333 66 -130c0 -45.333 -22.833 -85 -68.5 -119s-103.834 -51 -174.501 -51c-88 0 -157.667 18.833 -209 56.5s-77 76.5 -77 116.5c0 28 14.333 42 43 42c11.333 0 21.5 -6 30.5 -18s18.333 -26.667 28 -44s21.5 -34.666 35.5 -51.999
s34.667 -32 62 -44s60 -18 98 -18c42 0 76.5 10.5 103.5 31.5s40.5 45.833 40.5 74.5c0 26 -7.66699 47.667 -23 65s-35.5 30.333 -60.5 39s-52.333 16.334 -82 23.001s-59.5 14.167 -89.5 22.5s-57.333 18.5 -82 30.5s-44.5 29.667 -59.5 53s-22.5 52 -22.5 86
c0 63.333 25 110.333 75 141c-42 30 -63 72 -63 126c0 54.667 22.333 98 67 130s100.667 48 168 48c78.667 0 142 -17.5 190 -52.5s72 -72.5 72 -112.5c0 -12.667 -3.66699 -22.834 -11 -30.501s-18 -11.5 -32 -11.5c-11.333 0 -21.5 4.16699 -30.5 12.5
s-16.167 18.5 -21.5 30.5s-12.666 25.333 -21.999 40s-19.333 28 -30 40s-26.167 22.167 -46.5 30.5s-44.166 12.5 -71.499 12.5c-39.333 0 -73.333 -10.667 -102 -32s-43 -48.666 -43 -81.999c0 -26.667 7.66699 -48.834 23 -66.501s35.166 -31 59.499 -40
s51.333 -17 81 -24s59.334 -14.667 89.001 -23s56.667 -18.833 81 -31.5s44.166 -30.834 59.499 -54.501s23 -52.834 23 -87.501c0 -49.333 -24.667 -91.666 -74 -126.999zM141 348c0 -24 6.16797 -44.332 18.501 -60.999s29.833 -29.834 52.5 -39.501
s45.667 -17.5 69 -23.5l82.5 -20.5c31.667 -7.66699 57.5 -15.5 77.5 -23.5c30 26.667 45 53.667 45 81c0 22 -6.16699 40.833 -18.5 56.5s-30 28.167 -53 37.5s-46.333 17.333 -70 24l-83 22.5c-31.667 8.33301 -57.834 16.833 -78.501 25.5c-28 -20.667 -42 -47 -42 -79z
" />
    <glyph glyph-name="dieresis" unicode="&#xa8;" 
d="M185 577c-18.667 0 -33.667 5.33301 -45 16s-17 24.667 -17 42s5.66699 31.333 17 42s26.333 16 45 16c18 0 32.5 -5.33301 43.5 -16s16.5 -24.667 16.5 -42s-5.5 -31.333 -16.5 -42s-25.5 -16 -43.5 -16zM376 577c-18.667 0 -33.667 5.33301 -45 16s-17 24.667 -17 42
s5.66699 31.333 17 42s26.333 16 45 16c17.333 0 31.833 -5.5 43.5 -16.5s17.5 -24.833 17.5 -41.5s-5.83301 -30.5 -17.5 -41.5s-26.167 -16.5 -43.5 -16.5z" />
    <glyph glyph-name="copyright" unicode="&#xa9;" horiz-adv-x="878" 
d="M439 -59c-111.333 0 -206.333 39.167 -285 117.5s-118 173.166 -118 284.499s39.333 206 118 284s173.667 117 285 117s206.333 -39.167 285 -117.5s118 -172.833 118 -283.5c0 -111.333 -39.333 -206.166 -118 -284.499s-173.667 -117.5 -285 -117.5zM439 -14
c95.333 0 177 35 245 105s102 154 102 252c0 97.333 -34 181 -102 251s-149.667 105 -245 105s-177 -35 -245 -105s-102 -153.667 -102 -251c0 -98 33.833 -182 101.5 -252s149.5 -105 245.5 -105zM445 120c-63.333 0 -117.331 22.8311 -161.998 68.498
s-67 98.834 -67 159.501c0 65.333 21.333 118.833 64 160.5s97.667 62.167 165 61.5c50.667 -0.666992 95 -13.834 133 -39.501s57 -53.5 57 -83.5c0 -8.66699 -3.33301 -16.167 -10 -22.5s-15.334 -9.5 -26.001 -9.5c-11.333 0 -21.5 4.16699 -30.5 12.5
s-17.167 18.5 -24.5 30.5s-15.166 24.167 -23.499 36.5s-19.833 22.666 -34.5 30.999s-32 12.5 -52 12.5c-40.667 0 -72.834 -15.167 -96.501 -45.5s-35.5 -68.833 -35.5 -115.5c0 -55.333 15.5 -100.666 46.5 -135.999s73.5 -53 127.5 -53
c59.333 0 102.666 29.333 129.999 88c3.33301 6.66699 9.5 8.33398 18.5 5.00098s13.167 -9.66602 12.5 -18.999c-6.66699 -40 -26.667 -73.667 -60 -101s-77.333 -41 -132 -41z" />
    <glyph glyph-name="ordfeminine" unicode="&#xaa;" horiz-adv-x="417" 
d="M349 436c1.33301 -10 4.1709 -17.665 8.50391 -22.998s8.83301 -8.33301 13.5 -9s8.66699 -2.16699 12 -4.5s5 -6.5 5 -12.5c0 -14 -18.333 -21 -55 -21c-16 0 -27.833 3 -35.5 9s-11.834 18.333 -12.501 37c-20.667 -33.333 -56.334 -50 -107.001 -50
c-40.667 0 -73.5 10 -98.5 30s-37.5 46.333 -37.5 79c0 33.333 12.5 59.666 37.5 78.999s58.167 29 99.5 29c37.333 0 66.666 -9.33301 87.999 -28l-2 17c-4 43.333 -12.667 74.333 -26 93s-34 28 -62 28c-16 0 -29 -3.83301 -39 -11.5s-16.667 -16.334 -20 -26.001
s-8.33301 -18.334 -15 -26.001s-15.334 -11.5 -26.001 -11.5c-20 0 -30 9.66699 -30 29c0 21.333 12.667 39.5 38 54.5s56 22.5 92 22.5c44 0 80 -12.667 108 -38s44.667 -62.666 50 -111.999zM199.005 392.002c20.667 0 38.668 6.33203 54.001 18.999
s22.666 28.334 21.999 47.001l-3 38c-4 14.667 -13.333 27 -28 37s-32 15 -52 15c-22.667 0 -41 -6.16699 -55 -18.5s-21 -29.833 -21 -52.5c0 -24.667 7.5 -45 22.5 -61s35.167 -24 60.5 -24z" />
    <glyph glyph-name="guillemotleft" unicode="&#xab;" horiz-adv-x="514" 
d="M210 482c4 6.66699 11.167 8.49902 21.5 5.49902s14.5 -8.16699 12.5 -15.5c-20.667 -70.667 -67 -132.667 -139 -186c66.667 -55.333 111.334 -111.333 134.001 -168c0.666992 -3.33301 -1.33301 -6.66602 -6 -9.99902s-10.5 -5 -17.5 -5s-13.167 3 -18.5 9
c-42.667 51.333 -94 101.333 -154 150c-6 4.66699 -8.83301 13.667 -8.5 27s3.16602 22 8.49902 26c72 51.333 127.667 107 167 167zM467 471.999c-22 -72 -68.333 -134.001 -139 -186.001c66.667 -55.333 111.334 -111.333 134.001 -168
c0.666992 -3.33301 -1.33301 -6.66602 -6 -9.99902s-10.5 -5 -17.5 -5s-13.167 3 -18.5 9c-42.667 51.333 -94 101.333 -154 150c-6 4.66699 -8.83301 13.667 -8.5 27s3.16602 22 8.49902 26c72 51.333 127.667 107 167 167c4 6.66699 11.167 8.5 21.5 5.5
s14.5 -8.16699 12.5 -15.5z" />
    <glyph glyph-name="registered" unicode="&#xae;" horiz-adv-x="878" 
d="M439 744c111.333 0 206.333 -39.167 285 -117.5s118 -172.833 118 -283.5c0 -111.333 -39.333 -206.5 -118 -285.5s-173.667 -118.5 -285 -118.5s-206.333 39.5 -285 118.5s-118 174.167 -118 285.5s39.333 206 118 284s173.667 117 285 117zM439 -13
c95.333 0 177 35 245 105s102 153.667 102 251s-34 181 -102 251s-149.667 105 -245 105s-177 -35 -245 -105s-102 -153.667 -102 -251c0 -98 33.833 -181.833 101.5 -251.5s149.5 -104.5 245.5 -104.5zM603 192c4 -6 8 -11 12 -15s7.16699 -6.66699 9.5 -8s4.33301 -3 6 -5
s2.5 -4.33301 2.5 -7v-5c0 -6.66699 -4.33301 -10 -13 -10h-102c-8 0 -12 3 -12 9v6c0 2.66699 3.66699 6.66699 11 12s8.33301 13 3 23l-71 119l-73 -2v-118c0 -7.33301 4.33301 -14 13 -20s13 -10.333 13 -13v-7c0 -6 -4.33301 -9 -13 -9h-104c-8 0 -12 3 -12 9v7
c0 2.66699 4.16699 7 12.5 13s12.5 12.667 12.5 20v336c0 8 -4.16699 14.833 -12.5 20.5s-12.5 10.5 -12.5 14.5v3c0 5.33301 4 8 12 8h139c61.333 0 109.833 -11.5 145.5 -34.5s53.834 -55.167 54.501 -96.5c0.666992 -26 -8.33301 -50 -27 -72
s-44.334 -38.333 -77.001 -49zM400 341h43c28.667 0 51.667 8.66699 69 26s26 39.666 26 66.999c0 32.667 -9 58.834 -27 78.501s-42.333 29.5 -73 29.5h-43c-12.667 0 -19 -7 -19 -21v-156c0 -16 8 -24 24 -24z" />
    <glyph glyph-name="macron" unicode="&#xaf;" 
d="M170 605c-12 0 -18 5 -18 15v28c0 10 6 15 18 15h262c12 0 18 -5 18 -15v-28c0 -10 -6 -15 -18 -15h-262z" />
    <glyph glyph-name="degree" unicode="&#xb0;" horiz-adv-x="401" 
d="M199 388c-48.667 0 -88.334 16 -119.001 48s-46 70.667 -46 116c0 46 15.5 85.167 46.5 117.5s70.833 48.5 119.5 48.5s88.667 -15.833 120 -47.5s47 -70.167 47 -115.5c0 -46.667 -15.667 -86.167 -47 -118.5s-71.666 -48.5 -120.999 -48.5zM200 420
c30 0 54.5 12.667 73.5 38s28.5 57.333 28.5 96s-9.5 70.334 -28.5 95.001s-43.5 37 -73.5 37s-54.5 -12.333 -73.5 -37s-28.5 -56.334 -28.5 -95.001s9.5 -70.667 28.5 -96s43.5 -38 73.5 -38z" />
    <glyph glyph-name="plusminus" unicode="&#xb1;" 
d="M281 132c-7.33301 0 -11.002 5.00098 -11.002 15.001v160h-159c-9.33301 0 -14.666 3.66699 -15.999 11l1 36c0 7.33301 5 11 15 11h159v160c0 9.33301 3.66699 14.666 11 15.999l38 -1c7.33301 0 11 -5 11 -15v-160h160c10 0 15 -3.33301 15 -10v-37
c0 -7.33301 -5 -11 -15 -11h-159v-160c0 -4.66699 -1.16699 -8.5 -3.5 -11.5s-5.16602 -4.16699 -8.49902 -3.5h-38zM110.998 0.000976562c-10 0 -15 3.33301 -15 10v37c0 6.66699 5 10 15 10h379c10 0 15 -3.33301 15 -10v-37c0 -6.66699 -5 -10 -15 -10h-379z" />
    <glyph glyph-name="acute" unicode="&#xb4;" horiz-adv-x="416" 
d="M105 555c-11.333 -4.66699 -20 -2.66602 -26 6.00098c-4 9.33301 -2 17.333 6 24l176 126c15.333 11.333 27.333 9 36 -7l16 -32c8 -14.667 3.33301 -25.334 -14 -32.001z" />
    <glyph glyph-name="paragraph" unicode="&#xb6;" horiz-adv-x="637" 
d="M333 -195c-33.333 0 -64.334 5.49805 -93.001 16.498s-51.5 25 -68.5 42s-30.333 34.5 -40 52.5s-14.5 34.333 -14.5 49s4 26.334 12 35.001s18.667 13 32 13c17.333 0 31.333 -8.83301 42 -26.5s18.834 -37 24.501 -58s18.167 -40.333 37.5 -58s45.333 -26.5 78 -26.5
c80 0 120 59.667 120 179v643h-93v-408c0 -12 -6 -18 -18 -18l-94 -1c-65.333 -0.666992 -120 21.5 -164 66.5s-66 103.167 -66 174.5c0 68 22 123.333 66 166s98.667 64 164 64h307c14 0 21 -4.66699 21 -14v-2c0 -6.66699 -7 -14.167 -21 -22.5s-21 -20.166 -21 -35.499
l-1 -576c0 -83.333 -19.5 -146.5 -58.5 -189.5s-89.5 -64.833 -151.5 -65.5z" />
    <glyph glyph-name="periodcentered" unicode="&#xb7;" horiz-adv-x="229" 
d="M115 326c-18.667 0 -34.167 5.16699 -46.5 15.5s-18.5 25.166 -18.5 44.499c0 20 6.16699 35.167 18.5 45.5s27.833 15.5 46.5 15.5s34 -5.33301 46 -16s18 -25.667 18 -45s-6 -34.166 -18 -44.499s-27.333 -15.5 -46 -15.5z" />
    <glyph glyph-name="cedilla" unicode="&#xb8;" 
d="M331 -56c30 0 55.501 -6.33203 76.501 -18.999s31.5 -30.667 31.5 -54c0 -22.667 -11 -40.834 -33 -54.501s-49 -20.5 -81 -20.5c-30.667 0 -58 6.66699 -82 20c-10.667 5.33301 -13.667 14.333 -9 27c3.33301 10 9 12.667 17 8c18 -11.333 38.333 -17 61 -17
c16.667 0 30.667 3.33301 42 10s16.666 16.667 15.999 30c-0.666992 24.667 -21.667 37 -63 37c-19.333 0 -27 10 -23 30l11 59h39z" />
    <glyph glyph-name="ordmasculine" unicode="&#xba;" horiz-adv-x="428" 
d="M219 364c-53.333 0 -97.833 17.166 -133.5 51.499s-53.5 77.5 -53.5 129.5c0 50.667 17 92.5 51 125.5s77.667 49.5 131 49.5c50 0 92.667 -17.667 128 -53s53 -78.666 53 -129.999c0 -50 -17 -91.333 -51 -124s-75.667 -49 -125 -49zM224 393.999
c28.667 0 51.832 12 69.499 36s26.5 55 26.5 93c0 46.667 -11.167 86.167 -33.5 118.5s-50.166 48.5 -83.499 48.5c-30.667 0 -54.667 -11.833 -72 -35.5s-26 -53.167 -26 -88.5c0 -48.667 11.333 -89.5 34 -122.5s51 -49.5 85 -49.5z" />
    <glyph glyph-name="guillemotright" unicode="&#xbb;" horiz-adv-x="515" 
d="M249 315c5.33301 -4 8 -12.666 8 -25.999s-2.66699 -22.333 -8 -27c-60 -48.667 -111.333 -98.667 -154 -150c-5.33301 -6 -11.5 -9 -18.5 -9s-12.833 1.66699 -17.5 5s-6.66699 6.66602 -6 9.99902c22.667 56.667 67 112.667 133 168
c-71.333 53.333 -117.333 115.333 -138 186c-2 7.33301 2.16699 12.5 12.5 15.5s17.5 1.16699 21.5 -5.5c39.333 -60 95 -115.667 167 -167zM473 315.001c5.33301 -4 8.00098 -12.666 8.00098 -25.999s-2.66699 -22.333 -8 -27c-62.667 -50 -114 -100 -154 -150
c-5.33301 -6 -11.5 -9 -18.5 -9s-12.833 1.66699 -17.5 5s-6.66699 6.66602 -6 9.99902c21.333 56 65.666 112 132.999 168c-71.333 53.333 -117.333 115.333 -138 186c-2 7.33301 2.16699 12.5 12.5 15.5s17.5 1.16699 21.5 -5.5c38 -59.333 93.667 -115 167 -167z" />
    <glyph glyph-name="onequarter" unicode="&#xbc;" horiz-adv-x="691" 
d="M187 353c0 -6 -5.66699 -8.99805 -17 -8.99805h-102c-11.333 0 -17 3 -17 9v4c0 2.66699 5.83301 7.5 17.5 14.5s17.5 16.5 17.5 28.5v223c0 14 -4.5 22.5 -13.5 25.5s-17.5 3.33301 -25.5 1s-12.667 0.5 -14 8.5v2c0 7.33301 4.66699 12.666 14 15.999l110 39
c12 4.66699 18 2 18 -8v-3c0 -2.66699 -4 -8.83398 -12 -18.501s-12 -22.167 -12 -37.5v-248c0 -12 6 -21.5 18 -28.5s18 -11.833 18 -14.5v-4zM557 566.002c7.33301 -5.33301 7.00195 -12 -0.998047 -20l-393 -397c-6.66699 -8 -14.334 -8.33301 -23.001 -1l-17 16
c-7.33301 6.66699 -8 13 -2 19l396 399c7.33301 6 14.666 6.66699 21.999 2zM651.002 127.002c7.33301 0 11 -2.99902 11 -8.99902v-15c0 -6 -3.66699 -9 -11 -9h-55v-42c0 -11.333 5.33301 -20.166 16 -26.499s16 -11.5 16 -15.5v-2c0 -6 -4.33301 -9 -13 -9h-95
c-9.33301 0 -14 3 -14 9v2c0 4 5.16699 9.16699 15.5 15.5s15.5 15.166 15.5 26.499v42h-176c-11.333 0 -17 4.66699 -17 14v5c0 9.33301 2.33301 16.666 7 21.999l174 232c8 11.333 17.333 17 28 17h33c6.66699 0 10 -4.33301 10 -13v-244h55zM386.002 127.003h151v206z
" />
    <glyph glyph-name="onehalf" unicode="&#xbd;" horiz-adv-x="728" 
d="M181 353c0 -6 -5.33398 -9.00098 -16.001 -9.00098h-96c-11.333 0 -17 3 -17 9v4c0 2.66699 5.16699 7.5 15.5 14.5s15.5 16.5 15.5 28.5v225c0 13.333 -4.33301 21.333 -13 24s-16.667 2.83398 -24 0.500977s-11.666 0.5 -12.999 8.5v2c0 8 5 13.333 15 16l106 39
c12 4 18 1.33301 18 -8v-3c0 -3.33301 -4 -9.5 -12 -18.5s-12 -20.833 -12 -35.5v-250c0 -12 5.5 -21.5 16.5 -28.5s16.5 -11.833 16.5 -14.5v-4zM553.999 565.999c7.33301 -5.33301 7.33301 -12.001 0 -20.001l-394 -397c-6 -8.66699 -13.667 -9 -23 -1l-17 16
c-7.33301 6.66699 -8 13 -2 19l396 399c8 6.66699 15.333 7.33398 22 2.00098zM690.999 102.998c8 0 11.0029 -3.67188 9.00293 -11.0049l-23 -80c-2.66699 -7.33301 -7 -11 -13 -11h-259c-6.66699 0 -10 3.33301 -10 10v4c0 22 7.33301 42.833 22 62.5
s32.5 36.834 53.5 51.501l63.5 43c21.333 14 39.333 29.5 54 46.5s22 34.5 22 52.5c0 20.667 -6.16699 36.834 -18.5 48.501s-28.5 17.5 -48.5 17.5c-17.333 0 -31.833 -5 -43.5 -15s-19.834 -20.833 -24.501 -32.5s-10.5 -22.5 -17.5 -32.5s-14.833 -15 -23.5 -15
c-18.667 0 -28 10.333 -28 31c0 22.667 13.833 43.834 41.5 63.501s59.834 29.5 96.501 29.5c39.333 0 70.666 -9.16699 93.999 -27.5s35 -42.166 35 -71.499c0 -25.333 -10.167 -49 -30.5 -71s-43.166 -39.5 -68.499 -52.5s-51.333 -28.5 -78 -46.5
s-44.334 -35.333 -53.001 -52h178c10.667 0 19.667 4.83301 27 14.5s13.666 19.334 18.999 29.001s10.666 14.5 15.999 14.5h8z" />
    <glyph glyph-name="threequarters" unicode="&#xbe;" horiz-adv-x="720" 
d="M320 457c0 -30.667 -13.167 -56.498 -39.5 -77.498s-60.5 -31.5 -102.5 -31.5c-44.667 0 -80.834 10.167 -108.501 30.5s-41.5 40.833 -41.5 61.5c0 18 8 27 24 27c8.66699 0 16.667 -4.83301 24 -14.5s13.666 -20.334 18.999 -32.001s15 -22.334 29 -32.001
s31.333 -14.5 52 -14.5c23.333 0 43 7.16699 59 21.5s24 31.833 24 52.5c0 25.333 -8.66699 45.333 -26 60s-40.666 22 -69.999 22h-7c-6.66699 0 -11.167 2.83301 -13.5 8.5s-1.16602 11.834 3.50098 18.501l89 106h-173c-9.33301 0 -14 4 -14 12v24
c0 7.33301 4.66699 11 14 11h243c7.33301 0 11 -3 11 -9v-4c0 -4.66699 -2.66699 -9.66699 -8 -15l-122 -126c40 -2 72.333 -11.333 97 -28s37 -40.334 37 -71.001zM626 566.002c6.66699 -6 6.66797 -12.667 0.000976562 -20l-394 -397
c-6.66699 -8 -14.334 -8.33301 -23.001 -1l-18 16c-6.66699 6.66699 -7 13 -1 19l395 399c8.66699 6 16 6.66699 22 2zM675.001 127.002c7.33301 0 11.001 -3 11.001 -9v-15c0 -6 -3.66699 -9 -11 -9h-55v-42c0 -11.333 5.33301 -20.166 16 -26.499s16 -11.5 16 -15.5v-2
c0 -6 -4.33301 -9 -13 -9h-95c-9.33301 0 -14 3 -14 9v2c0 4 5.16699 9.16699 15.5 15.5s15.5 15.166 15.5 26.499v42h-176c-12 0 -18 4.66699 -18 14v5c0 8.66699 2.66699 16 8 22l173 232c9.33301 11.333 18.666 17 27.999 17h33c7.33301 0 11 -4.33301 11 -13v-244h55z
M410.002 127.002h151v206z" />
    <glyph glyph-name="questiondown" unicode="&#xbf;" horiz-adv-x="504" 
d="M275 382c-17.333 0 -31.833 5.16699 -43.5 15.5s-17.5 24.166 -17.5 41.499c0 18.667 5.83301 33.334 17.5 44.001s26.167 16 43.5 16s32 -5.33301 44 -16s18 -25.334 18 -44.001c0 -17.333 -6 -31.166 -18 -41.499s-26.667 -15.5 -44 -15.5zM249 -228
c-64.667 0 -117.5 15.668 -158.5 47.001s-61.5 77 -61.5 137c0 32 7.5 61.167 22.5 87.5s33.167 48.666 54.5 66.999l64 54c21.333 17.667 39.5 38 54.5 61s22.5 47.833 22.5 74.5c0 8 5 13.667 15 17s20.333 3.5 31 0.5s17 -8.83301 19 -17.5
c2.66699 -30.667 -2 -59 -14 -85s-27.833 -48.333 -47.5 -67l-59.5 -55.5c-20 -18.333 -37.167 -39.833 -51.5 -64.5s-21.5 -51.667 -21.5 -81c0 -41.333 12.667 -74 38 -98s55.333 -36 90 -36c32 0 58.5 8.83301 79.5 26.5s35.333 37 43 58s17 40.333 28 58
s23.833 26.5 38.5 26.5c14 0 25.167 -3.83301 33.5 -11.5s12.5 -18.834 12.5 -33.501c0 -35.333 -22.333 -71.666 -67 -108.999s-99.667 -56 -165 -56z" />
    <glyph glyph-name="Agrave" unicode="&#xc0;" horiz-adv-x="669" 
d="M196 831c-17.333 3.33301 -23.666 13.001 -18.999 29.001l10 34c5.33301 17.333 16.666 22 33.999 14l196 -90c10 -5.33301 13.333 -13 10 -23c-3.33301 -8.66699 -11.333 -12.334 -24 -11.001zM621 70.001c6 -13.333 15.5 -24.498 28.5 -33.498s19.5 -16.5 19.5 -22.5
v-2c0 -8 -6.33301 -12 -19 -12h-141c-12.667 0 -19 4 -19 12v2c0 4 2.33301 8 7 12s9.5 7.33301 14.5 10s9.16699 7 12.5 13s3.33301 13 0 21l-48 118h-324l-44 -118c-3.33301 -8 -3.5 -15 -0.5 -21s7 -10.333 12 -13s10 -6 15 -10s7.5 -8 7.5 -12v-2c0 -8 -7 -12 -21 -12
h-95c-13.333 0 -20 4 -20 12v2c0 5.33301 6.5 12.5 19.5 21.5s22.167 20.5 27.5 34.5l222 567c4.66699 11.333 0.666992 23.166 -12 35.499s-19 20.166 -19 23.499v3c0 7.33301 4.66699 11 14 11h58c22 0 37.667 -11 47 -33zM169 231.003h290l-150 371z" />
    <glyph glyph-name="Aacute" unicode="&#xc1;" horiz-adv-x="669" 
d="M235 782c-12.667 -1.33301 -20.666 2.66699 -23.999 12s0 16.666 10 21.999l199 88c16 8 27.333 3 34 -15l8 -34c2.66699 -7.33301 2.16699 -13.666 -1.5 -18.999s-9.83398 -8.33301 -18.501 -9zM621.001 70c6 -13.333 15.5 -24.498 28.5 -33.498s19.5 -16.5 19.5 -22.5
v-2c0 -8 -6.33301 -12 -19 -12h-141c-12.667 0 -19 4 -19 12v2c0 4 2.33301 8 7 12s9.5 7.33301 14.5 10s9.16699 7 12.5 13s3.33301 13 0 21l-48 118h-324l-44 -118c-3.33301 -8 -3.5 -15 -0.5 -21s7 -10.333 12 -13s10 -6 15 -10s7.5 -8 7.5 -12v-2c0 -8 -7 -12 -21 -12
h-95c-13.333 0 -20 4 -20 12v2c0 5.33301 6.5 12.5 19.5 21.5s22.167 20.5 27.5 34.5l222 567c4.66699 11.333 0.666992 23.166 -12 35.499s-19 20.166 -19 23.499v3c0 7.33301 4.66699 11 14 11h58c22 0 37.667 -11 47 -33zM169.001 231.002h290l-150 371z" />
    <glyph glyph-name="Acircumflex" unicode="&#xc2;" horiz-adv-x="669" 
d="M197 765c-9.33301 -6 -17.8311 -5.16797 -25.498 2.49902s-6.83398 16.167 2.49902 25.5l110 101c10 9.33301 20.333 14 31 14h18c9.33301 0 19.666 -4.66699 30.999 -14l114 -101c10 -9.33301 11.833 -18.166 5.5 -26.499s-15.833 -8.83301 -28.5 -1.5l-133 77z
M621.002 69.999c6 -13.333 15.5 -24.498 28.5 -33.498s19.5 -16.5 19.5 -22.5v-2c0 -8 -6.33301 -12 -19 -12h-141c-12.667 0 -19 4 -19 12v2c0 4 2.33301 8 7 12s9.5 7.33301 14.5 10s9.16699 7 12.5 13s3.33301 13 0 21l-48 118h-324l-44 -118
c-3.33301 -8 -3.5 -15 -0.5 -21s7 -10.333 12 -13s10 -6 15 -10s7.5 -8 7.5 -12v-2c0 -8 -7 -12 -21 -12h-95c-13.333 0 -20 4 -20 12v2c0 5.33301 6.5 12.5 19.5 21.5s22.167 20.5 27.5 34.5l222 567c4.66699 11.333 0.666992 23.166 -12 35.499s-19 20.166 -19 23.499v3
c0 7.33301 4.66699 11 14 11h58c22 0 37.667 -11 47 -33zM169.002 231.001h290l-150 371z" />
    <glyph glyph-name="Atilde" unicode="&#xc3;" horiz-adv-x="669" 
d="M170 782c-8.66699 0 -11.998 5.66699 -9.99805 17c5.33301 28 16.166 50.833 32.499 68.5s37.833 26.5 64.5 26.5c22.667 0 50.667 -9.5 84 -28.5s56.333 -28.5 69 -28.5c23.333 0 40.333 11.333 51 34c3.33301 8.66699 8.66602 13 15.999 13h7
c10 0 13.333 -5.66699 10 -17c-15.333 -62 -47 -93 -95 -93c-21.333 0 -48.5 9.66699 -81.5 29s-56.833 29 -71.5 29c-22.667 0 -39.667 -11.667 -51 -35c-4.66699 -10 -10 -15 -16 -15h-9zM621.002 70c6 -13.333 15.5 -24.498 28.5 -33.498s19.5 -16.5 19.5 -22.5v-2
c0 -8 -6.33301 -12 -19 -12h-141c-12.667 0 -19 4 -19 12v2c0 4 2.33301 8 7 12s9.5 7.33301 14.5 10s9.16699 7 12.5 13s3.33301 13 0 21l-48 118h-324l-44 -118c-3.33301 -8 -3.5 -15 -0.5 -21s7 -10.333 12 -13s10 -6 15 -10s7.5 -8 7.5 -12v-2c0 -8 -7 -12 -21 -12h-95
c-13.333 0 -20 4 -20 12v2c0 5.33301 6.5 12.5 19.5 21.5s22.167 20.5 27.5 34.5l222 567c4.66699 11.333 0.666992 23.166 -12 35.499s-19 20.166 -19 23.499v3c0 7.33301 4.66699 11 14 11h58c22 0 37.667 -11 47 -33zM169.002 231.002h290l-150 371z" />
    <glyph glyph-name="Adieresis" unicode="&#xc4;" horiz-adv-x="669" 
d="M232 791c-18 0 -32.833 5.5 -44.5 16.5s-17.5 24.833 -17.5 41.5s5.83301 30.5 17.5 41.5s26.5 16.5 44.5 16.5s32.5 -5.33301 43.5 -16s16.5 -24.667 16.5 -42s-5.5 -31.333 -16.5 -42s-25.5 -16 -43.5 -16zM423 791c-18.667 0 -33.5 5.33301 -44.5 16
s-16.5 24.667 -16.5 42s5.5 31.333 16.5 42s25.833 16 44.5 16c17.333 0 31.833 -5.5 43.5 -16.5s17.5 -24.833 17.5 -41.5s-5.83301 -30.5 -17.5 -41.5s-26.167 -16.5 -43.5 -16.5zM621 70c6 -13.333 15.5 -24.498 28.5 -33.498s19.5 -16.5 19.5 -22.5v-2
c0 -8 -6.33301 -12 -19 -12h-141c-12.667 0 -19 4 -19 12v2c0 4 2.33301 8 7 12s9.5 7.33301 14.5 10s9.16699 7 12.5 13s3.33301 13 0 21l-48 118h-324l-44 -118c-3.33301 -8 -3.5 -15 -0.5 -21s7 -10.333 12 -13s10 -6 15 -10s7.5 -8 7.5 -12v-2c0 -8 -7 -12 -21 -12h-95
c-13.333 0 -20 4 -20 12v2c0 5.33301 6.5 12.5 19.5 21.5s22.167 20.5 27.5 34.5l222 567c4.66699 11.333 0.666992 23.166 -12 35.499s-19 20.166 -19 23.499v3c0 7.33301 4.66699 11 14 11h58c22 0 37.667 -11 47 -33zM169 231.002h290l-150 371z" />
    <glyph glyph-name="Aring" unicode="&#xc5;" horiz-adv-x="669" 
d="M325 758c-33.333 0 -61 9.5 -83 28.5s-33 42.5 -33 70.5c0 29.333 10.833 53.666 32.5 72.999s49.834 29 84.501 29c33.333 0 61.166 -9.5 83.499 -28.5s33.5 -42.5 33.5 -70.5c0 -29.333 -10.833 -53.666 -32.5 -72.999s-50.167 -29 -85.5 -29zM326 926
c-18 0 -32.501 -6 -43.501 -18s-16.5 -28.333 -16.5 -49c0 -20 5.5 -36.667 16.5 -50s25.5 -20 43.5 -20s32.5 6.33301 43.5 19s16.5 29.667 16.5 51c0 19.333 -5.66699 35.333 -17 48s-25.666 19 -42.999 19zM620.999 70c6 -13.333 15.5 -24.498 28.5 -33.498
s19.5 -16.5 19.5 -22.5v-2c0 -8 -6.33301 -12 -19 -12h-141c-12.667 0 -19 4 -19 12v2c0 4 2.33301 8 7 12s9.5 7.33301 14.5 10s9.16699 7 12.5 13s3.33301 13 0 21l-48 118h-324l-44 -118c-3.33301 -8 -3.5 -15 -0.5 -21s7 -10.333 12 -13s10 -6 15 -10s7.5 -8 7.5 -12v-2
c0 -8 -7 -12 -21 -12h-95c-13.333 0 -20 4 -20 12v2c0 5.33301 6.5 12.5 19.5 21.5s22.167 20.5 27.5 34.5l222 567c4.66699 11.333 0.666992 23.166 -12 35.499s-19 20.166 -19 23.499v3c0 7.33301 4.66699 11 14 11h58c22 0 37.667 -11 47 -33zM168.999 231.002h290
l-150 371z" />
    <glyph glyph-name="AE" unicode="&#xc6;" horiz-adv-x="930" 
d="M899 141c10.667 0 14.332 -5.66895 10.999 -17.002l-25 -101c-2 -15.333 -10.333 -23 -25 -23h-413c-14 0 -21 4 -21 12v2c0 6 6.16699 13.833 18.5 23.5s18.5 20.834 18.5 33.501v118h-261l-70 -119c-4.66699 -12 -5 -20.333 -1 -25s9.66699 -9.66699 17 -15
s11 -10.333 11 -15v-2c0 -8.66699 -6.66699 -13 -20 -13h-124c-14 0 -21 4.33301 -21 13v2c0 4 1.83301 7.66699 5.5 11s8.16699 6.33301 13.5 9s11.5 7 18.5 13s13.167 13.333 18.5 22l333 555c6.66699 14.667 8.33398 25.334 5.00098 32.001s-8.66602 13.5 -15.999 20.5
s-11 12.5 -11 16.5v4c0 8 6 12 18 12h452c13.333 0 22 -7.33301 26 -22l23 -97c1.33301 -6 0.666016 -10.667 -2.00098 -14s-6.33398 -5 -11.001 -5h-5c-6.66699 0 -14 5 -22 15s-15.333 21.167 -22 33.5s-15.5 23.5 -26.5 33.5s-22.5 15 -34.5 15h-183
c-18.667 0 -28 -11.667 -28 -35v-248h188c8.66699 0 16.167 3 22.5 9s11.166 12.667 14.499 20s7 14 11 20s8 9 12 9h4c8.66699 0 13 -6.66699 13 -20v-116c0 -13.333 -4.33301 -20 -13 -20h-4c-4 0 -8 2.83301 -12 8.5s-7.66699 12 -11 19s-8.16602 13.333 -14.499 19
s-13.833 8.5 -22.5 8.5h-188v-262c0 -12.667 3.33301 -22.667 10 -30s15.334 -11 26.001 -11h205c12.667 0 24.667 5.33301 36 16s20.333 22.167 27 34.5s14 23.833 22 34.5s15.333 16 22 16h5zM227.998 232.998h235v402z" />
    <glyph glyph-name="Ccedilla" unicode="&#xc7;" horiz-adv-x="678" 
d="M615 236c6 10.667 14.3369 14.667 25.0039 12s14.667 -11 12 -25c-11.333 -62.667 -40.333 -116.5 -87 -161.5s-107 -68.833 -181 -71.5l-3 -46c30.667 0 56.167 -6.33301 76.5 -19s30.5 -30.667 30.5 -54c0 -22.667 -10.833 -40.834 -32.5 -54.501
s-48.5 -20.5 -80.5 -20.5c-31.333 0 -59 6.66699 -83 20c-10 5.33301 -12.667 14.333 -8 27c3.33301 10 8.66602 12.667 15.999 8c19.333 -11.333 40 -17 62 -17c16.667 0 30.667 3.33301 42 10s16.666 16.667 15.999 30c-0.666992 24.667 -22 37 -64 37
c-8 0 -14.167 2.66699 -18.5 8s-5.83301 12.666 -4.5 21.999l10 50c-83.333 8.66699 -155.833 49.334 -217.5 122.001s-92.5 155.667 -92.5 249c0 104.667 31.167 190.334 93.5 257.001s141.833 100 238.5 100c73.333 0 137.166 -20.833 191.499 -62.5
s81.5 -82.5 81.5 -122.5c0 -13.333 -3.83301 -23.833 -11.5 -31.5s-18.5 -11.5 -32.5 -11.5c-13.333 0 -25.5 6.5 -36.5 19.5s-21.833 28.5 -32.5 46.5s-22.834 36.167 -36.501 54.5s-33 34 -58 47s-54.5 19.5 -88.5 19.5c-60 0 -111.5 -25 -154.5 -75
s-64.5 -113.667 -64.5 -191c0 -98 27.167 -179.5 81.5 -244.5s117.833 -97.5 190.5 -97.5c54 0 99.5 16.333 136.5 49s64.833 71.667 83.5 117z" />
    <glyph glyph-name="Egrave" unicode="&#xc8;" 
d="M378 784l-207 47.002c-17.333 3.33301 -23.666 13 -18.999 29l10 34c5.33301 17.333 16.666 22 33.999 14l197 -90c9.33301 -4.66699 12.333 -12.334 9 -23.001c-3.33301 -8.66699 -11.333 -12.334 -24 -11.001zM80 0.00195312c-14 0 -20.9971 3.99902 -20.9971 11.999v2
c0 4.66699 6.16699 11.834 18.5 21.501s18.5 21.5 18.5 35.5v568c0 10.667 -3 19.5 -9 26.5s-12.167 12.667 -18.5 17s-9.5 8.83301 -9.5 13.5v3c0 7.33301 6 11 18 11h424c13.333 0 21.666 -7.33301 24.999 -22l24 -99c2.66699 -13.333 -1.33301 -20 -12 -20h-5
c-6.66699 0 -14.167 5.16699 -22.5 15.5s-16 21.833 -23 34.5s-16 24.167 -27 34.5s-22.5 15.5 -34.5 15.5h-212c-18.667 0 -28 -11.333 -28 -34v-251h182c8.66699 0 16 3 22 9s10.5 12.833 13.5 20.5s6.33301 14.5 10 20.5s7.83398 9 12.501 9h4
c8.66699 0 13 -5.66699 13 -17v-123c0 -11.333 -4.33301 -17 -13 -17h-4c-4.66699 0 -8.83398 3 -12.501 9s-7 12.5 -10 19.5s-7.5 13.5 -13.5 19.5s-13.333 9 -22 9h-182l-1 -259c0 -12 3.16699 -22.167 9.5 -30.5s15.5 -12.5 27.5 -12.5h235c12 0 23.333 5.33301 34 16
s19.167 22.5 25.5 35.5s13.666 24.833 21.999 35.5s16.166 16 23.499 16h6c4.66699 0 8.16699 -2 10.5 -6s2.83301 -8.66699 1.5 -14l-24 -101c-3.33301 -15.333 -12 -23 -26 -23h-450z" />
    <glyph glyph-name="Eacute" unicode="&#xc9;" 
d="M209 782c-12 -1.33301 -19.666 2.66602 -22.999 11.999c-3.33301 10 0 17.333 10 22l198 88c17.333 8 28.666 3 33.999 -15l9 -34c2 -7.33301 1.16699 -13.666 -2.5 -18.999s-9.5 -8.33301 -17.5 -9zM80.001 -0.000976562c-14 0 -20.9971 3.99902 -20.9971 11.999v2
c0 4.66699 6.16699 11.834 18.5 21.501s18.5 21.5 18.5 35.5v568c0 10.667 -3 19.5 -9 26.5s-12.167 12.667 -18.5 17s-9.5 8.83301 -9.5 13.5v3c0 7.33301 6 11 18 11h424c13.333 0 21.666 -7.33301 24.999 -22l24 -99c2.66699 -13.333 -1.33301 -20 -12 -20h-5
c-6.66699 0 -14.167 5.16699 -22.5 15.5s-16 21.833 -23 34.5s-16 24.167 -27 34.5s-22.5 15.5 -34.5 15.5h-212c-18.667 0 -28 -11.333 -28 -34v-251h182c8.66699 0 16 3 22 9s10.5 12.833 13.5 20.5s6.33301 14.5 10 20.5s7.83398 9 12.501 9h4
c8.66699 0 13 -5.66699 13 -17v-123c0 -11.333 -4.33301 -17 -13 -17h-4c-4.66699 0 -8.83398 3 -12.501 9s-7 12.5 -10 19.5s-7.5 13.5 -13.5 19.5s-13.333 9 -22 9h-182l-1 -259c0 -12 3.16699 -22.167 9.5 -30.5s15.5 -12.5 27.5 -12.5h235c12 0 23.333 5.33301 34 16
s19.167 22.5 25.5 35.5s13.666 24.833 21.999 35.5s16.166 16 23.499 16h6c4.66699 0 8.16699 -2 10.5 -6s2.83301 -8.66699 1.5 -14l-24 -101c-3.33301 -15.333 -12 -23 -26 -23h-450z" />
    <glyph glyph-name="Ecircumflex" unicode="&#xca;" 
d="M172 765c-9.33301 -6 -17.832 -5.16797 -25.499 2.49902s-6.5 16.167 3.5 25.5l110 101c9.33301 9.33301 19.333 14 30 14h18c9.33301 0 19.666 -4.66699 30.999 -14l114 -101c10 -9.33301 11.833 -18.166 5.5 -26.499s-15.833 -8.83301 -28.5 -1.5l-133 77z
M568.001 143.999c4.66699 0 8.16992 -2.00098 10.5029 -6.00098s2.83301 -8.66699 1.5 -14l-24 -101c-3.33301 -15.333 -12 -23 -26 -23h-450c-14 0 -21 4 -21 12v2c0 4.66699 6.16699 11.834 18.5 21.501s18.5 21.5 18.5 35.5v568c0 10.667 -3 19.5 -9 26.5
s-12.167 12.667 -18.5 17s-9.5 8.83301 -9.5 13.5v3c0 7.33301 6 11 18 11h424c13.333 0 21.666 -7.33301 24.999 -22l24 -99c2.66699 -13.333 -1.33301 -20 -12 -20h-5c-6.66699 0 -14.167 5.16699 -22.5 15.5s-16 21.833 -23 34.5s-16 24.167 -27 34.5
s-22.5 15.5 -34.5 15.5h-212c-18.667 0 -28 -11.333 -28 -34v-251h182c8.66699 0 16 3 22 9s10.5 12.833 13.5 20.5s6.33301 14.5 10 20.5s7.83398 9 12.501 9h4c8.66699 0 13 -5.66699 13 -17v-123c0 -11.333 -4.33301 -17 -13 -17h-4c-4.66699 0 -8.83398 3 -12.501 9
s-7 12.5 -10 19.5s-7.5 13.5 -13.5 19.5s-13.333 9 -22 9h-182l-1 -259c0 -12 3.16699 -22.167 9.5 -30.5s15.5 -12.5 27.5 -12.5h235c12 0 23.333 5.33301 34 16s19.167 22.5 25.5 35.5s13.666 24.833 21.999 35.5s16.166 16 23.499 16h6z" />
    <glyph glyph-name="Edieresis" unicode="&#xcb;" 
d="M205 791c-18.667 0 -33.667 5.33301 -45 16s-17 24.667 -17 42s5.66699 31.333 17 42s26.333 16 45 16c18 0 32.5 -5.33301 43.5 -16s16.5 -24.667 16.5 -42s-5.5 -31.333 -16.5 -42s-25.5 -16 -43.5 -16zM395 791c-18.667 0 -33.5 5.33301 -44.5 16
s-16.5 24.667 -16.5 42s5.5 31.333 16.5 42s25.833 16 44.5 16c18 0 32.667 -5.33301 44 -16s17 -24.667 17 -42s-5.66699 -31.333 -17 -42s-26 -16 -44 -16zM80 0c-14 0 -20.9971 3.99902 -20.9971 11.999v2c0 4.66699 6.16699 11.834 18.5 21.501s18.5 21.5 18.5 35.5v568
c0 10.667 -3 19.5 -9 26.5s-12.167 12.667 -18.5 17s-9.5 8.83301 -9.5 13.5v3c0 7.33301 6 11 18 11h424c13.333 0 21.666 -7.33301 24.999 -22l24 -99c2.66699 -13.333 -1.33301 -20 -12 -20h-5c-6.66699 0 -14.167 5.16699 -22.5 15.5s-16 21.833 -23 34.5
s-16 24.167 -27 34.5s-22.5 15.5 -34.5 15.5h-212c-18.667 0 -28 -11.333 -28 -34v-251h182c8.66699 0 16 3 22 9s10.5 12.833 13.5 20.5s6.33301 14.5 10 20.5s7.83398 9 12.501 9h4c8.66699 0 13 -5.66699 13 -17v-123c0 -11.333 -4.33301 -17 -13 -17h-4
c-4.66699 0 -8.83398 3 -12.501 9s-7 12.5 -10 19.5s-7.5 13.5 -13.5 19.5s-13.333 9 -22 9h-182l-1 -259c0 -12 3.16699 -22.167 9.5 -30.5s15.5 -12.5 27.5 -12.5h235c12 0 23.333 5.33301 34 16s19.167 22.5 25.5 35.5s13.666 24.833 21.999 35.5s16.166 16 23.499 16h6
c4.66699 0 8.16699 -2 10.5 -6s2.83301 -8.66699 1.5 -14l-24 -101c-3.33301 -15.333 -12 -23 -26 -23h-450z" />
    <glyph glyph-name="Igrave" unicode="&#xcc;" horiz-adv-x="284" 
d="M217 784l-206.999 47.001c-18 3.33301 -24.667 13 -20 29l10 34c5.33301 17.333 16.666 22 33.999 14l197 -90c10 -5.33301 13.333 -13 10 -23c-3.33301 -8.66699 -11.333 -12.334 -24 -11.001zM60.001 12.001l-0.000976562 2.00098c0 4.66699 6 11.667 18 21
s18 20.666 18 33.999v571c0 13.333 -6 24.833 -18 34.5s-18 16.834 -18 21.501v2c0 8 6.66699 12 20 12h125c13.333 0 20 -4 20 -12v-2c0 -4.66699 -3.16699 -9.33398 -9.5 -14.001s-12.666 -10.334 -18.999 -17.001s-9.5 -15 -9.5 -25v-571
c0 -13.333 6.33301 -24.666 19 -33.999s19 -16.333 19 -21v-2c0 -8 -6.66699 -12 -20 -12h-125c-13.333 0 -20 4 -20 12z" />
    <glyph glyph-name="Iacute" unicode="&#xcd;" horiz-adv-x="284" 
d="M48 782c-12 -1.33301 -19.666 2.66602 -22.999 11.999c-3.33301 10 0 17.333 10 22l198 88c17.333 8 28.666 3 33.999 -15l9 -34c2 -7.33301 1.16699 -13.666 -2.5 -18.999s-9.5 -8.33301 -17.5 -9zM60.001 11.999l-0.000976562 2.00098c0 4.66699 6 11.667 18 21
s18 20.666 18 33.999v571c0 13.333 -6 24.833 -18 34.5s-18 16.834 -18 21.501v2c0 8 6.66699 12 20 12h125c13.333 0 20 -4 20 -12v-2c0 -4.66699 -3.16699 -9.33398 -9.5 -14.001s-12.666 -10.334 -18.999 -17.001s-9.5 -15 -9.5 -25v-571
c0 -13.333 6.33301 -24.666 19 -33.999s19 -16.333 19 -21v-2c0 -8 -6.66699 -12 -20 -12h-125c-13.333 0 -20 4 -20 12z" />
    <glyph glyph-name="Icircumflex" unicode="&#xce;" horiz-adv-x="284" 
d="M292 793c10 -9.33301 11.668 -18.167 5.00098 -26.5s-16.334 -8.83301 -29.001 -1.5l-133 77l-125 -77c-9.33301 -6 -17.833 -5.16699 -25.5 2.5s-6.5 16.167 3.5 25.5l110 101c9.33301 9.33301 19.333 14 30 14h19c9.33301 0 19.333 -4.66699 30 -14zM205.001 709.999
c13.333 0 19.999 -3.99902 19.999 -11.999v-2c0 -4.66699 -3.16699 -9.33398 -9.5 -14.001s-12.666 -10.334 -18.999 -17.001s-9.5 -15 -9.5 -25v-571c0 -13.333 6.33301 -24.666 19 -33.999s19 -16.333 19 -21v-2c0 -8 -6.66699 -12 -20 -12h-125c-13.333 0 -20 4 -20 12v2
c0 4.66699 6 11.667 18 21s18 20.666 18 33.999v571c0 13.333 -6 24.833 -18 34.5s-18 16.834 -18 21.501v2c0 8 6.66699 12 20 12h125z" />
    <glyph glyph-name="Idieresis" unicode="&#xcf;" horiz-adv-x="284" 
d="M46 791c-18.667 0 -33.667 5.33301 -45 16s-17 24.667 -17 42s5.66699 31.333 17 42s26.333 16 45 16c18 0 32.5 -5.33301 43.5 -16s16.5 -24.667 16.5 -42s-5.5 -31.333 -16.5 -42s-25.5 -16 -43.5 -16zM236 791c-18.667 0 -33.5 5.33301 -44.5 16
s-16.5 24.667 -16.5 42s5.5 31.333 16.5 42s25.833 16 44.5 16c18 0 32.667 -5.33301 44 -16s17 -24.667 17 -42s-5.66699 -31.333 -17 -42s-26 -16 -44 -16zM60 12l-0.000976562 2.00098c0 4.66699 6 11.667 18 21s18 20.666 18 33.999v571c0 13.333 -6 24.833 -18 34.5
s-18 16.834 -18 21.501v2c0 8 6.66699 12 20 12h125c13.333 0 20 -4 20 -12v-2c0 -4.66699 -3.16699 -9.33398 -9.5 -14.001s-12.666 -10.334 -18.999 -17.001s-9.5 -15 -9.5 -25v-571c0 -13.333 6.33301 -24.666 19 -33.999s19 -16.333 19 -21v-2
c0 -8 -6.66699 -12 -20 -12h-125c-13.333 0 -20 4 -20 12z" />
    <glyph glyph-name="Eth" unicode="&#xd0;" horiz-adv-x="745" 
d="M302 710c112.667 0 208.167 -32.502 286.5 -97.502s117.5 -148.833 117.5 -251.5c0 -110 -34.833 -197.667 -104.5 -263s-157.5 -98 -263.5 -98h-255c-14 0 -21 4 -21 12v2c0 5.33301 6.16699 12.833 18.5 22.5s18.5 20.834 18.5 33.501v269h-55c-10 0 -15 4 -15 12v16
c0 8 5 12 15 12h55v261c0 13.333 -6.16699 24.833 -18.5 34.5s-18.5 16.834 -18.5 21.501v2c0 8 7 12 21 12h219zM332 40.998c80 0 146.833 25.832 200.5 77.499s80.5 121.834 80.5 210.501c0 100.667 -32.5 182.5 -97.5 245.5s-141.5 94.5 -229.5 94.5h-70
c-18.667 0 -28 -10.667 -28 -32v-258h139c10 0 15 -4 15 -12v-15c0 -8.66699 -5 -13 -15 -13h-139v-243c0 -17.333 4.16699 -30.833 12.5 -40.5s19.833 -14.5 34.5 -14.5h97z" />
    <glyph glyph-name="Ntilde" unicode="&#xd1;" horiz-adv-x="750" 
d="M233 782c-9.33301 0 -12.999 5.66699 -10.999 17c5.33301 27.333 16.333 50 33 68s38 27 64 27c23.333 0 51.666 -9.5 84.999 -28.5s56 -28.5 68 -28.5c24 0 41 11.333 51 34c4.66699 8.66699 10.334 13 17.001 13h7c10 0 13.333 -5.66699 10 -17
c-15.333 -62 -47.333 -93 -96 -93c-20.667 0 -47.667 9.66699 -81 29s-57.333 29 -72 29c-22.667 0 -39.334 -11.667 -50.001 -35c-5.33301 -10 -11 -15 -17 -15h-8zM676.001 710c13.333 0 19.999 -4.33203 19.999 -12.999v-2c0 -4.66699 -6.66699 -11.667 -20 -21
s-20 -20.666 -20 -33.999v-613c0 -18 -8.33301 -27 -25 -27h-25c-10 0 -20.667 8.66699 -32 26l-427 582v-535c0 -10.667 3.5 -19.5 10.5 -26.5s14.167 -13 21.5 -18s11 -9.83301 11 -14.5v-2c0 -8 -7 -12 -21 -12h-91c-13.333 0 -20 4 -20 12v2
c0 4.66699 6.33301 12.167 19 22.5s19 22.5 19 36.5v566c0 10 -3.16699 18.167 -9.5 24.5s-12.666 11.666 -18.999 15.999s-9.5 8.83301 -9.5 13.5v4c0 8.66699 6.66699 13 20 13h76c14.667 0 26.667 -6.66699 36 -20l415 -574v524c0 13.333 -6.83301 24.666 -20.5 33.999
s-20.5 16.333 -20.5 21v2c0 8.66699 7 13 21 13h91z" />
    <glyph glyph-name="Ograve" unicode="&#xd2;" horiz-adv-x="771" 
d="M460 784l-207 47.002c-17.333 3.33301 -23.666 13 -18.999 29l10 34c5.33301 17.333 16.666 22 33.999 14l197 -90c9.33301 -4.66699 12.333 -12.334 9 -23.001c-3.33301 -8.66699 -11.333 -12.334 -24 -11.001zM394 -9.99805c-102.667 0 -187.667 36.332 -255 108.999
s-101 158.667 -101 258c0 104.667 32.667 191.334 98 260.001s149 103 251 103c100.667 0 183.667 -36 249 -108s98 -159 98 -261c0 -99.333 -32.833 -184.333 -98.5 -255s-146.167 -106 -241.5 -106zM416 33.001c65.333 0 119.669 25.668 163.002 77.001
s65 111.666 65 180.999c0 108 -27 199.333 -81 274s-123 112 -207 112c-66.667 0 -121.334 -24.667 -164.001 -74s-64 -111 -64 -185c0 -106 27.167 -196.667 81.5 -272s123.166 -113 206.499 -113z" />
    <glyph glyph-name="Oacute" unicode="&#xd3;" horiz-adv-x="771" 
d="M291 782c-12 -1.33301 -19.666 2.66602 -22.999 11.999c-3.33301 10 0 17.333 10 22l198 88c17.333 8 28.666 3 33.999 -15l9 -34c2 -7.33301 1.16699 -13.666 -2.5 -18.999s-9.5 -8.33301 -17.5 -9zM394.001 -10.001c-102.667 0 -187.667 36.332 -255 108.999
s-101 158.667 -101 258c0 104.667 32.667 191.334 98 260.001s149 103 251 103c100.667 0 183.667 -36 249 -108s98 -159 98 -261c0 -99.333 -32.833 -184.333 -98.5 -255s-146.167 -106 -241.5 -106zM416.001 32.998c65.333 0 119.669 25.668 163.002 77.001
s65 111.666 65 180.999c0 108 -27 199.333 -81 274s-123 112 -207 112c-66.667 0 -121.334 -24.667 -164.001 -74s-64 -111 -64 -185c0 -106 27.167 -196.667 81.5 -272s123.166 -113 206.499 -113z" />
    <glyph glyph-name="Ocircumflex" unicode="&#xd4;" horiz-adv-x="771" 
d="M254 765c-9.33301 -6 -17.832 -5.16797 -25.499 2.49902s-6.5 16.167 3.5 25.5l110 101c9.33301 9.33301 19.333 14 30 14h18c9.33301 0 19.666 -4.66699 30.999 -14l114 -101c10 -9.33301 11.833 -18.166 5.5 -26.499s-15.833 -8.83301 -28.5 -1.5l-133 77z
M387.001 719.999c100.667 0 183.667 -36.001 249 -108.001s98 -159 98 -261c0 -99.333 -32.833 -184.333 -98.5 -255s-146.167 -106 -241.5 -106c-102.667 0 -187.667 36.333 -255 109s-101 158.667 -101 258c0 104.667 32.667 191.334 98 260.001s149 103 251 103z
M416.001 32.998c65.333 0 119.669 25.668 163.002 77.001s65 111.666 65 180.999c0 108 -27 199.333 -81 274s-123 112 -207 112c-66.667 0 -121.334 -24.667 -164.001 -74s-64 -111 -64 -185c0 -106 27.167 -196.667 81.5 -272s123.166 -113 206.499 -113z" />
    <glyph glyph-name="Otilde" unicode="&#xd5;" horiz-adv-x="771" 
d="M318 894c22.667 0 50.6689 -9.5 84.002 -28.5s56.333 -28.5 69 -28.5c23.333 0 40.333 11.333 51 34c3.33301 8.66699 8.66602 13 15.999 13h7c10 0 13.333 -5.66699 10 -17c-15.333 -62 -47 -93 -95 -93c-21.333 0 -48.5 9.66699 -81.5 29s-56.833 29 -71.5 29
c-22 0 -39 -11.667 -51 -35c-4.66699 -10 -10 -15 -16 -15h-9c-8.66699 0 -12 5.66699 -10 17c5.33301 28 16.166 50.833 32.499 68.5s37.833 26.5 64.5 26.5zM394.002 -10c-102.667 0 -187.667 36.332 -255 108.999s-101 158.667 -101 258
c0 104.667 32.667 191.334 98 260.001s149 103 251 103c100.667 0 183.667 -36 249 -108s98 -159 98 -261c0 -99.333 -32.833 -184.333 -98.5 -255s-146.167 -106 -241.5 -106zM416.002 32.999c65.333 0 119.669 25.668 163.002 77.001s65 111.666 65 180.999
c0 108 -27 199.333 -81 274s-123 112 -207 112c-66.667 0 -121.334 -24.667 -164.001 -74s-64 -111 -64 -185c0 -106 27.167 -196.667 81.5 -272s123.166 -113 206.499 -113z" />
    <glyph glyph-name="Odieresis" unicode="&#xd6;" horiz-adv-x="771" 
d="M290 791c-18.667 0 -33.834 5.33301 -45.501 16s-17.5 24.667 -17.5 42s5.83301 31.333 17.5 42s26.834 16 45.501 16c18 0 32.333 -5.33301 43 -16s16 -24.667 16 -42s-5.33301 -31.333 -16 -42s-25 -16 -43 -16zM480 791c-18.667 0 -33.5 5.33301 -44.5 16
s-16.5 24.667 -16.5 42s5.5 31.333 16.5 42s25.833 16 44.5 16c17.333 0 31.833 -5.5 43.5 -16.5s17.5 -24.833 17.5 -41.5s-5.83301 -30.5 -17.5 -41.5s-26.167 -16.5 -43.5 -16.5zM394 -10c-102.667 0 -187.667 36.332 -255 108.999s-101 158.667 -101 258
c0 104.667 32.667 191.334 98 260.001s149 103 251 103c100.667 0 183.667 -36 249 -108s98 -159 98 -261c0 -99.333 -32.833 -184.333 -98.5 -255s-146.167 -106 -241.5 -106zM416 32.999c65.333 0 119.669 25.668 163.002 77.001s65 111.666 65 180.999
c0 108 -27 199.333 -81 274s-123 112 -207 112c-66.667 0 -121.334 -24.667 -164.001 -74s-64 -111 -64 -185c0 -106 27.167 -196.667 81.5 -272s123.166 -113 206.499 -113z" />
    <glyph glyph-name="multiply" unicode="&#xd7;" 
d="M168 113l-25.001 26.001c-4.66699 4.66699 -3.66699 10.667 3 18l113 113l-113 114c-6.66699 6.66699 -7.66699 12.667 -3 18l25 26c5.33301 4 11.333 3 18 -3l114 -113l114 113c7.33301 7.33301 13.333 8.33301 18 3l25 -26c5.33301 -4.66699 4.33301 -10.667 -3 -18
l-113 -112l114 -115c6.66699 -8 7.33398 -14 2.00098 -18l-25 -26c-4.66699 -4.66699 -10.667 -3.33398 -18 3.99902l-114 112l-114 -112c-6.66699 -6.66699 -12.667 -8 -18 -4z" />
    <glyph glyph-name="Oslash" unicode="&#xd8;" horiz-adv-x="787" 
d="M665 588c52 -66.667 78.002 -145.668 78.002 -237.001c0 -99.333 -32.833 -184.333 -98.5 -255s-146.167 -106 -241.5 -106c-100.667 0 -185.334 36 -254.001 108l-74 -71c-7.33301 -4.66699 -13.333 -4.66699 -18 0l-15 14c-4.66699 4.66699 -3.33398 10.667 3.99902 18
l75 72c-49.333 66 -74 141.333 -74 226c0 104.667 32.667 191.334 98 260.001s149 103 251 103c96 0 176.333 -33.333 241 -100l62 59c8 8 15 9 21 3l13 -12c6 -5.33301 5 -12 -3 -20zM137.002 417.999c0 -82 17.334 -156.667 52.001 -224l386 367
c-55.333 77.333 -125.333 116 -210 116c-66.667 0 -121.334 -24.667 -164.001 -74s-64 -111 -64 -185zM425.003 32.999c65.333 0 119.667 25.668 163 77.001s65 111.666 65 180.999c0 87.333 -18.333 165 -55 233l-387 -368c56 -82 127.333 -123 214 -123z" />
    <glyph glyph-name="Ugrave" unicode="&#xd9;" horiz-adv-x="719" 
d="M460 784l-206.999 47.001c-16.667 3.33301 -23.334 13 -20.001 29l10 34c5.33301 18 17 22.667 35 14l196 -90c10 -5.33301 13.333 -13 10 -23c-3.33301 -8.66699 -11.333 -12.334 -24 -11.001zM367.001 -9.99902c-84 0 -152.168 26 -204.501 78s-78.5 121.333 -78.5 208
v364c0 13.333 -6 24.666 -18 33.999s-18 16.333 -18 21v3c0 8 6.66699 12 20 12h126c13.333 0 20 -4 20 -12v-3c0 -4.66699 -6.33301 -11.667 -19 -21s-19 -20.666 -19 -33.999v-364c0 -74 19 -133 57 -177s88.333 -66 151 -66c55.333 0 102.333 21.5 141 64.5
s58 102.5 58 178.5v364c0 13.333 -6.33301 24.666 -19 33.999s-19 16.333 -19 21v3c0 8 7 12 21 12h88c14 0 21 -4 21 -12v-3c0 -4.66699 -6.83301 -11.667 -20.5 -21s-20.5 -20.666 -20.5 -33.999v-365c0 -86 -24.667 -155 -74 -207s-113.666 -78 -192.999 -78z" />
    <glyph glyph-name="Uacute" unicode="&#xda;" horiz-adv-x="719" 
d="M276 782c-12.667 -1.33301 -20.666 2.66699 -23.999 12s0 16.666 10 21.999l199 88c16.667 8 27.667 3 33 -15l9 -34c2.66699 -7.33301 2.16699 -13.666 -1.5 -18.999s-9.83398 -8.33301 -18.501 -9zM367.001 -10c-84 0 -152.168 26 -204.501 78s-78.5 121.333 -78.5 208
v364c0 13.333 -6 24.666 -18 33.999s-18 16.333 -18 21v3c0 8 6.66699 12 20 12h126c13.333 0 20 -4 20 -12v-3c0 -4.66699 -6.33301 -11.667 -19 -21s-19 -20.666 -19 -33.999v-364c0 -74 19 -133 57 -177s88.333 -66 151 -66c55.333 0 102.333 21.5 141 64.5
s58 102.5 58 178.5v364c0 13.333 -6.33301 24.666 -19 33.999s-19 16.333 -19 21v3c0 8 7 12 21 12h88c14 0 21 -4 21 -12v-3c0 -4.66699 -6.83301 -11.667 -20.5 -21s-20.5 -20.666 -20.5 -33.999v-365c0 -86 -24.667 -155 -74 -207s-113.666 -78 -192.999 -78z" />
    <glyph glyph-name="Ucircumflex" unicode="&#xdb;" horiz-adv-x="719" 
d="M236 765c-9.33301 -6 -17.833 -5.16797 -25.5 2.49902s-6.5 16.167 3.5 25.5l110 101c9.33301 9.33301 19.333 14 30 14h19c9.33301 0 19.333 -4.66699 30 -14l115 -101c10 -9.33301 11.667 -18.166 5 -26.499s-16 -8.83301 -28 -1.5l-134 77zM654 709.999
c14 0 20.999 -4 20.999 -12v-3c0 -4.66699 -6.83301 -11.667 -20.5 -21s-20.5 -20.666 -20.5 -33.999v-365c0 -86 -24.667 -155 -74 -207s-113.666 -78 -192.999 -78c-84 0 -152.167 26 -204.5 78s-78.5 121.333 -78.5 208v364c0 13.333 -6 24.666 -18 33.999
s-18 16.333 -18 21v3c0 8 6.66699 12 20 12h126c13.333 0 20 -4 20 -12v-3c0 -4.66699 -6.33301 -11.667 -19 -21s-19 -20.666 -19 -33.999v-364c0 -74 19 -133 57 -177s88.333 -66 151 -66c55.333 0 102.333 21.5 141 64.5s58 102.5 58 178.5v364
c0 13.333 -6.33301 24.666 -19 33.999s-19 16.333 -19 21v3c0 8 7 12 21 12h88z" />
    <glyph glyph-name="Udieresis" unicode="&#xdc;" horiz-adv-x="719" 
d="M274 791c-18.667 0 -33.667 5.33301 -45 16s-17 24.667 -17 42s5.66699 31.333 17 42s26.333 16 45 16c18 0 32.5 -5.33301 43.5 -16s16.5 -24.667 16.5 -42s-5.5 -31.333 -16.5 -42s-25.5 -16 -43.5 -16zM464 791c-18.667 0 -33.5 5.33301 -44.5 16
s-16.5 24.667 -16.5 42s5.5 31.333 16.5 42s25.833 16 44.5 16c18 0 32.667 -5.33301 44 -16s17 -24.667 17 -42s-5.66699 -31.333 -17 -42s-26 -16 -44 -16zM367 -10c-84 0 -152.168 26 -204.501 78s-78.5 121.333 -78.5 208v364c0 13.333 -6 24.666 -18 33.999
s-18 16.333 -18 21v3c0 8 6.66699 12 20 12h126c13.333 0 20 -4 20 -12v-3c0 -4.66699 -6.33301 -11.667 -19 -21s-19 -20.666 -19 -33.999v-364c0 -74 19 -133 57 -177s88.333 -66 151 -66c55.333 0 102.333 21.5 141 64.5s58 102.5 58 178.5v364
c0 13.333 -6.33301 24.666 -19 33.999s-19 16.333 -19 21v3c0 8 7 12 21 12h88c14 0 21 -4 21 -12v-3c0 -4.66699 -6.83301 -11.667 -20.5 -21s-20.5 -20.666 -20.5 -33.999v-365c0 -86 -24.667 -155 -74 -207s-113.666 -78 -192.999 -78z" />
    <glyph glyph-name="Yacute" unicode="&#xdd;" horiz-adv-x="660" 
d="M250 782c-12.667 -1.33301 -20.666 2.66602 -23.999 11.999c-3.33301 10 0 17.333 10 22l198 88c17.333 8 28.666 3 33.999 -15l9 -34c2 -7.33301 1.16699 -13.666 -2.5 -18.999s-9.5 -8.33301 -17.5 -9zM631.001 709.999c13.333 0 19.999 -3.66504 19.999 -10.998v-3
c0 -6 -6.83301 -13.333 -20.5 -22s-24.5 -20 -32.5 -34l-216 -353v-217c0 -10 3.16699 -18.333 9.5 -25s12.666 -12.334 18.999 -17.001s9.5 -9.33398 9.5 -14.001v-2c0 -8 -6.33301 -12 -19 -12h-126c-13.333 0 -20 4 -20 12v2c0 4.66699 6 11.834 18 21.501
s18 21.167 18 34.5v211l-232 359c-7.33301 12 -18.333 22.833 -33 32.5s-22 17.5 -22 23.5v2c0 8 6.66699 12 20 12h146c13.333 0 20 -4 20 -12v-2c0 -4.66699 -4.16699 -9.83398 -12.5 -15.501s-14.666 -10.834 -18.999 -15.501s-4.16602 -13 0.500977 -25l195 -321
l195 321c5.33301 12.667 5.5 21.334 0.5 26.001s-12 9.66699 -21 15s-13.5 10.333 -13.5 15v2c0 8 6 12 18 12h98z" />
    <glyph glyph-name="Thorn" unicode="&#xde;" horiz-adv-x="622" 
d="M80 0c-13.333 0 -19.999 4.33398 -19.999 13.001v3c0 4.66699 6 11.667 18 21s18 20.666 18 33.999v568c0 14 -6 25.833 -18 35.5s-18 16.834 -18 21.501v2c0 8 6.66699 12 20 12h125c13.333 0 20 -4 20 -12v-2c0 -4.66699 -6.33301 -11.834 -19 -21.501
s-19 -21.5 -19 -35.5v-47h91c91.333 0 166 -19 224 -57s87 -92.667 87 -164c0 -74.667 -26.333 -132.334 -79 -173.001s-124.334 -61 -215.001 -61h-108v-66c0 -13.333 6.33301 -24.666 19 -33.999s19 -16.333 19 -21v-3c0 -8.66699 -6.66699 -13 -20 -13h-125z
M216.001 179.001h85c60 0 107.667 15.333 143 46s53 74 53 130c0 62 -21 110.167 -63 144.5s-93 51.5 -153 51.5h-65c-19.333 0 -29 -10.667 -29 -32v-311c0 -19.333 9.66699 -29 29 -29z" />
    <glyph glyph-name="germandbls" unicode="&#xdf;" horiz-adv-x="562" 
d="M368 393c47.333 -10 86.168 -32.665 116.501 -67.998s45.5 -80 45.5 -134c0 -58.667 -20.667 -105.167 -62 -139.5s-92.333 -51.5 -153 -51.5c-8 0 -13.5 3.16699 -16.5 9.5s-3.16699 12.833 -0.5 19.5s7.33398 10 14.001 10c37.333 0 68.166 11.667 92.499 35
s36.5 58.333 36.5 105c0 55.333 -13.5 100.666 -40.5 135.999s-63.833 53 -110.5 53c-10 0 -15 6.66699 -15 20s5 20 15 20c25.333 0 48.333 12.667 69 38s31 58 31 98c0 50.667 -10.333 90.167 -31 118.5s-50 42.833 -88 43.5c-34.667 0 -62 -12.5 -82 -37.5
s-30 -57.167 -30 -96.5v-499c0 -11.333 3.66699 -20.333 11 -27s14.666 -12.334 21.999 -17.001s11 -9.66699 11 -15v-3c0 -5.33301 -1 -8.5 -3 -9.5s-6 -1.5 -12 -1.5h-139c-10 0 -15 3.66699 -15 11v3c0 4.66699 6.33301 12 19 22s19 22.333 19 37v468
c0 58 18.5 105.333 55.5 142s86.167 55 147.5 55c56 0 103.167 -17 141.5 -51s57.5 -78.333 57.5 -133c0 -36 -10.167 -68.5 -30.5 -97.5s-45.5 -50.167 -75.5 -63.5z" />
    <glyph glyph-name="agrave" unicode="&#xe0;" horiz-adv-x="506" 
d="M119 640c-16 5.33301 -20.668 16 -14.001 32l17 32c8 16.667 20 19 36 7l176 -126c8.66699 -7.33301 10.334 -15.333 5.00098 -24s-14 -11 -26 -7zM447.999 80c1.33301 -14 5.00098 -24.8311 11.001 -32.498s12.333 -12.334 19 -14.001s12.667 -3.83398 18 -6.50098
s8 -6.66699 8 -12c0 -14 -21.333 -21 -64 -21c-24 0 -41.667 4.5 -53 13.5s-18 26.5 -20 52.5c-25.333 -46.667 -73.333 -70 -144 -70c-56 0 -101 13.333 -135 40s-51 63.667 -51 111c-0.666992 46.667 16.166 83 50.499 109s78.5 39 132.5 39
c53.333 0 94.333 -13.333 123 -40l-2 27c-6 61.333 -18.333 107 -37 137s-47.334 45 -86.001 45c-23.333 0 -42.666 -6 -57.999 -18s-25.833 -25 -31.5 -39s-12.5 -27 -20.5 -39s-17.333 -18 -28 -18c-12 0 -21.5 3.33301 -28.5 10s-10.5 15.667 -10.5 27
c0 28 16.5 53.167 49.5 75.5s75.5 33.5 127.5 33.5c60.667 0 109.167 -18.5 145.5 -55.5s57.833 -88.833 64.5 -155.5zM245 22.002c32.667 0 59.334 10.5 80.001 31.5s30.334 47.167 29.001 78.5l-4 45c-5.33301 24 -17.833 43.333 -37.5 58s-43.834 22 -72.501 22
c-34 0 -61.667 -9.66699 -83 -29s-32 -44.333 -32 -75c0 -37.333 11.167 -68.5 33.5 -93.5s51.166 -37.5 86.499 -37.5z" />
    <glyph glyph-name="aacute" unicode="&#xe1;" horiz-adv-x="506" 
d="M143 557c-11.333 -4 -19.667 -1.66699 -25 7c-4.66699 8 -3 16 5 24l177 126c14.667 11.333 26.667 9 36 -7l16 -32c8 -15.333 3.33301 -26 -14 -32zM447.999 80c1.33301 -14 5.00098 -24.8311 11.001 -32.498s12.333 -12.334 19 -14.001s12.667 -3.83398 18 -6.50098
s8 -6.66699 8 -12c0 -14 -21.333 -21 -64 -21c-24 0 -41.667 4.5 -53 13.5s-18 26.5 -20 52.5c-25.333 -46.667 -73.333 -70 -144 -70c-56 0 -101 13.333 -135 40s-51 63.667 -51 111c-0.666992 46.667 16.166 83 50.499 109s78.5 39 132.5 39
c53.333 0 94.333 -13.333 123 -40l-2 27c-6 61.333 -18.333 107 -37 137s-47.334 45 -86.001 45c-23.333 0 -42.666 -6 -57.999 -18s-25.833 -25 -31.5 -39s-12.5 -27 -20.5 -39s-17.333 -18 -28 -18c-12 0 -21.5 3.33301 -28.5 10s-10.5 15.667 -10.5 27
c0 28 16.5 53.167 49.5 75.5s75.5 33.5 127.5 33.5c60.667 0 109.167 -18.5 145.5 -55.5s57.833 -88.833 64.5 -155.5zM245 22.002c32.667 0 59.334 10.5 80.001 31.5s30.334 47.167 29.001 78.5l-4 45c-5.33301 24 -17.833 43.333 -37.5 58s-43.834 22 -72.501 22
c-34 0 -61.667 -9.66699 -83 -29s-32 -44.333 -32 -75c0 -37.333 11.167 -68.5 33.5 -93.5s51.166 -37.5 86.499 -37.5z" />
    <glyph glyph-name="acircumflex" unicode="&#xe2;" horiz-adv-x="506" 
d="M98 557c-9.33301 -5.33301 -17.8311 -4.16895 -25.498 3.49805s-6.83398 16.167 2.49902 25.5l110 101c9.33301 8.66699 19.666 13 30.999 13h18c10.667 0 20.667 -4.33301 30 -13l115 -101c10 -9.33301 11.833 -18.166 5.5 -26.499s-15.833 -9.16602 -28.5 -2.49902
l-133 78zM448.002 79.9971c1.33301 -14 5.00098 -24.8311 11.001 -32.498s12.333 -12.334 19 -14.001s12.667 -3.83398 18 -6.50098s8 -6.66699 8 -12c0 -14 -21.333 -21 -64 -21c-24 0 -41.667 4.5 -53 13.5s-18 26.5 -20 52.5c-25.333 -46.667 -73.333 -70 -144 -70
c-56 0 -101 13.333 -135 40s-51 63.667 -51 111c-0.666992 46.667 16.166 83 50.499 109s78.5 39 132.5 39c53.333 0 94.333 -13.333 123 -40l-2 27c-6 61.333 -18.333 107 -37 137s-47.334 45 -86.001 45c-23.333 0 -42.666 -6 -57.999 -18s-25.833 -25 -31.5 -39
s-12.5 -27 -20.5 -39s-17.333 -18 -28 -18c-12 0 -21.5 3.33301 -28.5 10s-10.5 15.667 -10.5 27c0 28 16.5 53.167 49.5 75.5s75.5 33.5 127.5 33.5c60.667 0 109.167 -18.5 145.5 -55.5s57.833 -88.833 64.5 -155.5zM245.003 21.999c32.667 0 59.334 10.5 80.001 31.5
s30.334 47.167 29.001 78.5l-4 45c-5.33301 24 -17.833 43.333 -37.5 58s-43.834 22 -72.501 22c-34 0 -61.667 -9.66699 -83 -29s-32 -44.333 -32 -75c0 -37.333 11.167 -68.5 33.5 -93.5s51.166 -37.5 86.499 -37.5z" />
    <glyph glyph-name="atilde" unicode="&#xe3;" horiz-adv-x="506" 
d="M64 596c-8.66699 0 -12 5.66699 -10 17c5.33301 27.333 16.333 50 33 68s38 27 64 27c22.667 0 50.834 -9.5 84.501 -28.5s56.5 -28.5 68.5 -28.5c23.333 0 40.333 11.333 51 34c3.33301 8.66699 9 13 17 13h6c10 0 13.333 -5.66699 10 -17
c-14.667 -62 -46.334 -93 -95.001 -93c-21.333 0 -48.5 9.66699 -81.5 29s-56.833 29 -71.5 29c-22.667 0 -39.667 -11.667 -51 -35c-4.66699 -10 -10 -15 -16 -15h-9zM448 80c1.33301 -14 5.00098 -24.8311 11.001 -32.498s12.333 -12.334 19 -14.001
s12.667 -3.83398 18 -6.50098s8 -6.66699 8 -12c0 -14 -21.333 -21 -64 -21c-24 0 -41.667 4.5 -53 13.5s-18 26.5 -20 52.5c-25.333 -46.667 -73.333 -70 -144 -70c-56 0 -101 13.333 -135 40s-51 63.667 -51 111c-0.666992 46.667 16.166 83 50.499 109s78.5 39 132.5 39
c53.333 0 94.333 -13.333 123 -40l-2 27c-6 61.333 -18.333 107 -37 137s-47.334 45 -86.001 45c-23.333 0 -42.666 -6 -57.999 -18s-25.833 -25 -31.5 -39s-12.5 -27 -20.5 -39s-17.333 -18 -28 -18c-12 0 -21.5 3.33301 -28.5 10s-10.5 15.667 -10.5 27
c0 28 16.5 53.167 49.5 75.5s75.5 33.5 127.5 33.5c60.667 0 109.167 -18.5 145.5 -55.5s57.833 -88.833 64.5 -155.5zM245.001 22.002c32.667 0 59.334 10.5 80.001 31.5s30.334 47.167 29.001 78.5l-4 45c-5.33301 24 -17.833 43.333 -37.5 58s-43.834 22 -72.501 22
c-34 0 -61.667 -9.66699 -83 -29s-32 -44.333 -32 -75c0 -37.333 11.167 -68.5 33.5 -93.5s51.166 -37.5 86.499 -37.5z" />
    <glyph glyph-name="adieresis" unicode="&#xe4;" horiz-adv-x="506" 
d="M134 577c-18.667 0 -33.667 5.33301 -45 16s-17 24.667 -17 42s5.66699 31.333 17 42s26.333 16 45 16c18 0 32.5 -5.33301 43.5 -16s16.5 -24.667 16.5 -42s-5.5 -31.333 -16.5 -42s-25.5 -16 -43.5 -16zM324 577c-18.667 0 -33.5 5.33301 -44.5 16
s-16.5 24.667 -16.5 42s5.5 31.333 16.5 42s25.833 16 44.5 16c18 0 32.667 -5.33301 44 -16s17 -24.667 17 -42s-5.66699 -31.333 -17 -42s-26 -16 -44 -16zM448 80c1.33301 -14 5.00098 -24.8311 11.001 -32.498s12.333 -12.334 19 -14.001s12.667 -3.83398 18 -6.50098
s8 -6.66699 8 -12c0 -14 -21.333 -21 -64 -21c-24 0 -41.667 4.5 -53 13.5s-18 26.5 -20 52.5c-25.333 -46.667 -73.333 -70 -144 -70c-56 0 -101 13.333 -135 40s-51 63.667 -51 111c-0.666992 46.667 16.166 83 50.499 109s78.5 39 132.5 39
c53.333 0 94.333 -13.333 123 -40l-2 27c-6 61.333 -18.333 107 -37 137s-47.334 45 -86.001 45c-23.333 0 -42.666 -6 -57.999 -18s-25.833 -25 -31.5 -39s-12.5 -27 -20.5 -39s-17.333 -18 -28 -18c-12 0 -21.5 3.33301 -28.5 10s-10.5 15.667 -10.5 27
c0 28 16.5 53.167 49.5 75.5s75.5 33.5 127.5 33.5c60.667 0 109.167 -18.5 145.5 -55.5s57.833 -88.833 64.5 -155.5zM245.001 22.002c32.667 0 59.334 10.5 80.001 31.5s30.334 47.167 29.001 78.5l-4 45c-5.33301 24 -17.833 43.333 -37.5 58s-43.834 22 -72.501 22
c-34 0 -61.667 -9.66699 -83 -29s-32 -44.333 -32 -75c0 -37.333 11.167 -68.5 33.5 -93.5s51.166 -37.5 86.499 -37.5z" />
    <glyph glyph-name="aring" unicode="&#xe5;" horiz-adv-x="506" 
d="M227 544c-33.333 0 -61.166 9.66797 -83.499 29.001s-33.5 43 -33.5 71c0 29.333 11 53.666 33 72.999s50.333 29 85 29c33.333 0 61.166 -9.5 83.499 -28.5s33.5 -42.5 33.5 -70.5c0 -30 -10.833 -54.667 -32.5 -74s-50.167 -29 -85.5 -29zM228 713.001
c-18 0 -32.668 -6.16895 -44.001 -18.502s-17 -28.833 -17 -49.5c0 -19.333 5.66699 -35.666 17 -48.999s26 -20 44 -20s32.5 6.33301 43.5 19s16.5 29.334 16.5 50.001c0 19.333 -5.66699 35.5 -17 48.5s-25.666 19.5 -42.999 19.5zM447.999 79.999
c1.33301 -14 5.00098 -24.8311 11.001 -32.498s12.333 -12.334 19 -14.001s12.667 -3.83398 18 -6.50098s8 -6.66699 8 -12c0 -14 -21.333 -21 -64 -21c-24 0 -41.667 4.5 -53 13.5s-18 26.5 -20 52.5c-25.333 -46.667 -73.333 -70 -144 -70c-56 0 -101 13.333 -135 40
s-51 63.667 -51 111c-0.666992 46.667 16.166 83 50.499 109s78.5 39 132.5 39c53.333 0 94.333 -13.333 123 -40l-2 27c-6 61.333 -18.333 107 -37 137s-47.334 45 -86.001 45c-23.333 0 -42.666 -6 -57.999 -18s-25.833 -25 -31.5 -39s-12.5 -27 -20.5 -39
s-17.333 -18 -28 -18c-12 0 -21.5 3.33301 -28.5 10s-10.5 15.667 -10.5 27c0 28 16.5 53.167 49.5 75.5s75.5 33.5 127.5 33.5c60.667 0 109.167 -18.5 145.5 -55.5s57.833 -88.833 64.5 -155.5zM245 22.001c32.667 0 59.334 10.5 80.001 31.5s30.334 47.167 29.001 78.5
l-4 45c-5.33301 24 -17.833 43.333 -37.5 58s-43.834 22 -72.501 22c-34 0 -61.667 -9.66699 -83 -29s-32 -44.333 -32 -75c0 -37.333 11.167 -68.5 33.5 -93.5s51.166 -37.5 86.499 -37.5z" />
    <glyph glyph-name="ae" unicode="&#xe6;" horiz-adv-x="804" 
d="M748 150c4.66699 8 11.001 10.8301 19.001 8.49707s11.333 -8.16602 10 -17.499c-7.33301 -38.667 -28.833 -73 -64.5 -103s-81.5 -45 -137.5 -45c-42 0 -79.833 10 -113.5 30s-60.5 47.667 -80.5 83c-6.66699 -33.333 -23.834 -61 -51.501 -83s-63.167 -33 -106.5 -33
c-55.333 0 -100.166 13.5 -134.499 40.5s-51.5 63.833 -51.5 110.5c0 45.333 16.667 81.333 50 108s77.666 40 132.999 40c52.667 0 94 -13.333 124 -40l-2 27c-6 61.333 -18.5 107 -37.5 137s-47.833 45 -86.5 45c-23.333 0 -42.333 -6 -57 -18s-24.5 -25 -29.5 -39
s-11.667 -27 -20 -39s-18.5 -18 -30.5 -18c-12.667 0 -22.5 3.5 -29.5 10.5s-10.5 16.167 -10.5 27.5c0 28.667 17.667 53.834 53 75.501s76.666 32.5 123.999 32.5c78.667 0 136.334 -31 173.001 -93c44.667 64 107 96 187 96c56.667 0 102 -15.5 136 -46.5
s51 -66.167 51 -105.5c0 -29.333 -15 -48.666 -45 -57.999l-278 -92c12 -41.333 32.5 -74 61.5 -98s63.5 -36 103.5 -36c62 0 109 31 141 93zM562.001 459.997c-38.667 0 -70.333 -17.167 -95 -51.5s-37 -77.5 -37 -129.5c0 -20.667 1.33301 -38.667 4 -54l222 79
c16 6.66699 24 19 24 37c0 25.333 -11.5 51.5 -34.5 78.5s-50.833 40.5 -83.5 40.5zM245.002 22.9971c32.667 0 59.168 12.167 79.501 36.5s30.166 51.5 29.499 81.5l-3 34c-4.66699 24 -17 43.5 -37 58.5s-44.667 22.5 -74 22.5c-34 0 -61.5 -9 -82.5 -27
s-31.5 -41.333 -31.5 -70c0 -39.333 11 -71.833 33 -97.5s50.667 -38.5 86 -38.5z" />
    <glyph glyph-name="ccedilla" unicode="&#xe7;" horiz-adv-x="502" 
d="M446 147c4 8 10.334 11 19.001 9s12 -7.66699 10 -17c-8 -39.333 -28.5 -73.666 -61.5 -102.999s-75.5 -44.666 -127.5 -45.999l-3 -46c30.667 0 56.167 -6.33301 76.5 -19s30.5 -30.667 30.5 -54c0 -22.667 -10.833 -40.834 -32.5 -54.501s-48.834 -20.5 -81.501 -20.5
c-30.667 0 -58 6.66699 -82 20c-10 5.33301 -12.667 14.333 -8 27c3.33301 10 8.66602 12.667 15.999 8c18 -11.333 38.333 -17 61 -17c16.667 0 30.667 3.33301 42 10s16.666 16.667 15.999 30c-0.666992 24.667 -21.667 37 -63 37c-18.667 0 -26.334 10 -23.001 30l10 51
c-62 8 -113.5 35.5 -154.5 82.5s-61.5 103.167 -61.5 168.5c0 73.333 23.5 132.666 70.5 177.999s105.5 68.333 175.5 69c52 0.666992 97.5 -12.5 136.5 -39.5s58.5 -55.167 58.5 -84.5c0 -24 -13.333 -35.667 -40 -35c-12.667 0.666992 -24.5 7.5 -35.5 20.5
s-20.667 27.333 -29 43s-21.666 30.167 -39.999 43.5s-40.5 20 -66.5 20c-41.333 0 -75.333 -16.833 -102 -50.5s-40 -75.5 -40 -125.5c0 -69.333 17.667 -124.833 53 -166.5s81 -62.5 137 -62.5c32.667 0 60.834 8.83301 84.501 26.5s41.834 40.167 54.501 67.5z" />
    <glyph glyph-name="egrave" unicode="&#xe8;" horiz-adv-x="495" 
d="M141 640c-17.333 5.33301 -22 16 -14 32l16 32c8.66699 16 20.667 18.333 36 7l176 -126c8.66699 -7.33301 10.667 -15.333 6 -24c-5.33301 -8.66699 -14 -11 -26 -7zM440 141c4.66699 7.33301 10.9961 10.167 18.9961 8.5s11.333 -7.16699 10 -16.5
c-7.33301 -35.333 -28.666 -68 -63.999 -98s-81.666 -45 -138.999 -45c-66 0 -121.167 23.333 -165.5 70s-66.5 108 -66.5 184c0 70 22.667 128.5 68 175.5s101.333 70.5 168 70.5c56.667 0 101.834 -15.167 135.501 -45.5s50.5 -64.5 50.5 -102.5
c0 -28.667 -15.667 -48.334 -47 -59.001l-277 -91c11.333 -43.333 31.5 -77.166 60.5 -101.499s63.833 -36.5 104.5 -36.5c68.667 0 116.334 29 143.001 87zM254.996 458.001c-40 0 -72.333 -17.334 -97 -52.001s-37 -78 -37 -130c0 -20 1.33301 -37 4 -51l223 80
c16 6.66699 24 18.334 24 35.001c0 25.333 -11.5 51.333 -34.5 78s-50.5 40 -82.5 40z" />
    <glyph glyph-name="eacute" unicode="&#xe9;" horiz-adv-x="495" 
d="M164 557c-11.333 -3.33301 -19.667 -1 -25 7c-4.66699 8 -3 16 5 24l177 126c14.667 11.333 26.667 9 36 -7l15 -32c4 -6.66699 4.66699 -13 2 -19s-7.66699 -10.333 -15 -13zM439.999 141c4.66699 7.33301 10.9961 10.167 18.9961 8.5s11.333 -7.16699 10 -16.5
c-7.33301 -35.333 -28.666 -68 -63.999 -98s-81.666 -45 -138.999 -45c-66 0 -121.167 23.333 -165.5 70s-66.5 108 -66.5 184c0 70 22.667 128.5 68 175.5s101.333 70.5 168 70.5c56.667 0 101.834 -15.167 135.501 -45.5s50.5 -64.5 50.5 -102.5
c0 -28.667 -15.667 -48.334 -47 -59.001l-277 -91c11.333 -43.333 31.5 -77.166 60.5 -101.499s63.833 -36.5 104.5 -36.5c68.667 0 116.334 29 143.001 87zM254.995 458.001c-40 0 -72.333 -17.334 -97 -52.001s-37 -78 -37 -130c0 -20 1.33301 -37 4 -51l223 80
c16 6.66699 24 18.334 24 35.001c0 25.333 -11.5 51.333 -34.5 78s-50.5 40 -82.5 40z" />
    <glyph glyph-name="ecircumflex" unicode="&#xea;" horiz-adv-x="495" 
d="M119 557c-9.33301 -5.33301 -17.832 -4.16895 -25.499 3.49805s-6.5 16.167 3.5 25.5l110 101c8.66699 8.66699 18.667 13 30 13h19c9.33301 0 19.333 -4.33301 30 -13l115 -101c10 -9.33301 11.667 -18.166 5 -26.499s-16.334 -9.16602 -29.001 -2.49902l-133 77z
M440.001 140.997c4.66699 7.33301 10.9961 10.167 18.9961 8.5s11.333 -7.16699 10 -16.5c-7.33301 -35.333 -28.666 -68 -63.999 -98s-81.666 -45 -138.999 -45c-66 0 -121.167 23.333 -165.5 70s-66.5 108 -66.5 184c0 70 22.667 128.5 68 175.5s101.333 70.5 168 70.5
c56.667 0 101.834 -15.167 135.501 -45.5s50.5 -64.5 50.5 -102.5c0 -28.667 -15.667 -48.334 -47 -59.001l-277 -91c11.333 -43.333 31.5 -77.166 60.5 -101.499s63.833 -36.5 104.5 -36.5c68.667 0 116.334 29 143.001 87zM254.997 457.998
c-40 0 -72.333 -17.334 -97 -52.001s-37 -78 -37 -130c0 -20 1.33301 -37 4 -51l223 80c16 6.66699 24 18.334 24 35.001c0 25.333 -11.5 51.333 -34.5 78s-50.5 40 -82.5 40z" />
    <glyph glyph-name="edieresis" unicode="&#xeb;" horiz-adv-x="495" 
d="M155 577c-18.667 0 -33.834 5.33301 -45.501 16s-17.5 24.667 -17.5 42s5.83301 31.333 17.5 42s26.834 16 45.501 16c18 0 32.5 -5.33301 43.5 -16s16.5 -24.667 16.5 -42s-5.5 -31.333 -16.5 -42s-25.5 -16 -43.5 -16zM345 577c-18.667 0 -33.5 5.33301 -44.5 16
s-16.5 24.667 -16.5 42s5.5 31.333 16.5 42s25.833 16 44.5 16c18 0 32.667 -5.33301 44 -16s17 -24.667 17 -42s-5.66699 -31.333 -17 -42s-26 -16 -44 -16zM440 141c4.66699 7.33301 10.9961 10.167 18.9961 8.5s11.333 -7.16699 10 -16.5
c-7.33301 -35.333 -28.666 -68 -63.999 -98s-81.666 -45 -138.999 -45c-66 0 -121.167 23.333 -165.5 70s-66.5 108 -66.5 184c0 70 22.667 128.5 68 175.5s101.333 70.5 168 70.5c56.667 0 101.834 -15.167 135.501 -45.5s50.5 -64.5 50.5 -102.5
c0 -28.667 -15.667 -48.334 -47 -59.001l-277 -91c11.333 -43.333 31.5 -77.166 60.5 -101.499s63.833 -36.5 104.5 -36.5c68.667 0 116.334 29 143.001 87zM254.996 458.001c-40 0 -72.333 -17.334 -97 -52.001s-37 -78 -37 -130c0 -20 1.33301 -37 4 -51l223 80
c16 6.66699 24 18.334 24 35.001c0 25.333 -11.5 51.333 -34.5 78s-50.5 40 -82.5 40z" />
    <glyph glyph-name="igrave" unicode="&#xec;" horiz-adv-x="243" 
d="M214 554l-194.001 86c-16 5.33301 -20.667 16 -14 32l17 32c8 16.667 20 19 36 7l176 -126c8.66699 -7.33301 10.334 -15.333 5.00098 -24s-14 -11 -26 -7zM61.999 0c-12.667 0 -19 4.33789 -19 13.0049v4c0 4.66699 3 9.16699 9 13.5s12 9.66602 18 15.999
s9 14.5 9 24.5v298c0 15.333 -6 28.666 -18 39.999s-18 18.666 -18 21.999v2c0 4.66699 5 9.66699 15 15l77 38c10.667 4 18.5 4.66699 23.5 2s7.5 -8 7.5 -16v-401c0 -8 2 -14.833 6 -20.5s8.66699 -9.83398 14 -12.501s10 -5.83398 14 -9.50098s6 -7.5 6 -11.5v-4
c0 -8.66699 -7 -13 -21 -13h-123z" />
    <glyph glyph-name="iacute" unicode="&#xed;" horiz-adv-x="243" 
d="M44 557c-11.333 -4 -19.667 -1.66699 -25 7c-4.66699 8 -3 16 5 24l177 126c14.667 11.333 26.667 9 36 -7l15 -32c4 -6.66699 4.66699 -13 2 -19s-7.66699 -10.333 -15 -13zM61.999 0c-12.667 0 -19 4.33789 -19 13.0049v4c0 4.66699 3 9.16699 9 13.5
s12 9.66602 18 15.999s9 14.5 9 24.5v298c0 15.333 -6 28.666 -18 39.999s-18 18.666 -18 21.999v2c0 4.66699 5 9.66699 15 15l77 38c10.667 4 18.5 4.66699 23.5 2s7.5 -8 7.5 -16v-401c0 -8 2 -14.833 6 -20.5s8.66699 -9.83398 14 -12.501s10 -5.83398 14 -9.50098
s6 -7.5 6 -11.5v-4c0 -8.66699 -7 -13 -21 -13h-123z" />
    <glyph glyph-name="icircumflex" unicode="&#xee;" horiz-adv-x="243" 
d="M280 586c10 -9.33301 11.668 -18.1689 5.00098 -26.502s-16 -9.16602 -28 -2.49902l-133 78l-126 -78c-9.33301 -5.33301 -17.833 -4.16602 -25.5 3.50098s-6.5 16.167 3.5 25.5l110 101c9.33301 8.66699 19.666 13 30.999 13h18c10.667 0 20.667 -4.33301 30 -13z
M166.001 70.9971c0 -8 2 -14.8281 6 -20.4951s8.66699 -9.83398 14 -12.501s10 -5.83398 14 -9.50098s6 -7.5 6 -11.5v-4c0 -8.66699 -7 -13 -21 -13h-123c-12.667 -0 -19 4.33301 -19 13v4c0 4.66699 3 9.16699 9 13.5s12 9.66602 18 15.999s9 14.5 9 24.5v298
c0 15.333 -6 28.666 -18 39.999s-18 18.666 -18 21.999v2c0 4.66699 5 9.66699 15 15l77 38c10.667 4 18.5 4.66699 23.5 2s7.5 -8 7.5 -16v-401z" />
    <glyph glyph-name="idieresis" unicode="&#xef;" horiz-adv-x="243" 
d="M34 577c-18.667 0 -33.667 5.33301 -45 16s-17 24.667 -17 42s5.66699 31.333 17 42s26.333 16 45 16c18 0 32.5 -5.33301 43.5 -16s16.5 -24.667 16.5 -42s-5.5 -31.333 -16.5 -42s-25.5 -16 -43.5 -16zM224 577c-18 0 -32.667 5.33301 -44 16s-17 24.667 -17 42
s5.66699 31.333 17 42s26 16 44 16s32.667 -5.33301 44 -16s17 -24.667 17 -42s-5.66699 -31.333 -17 -42s-26 -16 -44 -16zM62 0c-12.667 0 -19 4.33789 -19 13.0049v4c0 4.66699 3 9.16699 9 13.5s12 9.66602 18 15.999s9 14.5 9 24.5v298c0 15.333 -6 28.666 -18 39.999
s-18 18.666 -18 21.999v2c0 4.66699 5 9.66699 15 15l77 38c10.667 4 18.5 4.66699 23.5 2s7.5 -8 7.5 -16v-401c0 -8 2 -14.833 6 -20.5s8.66699 -9.83398 14 -12.501s10 -5.83398 14 -9.50098s6 -7.5 6 -11.5v-4c0 -8.66699 -7 -13 -21 -13h-123z" />
    <glyph glyph-name="eth" unicode="&#xf0;" horiz-adv-x="568" 
d="M369 613c50 -48.667 89.501 -105.166 118.501 -169.499s43.5 -132.5 43.5 -204.5c0 -75.333 -22.833 -135.666 -68.5 -180.999s-104.167 -68 -175.5 -68c-73.333 0 -133.833 24.5 -181.5 73.5s-71.5 110.167 -71.5 183.5c0 70 21.5 128 64.5 174s98.167 69 165.5 69
c57.333 0 104.666 -21.333 141.999 -64c-23.333 62 -58.666 116.667 -105.999 164l-132 -45c-8 -4 -13.667 -2.33301 -17 5l-7 13c-4 9.33301 -0.666992 15.666 10 18.999l112 38c-26.667 23.333 -61.667 48.666 -105 75.999c-7.33301 5.33301 -11.333 11.5 -12 18.5
s1.33301 12.5 6 16.5s10 5.33301 16 4c57.333 -18.667 111.666 -49 162.999 -91l109 37c8.66699 2 14.667 0.333008 18 -5l6 -14c4 -8 0.666992 -14.333 -10 -19zM440.001 199.001l0.000976562 18c-6.66699 79.333 -25.667 139.333 -57 180s-70 61 -116 61
c-43.333 0 -78.333 -17 -105 -51s-40 -78 -40 -132c0 -72 17 -132.167 51 -180.5s77 -72.5 129 -72.5c39.333 0 72.166 17 98.499 51s39.5 76 39.5 126z" />
    <glyph glyph-name="ntilde" unicode="&#xf1;" horiz-adv-x="574" 
d="M133 596c-9.33301 0 -12.999 5.66699 -10.999 17c5.33301 27.333 16.333 50 33 68s38 27 64 27c23.333 0 51.666 -9.5 84.999 -28.5s56 -28.5 68 -28.5c24 0 41 11.333 51 34c3.33301 8.66699 9 13 17 13h7c8.66699 0 12 -5.66699 10 -17
c-15.333 -62 -47.333 -93 -96 -93c-20.667 0 -47.667 9.66699 -81 29s-57.333 29 -72 29c-22.667 0 -39.667 -11.667 -51 -35c-4.66699 -10 -10 -15 -16 -15h-8zM514.001 72c0.666992 -10.667 4.00098 -19.3301 10.001 -25.9971s11.833 -12.167 17.5 -16.5
s8.5 -8.83301 8.5 -13.5v-4c0 -8.66699 -7 -13 -21 -13h-119c-14 0 -21 4.33301 -21 13v4c0 4.66699 6.16699 11.667 18.5 21s18.166 20.666 17.499 33.999l-10 200c-2.66699 59.333 -14.834 104.166 -36.501 134.499s-50.5 45.5 -86.5 45.5c-36.667 0 -66.667 -13 -90 -39
s-35 -59 -35 -99v-243c0 -8 2.16699 -14.833 6.5 -20.5s8.83301 -9.83398 13.5 -12.501s9.16699 -5.83398 13.5 -9.50098s6.5 -7.5 6.5 -11.5v-4c0 -8.66699 -7 -13 -21 -13h-125c-13.333 0 -20 4.33301 -20 13v4c0 5.33301 6.5 12.333 19.5 21s19.5 19.667 19.5 33v303
c0 12.667 -3.5 22.5 -10.5 29.5s-14 12.5 -21 16.5s-10.5 8.33301 -10.5 13v3c0 6 5.33301 11 16 15l75 36c9.33301 4.66699 16.333 5.33398 21 2.00098s7 -9 7 -17v-73c14.667 28 35.834 50.333 63.501 67s58.5 25 92.5 25c52 0 95.5 -18.333 130.5 -55
s54.833 -92 59.5 -166z" />
    <glyph glyph-name="ograve" unicode="&#xf2;" horiz-adv-x="565" 
d="M368 554l-195.002 86c-16 5.33301 -20.667 16 -14 32l17 32c8.66699 16 20.667 18.333 36 7l176 -126c8.66699 -7.33301 10.334 -15.333 5.00098 -24s-13.666 -11 -24.999 -7zM293.998 -10c-77.333 0 -140.168 25.168 -188.501 75.501s-72.5 110.833 -72.5 181.5
c0 69.333 23.333 127.166 70 173.499s104.334 69.5 173.001 69.5c74 0 134.833 -24.5 182.5 -73.5s71.5 -109.167 71.5 -180.5c0 -70 -22 -128.5 -66 -175.5s-100.667 -70.5 -170 -70.5zM305.996 23.001c39.333 0 71.834 16.6689 97.501 50.002s38.5 77.666 38.5 132.999
c0 70.667 -16.667 130.167 -50 178.5s-75.333 72.5 -126 72.5c-42.667 0 -77.334 -16.5 -104.001 -49.5s-40 -77.167 -40 -132.5c0 -66.667 17.333 -125.334 52 -176.001s78.667 -76 132 -76z" />
    <glyph glyph-name="oacute" unicode="&#xf3;" horiz-adv-x="565" 
d="M198 557c-12 -3.33301 -20.667 -1 -26 7c-4.66699 8 -3 16 5 24l177 126c15.333 12 27.333 9.66699 36 -7l16 -32c8 -15.333 3.33301 -26 -14 -32zM294 -10c-77.333 0 -140.168 25.168 -188.501 75.501s-72.5 110.833 -72.5 181.5c0 69.333 23.333 127.166 70 173.499
s104.334 69.5 173.001 69.5c74 0 134.833 -24.5 182.5 -73.5s71.5 -109.167 71.5 -180.5c0 -70 -22 -128.5 -66 -175.5s-100.667 -70.5 -170 -70.5zM305.998 23.001c39.333 0 71.834 16.6689 97.501 50.002s38.5 77.666 38.5 132.999c0 70.667 -16.667 130.167 -50 178.5
s-75.333 72.5 -126 72.5c-42.667 0 -77.334 -16.5 -104.001 -49.5s-40 -77.167 -40 -132.5c0 -66.667 17.333 -125.334 52 -176.001s78.667 -76 132 -76z" />
    <glyph glyph-name="ocircumflex" unicode="&#xf4;" horiz-adv-x="565" 
d="M152 557c-9.33301 -5.33301 -17.8311 -4.16895 -25.498 3.49805s-6.83398 16.167 2.49902 25.5l110 101c9.33301 8.66699 19.666 13 30.999 13h18c10.667 0 20.667 -4.33301 30 -13l115 -101c10 -9.33301 11.833 -18.166 5.5 -26.499s-15.833 -9.16602 -28.5 -2.49902
l-133 78zM276.002 489.997c74 0 134.831 -24.499 182.498 -73.499s71.5 -109.167 71.5 -180.5c0 -70 -22 -128.5 -66 -175.5s-100.667 -70.5 -170 -70.5c-77.333 0 -140.166 25.167 -188.499 75.5s-72.5 110.833 -72.5 181.5c0 69.333 23.333 127.166 70 173.499
s104.334 69.5 173.001 69.5zM306 22.998c39.333 0 71.834 16.6689 97.501 50.002s38.5 77.666 38.5 132.999c0 70.667 -16.667 130.167 -50 178.5s-75.333 72.5 -126 72.5c-42.667 0 -77.334 -16.5 -104.001 -49.5s-40 -77.167 -40 -132.5
c0 -66.667 17.333 -125.334 52 -176.001s78.667 -76 132 -76z" />
    <glyph glyph-name="otilde" unicode="&#xf5;" horiz-adv-x="565" 
d="M204 708c23.333 0 51.667 -9.5 85 -28.5s56 -28.5 68 -28.5c24 0 41 11.333 51 34c3.33301 8.66699 9 13 17 13h7c8.66699 0 12 -5.66699 10 -17c-15.333 -62 -47.333 -93 -96 -93c-21.333 0 -48.333 9.66699 -81 29s-56.667 29 -72 29c-22 0 -39 -11.667 -51 -35
c-4.66699 -10 -10 -15 -16 -15h-8c-9.33301 0 -13 5.66699 -11 17c5.33301 27.333 16.333 50 33 68s38 27 64 27zM294.001 -10c-77.333 0 -140.168 25.168 -188.501 75.501s-72.5 110.833 -72.5 181.5c0 69.333 23.333 127.166 70 173.499s104.334 69.5 173.001 69.5
c74 0 134.833 -24.5 182.5 -73.5s71.5 -109.167 71.5 -180.5c0 -70 -22 -128.5 -66 -175.5s-100.667 -70.5 -170 -70.5zM305.999 23.001c39.333 0 71.834 16.6689 97.501 50.002s38.5 77.666 38.5 132.999c0 70.667 -16.667 130.167 -50 178.5s-75.333 72.5 -126 72.5
c-42.667 0 -77.334 -16.5 -104.001 -49.5s-40 -77.167 -40 -132.5c0 -66.667 17.333 -125.334 52 -176.001s78.667 -76 132 -76z" />
    <glyph glyph-name="odieresis" unicode="&#xf6;" horiz-adv-x="565" 
d="M187 577c-18.667 0 -33.667 5.33301 -45 16s-17 24.667 -17 42s5.66699 31.333 17 42s26.333 16 45 16c18 0 32.5 -5.33301 43.5 -16s16.5 -24.667 16.5 -42s-5.5 -31.333 -16.5 -42s-25.5 -16 -43.5 -16zM378 577c-18.667 0 -33.667 5.33301 -45 16s-17 24.667 -17 42
s5.66699 31.333 17 42s26.333 16 45 16c17.333 0 31.833 -5.5 43.5 -16.5s17.5 -24.833 17.5 -41.5s-5.83301 -30.5 -17.5 -41.5s-26.167 -16.5 -43.5 -16.5zM294 -10c-77.333 0 -140.168 25.168 -188.501 75.501s-72.5 110.833 -72.5 181.5
c0 69.333 23.333 127.166 70 173.499s104.334 69.5 173.001 69.5c74 0 134.833 -24.5 182.5 -73.5s71.5 -109.167 71.5 -180.5c0 -70 -22 -128.5 -66 -175.5s-100.667 -70.5 -170 -70.5zM305.998 23.001c39.333 0 71.834 16.6689 97.501 50.002s38.5 77.666 38.5 132.999
c0 70.667 -16.667 130.167 -50 178.5s-75.333 72.5 -126 72.5c-42.667 0 -77.334 -16.5 -104.001 -49.5s-40 -77.167 -40 -132.5c0 -66.667 17.333 -125.334 52 -176.001s78.667 -76 132 -76z" />
    <glyph glyph-name="divide" unicode="&#xf7;" 
d="M301 409c-20 0 -35.833 5.66699 -47.5 17s-17.5 26 -17.5 44s5.83301 32.833 17.5 44.5s27.5 17.5 47.5 17.5c18.667 0 33.834 -5.83301 45.501 -17.5s17.5 -26.5 17.5 -44.5s-5.83301 -32.667 -17.5 -44s-26.834 -17 -45.501 -17zM114 241
c-9.33301 0 -14 3.66699 -14 11v37c0 7.33301 4.66699 11 14 11h372c10 0 15 -3.66699 15 -11v-37c0 -7.33301 -5 -11 -15 -11h-372zM301 -10c-20 0 -35.833 5.66699 -47.5 17s-17.5 26 -17.5 44s5.83301 32.833 17.5 44.5s27.5 17.5 47.5 17.5
c18.667 0 33.834 -5.83301 45.501 -17.5s17.5 -26.5 17.5 -44.5s-5.83301 -32.667 -17.5 -44s-26.834 -17 -45.501 -17z" />
    <glyph glyph-name="oslash" unicode="&#xf8;" horiz-adv-x="574" 
d="M537 470c5.33301 -5.33301 4.66602 -11.999 -2.00098 -19.999l-55 -53c36.667 -46 55 -99.667 55 -161c0 -70 -22 -128.5 -66 -175.5s-100.667 -70.5 -170 -70.5s-128.333 21.667 -177 65l-60 -58c-5.33301 -4.66699 -10.333 -4.66699 -15 0l-14 13
c-5.33301 5.33301 -4.33301 11.333 3 18l58 56c-37.333 46.667 -56 101 -56 163c0 69.333 23.333 127.166 70 173.499s104.334 69.5 173.001 69.5c67.333 0 124 -21 170 -63l54 52c7.33301 7.33301 14.333 8 21 2zM126 275.001c0 -47.333 9.33301 -91.667 28 -133l246 236
c-33.333 52.667 -76.666 79 -129.999 79c-42.667 0 -77.334 -16.5 -104.001 -49.5s-40 -77.167 -40 -132.5zM446 206c0 50.667 -8.66602 95.334 -25.999 134.001l-245 -235c36 -54.667 81.333 -82 136 -82c39.333 0 71.666 16.667 96.999 50s38 77.666 38 132.999z" />
    <glyph glyph-name="ugrave" unicode="&#xf9;" horiz-adv-x="565" 
d="M173 640c-16.667 5.33301 -21.001 16 -13.001 32l16 32c8.66699 16 20.667 18.333 36 7l176 -126c8.66699 -7.33301 10.334 -15.333 5.00098 -24c-4.66699 -8 -13 -10.333 -25 -7zM485.999 86c0 -16.667 3 -29.334 9 -38.001s12.333 -13.5 19 -14.5s13 -2.83301 19 -5.5
s9 -7 9 -13c0 -14 -20.667 -21 -62 -21c-50.667 0 -75 24.667 -73 74l-2 6c-30.667 -56 -82 -84 -154 -84c-56 0 -100.833 19.833 -134.5 59.5s-50.5 95.834 -50.5 168.501v177c0 14.667 -6.16699 27 -18.5 37s-18.5 17 -18.5 21v3c0 8 5 13 15 15l84 15
c18 3.33301 27 -0.666992 27 -12l-1 -263c0 -58 10.167 -102.833 30.5 -134.5s49.5 -47.5 87.5 -47.5c36 0 66.167 14 90.5 42s36.5 64.667 36.5 110v214c0 14 -6.5 26 -19.5 36s-19.5 17.333 -19.5 22v3c0 8 5 13 15 15l85 15c17.333 3.33301 26 -0.666992 26 -12v-388z
" />
    <glyph glyph-name="uacute" unicode="&#xfa;" horiz-adv-x="565" 
d="M197 557c-12 -3.33301 -20.667 -1 -26 7c-4.66699 8.66699 -2.66699 16.667 6 24l176 126c15.333 11.333 27.333 9 36 -7l16 -32c3.33301 -6.66699 3.83301 -13 1.5 -19s-7.5 -10.333 -15.5 -13zM486 86c0 -16.667 3 -29.334 9 -38.001s12.333 -13.5 19 -14.5
s13 -2.83301 19 -5.5s9 -7 9 -13c0 -14 -20.667 -21 -62 -21c-50.667 0 -75 24.667 -73 74l-2 6c-30.667 -56 -82 -84 -154 -84c-56 0 -100.833 19.833 -134.5 59.5s-50.5 95.834 -50.5 168.501v177c0 14.667 -6.16699 27 -18.5 37s-18.5 17 -18.5 21v3c0 8 5 13 15 15
l84 15c18 3.33301 27 -0.666992 27 -12l-1 -263c0 -58 10.167 -102.833 30.5 -134.5s49.5 -47.5 87.5 -47.5c36 0 66.167 14 90.5 42s36.5 64.667 36.5 110v214c0 14 -6.5 26 -19.5 36s-19.5 17.333 -19.5 22v3c0 8 5 13 15 15l85 15c17.333 3.33301 26 -0.666992 26 -12
v-388z" />
    <glyph glyph-name="ucircumflex" unicode="&#xfb;" horiz-adv-x="565" 
d="M152 557c-10 -5.33301 -18.667 -4.16895 -26 3.49805s-6 16.167 4 25.5l110 101c8.66699 8.66699 18.667 13 30 13h18c10 0 20.333 -4.33301 31 -13l114 -101c10 -9.33301 11.833 -18.166 5.5 -26.499s-15.833 -9.16602 -28.5 -2.49902l-133 78zM486 85.9971
c0 -16.667 3 -29.334 9 -38.001s12.333 -13.5 19 -14.5s13 -2.83301 19 -5.5s9 -7 9 -13c0 -14 -20.667 -21 -62 -21c-50.667 0 -75 24.667 -73 74l-2 6c-30.667 -56 -82 -84 -154 -84c-56 0 -100.833 19.833 -134.5 59.5s-50.5 95.834 -50.5 168.501v177
c0 14.667 -6.16699 27 -18.5 37s-18.5 17 -18.5 21v3c0 8 5 13 15 15l84 15c18 3.33301 27 -0.666992 27 -12l-1 -263c0 -58 10.167 -102.833 30.5 -134.5s49.5 -47.5 87.5 -47.5c36 0 66.167 14 90.5 42s36.5 64.667 36.5 110v214c0 14 -6.5 26 -19.5 36
s-19.5 17.333 -19.5 22v3c0 8 5 13 15 15l85 15c17.333 3.33301 26 -0.666992 26 -12v-388z" />
    <glyph glyph-name="udieresis" unicode="&#xfc;" horiz-adv-x="565" 
d="M187 577c-18 0 -32.833 5.5 -44.5 16.5s-17.5 24.833 -17.5 41.5s5.83301 30.5 17.5 41.5s26.5 16.5 44.5 16.5s32.5 -5.33301 43.5 -16s16.5 -24.667 16.5 -42s-5.5 -31.333 -16.5 -42s-25.5 -16 -43.5 -16zM378 577c-18.667 0 -33.5 5.33301 -44.5 16
s-16.5 24.667 -16.5 42s5.5 31.333 16.5 42s25.833 16 44.5 16c17.333 0 31.833 -5.5 43.5 -16.5s17.5 -24.833 17.5 -41.5s-5.83301 -30.5 -17.5 -41.5s-26.167 -16.5 -43.5 -16.5zM486 86c0 -16.667 3 -29.334 9 -38.001s12.333 -13.5 19 -14.5s13 -2.83301 19 -5.5
s9 -7 9 -13c0 -14 -20.667 -21 -62 -21c-50.667 0 -75 24.667 -73 74l-2 6c-30.667 -56 -82 -84 -154 -84c-56 0 -100.833 19.833 -134.5 59.5s-50.5 95.834 -50.5 168.501v177c0 14.667 -6.16699 27 -18.5 37s-18.5 17 -18.5 21v3c0 8 5 13 15 15l84 15
c18 3.33301 27 -0.666992 27 -12l-1 -263c0 -58 10.167 -102.833 30.5 -134.5s49.5 -47.5 87.5 -47.5c36 0 66.167 14 90.5 42s36.5 64.667 36.5 110v214c0 14 -6.5 26 -19.5 36s-19.5 17.333 -19.5 22v3c0 8 5 13 15 15l85 15c17.333 3.33301 26 -0.666992 26 -12v-388z
" />
    <glyph glyph-name="yacute" unicode="&#xfd;" horiz-adv-x="522" 
d="M193 557c-11.333 -3.33301 -19.667 -1 -25 7c-4.66699 8 -3 16 5 24l177 126c14.667 11.333 26.667 9 36 -7l15 -32c4 -6.66699 4.66699 -13 2 -19s-7.66699 -10.333 -15 -13zM506.999 480c9.33301 0 14 -4 14 -12v-3c0 -6 -5.83301 -14 -17.5 -24
s-20.834 -22.667 -27.501 -38l-189 -417c-11.333 -26 -19.666 -44.5 -24.999 -55.5s-14.5 -27.833 -27.5 -50.5s-24.833 -39.167 -35.5 -49.5s-24.5 -20 -41.5 -29s-34.833 -13.5 -53.5 -13.5c-35.333 0 -64.666 9.5 -87.999 28.5s-35 39.167 -35 60.5
c0 12 3.33301 21.667 10 29s16 11 28 11c11.333 0 21 -4.83301 29 -14.5s13.833 -20.5 17.5 -32.5s10 -22.833 19 -32.5s20.5 -14.5 34.5 -14.5c39.333 0 80 52.667 122 158l-192 423c-7.33301 14.667 -17.166 27 -29.499 37s-18.5 18 -18.5 24v3c0 8 5 12 15 12h130
c9.33301 0 14 -4 14 -12v-3c0 -4.66699 -2.83301 -9.83398 -8.5 -15.501s-9.83398 -11 -12.501 -16s-1.33398 -15.167 3.99902 -30.5l144 -339l143 331c5.33301 12 6.33301 21.833 3 29.5s-8 13.334 -14 17.001l-18 11.5c-6 4 -9 8 -9 12v3c0 8 5 12 15 12h100z" />
    <glyph glyph-name="thorn" unicode="&#xfe;" horiz-adv-x="562" 
d="M296 490c64 0 118.501 -22.667 163.501 -68s67.5 -103.333 67.5 -174c0 -73.333 -22.167 -134.666 -66.5 -183.999s-98.833 -74 -163.5 -74c-60.667 0 -109.334 23 -146.001 69v-215c0 -13.333 6.66699 -24.666 20 -33.999s20 -16.666 20 -21.999v-3
c0 -8.66699 -6.66699 -13 -20 -13h-124c-13.333 0 -20 4.33301 -20 13v3c0 5.33301 6.16699 12.666 18.5 21.999s18.5 20.666 18.5 33.999v788c0 12.667 -6.66699 23.667 -20 33s-20 16.666 -20 21.999v4c0 7.33301 5.33301 13 16 17l82 39c20 10.667 30 6 30 -14v-308
c34 43.333 82 65 144 65zM285.001 23c47.333 0 84.834 18.168 112.501 54.501s41.5 85.166 41.5 146.499c0 68 -15.333 124 -46 168s-70.334 66 -119.001 66c-30 0 -57.167 -11 -81.5 -33s-37.833 -49 -40.5 -81l-1 -178c2.66699 -38.667 17.667 -72.167 45 -100.5
s57 -42.5 89 -42.5z" />
    <glyph glyph-name="ydieresis" unicode="&#xff;" horiz-adv-x="522" 
d="M184 577c-18.667 0 -33.834 5.33301 -45.501 16s-17.5 24.667 -17.5 42s5.83301 31.333 17.5 42s26.834 16 45.501 16c18 0 32.5 -5.33301 43.5 -16s16.5 -24.667 16.5 -42s-5.5 -31.333 -16.5 -42s-25.5 -16 -43.5 -16zM374 577c-18.667 0 -33.5 5.33301 -44.5 16
s-16.5 24.667 -16.5 42s5.5 31.333 16.5 42s25.833 16 44.5 16c18 0 32.667 -5.33301 44 -16s17 -24.667 17 -42s-5.66699 -31.333 -17 -42s-26 -16 -44 -16zM507 480c9.33301 0 14 -4 14 -12v-3c0 -6 -5.83301 -14 -17.5 -24s-20.834 -22.667 -27.501 -38l-189 -417
c-11.333 -26 -19.666 -44.5 -24.999 -55.5s-14.5 -27.833 -27.5 -50.5s-24.833 -39.167 -35.5 -49.5s-24.5 -20 -41.5 -29s-34.833 -13.5 -53.5 -13.5c-35.333 0 -64.666 9.5 -87.999 28.5s-35 39.167 -35 60.5c0 12 3.33301 21.667 10 29s16 11 28 11
c11.333 0 21 -4.83301 29 -14.5s13.833 -20.5 17.5 -32.5s10 -22.833 19 -32.5s20.5 -14.5 34.5 -14.5c39.333 0 80 52.667 122 158l-192 423c-7.33301 14.667 -17.166 27 -29.499 37s-18.5 18 -18.5 24v3c0 8 5 12 15 12h130c9.33301 0 14 -4 14 -12v-3
c0 -4.66699 -2.83301 -9.83398 -8.5 -15.501s-9.83398 -11 -12.501 -16s-1.33398 -15.167 3.99902 -30.5l144 -339l143 331c5.33301 12 6.33301 21.833 3 29.5s-8 13.334 -14 17.001l-18 11.5c-6 4 -9 8 -9 12v3c0 8 5 12 15 12h100z" />
    <glyph glyph-name="Amacron" unicode="&#x100;" horiz-adv-x="669" 
d="M194 811c-11.333 0 -17 5 -17 15v28c0 10 5.66699 15 17 15h263c11.333 0 17 -5 17 -15v-28c0 -10 -5.66699 -15 -17 -15h-263zM621 70c6 -13.333 15.5 -24.498 28.5 -33.498s19.5 -16.5 19.5 -22.5v-2c0 -8 -6.33301 -12 -19 -12h-141c-12.667 0 -19 4 -19 12v2
c0 4 2.33301 8 7 12s9.5 7.33301 14.5 10s9.16699 7 12.5 13s3.33301 13 0 21l-48 118h-324l-44 -118c-3.33301 -8 -3.5 -15 -0.5 -21s7 -10.333 12 -13s10 -6 15 -10s7.5 -8 7.5 -12v-2c0 -8 -7 -12 -21 -12h-95c-13.333 0 -20 4 -20 12v2c0 5.33301 6.5 12.5 19.5 21.5
s22.167 20.5 27.5 34.5l222 567c4.66699 11.333 0.666992 23.166 -12 35.499s-19 20.166 -19 23.499v3c0 7.33301 4.66699 11 14 11h58c22 0 37.667 -11 47 -33zM169 231.002h290l-150 371z" />
    <glyph glyph-name="amacron" unicode="&#x101;" horiz-adv-x="506" 
d="M96 604c-12 0 -18 5.33301 -18 16v28c0 10 6 15 18 15h262c12 0 18 -5 18 -15v-28c0 -10.667 -6 -16 -18 -16h-262zM448 80c1.33301 -14 5.00098 -24.8311 11.001 -32.498s12.333 -12.334 19 -14.001s12.667 -3.83398 18 -6.50098s8 -6.66699 8 -12
c0 -14 -21.333 -21 -64 -21c-24 0 -41.667 4.5 -53 13.5s-18 26.5 -20 52.5c-25.333 -46.667 -73.333 -70 -144 -70c-56 0 -101 13.333 -135 40s-51 63.667 -51 111c-0.666992 46.667 16.166 83 50.499 109s78.5 39 132.5 39c53.333 0 94.333 -13.333 123 -40l-2 27
c-6 61.333 -18.333 107 -37 137s-47.334 45 -86.001 45c-23.333 0 -42.666 -6 -57.999 -18s-25.833 -25 -31.5 -39s-12.5 -27 -20.5 -39s-17.333 -18 -28 -18c-12 0 -21.5 3.33301 -28.5 10s-10.5 15.667 -10.5 27c0 28 16.5 53.167 49.5 75.5s75.5 33.5 127.5 33.5
c60.667 0 109.167 -18.5 145.5 -55.5s57.833 -88.833 64.5 -155.5zM245.001 22.002c32.667 0 59.334 10.5 80.001 31.5s30.334 47.167 29.001 78.5l-4 45c-5.33301 24 -17.833 43.333 -37.5 58s-43.834 22 -72.501 22c-34 0 -61.667 -9.66699 -83 -29s-32 -44.333 -32 -75
c0 -37.333 11.167 -68.5 33.5 -93.5s51.166 -37.5 86.499 -37.5z" />
    <glyph glyph-name="Abreve" unicode="&#x102;" horiz-adv-x="669" 
d="M326 777c-40.667 0 -75.168 11.833 -103.501 35.5s-45.166 52.5 -50.499 86.5c-2 11.333 2.5 18.5 13.5 21.5s18.167 0.5 21.5 -7.5c7.33301 -22.667 22 -40.834 44 -54.501s47 -20.5 75 -20.5s53.167 6.83301 75.5 20.5s37.166 31.834 44.499 54.501
c3.33301 7.33301 10.333 9.5 21 6.5s15.334 -9.83301 14.001 -20.5c-4.66699 -34 -21.167 -62.833 -49.5 -86.5s-63.5 -35.5 -105.5 -35.5zM620.999 70c6 -13.333 15.5 -24.498 28.5 -33.498s19.5 -16.5 19.5 -22.5v-2c0 -8 -6.33301 -12 -19 -12h-141
c-12.667 0 -19 4 -19 12v2c0 4 2.33301 8 7 12s9.5 7.33301 14.5 10s9.16699 7 12.5 13s3.33301 13 0 21l-48 118h-324l-44 -118c-3.33301 -8 -3.5 -15 -0.5 -21s7 -10.333 12 -13s10 -6 15 -10s7.5 -8 7.5 -12v-2c0 -8 -7 -12 -21 -12h-95c-13.333 0 -20 4 -20 12v2
c0 5.33301 6.5 12.5 19.5 21.5s22.167 20.5 27.5 34.5l222 567c4.66699 11.333 0.666992 23.166 -12 35.499s-19 20.166 -19 23.499v3c0 7.33301 4.66699 11 14 11h58c22 0 37.667 -11 47 -33zM168.999 231.002h290l-150 371z" />
    <glyph glyph-name="abreve" unicode="&#x103;" horiz-adv-x="506" 
d="M227 566c-40.667 0 -75.168 11.835 -103.501 35.502s-45.166 52.5 -50.499 86.5c-2 10.667 2.5 17.5 13.5 20.5s18.167 0.5 21.5 -7.5c6.66699 -22 21.167 -39.833 43.5 -53.5s47.5 -20.5 75.5 -20.5s53.167 6.83301 75.5 20.5s37.166 31.5 44.499 53.5
c3.33301 7.33301 10.333 9.66602 21 6.99902s15.334 -9.33398 14.001 -20.001c-4.66699 -34 -21.167 -62.833 -49.5 -86.5s-63.5 -35.5 -105.5 -35.5zM447.999 80.002c1.33301 -14 5.00098 -24.8311 11.001 -32.498s12.333 -12.334 19 -14.001s12.667 -3.83398 18 -6.50098
s8 -6.66699 8 -12c0 -14 -21.333 -21 -64 -21c-24 0 -41.667 4.5 -53 13.5s-18 26.5 -20 52.5c-25.333 -46.667 -73.333 -70 -144 -70c-56 0 -101 13.333 -135 40s-51 63.667 -51 111c-0.666992 46.667 16.166 83 50.499 109s78.5 39 132.5 39
c53.333 0 94.333 -13.333 123 -40l-2 27c-6 61.333 -18.333 107 -37 137s-47.334 45 -86.001 45c-23.333 0 -42.666 -6 -57.999 -18s-25.833 -25 -31.5 -39s-12.5 -27 -20.5 -39s-17.333 -18 -28 -18c-12 0 -21.5 3.33301 -28.5 10s-10.5 15.667 -10.5 27
c0 28 16.5 53.167 49.5 75.5s75.5 33.5 127.5 33.5c60.667 0 109.167 -18.5 145.5 -55.5s57.833 -88.833 64.5 -155.5zM245 22.0039c32.667 0 59.334 10.5 80.001 31.5s30.334 47.167 29.001 78.5l-4 45c-5.33301 24 -17.833 43.333 -37.5 58s-43.834 22 -72.501 22
c-34 0 -61.667 -9.66699 -83 -29s-32 -44.333 -32 -75c0 -37.333 11.167 -68.5 33.5 -93.5s51.166 -37.5 86.499 -37.5z" />
    <glyph glyph-name="Aogonek" unicode="&#x104;" horiz-adv-x="669" 
d="M621 70c6 -13.333 15.499 -24.498 28.499 -33.498s19.5 -16.5 19.5 -22.5v-2c0 -8 -6.33301 -12 -19 -12h-41c-46.667 -43.333 -70 -84 -70 -122c0 -16 3.66699 -28.167 11 -36.5s17 -12.5 29 -12.5c6.66699 0 15.667 1.66699 27 5c9.33301 4 15.333 0.666992 18 -10
c2 -12.667 -1.66699 -21.334 -11 -26.001c-11.333 -7.33301 -27 -11 -47 -11c-25.333 0 -47.166 6.83301 -65.499 20.5s-27.5 33.167 -27.5 58.5c0 23.333 9.33301 46.833 28 70.5s42.667 44.834 72 63.501h-64c-12.667 0 -19 4 -19 12v2c0 4 2.33301 8 7 12
s9.5 7.33301 14.5 10s9.16699 7 12.5 13s3.33301 13 0 21l-48 118h-324l-44 -118c-3.33301 -8 -3.5 -15 -0.5 -21s7 -10.333 12 -13s10 -6 15 -10s7.5 -8 7.5 -12v-2c0 -8 -7 -12 -21 -12h-95c-13.333 0 -20 4 -20 12v2c0 5.33301 6.5 12.5 19.5 21.5s22.167 20.5 27.5 34.5
l222 567c4.66699 11.333 0.666992 23.166 -12 35.499s-19 20.166 -19 23.499v3c0 7.33301 4.66699 11 14 11h58c22 0 37.667 -11 47 -33zM168.999 231.002h290l-150 371z" />
    <glyph glyph-name="aogonek" unicode="&#x105;" horiz-adv-x="506" 
d="M504 15c0 -12.667 -17.998 -19.666 -53.998 -20.999c-36.667 -40 -55 -76 -55 -108c0 -15.333 3.66699 -27.333 11 -36s16.666 -13 27.999 -13c4.66699 0 13.667 2 27 6c10 4 16.333 0 19 -12c2 -12 -1.66699 -20.333 -11 -25c-13.333 -6.66699 -29.333 -10 -48 -10
c-24.667 0 -46.167 6.83301 -64.5 20.5s-27.5 32.834 -27.5 57.501c0 43.333 27 84 81 122c-26 6 -40.333 27.333 -43 64c-25.333 -46.667 -73.333 -70 -144 -70c-56 0 -101 13.333 -135 40s-51 63.667 -51 111c-0.666992 46.667 16.166 83 50.499 109s78.5 39 132.5 39
c53.333 0 94.333 -13.333 123 -40l-2 27c-6 61.333 -18.333 107 -37 137s-47.334 45 -86.001 45c-23.333 0 -42.666 -6 -57.999 -18s-25.833 -25 -31.5 -39s-12.5 -27 -20.5 -39s-17.333 -18 -28 -18c-12 0 -21.5 3.33301 -28.5 10s-10.5 15.667 -10.5 27
c0 28 16.5 53.167 49.5 75.5s75.5 33.5 127.5 33.5c60.667 0 109.167 -18.5 145.5 -55.5s57.833 -88.833 64.5 -155.5l20 -199c1.33301 -14 5 -24.833 11 -32.5s12.333 -12.334 19 -14.001s12.667 -3.83398 18 -6.50098s8 -6.66699 8 -12zM245.002 22.001
c32.667 0 59.334 10.5 80.001 31.5s30.334 47.167 29.001 78.5l-4 45c-5.33301 24 -17.833 43.333 -37.5 58s-43.834 22 -72.501 22c-34 0 -61.667 -9.66699 -83 -29s-32 -44.333 -32 -75c0 -37.333 11.167 -68.5 33.5 -93.5s51.166 -37.5 86.499 -37.5z" />
    <glyph glyph-name="Cacute" unicode="&#x106;" horiz-adv-x="678" 
d="M265 782c-12.667 -1.33301 -20.666 2.66699 -23.999 12s0 16.666 10 21.999l198 88c17.333 8 28.666 3 33.999 -15l9 -34c2 -7.33301 1.16699 -13.666 -2.5 -18.999s-9.5 -8.33301 -17.5 -9zM370.001 -10c-88.667 0 -166.998 37.3311 -234.998 111.998
s-102 161.334 -102 260.001c0 104.667 31.167 190.334 93.5 257.001s141.833 100 238.5 100c73.333 0 137.166 -20.833 191.499 -62.5s81.5 -82.5 81.5 -122.5c0 -13.333 -3.83301 -23.833 -11.5 -31.5s-18.5 -11.5 -32.5 -11.5c-13.333 0 -25.5 6.5 -36.5 19.5
s-21.833 28.5 -32.5 46.5s-22.834 36.167 -36.501 54.5s-33 34 -58 47s-54.5 19.5 -88.5 19.5c-60 0 -111.5 -25 -154.5 -75s-64.5 -113.667 -64.5 -191c0 -98 27.167 -179.5 81.5 -244.5s117.833 -97.5 190.5 -97.5c54 0 99.5 16.333 136.5 49s64.833 71.667 83.5 117
c6 10.667 14.333 14.667 25 12s14.667 -11 12 -25c-12 -64.667 -42.5 -119.667 -91.5 -165s-112.5 -68 -190.5 -68z" />
    <glyph glyph-name="cacute" unicode="&#x107;" horiz-adv-x="502" 
d="M180 557c-12 -3.33301 -20.666 -1 -25.999 7c-4.66699 8.66699 -2.66699 16.667 6 24l176 126c15.333 11.333 27.666 9 36.999 -7l15 -32c3.33301 -6.66699 3.83301 -13 1.5 -19s-7.5 -10.333 -15.5 -13zM279.001 -10c-70 0 -129.17 24.168 -177.503 72.501
s-72.5 108.5 -72.5 180.5c0 73.333 23.5 132.666 70.5 177.999s105.5 68.333 175.5 69c52 0.666992 97.5 -12.5 136.5 -39.5s58.5 -55.167 58.5 -84.5c0 -24 -13.333 -35.667 -40 -35c-12.667 0.666992 -24.5 7.5 -35.5 20.5s-20.667 27.333 -29 43
s-21.666 30.167 -39.999 43.5s-40.5 20 -66.5 20c-41.333 0 -75.333 -16.833 -102 -50.5s-40 -75.5 -40 -125.5c0 -69.333 17.667 -124.833 53 -166.5s81 -62.5 137 -62.5c32.667 0 60.834 8.83301 84.501 26.5s41.834 40.167 54.501 67.5c4 8 10.333 11 19 9
s12 -7.66699 10 -17c-8 -40.667 -29.167 -75.667 -63.5 -105s-78.5 -44 -132.5 -44z" />
    <glyph glyph-name="Cdotaccent" unicode="&#x10a;" horiz-adv-x="678" 
d="M352 776c-20 0 -35.833 5.5 -47.5 16.5s-17.5 25.5 -17.5 43.5s5.83301 32.667 17.5 44s27.5 17 47.5 17c18.667 0 33.667 -5.66699 45 -17s17 -26 17 -44s-5.66699 -32.5 -17 -43.5s-26.333 -16.5 -45 -16.5zM370 -10c-88.667 0 -166.998 37.3311 -234.998 111.998
s-102 161.334 -102 260.001c0 104.667 31.167 190.334 93.5 257.001s141.833 100 238.5 100c73.333 0 137.166 -20.833 191.499 -62.5s81.5 -82.5 81.5 -122.5c0 -13.333 -3.83301 -23.833 -11.5 -31.5s-18.5 -11.5 -32.5 -11.5c-13.333 0 -25.5 6.5 -36.5 19.5
s-21.833 28.5 -32.5 46.5s-22.834 36.167 -36.501 54.5s-33 34 -58 47s-54.5 19.5 -88.5 19.5c-60 0 -111.5 -25 -154.5 -75s-64.5 -113.667 -64.5 -191c0 -98 27.167 -179.5 81.5 -244.5s117.833 -97.5 190.5 -97.5c54 0 99.5 16.333 136.5 49s64.833 71.667 83.5 117
c6 10.667 14.333 14.667 25 12s14.667 -11 12 -25c-12 -64.667 -42.5 -119.667 -91.5 -165s-112.5 -68 -190.5 -68z" />
    <glyph glyph-name="cdotaccent" unicode="&#x10b;" horiz-adv-x="502" 
d="M264 575c-20.667 0 -37.167 5.66699 -49.5 17s-18.5 26.333 -18.5 45s6.16699 33.834 18.5 45.501s28.833 17.5 49.5 17.5c19.333 0 35 -5.83301 47 -17.5s18 -26.834 18 -45.501s-6 -33.667 -18 -45s-27.667 -17 -47 -17zM279 -10c-70 0 -129.17 24.168 -177.503 72.501
s-72.5 108.5 -72.5 180.5c0 73.333 23.5 132.666 70.5 177.999s105.5 68.333 175.5 69c52 0.666992 97.5 -12.5 136.5 -39.5s58.5 -55.167 58.5 -84.5c0 -24 -13.333 -35.667 -40 -35c-12.667 0.666992 -24.5 7.5 -35.5 20.5s-20.667 27.333 -29 43
s-21.666 30.167 -39.999 43.5s-40.5 20 -66.5 20c-41.333 0 -75.333 -16.833 -102 -50.5s-40 -75.5 -40 -125.5c0 -69.333 17.667 -124.833 53 -166.5s81 -62.5 137 -62.5c32.667 0 60.834 8.83301 84.501 26.5s41.834 40.167 54.501 67.5c4 8 10.333 11 19 9
s12 -7.66699 10 -17c-8 -40.667 -29.167 -75.667 -63.5 -105s-78.5 -44 -132.5 -44z" />
    <glyph glyph-name="Ccaron" unicode="&#x10c;" horiz-adv-x="678" 
d="M334 761l-113.999 106c-4.66699 4.66699 -5.83398 9.66699 -3.50098 15s6.33301 8.83301 12 10.5s11.167 1.16699 16.5 -1.5l131 -84l131 84c6 3.33301 12 3.83301 18 1.5s9.66699 -6 11 -11s0 -9.83301 -4 -14.5l-117 -106c-9.33301 -8.66699 -19.333 -13 -30 -13h-21
c-10.667 0 -20.667 4.33301 -30 13zM615.001 236c6 10.667 14.335 14.665 25.002 11.998s14.667 -11 12 -25c-12 -64.667 -42.5 -119.667 -91.5 -165s-112.5 -68 -190.5 -68c-88.667 0 -167 37.333 -235 112s-102 161.334 -102 260.001
c0 104.667 31.167 190.334 93.5 257.001s141.833 100 238.5 100c73.333 0 137.166 -20.833 191.499 -62.5s81.5 -82.5 81.5 -122.5c0 -13.333 -3.83301 -23.833 -11.5 -31.5s-18.5 -11.5 -32.5 -11.5c-13.333 0 -25.5 6.5 -36.5 19.5s-21.833 28.5 -32.5 46.5
s-22.834 36.167 -36.501 54.5s-33 34 -58 47s-54.5 19.5 -88.5 19.5c-60 0 -111.5 -25 -154.5 -75s-64.5 -113.667 -64.5 -191c0 -98 27.167 -179.5 81.5 -244.5s117.833 -97.5 190.5 -97.5c54 0 99.5 16.333 136.5 49s64.833 71.667 83.5 117z" />
    <glyph glyph-name="ccaron" unicode="&#x10d;" horiz-adv-x="502" 
d="M222 569l-113.997 109c-4.66699 4.66699 -5.83398 9.66699 -3.50098 15s6.33301 8.83301 12 10.5s11.167 1.16699 16.5 -1.5l131 -87l131 87c5.33301 4 11.166 4.66699 17.499 2s10.166 -6.5 11.499 -11.5s0 -9.83301 -4 -14.5l-117 -109
c-9.33301 -9.33301 -19.333 -14 -30 -14h-21c-10.667 0 -20.667 4.66699 -30 14zM446.003 147c4 8 10.3301 11.001 18.9971 9.00098s12 -7.66699 10 -17c-8 -40.667 -29.167 -75.667 -63.5 -105s-78.5 -44 -132.5 -44c-70 0 -129.167 24.167 -177.5 72.5
s-72.5 108.5 -72.5 180.5c0 73.333 23.5 132.666 70.5 177.999s105.5 68.333 175.5 69c52 0.666992 97.5 -12.5 136.5 -39.5s58.5 -55.167 58.5 -84.5c0 -24 -13.333 -35.667 -40 -35c-12.667 0.666992 -24.5 7.5 -35.5 20.5s-20.667 27.333 -29 43
s-21.666 30.167 -39.999 43.5s-40.5 20 -66.5 20c-41.333 0 -75.333 -16.833 -102 -50.5s-40 -75.5 -40 -125.5c0 -69.333 17.667 -124.833 53 -166.5s81 -62.5 137 -62.5c32.667 0 60.834 8.83301 84.501 26.5s41.834 40.167 54.501 67.5z" />
    <glyph glyph-name="Dcaron" unicode="&#x10e;" horiz-adv-x="742" 
d="M196 867c-5.33301 4.66699 -6.83301 9.66699 -4.5 15s6.33301 8.83301 12 10.5s11.5 1.16699 17.5 -1.5l131 -84l131 84c6 3.33301 12 3.83301 18 1.5s9.66699 -6 11 -11s0 -9.83301 -4 -14.5l-117 -106c-9.33301 -8.66699 -19.333 -13 -30 -13h-21
c-10.667 0 -20.667 4.33301 -30 13zM299 710c112.667 0 208.167 -32.502 286.5 -97.502s117.5 -148.833 117.5 -251.5c0 -110 -34.833 -197.667 -104.5 -263s-157.5 -98 -263.5 -98h-255c-14 0 -21 4 -21 12v2c0 5.33301 6.16699 12.833 18.5 22.5s18.5 20.834 18.5 33.501
v570c0 13.333 -6.16699 24.833 -18.5 34.5s-18.5 16.834 -18.5 21.501v2c0 8 7 12 21 12h219zM329 40.998c80 0 146.833 25.832 200.5 77.499s80.5 121.834 80.5 210.501c0 100.667 -32.5 182.5 -97.5 245.5s-141.5 94.5 -229.5 94.5h-70c-18.667 0 -28 -10.667 -28 -32
v-541c0 -17.333 4.16699 -30.833 12.5 -40.5s19.833 -14.5 34.5 -14.5h97z" />
    <glyph glyph-name="dcaron" unicode="&#x10f;" horiz-adv-x="586" 
d="M645 802c11.333 0 17.001 -6.66797 17.001 -20.001c0 -89.333 -31.667 -161.666 -95 -216.999c-10 -8.66699 -18.667 -10 -26 -4l-5 4c-6.66699 6 -6.33398 14.667 0.999023 26c39.333 53.333 59 117 59 191c0 13.333 5.33301 20 16 20h33zM498.001 69.999
c0 -13.333 6.16504 -25.002 18.498 -35.002s18.5 -17 18.5 -21v-3c0 -7.33301 -5 -11 -15 -11h-84c-10 0 -15.667 5.33301 -17 16l-2 50c-16.667 -24.667 -38.5 -43.5 -65.5 -56.5s-55.833 -19.5 -86.5 -19.5c-63.333 0 -117.666 23.333 -162.999 70s-68 107 -68 181
c0 72.667 22.333 132.334 67 179.001s100.334 70 167.001 70c58.667 0 107 -21.667 145 -65v218c0 12 -3.5 21.667 -10.5 29s-14 13 -21 17s-10.5 8.33301 -10.5 13v2c0 6.66699 5 12.334 15 17.001l81 27c20.667 8 31 3 31 -15v-663zM285.999 22.9971
c32 0 61.168 12.833 87.501 38.5s39.5 60.834 39.5 105.501h1l-1 51v100c0 34 -14.5 65.833 -43.5 95.5s-63.167 44.5 -102.5 44.5c-43.333 0 -78.5 -17.167 -105.5 -51.5s-40.833 -79.5 -41.5 -135.5c-1.33301 -69.333 13.667 -127.833 45 -175.5
s71.666 -71.834 120.999 -72.501z" />
    <glyph glyph-name="Dcroat" unicode="&#x110;" horiz-adv-x="745" 
d="M302 710c112.667 0 208.167 -32.502 286.5 -97.502s117.5 -148.833 117.5 -251.5c0 -110 -34.833 -197.667 -104.5 -263s-157.5 -98 -263.5 -98h-255c-14 0 -21 4 -21 12v2c0 5.33301 6.16699 12.833 18.5 22.5s18.5 20.834 18.5 33.501v269h-55c-10 0 -15 4 -15 12v16
c0 8 5 12 15 12h55v261c0 13.333 -6.16699 24.833 -18.5 34.5s-18.5 16.834 -18.5 21.501v2c0 8 7 12 21 12h219zM332 40.998c80 0 146.833 25.832 200.5 77.499s80.5 121.834 80.5 210.501c0 100.667 -32.5 182.5 -97.5 245.5s-141.5 94.5 -229.5 94.5h-70
c-18.667 0 -28 -10.667 -28 -32v-258h139c10 0 15 -4 15 -12v-15c0 -8.66699 -5 -13 -15 -13h-139v-243c0 -17.333 4.16699 -30.833 12.5 -40.5s19.833 -14.5 34.5 -14.5h97z" />
    <glyph glyph-name="dcroat" unicode="&#x111;" horiz-adv-x="568" 
d="M559 585c10 0 14.998 -4.00195 14.998 -12.002v-15c0 -8.66699 -5 -13 -15 -13h-61v-475c0 -13.333 6.16699 -25 18.5 -35s18.5 -17 18.5 -21v-3c0 -7.33301 -5 -11 -15 -11h-84c-10 0 -15.667 5.33301 -17 16l-2 50c-16.667 -24.667 -38.5 -43.5 -65.5 -56.5
s-55.833 -19.5 -86.5 -19.5c-63.333 0 -117.666 23.333 -162.999 70s-68 107 -68 181c0 72.667 22.333 132.334 67 179.001s100.334 70 167.001 70c58.667 0 107 -21.667 145 -65v120h-138c-9.33301 0 -14 4 -14 12v16c0 8 4.66699 12 14 12h138v58
c0 12 -3.5 21.667 -10.5 29s-14 13 -21 17s-10.5 8.33301 -10.5 13v2c0 6.66699 5 12.334 15 17.001l81 27c20.667 8 31 3 31 -15v-148h61zM285.998 22.998c32 0 61.168 12.833 87.501 38.5s39.5 60.834 39.5 105.501h1l-1 51v100c0 34 -14.5 65.833 -43.5 95.5
s-63.167 44.5 -102.5 44.5c-43.333 0 -78.5 -17.167 -105.5 -51.5s-40.833 -79.5 -41.5 -135.5c-1.33301 -69.333 13.667 -127.833 45 -175.5s71.666 -71.834 120.999 -72.501z" />
    <glyph glyph-name="Emacron" unicode="&#x112;" 
d="M169 811c-11.333 0 -17 5 -17 15v28c0 10 5.66699 15 17 15h263c12 0 18 -5 18 -15v-28c0 -10 -6 -15 -18 -15h-263zM80 0c-14 0 -20.9971 3.99902 -20.9971 11.999v2c0 4.66699 6.16699 11.834 18.5 21.501s18.5 21.5 18.5 35.5v568c0 10.667 -3 19.5 -9 26.5
s-12.167 12.667 -18.5 17s-9.5 8.83301 -9.5 13.5v3c0 7.33301 6 11 18 11h424c13.333 0 21.666 -7.33301 24.999 -22l24 -99c2.66699 -13.333 -1.33301 -20 -12 -20h-5c-6.66699 0 -14.167 5.16699 -22.5 15.5s-16 21.833 -23 34.5s-16 24.167 -27 34.5
s-22.5 15.5 -34.5 15.5h-212c-18.667 0 -28 -11.333 -28 -34v-251h182c8.66699 0 16 3 22 9s10.5 12.833 13.5 20.5s6.33301 14.5 10 20.5s7.83398 9 12.501 9h4c8.66699 0 13 -5.66699 13 -17v-123c0 -11.333 -4.33301 -17 -13 -17h-4c-4.66699 0 -8.83398 3 -12.501 9
s-7 12.5 -10 19.5s-7.5 13.5 -13.5 19.5s-13.333 9 -22 9h-182l-1 -259c0 -12 3.16699 -22.167 9.5 -30.5s15.5 -12.5 27.5 -12.5h235c12 0 23.333 5.33301 34 16s19.167 22.5 25.5 35.5s13.666 24.833 21.999 35.5s16.166 16 23.499 16h6c4.66699 0 8.16699 -2 10.5 -6
s2.83301 -8.66699 1.5 -14l-24 -101c-3.33301 -15.333 -12 -23 -26 -23h-450z" />
    <glyph glyph-name="emacron" unicode="&#x113;" horiz-adv-x="495" 
d="M117 604c-12 0 -18 5.33301 -18 16v28c0 10 6 15 18 15h262c12 0 18 -5 18 -15v-28c0 -10.667 -6 -16 -18 -16h-262zM440 141c4.66699 7.33301 10.9961 10.167 18.9961 8.5s11.333 -7.16699 10 -16.5c-7.33301 -35.333 -28.666 -68 -63.999 -98s-81.666 -45 -138.999 -45
c-66 0 -121.167 23.333 -165.5 70s-66.5 108 -66.5 184c0 70 22.667 128.5 68 175.5s101.333 70.5 168 70.5c56.667 0 101.834 -15.167 135.501 -45.5s50.5 -64.5 50.5 -102.5c0 -28.667 -15.667 -48.334 -47 -59.001l-277 -91c11.333 -43.333 31.5 -77.166 60.5 -101.499
s63.833 -36.5 104.5 -36.5c68.667 0 116.334 29 143.001 87zM254.996 458.001c-40 0 -72.333 -17.334 -97 -52.001s-37 -78 -37 -130c0 -20 1.33301 -37 4 -51l223 80c16 6.66699 24 18.334 24 35.001c0 25.333 -11.5 51.333 -34.5 78s-50.5 40 -82.5 40z" />
    <glyph glyph-name="Edotaccent" unicode="&#x116;" 
d="M305 776c-19.333 0 -35 5.5 -47 16.5s-18 25.5 -18 43.5s6 32.667 18 44s27.667 17 47 17c18.667 0 33.834 -5.66699 45.501 -17s17.5 -26 17.5 -44s-5.83301 -32.5 -17.5 -43.5s-26.834 -16.5 -45.501 -16.5zM80 0c-14 0 -20.9971 3.99902 -20.9971 11.999v2
c0 4.66699 6.16699 11.834 18.5 21.501s18.5 21.5 18.5 35.5v568c0 10.667 -3 19.5 -9 26.5s-12.167 12.667 -18.5 17s-9.5 8.83301 -9.5 13.5v3c0 7.33301 6 11 18 11h424c13.333 0 21.666 -7.33301 24.999 -22l24 -99c2.66699 -13.333 -1.33301 -20 -12 -20h-5
c-6.66699 0 -14.167 5.16699 -22.5 15.5s-16 21.833 -23 34.5s-16 24.167 -27 34.5s-22.5 15.5 -34.5 15.5h-212c-18.667 0 -28 -11.333 -28 -34v-251h182c8.66699 0 16 3 22 9s10.5 12.833 13.5 20.5s6.33301 14.5 10 20.5s7.83398 9 12.501 9h4
c8.66699 0 13 -5.66699 13 -17v-123c0 -11.333 -4.33301 -17 -13 -17h-4c-4.66699 0 -8.83398 3 -12.501 9s-7 12.5 -10 19.5s-7.5 13.5 -13.5 19.5s-13.333 9 -22 9h-182l-1 -259c0 -12 3.16699 -22.167 9.5 -30.5s15.5 -12.5 27.5 -12.5h235c12 0 23.333 5.33301 34 16
s19.167 22.5 25.5 35.5s13.666 24.833 21.999 35.5s16.166 16 23.499 16h6c4.66699 0 8.16699 -2 10.5 -6s2.83301 -8.66699 1.5 -14l-24 -101c-3.33301 -15.333 -12 -23 -26 -23h-450z" />
    <glyph glyph-name="edotaccent" unicode="&#x117;" horiz-adv-x="495" 
d="M249 575c-20.667 0 -37.167 5.66699 -49.5 17s-18.5 26.333 -18.5 45s6.16699 33.834 18.5 45.501s28.833 17.5 49.5 17.5c19.333 0 35 -5.83301 47 -17.5s18 -26.834 18 -45.501s-6 -33.667 -18 -45s-27.667 -17 -47 -17zM440 141
c4.66699 7.33301 10.9961 10.167 18.9961 8.5s11.333 -7.16699 10 -16.5c-7.33301 -35.333 -28.666 -68 -63.999 -98s-81.666 -45 -138.999 -45c-66 0 -121.167 23.333 -165.5 70s-66.5 108 -66.5 184c0 70 22.667 128.5 68 175.5s101.333 70.5 168 70.5
c56.667 0 101.834 -15.167 135.501 -45.5s50.5 -64.5 50.5 -102.5c0 -28.667 -15.667 -48.334 -47 -59.001l-277 -91c11.333 -43.333 31.5 -77.166 60.5 -101.499s63.833 -36.5 104.5 -36.5c68.667 0 116.334 29 143.001 87zM254.996 458.001
c-40 0 -72.333 -17.334 -97 -52.001s-37 -78 -37 -130c0 -20 1.33301 -37 4 -51l223 80c16 6.66699 24 18.334 24 35.001c0 25.333 -11.5 51.333 -34.5 78s-50.5 40 -82.5 40z" />
    <glyph glyph-name="Eogonek" unicode="&#x118;" 
d="M544 3c-46.667 -43.333 -69.999 -84.001 -69.999 -122.001c0 -16 3.66699 -28.167 11 -36.5s17 -12.5 29 -12.5c8 0 17 2 27 6s16 0 18 -12c2.66699 -12.667 -1 -21 -11 -25c-11.333 -7.33301 -27 -11 -47 -11c-25.333 0 -47.166 7 -65.499 21s-27.5 33.333 -27.5 58
c0 22.667 8.83301 45.5 26.5 68.5s40.834 43.833 69.501 62.5h-424c-14 0 -21 4 -21 12v2c0 4.66699 6.16699 11.834 18.5 21.501s18.5 21.5 18.5 35.5v568c0 10.667 -3 19.5 -9 26.5s-12.167 12.667 -18.5 17s-9.5 8.83301 -9.5 13.5v3c0 7.33301 6 11 18 11h424
c13.333 0 21.666 -7.33301 24.999 -22l24 -99c2.66699 -13.333 -1.33301 -20 -12 -20h-5c-6.66699 0 -14.167 5.16699 -22.5 15.5s-16 21.833 -23 34.5s-16 24.167 -27 34.5s-22.5 15.5 -34.5 15.5h-212c-18.667 0 -28 -11.333 -28 -34v-251h182c8.66699 0 16 3 22 9
s10.5 12.833 13.5 20.5s6.33301 14.5 10 20.5s7.83398 9 12.501 9h4c8.66699 0 13 -5.66699 13 -17v-123c0 -11.333 -4.33301 -17 -13 -17h-4c-4.66699 0 -8.83398 3 -12.501 9s-7 12.5 -10 19.5s-7.5 13.5 -13.5 19.5s-13.333 9 -22 9h-182l-1 -259
c0 -12 3.16699 -22.167 9.5 -30.5s15.5 -12.5 27.5 -12.5h235c12 0 23.333 5.33301 34 16s19.167 22.5 25.5 35.5s13.666 24.833 21.999 35.5s16.166 16 23.499 16h6c4.66699 0 8.16699 -2 10.5 -6s2.83301 -8.66699 1.5 -14l-24 -101c-2 -10 -6 -16.667 -12 -20z" />
    <glyph glyph-name="eogonek" unicode="&#x119;" horiz-adv-x="495" 
d="M440 141c4.66699 7.33301 11 10.166 19 8.49902s11.333 -7.16699 10 -16.5c-4.66699 -21.333 -15.167 -43 -31.5 -65s-37.5 -39.667 -63.5 -53c-44.667 -44.667 -67 -84.667 -67 -120c0 -15.333 3.66699 -27.333 11 -36s16.666 -13 27.999 -13c8.66699 0 18 2 28 6
s16 0 18 -12s-1.66699 -20.333 -11 -25c-10.667 -6.66699 -26.667 -10 -48 -10c-24.667 0 -46.167 6.83301 -64.5 20.5s-27.5 32.834 -27.5 57.501c0 37.333 22 74 66 110c-12.667 -2 -26.334 -3 -41.001 -3c-66 0 -121.167 23.333 -165.5 70s-66.5 108 -66.5 184
c0 70 22.667 128.5 68 175.5s101.333 70.5 168 70.5c56.667 0 101.834 -15.167 135.501 -45.5s50.5 -64.5 50.5 -102.5c0 -28.667 -15.667 -48.334 -47 -59.001l-277 -91c11.333 -43.333 31.5 -77.166 60.5 -101.499s63.833 -36.5 104.5 -36.5
c68.667 0 116.334 29 143.001 87zM255 458c-40 0 -72.333 -17.334 -97 -52.001s-37 -78 -37 -130c0 -20 1.33301 -37 4 -51l223 80c16 6.66699 24 18.334 24 35.001c0 25.333 -11.5 51.333 -34.5 78s-50.5 40 -82.5 40z" />
    <glyph glyph-name="Ecaron" unicode="&#x11a;" 
d="M260 761l-114.999 106c-4.66699 4.66699 -5.83398 9.66699 -3.50098 15s6.33301 8.83301 12 10.5s11.167 1.16699 16.5 -1.5l132 -84l131 84c6 3.33301 12 3.83301 18 1.5s9.66699 -6 11 -11s0 -9.83301 -4 -14.5l-117 -106c-10.667 -8.66699 -21 -13 -31 -13h-20
c-10.667 0 -20.667 4.33301 -30 13zM568.001 144c4.66699 0 8.16992 -2.00098 10.5029 -6.00098s2.83301 -8.66699 1.5 -14l-24 -101c-3.33301 -15.333 -12 -23 -26 -23h-450c-14 0 -21 4 -21 12v2c0 4.66699 6.16699 11.834 18.5 21.501s18.5 21.5 18.5 35.5v568
c0 10.667 -3 19.5 -9 26.5s-12.167 12.667 -18.5 17s-9.5 8.83301 -9.5 13.5v3c0 7.33301 6 11 18 11h424c13.333 0 21.666 -7.33301 24.999 -22l24 -99c2.66699 -13.333 -1.33301 -20 -12 -20h-5c-6.66699 0 -14.167 5.16699 -22.5 15.5s-16 21.833 -23 34.5
s-16 24.167 -27 34.5s-22.5 15.5 -34.5 15.5h-212c-18.667 0 -28 -11.333 -28 -34v-251h182c8.66699 0 16 3 22 9s10.5 12.833 13.5 20.5s6.33301 14.5 10 20.5s7.83398 9 12.501 9h4c8.66699 0 13 -5.66699 13 -17v-123c0 -11.333 -4.33301 -17 -13 -17h-4
c-4.66699 0 -8.83398 3 -12.501 9s-7 12.5 -10 19.5s-7.5 13.5 -13.5 19.5s-13.333 9 -22 9h-182l-1 -259c0 -12 3.16699 -22.167 9.5 -30.5s15.5 -12.5 27.5 -12.5h235c12 0 23.333 5.33301 34 16s19.167 22.5 25.5 35.5s13.666 24.833 21.999 35.5s16.166 16 23.499 16h6z
" />
    <glyph glyph-name="ecaron" unicode="&#x11b;" horiz-adv-x="495" 
d="M93 678c-5.33301 4.66699 -6.83105 9.66699 -4.49805 15s6.33301 8.83301 12 10.5s11.5 1.16699 17.5 -1.5l131 -87l131 87c5.33301 4 11.166 4.66699 17.499 2s10.166 -6.5 11.499 -11.5s0 -9.83301 -4 -14.5l-117 -109c-9.33301 -9.33301 -19.333 -14 -30 -14h-21
c-10.667 0 -20.667 4.66699 -30 14zM440.002 141c4.66699 7.33301 10.9961 10.167 18.9961 8.5s11.333 -7.16699 10 -16.5c-7.33301 -35.333 -28.666 -68 -63.999 -98s-81.666 -45 -138.999 -45c-66 0 -121.167 23.333 -165.5 70s-66.5 108 -66.5 184
c0 70 22.667 128.5 68 175.5s101.333 70.5 168 70.5c56.667 0 101.834 -15.167 135.501 -45.5s50.5 -64.5 50.5 -102.5c0 -28.667 -15.667 -48.334 -47 -59.001l-277 -91c11.333 -43.333 31.5 -77.166 60.5 -101.499s63.833 -36.5 104.5 -36.5
c68.667 0 116.334 29 143.001 87zM254.998 458.001c-40 0 -72.333 -17.334 -97 -52.001s-37 -78 -37 -130c0 -20 1.33301 -37 4 -51l223 80c16 6.66699 24 18.334 24 35.001c0 25.333 -11.5 51.333 -34.5 78s-50.5 40 -82.5 40z" />
    <glyph glyph-name="Gbreve" unicode="&#x11e;" horiz-adv-x="725" 
d="M380 777c-40.667 0 -75.168 11.833 -103.501 35.5s-45.166 52.5 -50.499 86.5c-2 11.333 2.5 18.5 13.5 21.5s18.167 0.5 21.5 -7.5c6.66699 -22.667 21 -40.834 43 -54.501s47.333 -20.5 76 -20.5c28 0 53.167 6.83301 75.5 20.5s37.166 31.834 44.499 54.501
c3.33301 7.33301 10.333 9.5 21 6.5s15.334 -9.83301 14.001 -20.5c-4.66699 -34 -21.167 -62.833 -49.5 -86.5s-63.5 -35.5 -105.5 -35.5zM383.999 -10c-92.667 0 -173.667 36 -243 108s-104 156.667 -104 254c0 108.667 32 197 96 265s143.667 102 239 102
c78 0 143.5 -20.333 196.5 -61s79.5 -81.667 79.5 -123c0 -13.333 -3.83301 -23.833 -11.5 -31.5s-17.834 -11.5 -30.501 -11.5c-13.333 0 -25.833 6.33301 -37.5 19s-23.167 28.167 -34.5 46.5s-24.166 36.666 -38.499 54.999s-34.166 33.833 -59.499 46.5s-55 19 -89 19
c-61.333 0 -113.333 -26 -156 -78s-64 -116.667 -64 -194c0 -99.333 28 -183.333 84 -252s121.333 -103 196 -103c64 0 116 14.333 156 43v173c0 11.333 -5.5 20.333 -16.5 27s-22.167 12 -33.5 16s-17 8 -17 12v4c0 9.33301 7 14 21 14l170 -1c13.333 0 20 -4.33301 20 -13
v-4c0 -3.33301 -3 -6.66602 -9 -9.99902s-12.833 -6.33301 -20.5 -9s-14.5 -7 -20.5 -13s-9 -13.667 -9 -23v-155c0 -18 -8.33301 -34 -25 -48c-60.667 -49.333 -140.334 -74 -239.001 -74z" />
    <glyph glyph-name="gbreve" unicode="&#x11f;" horiz-adv-x="531" 
d="M261 559c-40.667 0 -75.168 11.833 -103.501 35.5s-45.166 52.5 -50.499 86.5c-0.666992 7.33301 1.5 13 6.5 17s10.5 5.66699 16.5 5s10 -3.33398 12 -8.00098c7.33301 -22.667 22 -40.834 44 -54.501s47 -20.5 75 -20.5c28.667 0 54.167 6.83301 76.5 20.5
s36.833 31.834 43.5 54.501c2 4.66699 6.16699 7.33398 12.5 8.00098s11.833 -1 16.5 -5s6.66699 -9.66699 6 -17c-4.66699 -34 -21.167 -62.833 -49.5 -86.5s-63.5 -35.5 -105.5 -35.5zM463.999 480c23.333 0 34.668 -5.33105 34.001 -15.998
c-0.666992 -3.33301 -2.66699 -6.33301 -6 -9c-5.33301 -5.33301 -12.333 -9.33301 -21 -12s-19.334 -4.66699 -32.001 -6s-22.334 -3 -29.001 -5c21.333 -16 38.333 -36.5 51 -61.5s19 -50.5 19 -76.5c0 -41.333 -10.667 -77.666 -32 -108.999s-50.666 -55 -87.999 -71
c42.667 -9.33301 75 -25.166 97 -47.499s33 -48.5 33 -78.5c0 -46 -21.5 -82.5 -64.5 -109.5s-98.833 -40.5 -167.5 -40.5c-70.667 0 -126.334 16.167 -167.001 48.5s-61 66.833 -61 103.5c0 10.667 3.16699 19.667 9.5 27s15.5 11 27.5 11
c9.33301 0 17.5 -3.83301 24.5 -11.5s12.667 -17.334 17 -29.001s10.333 -24.334 18 -38.001s16.334 -26.334 26.001 -38.001s24.167 -21.5 43.5 -29.5s42 -12 68 -12c40.667 0 73.667 10.333 99 31s38 47.667 38 81c0 32 -10 58.167 -30 78.5s-47 32.166 -81 35.499
c-17.333 -1.33301 -30 -2 -38 -2c-60 0 -110.667 18.833 -152 56.5s-62 83.5 -62 137.5c0 59.333 20.333 107.833 61 145.5s94 56.5 160 56.5c18 0 45 -1.66699 81 -5s77.333 -5 124 -5zM268.001 127.002c38 0 68.332 12.834 90.999 38.501s34 58.167 34 97.5
c0 53.333 -14.167 99.166 -42.5 137.499s-64.166 57.5 -107.499 57.5c-35.333 0 -63.833 -12.667 -85.5 -38s-32.5 -57.333 -32.5 -96c0 -54 13.833 -100.333 41.5 -139s61.5 -58 101.5 -58z" />
    <glyph glyph-name="Gdotaccent" unicode="&#x120;" horiz-adv-x="725" 
d="M384 776c-19.333 0 -35 5.5 -47 16.5s-18 25.5 -18 43.5s6 32.667 18 44s27.667 17 47 17c18.667 0 33.834 -5.66699 45.501 -17s17.5 -26 17.5 -44s-5.83301 -32.5 -17.5 -43.5s-26.834 -16.5 -45.501 -16.5zM384 -10c-92.667 0 -173.667 36 -243 108
s-104 156.667 -104 254c0 108.667 32 197 96 265s143.667 102 239 102c78 0 143.5 -20.333 196.5 -61s79.5 -81.667 79.5 -123c0 -13.333 -3.83301 -23.833 -11.5 -31.5s-17.834 -11.5 -30.501 -11.5c-13.333 0 -25.833 6.33301 -37.5 19s-23.167 28.167 -34.5 46.5
s-24.166 36.666 -38.499 54.999s-34.166 33.833 -59.499 46.5s-55 19 -89 19c-61.333 0 -113.333 -26 -156 -78s-64 -116.667 -64 -194c0 -99.333 28 -183.333 84 -252s121.333 -103 196 -103c64 0 116 14.333 156 43v173c0 11.333 -5.5 20.333 -16.5 27
s-22.167 12 -33.5 16s-17 8 -17 12v4c0 9.33301 7 14 21 14l170 -1c13.333 0 20 -4.33301 20 -13v-4c0 -3.33301 -3 -6.66602 -9 -9.99902s-12.833 -6.33301 -20.5 -9s-14.5 -7 -20.5 -13s-9 -13.667 -9 -23v-155c0 -18 -8.33301 -34 -25 -48
c-60.667 -49.333 -140.334 -74 -239.001 -74z" />
    <glyph glyph-name="gdotaccent" unicode="&#x121;" horiz-adv-x="531" 
d="M262 568c-20 0 -36.167 5.83105 -48.5 17.498s-18.5 26.834 -18.5 45.501c0 18 6.16699 32.833 18.5 44.5s28.5 17.5 48.5 17.5s35.833 -5.83301 47.5 -17.5s17.5 -26.5 17.5 -44.5c0 -19.333 -5.83301 -34.666 -17.5 -45.999s-27.5 -17 -47.5 -17zM464 479.998
c23.333 0 34.668 -5.33105 34.001 -15.998c-0.666992 -3.33301 -2.66699 -6.33301 -6 -9c-5.33301 -5.33301 -12.333 -9.33301 -21 -12s-19.334 -4.66699 -32.001 -6s-22.334 -3 -29.001 -5c21.333 -16 38.333 -36.5 51 -61.5s19 -50.5 19 -76.5
c0 -41.333 -10.667 -77.666 -32 -108.999s-50.666 -55 -87.999 -71c42.667 -9.33301 75 -25.166 97 -47.499s33 -48.5 33 -78.5c0 -46 -21.5 -82.5 -64.5 -109.5s-98.833 -40.5 -167.5 -40.5c-70.667 0 -126.334 16.167 -167.001 48.5s-61 66.833 -61 103.5
c0 10.667 3.16699 19.667 9.5 27s15.5 11 27.5 11c9.33301 0 17.5 -3.83301 24.5 -11.5s12.667 -17.334 17 -29.001s10.333 -24.334 18 -38.001s16.334 -26.334 26.001 -38.001s24.167 -21.5 43.5 -29.5s42 -12 68 -12c40.667 0 73.667 10.333 99 31s38 47.667 38 81
c0 32 -10 58.167 -30 78.5s-47 32.166 -81 35.499c-17.333 -1.33301 -30 -2 -38 -2c-60 0 -110.667 18.833 -152 56.5s-62 83.5 -62 137.5c0 59.333 20.333 107.833 61 145.5s94 56.5 160 56.5c18 0 45 -1.66699 81 -5s77.333 -5 124 -5zM268.002 127
c38 0 68.332 12.834 90.999 38.501s34 58.167 34 97.5c0 53.333 -14.167 99.166 -42.5 137.499s-64.166 57.5 -107.499 57.5c-35.333 0 -63.833 -12.667 -85.5 -38s-32.5 -57.333 -32.5 -96c0 -54 13.833 -100.333 41.5 -139s61.5 -58 101.5 -58z" />
    <glyph glyph-name="uni0122" unicode="&#x122;" horiz-adv-x="725" 
d="M384 -10c-92.667 0 -173.667 36 -243 108s-104 156.667 -104 254c0 108.667 32 197 96 265s143.667 102 239 102c78 0 143.5 -20.333 196.5 -61s79.5 -81.667 79.5 -123c0 -13.333 -3.83301 -23.833 -11.5 -31.5s-17.834 -11.5 -30.501 -11.5
c-13.333 0 -25.833 6.33301 -37.5 19s-23.167 28.167 -34.5 46.5s-24.166 36.666 -38.499 54.999s-34.166 33.833 -59.499 46.5s-55 19 -89 19c-61.333 0 -113.333 -26 -156 -78s-64 -116.667 -64 -194c0 -99.333 28 -183.333 84 -252s121.333 -103 196 -103
c64 0 116 14.333 156 43v173c0 11.333 -5.5 20.333 -16.5 27s-22.167 12 -33.5 16s-17 8 -17 12v4c0 9.33301 7 14 21 14l170 -1c13.333 0 20 -4.33301 20 -13v-4c0 -3.33301 -3 -6.66602 -9 -9.99902s-12.833 -6.33301 -20.5 -9s-14.5 -7 -20.5 -13s-9 -13.667 -9 -23v-155
c0 -18 -8.33301 -34 -25 -48c-60.667 -49.333 -140.334 -74 -239.001 -74zM357 -297c-6.66699 -4.66699 -12.832 -4.00098 -18.499 1.99902s-5.16699 12 1.5 18c28.667 28 46 56.333 52 85c2.66699 9.33301 0 14 -8 14c-13.333 0 -24.5 5.33301 -33.5 16
s-13.5 24.334 -13.5 41.001c0 18 5.33301 32.667 16 44s24.667 17 42 17s31.666 -6.33301 42.999 -19s17 -29.667 17 -51c0 -66 -32.667 -121.667 -98 -167z" />
    <glyph glyph-name="uni0123" unicode="&#x123;" horiz-adv-x="531" 
d="M251 565c-17.333 0 -31.832 6.49902 -43.499 19.499s-17.5 30.5 -17.5 52.5c0 68.667 33 125.334 99 170.001c7.33301 4.66699 13.833 4 19.5 -2s5.16699 -12.333 -1.5 -19c-29.333 -27.333 -47.333 -56 -54 -86c-2 -9.33301 1 -14 9 -14
c13.333 0 24.666 -5.5 33.999 -16.5s14 -24.833 14 -41.5c0 -18 -5.33301 -33 -16 -45s-25 -18 -43 -18zM464.001 479.999c23.333 0 34.668 -5.33105 34.001 -15.998c-0.666992 -3.33301 -2.66699 -6.33301 -6 -9c-5.33301 -5.33301 -12.333 -9.33301 -21 -12
s-19.334 -4.66699 -32.001 -6s-22.334 -3 -29.001 -5c21.333 -16 38.333 -36.5 51 -61.5s19 -50.5 19 -76.5c0 -41.333 -10.667 -77.666 -32 -108.999s-50.666 -55 -87.999 -71c42.667 -9.33301 75 -25.166 97 -47.499s33 -48.5 33 -78.5c0 -46 -21.5 -82.5 -64.5 -109.5
s-98.833 -40.5 -167.5 -40.5c-70.667 0 -126.334 16.167 -167.001 48.5s-61 66.833 -61 103.5c0 10.667 3.16699 19.667 9.5 27s15.5 11 27.5 11c9.33301 0 17.5 -3.83301 24.5 -11.5s12.667 -17.334 17 -29.001s10.333 -24.334 18 -38.001s16.334 -26.334 26.001 -38.001
s24.167 -21.5 43.5 -29.5s42 -12 68 -12c40.667 0 73.667 10.333 99 31s38 47.667 38 81c0 32 -10 58.167 -30 78.5s-47 32.166 -81 35.499c-17.333 -1.33301 -30 -2 -38 -2c-60 0 -110.667 18.833 -152 56.5s-62 83.5 -62 137.5c0 59.333 20.333 107.833 61 145.5
s94 56.5 160 56.5c18 0 45 -1.66699 81 -5s77.333 -5 124 -5zM268.003 127.001c38 0 68.332 12.834 90.999 38.501s34 58.167 34 97.5c0 53.333 -14.167 99.166 -42.5 137.499s-64.166 57.5 -107.499 57.5c-35.333 0 -63.833 -12.667 -85.5 -38s-32.5 -57.333 -32.5 -96
c0 -54 13.833 -100.333 41.5 -139s61.5 -58 101.5 -58z" />
    <glyph glyph-name="Hbar" unicode="&#x126;" horiz-adv-x="770" 
d="M724 570c11.333 0 16.999 -4.3291 16.999 -12.9961v-14c0 -8.66699 -5.66699 -13 -17 -13h-53v-460c0 -10 3.16699 -18.333 9.5 -25s12.666 -12.334 18.999 -17.001s9.5 -9.33398 9.5 -14.001v-2c0 -8 -6.66699 -12 -20 -12h-125c-13.333 0 -20 4 -20 12v2
c0 4.66699 6 11.834 18 21.501s18 21.167 18 34.5v270h-391l-1 -270c0 -10 3.33301 -18.333 10 -25s13.167 -12.334 19.5 -17.001s9.5 -9.33398 9.5 -14.001v-2c0 -8 -6.66699 -12 -20 -12h-125c-13.333 0 -20 4 -20 12v2c0 4.66699 6 11.834 18 21.501s18 21.167 18 34.5
v460h-56c-10.667 0 -16 4.33301 -16 13v14c0 8.66699 5.33301 13 16 13h56v70c0 13.333 -6 24.833 -18 34.5s-18 16.834 -18 21.501v2c0 8 6.66699 12 20 12h125c13.333 0 20 -4 20 -12v-2c0 -4.66699 -3.16699 -9.33398 -9.5 -14.001s-12.666 -10.334 -18.999 -17.001
s-9.5 -15 -9.5 -25v-70h391v70c0 13.333 -6 24.833 -18 34.5s-18 16.834 -18 21.501v2c0 8 6.66699 12 20 12h125c13.333 0 20 -4 20 -12v-2c0 -4.66699 -3.16699 -9.33398 -9.5 -14.001s-12.666 -10.334 -18.999 -17.001s-9.5 -15 -9.5 -25v-70h53zM579.999 384.004v146
h-391l-1 -146h392z" />
    <glyph glyph-name="hbar" unicode="&#x127;" horiz-adv-x="568" 
d="M507 72c1.33301 -13.333 7.66602 -24.6689 18.999 -34.002s17 -16.666 17 -21.999v-4c0 -8 -6.66699 -12 -20 -12h-120c-13.333 0 -20 4 -20 12v4c0 4.66699 3.16699 9.33398 9.5 14.001s12.5 10.167 18.5 16.5s8.66699 14.5 8 24.5l-10 204
c-2.66699 57.333 -15 101 -37 131s-50.667 45 -86 45c-36.667 0 -66.667 -13 -90 -39s-35 -59 -35 -99v-243c0 -12.667 6.66699 -23.5 20 -32.5s20 -16.167 20 -21.5v-3c0 -8.66699 -7 -13 -21 -13h-125c-12.667 -0 -19 4.33301 -19 13v3c0 5.33301 6.16699 12.5 18.5 21.5
s18.5 19.833 18.5 32.5v477h-70c-9.33301 0 -14 4 -14 12v17c0 7.33301 4.66699 11 14 11h70v48c0 11.333 -3.16699 20.5 -9.5 27.5s-12.666 12.667 -18.999 17s-9.5 8.5 -9.5 12.5v3c0 7.33301 4.66699 13 14 17l82 36c8.66699 4 15.667 4.83301 21 2.5s8 -7.5 8 -15.5
l-1 -148h127c10 0 15 -4 15 -12v-14c0 -9.33301 -5 -14 -15 -14h-127l-1 -136c34 52.667 83.667 79 149 79c52 0 95.5 -18.167 130.5 -54.5s54.5 -90.5 58.5 -162.5z" />
    <glyph glyph-name="Itilde" unicode="&#x128;" horiz-adv-x="284" 
d="M74 894c22.667 0 50.6689 -9.5 84.002 -28.5s56.333 -28.5 69 -28.5c23.333 0 40.333 11.333 51 34c3.33301 8.66699 8.66602 13 15.999 13h7c10 0 13.333 -5.66699 10 -17c-15.333 -62 -47 -93 -95 -93c-21.333 0 -48.5 9.66699 -81.5 29s-56.833 29 -71.5 29
c-22 0 -39 -11.667 -51 -35c-4.66699 -10 -10 -15 -16 -15h-9c-8.66699 0 -12 5.66699 -10 17c5.33301 28 16.166 50.833 32.499 68.5s37.833 26.5 64.5 26.5zM60.002 12l-0.000976562 2.00098c0 4.66699 6 11.667 18 21s18 20.666 18 33.999v571
c0 13.333 -6 24.833 -18 34.5s-18 16.834 -18 21.501v2c0 8 6.66699 12 20 12h125c13.333 0 20 -4 20 -12v-2c0 -4.66699 -3.16699 -9.33398 -9.5 -14.001s-12.666 -10.334 -18.999 -17.001s-9.5 -15 -9.5 -25v-571c0 -13.333 6.33301 -24.666 19 -33.999s19 -16.333 19 -21
v-2c0 -8 -6.66699 -12 -20 -12h-125c-13.333 0 -20 4 -20 12z" />
    <glyph glyph-name="itilde" unicode="&#x129;" horiz-adv-x="243" 
d="M51 708c22.667 0 50.833 -9.5 84.5 -28.5s56.5 -28.5 68.5 -28.5c24 0 41 11.333 51 34c3.33301 8.66699 9 13 17 13h6c9.33301 0 13 -5.66699 11 -17c-15.333 -62 -47.333 -93 -96 -93c-21.333 0 -48.5 9.66699 -81.5 29s-56.833 29 -71.5 29
c-22.667 0 -39.667 -11.667 -51 -35c-4.66699 -10 -10 -15 -16 -15h-8c-9.33301 0 -13 5.66699 -11 17c5.33301 27.333 16.333 50 33 68s38 27 64 27zM61.999 0c-12.667 0 -19 4.33789 -19 13.0049v4c0 4.66699 3 9.16699 9 13.5s12 9.66602 18 15.999s9 14.5 9 24.5v298
c0 15.333 -6 28.666 -18 39.999s-18 18.666 -18 21.999v2c0 4.66699 5 9.66699 15 15l77 38c10.667 4 18.5 4.66699 23.5 2s7.5 -8 7.5 -16v-401c0 -8 2 -14.833 6 -20.5s8.66699 -9.83398 14 -12.501s10 -5.83398 14 -9.50098s6 -7.5 6 -11.5v-4c0 -8.66699 -7 -13 -21 -13
h-123z" />
    <glyph glyph-name="Imacron" unicode="&#x12a;" horiz-adv-x="284" 
d="M8 811c-11.333 0 -17 5 -17 15v28c0 10 5.66699 15 17 15h263c12 0 18 -5 18 -15v-28c0 -10 -6 -15 -18 -15h-263zM60 12l-0.000976562 2.00098c0 4.66699 6 11.667 18 21s18 20.666 18 33.999v571c0 13.333 -6 24.833 -18 34.5s-18 16.834 -18 21.501v2
c0 8 6.66699 12 20 12h125c13.333 0 20 -4 20 -12v-2c0 -4.66699 -3.16699 -9.33398 -9.5 -14.001s-12.666 -10.334 -18.999 -17.001s-9.5 -15 -9.5 -25v-571c0 -13.333 6.33301 -24.666 19 -33.999s19 -16.333 19 -21v-2c0 -8 -6.66699 -12 -20 -12h-125
c-13.333 0 -20 4 -20 12z" />
    <glyph glyph-name="imacron" unicode="&#x12b;" horiz-adv-x="243" 
d="M-4 604c-12 0 -18 5.33301 -18 16v28c0 10 6 15 18 15h263c11.333 0 17 -5 17 -15v-28c0 -10.667 -5.66699 -16 -17 -16h-263zM62 0c-12.667 0 -19 4.33789 -19 13.0049v4c0 4.66699 3 9.16699 9 13.5s12 9.66602 18 15.999s9 14.5 9 24.5v298
c0 15.333 -6 28.666 -18 39.999s-18 18.666 -18 21.999v2c0 4.66699 5 9.66699 15 15l77 38c10.667 4 18.5 4.66699 23.5 2s7.5 -8 7.5 -16v-401c0 -8 2 -14.833 6 -20.5s8.66699 -9.83398 14 -12.501s10 -5.83398 14 -9.50098s6 -7.5 6 -11.5v-4c0 -8.66699 -7 -13 -21 -13
h-123z" />
    <glyph glyph-name="Iogonek" unicode="&#x12e;" horiz-adv-x="284" 
d="M225 696c0 -4.66699 -3.16895 -9.33398 -9.50195 -14.001s-12.666 -10.334 -18.999 -17.001s-9.5 -15 -9.5 -25v-571c0 -13.333 6.33301 -24.666 19 -33.999s19 -16.333 19 -21v-2c0 -8 -6.66699 -12 -20 -12h-41c-44.667 -43.333 -67 -83 -67 -119
c0 -16 3.66699 -28.333 11 -37s17 -13 29 -13c4.66699 0 13.667 2 27 6c10 4 16 0 18 -12s-1.66699 -20.333 -11 -25c-12 -6.66699 -28 -10 -48 -10c-24.667 0 -46.167 6.83301 -64.5 20.5s-27.5 32.834 -27.5 57.501c0 22.667 8.83301 45.667 26.5 69
s40.834 44.333 69.501 63h-47c-13.333 0 -20 4 -20 12v2c0 4.66699 6 11.667 18 21s18 20.666 18 33.999v571c0 13.333 -6 24.833 -18 34.5s-18 16.834 -18 21.501v2c0 8 6.66699 12 20 12h125c13.333 0 20 -4 20 -12v-2z" />
    <glyph glyph-name="iogonek" unicode="&#x12f;" horiz-adv-x="243" 
d="M120 575c-20.667 0 -37 5.66699 -49 17s-18 26.333 -18 45s6.16699 33.834 18.5 45.501s28.5 17.5 48.5 17.5c19.333 0 35 -5.83301 47 -17.5s18 -26.834 18 -45.501s-6 -33.667 -18 -45s-27.667 -17 -47 -17zM166 71c0 -8 2 -14.8291 6 -20.4961
s8.66699 -9.83398 14 -12.501s10 -5.83398 14 -9.50098s6 -7.5 6 -11.5v-4c0 -8.66699 -7 -13 -21 -13h-28c-44 -44 -66 -83.667 -66 -119c0 -33.333 13 -50 39 -50c4.66699 0 13.667 2 27 6c10 4 16 0 18 -12s-1.33301 -20.333 -10 -25
c-13.333 -6.66699 -29.333 -10 -48 -10c-24.667 0 -46.167 6.83301 -64.5 20.5s-27.5 32.834 -27.5 57.501c0 46.667 31.667 90.667 95 132h-58c-12.667 0 -19 4.33301 -19 13v4c0 4.66699 3 9.16699 9 13.5s12 9.66602 18 15.999s9 14.5 9 24.5v298
c0 15.333 -6 28.666 -18 39.999s-18 18.666 -18 21.999v2c0 4.66699 5 9.66699 15 15l77 38c10.667 4 18.5 4.66699 23.5 2s7.5 -8 7.5 -16v-401z" />
    <glyph glyph-name="Idotaccent" unicode="&#x130;" horiz-adv-x="284" 
d="M145 776c-19.333 0 -35 5.5 -47 16.5s-18 25.5 -18 43.5s6 32.667 18 44s27.667 17 47 17c18.667 0 33.834 -5.66699 45.501 -17s17.5 -26 17.5 -44s-5.83301 -32.5 -17.5 -43.5s-26.834 -16.5 -45.501 -16.5zM60 12l-0.000976562 2.00098c0 4.66699 6 11.667 18 21
s18 20.666 18 33.999v571c0 13.333 -6 24.833 -18 34.5s-18 16.834 -18 21.501v2c0 8 6.66699 12 20 12h125c13.333 0 20 -4 20 -12v-2c0 -4.66699 -3.16699 -9.33398 -9.5 -14.001s-12.666 -10.334 -18.999 -17.001s-9.5 -15 -9.5 -25v-571
c0 -13.333 6.33301 -24.666 19 -33.999s19 -16.333 19 -21v-2c0 -8 -6.66699 -12 -20 -12h-125c-13.333 0 -20 4 -20 12z" />
    <glyph glyph-name="dotlessi" unicode="&#x131;" horiz-adv-x="240" 
d="M62 0c-12.667 0 -19 4.33789 -19 13.0049v4c0 4.66699 3 9.16699 9 13.5s12 9.66602 18 15.999s9 14.5 9 24.5v298c0 15.333 -6 28.666 -18 39.999s-18 18.666 -18 21.999v2c0 4.66699 5 9.66699 15 15l77 38c10.667 4 18.5 4.66699 23.5 2s7.5 -8 7.5 -16v-401
c0 -8 2 -14.833 6 -20.5s8.66699 -9.83398 14 -12.501s10 -5.83398 14 -9.50098s6 -7.5 6 -11.5v-4c0 -8.66699 -7 -13 -21 -13h-123z" />
    <glyph glyph-name="IJ" unicode="&#x132;" horiz-adv-x="791" 
d="M60 12l-0.000976562 2.00098c0 4.66699 6 11.667 18 21s18 20.666 18 33.999v571c0 13.333 -6 24.833 -18 34.5s-18 16.834 -18 21.501v2c0 8 6.66699 12 20 12h125c13.333 0 20 -4 20 -12v-2c0 -4.66699 -3.16699 -9.33398 -9.5 -14.001
s-12.666 -10.334 -18.999 -17.001s-9.5 -15 -9.5 -25v-571c0 -13.333 6.33301 -24.666 19 -33.999s19 -16.333 19 -21v-2c0 -8 -6.66699 -12 -20 -12h-125c-13.333 0 -20 4 -20 12zM613.999 640.001c0 13.333 -6.00098 24.8301 -18.001 34.4971s-18 16.834 -18 21.501v2
c0 8 6.66699 12 20 12h126c13.333 0 20 -4 20 -12v-2c0 -4.66699 -3.16699 -9.33398 -9.5 -14.001s-12.666 -10.334 -18.999 -17.001s-9.5 -15 -9.5 -25l-2 -385c-0.666992 -175.333 -71.334 -263.666 -212.001 -264.999c-36 0 -68 5.33301 -96 16s-49.833 24.667 -65.5 42
s-27.334 34.833 -35.001 52.5s-11.5 34.5 -11.5 50.5c0 14 3.83301 25.167 11.5 33.5s18.167 12.5 31.5 12.5c14.667 0 26.334 -5.66699 35.001 -17s15.5 -25.166 20.5 -41.499s11 -32.666 18 -48.999s18.833 -30.166 35.5 -41.499s38.334 -17 65.001 -17
c32.667 0 59.667 15.833 81 47.5s32 76.5 32 134.5v427z" />
    <glyph glyph-name="ij" unicode="&#x133;" horiz-adv-x="482" 
d="M120 575c-20.667 0 -37 5.66699 -49 17s-18 26.333 -18 45s6.16699 33.834 18.5 45.501s28.5 17.5 48.5 17.5c19.333 0 35 -5.83301 47 -17.5s18 -26.834 18 -45.501s-6 -33.667 -18 -45s-27.667 -17 -47 -17zM365 575c-20 0 -36.167 5.66699 -48.5 17
s-18.5 26.333 -18.5 45s6.16699 33.834 18.5 45.501s28.5 17.5 48.5 17.5s35.833 -5.83301 47.5 -17.5s17.5 -26.834 17.5 -45.501s-5.83301 -33.667 -17.5 -45s-27.5 -17 -47.5 -17zM62 0c-12.667 0 -19 4.33789 -19 13.0049v4c0 4.66699 3 9.16699 9 13.5
s12 9.66602 18 15.999s9 14.5 9 24.5v298c0 15.333 -6 28.666 -18 39.999s-18 18.666 -18 21.999v2c0 4.66699 5 9.66699 15 15l77 38c10.667 4 18.5 4.66699 23.5 2s7.5 -8 7.5 -16v-401c0 -8 2 -14.833 6 -20.5s8.66699 -9.83398 14 -12.501s10 -5.83398 14 -9.50098
s6 -7.5 6 -11.5v-4c0 -8.66699 -7 -13 -21 -13h-123zM296 -183.995c-33.333 0 -60.167 7.33203 -80.5 21.999s-30.5 34 -30.5 58c0 11.333 3.5 20.666 10.5 27.999s16.5 11 28.5 11c12.667 0 22.667 -4.33301 30 -13s12 -18.334 14 -29.001s6.5 -20.334 13.5 -29.001
s16.833 -13 29.5 -13c13.333 0 24.166 5 32.499 15s12.5 23 12.5 39c0 16.667 -4.66699 37.334 -14 62.001s-14 44.334 -14 59.001v343c0 15.333 -6 28.333 -18 39s-18 18 -18 22v3c0 4.66699 5 9.66699 15 15l80 38c9.33301 4.66699 16.833 5.33398 22.5 2.00098
s8.5 -8.66602 8.5 -15.999v-469c0 -41.333 -5.33301 -78.333 -16 -111c-17.333 -50.667 -52.666 -76 -105.999 -76z" />
    <glyph glyph-name="uni0136" unicode="&#x136;" horiz-adv-x="679" 
d="M643 71c6 -10 12.502 -18.332 19.502 -24.999s12.667 -11.167 17 -13.5s7.83301 -5 10.5 -8s4 -6.5 4 -10.5v-2c0 -8 -5.66699 -12 -17 -12h-143c-12 0 -18 4 -18 12v2c0 4 5.66699 10.833 17 20.5s13.666 20.167 6.99902 31.5l-208 330l-145 -143v-182
c0 -12.667 6.5 -24 19.5 -34s19.5 -17.667 19.5 -23v-2c0 -8 -7 -12 -21 -12h-125c-13.333 0 -20 4 -20 12v2c0 5.33301 6 13 18 23s18 21.333 18 34v569c0 13.333 -6 24.833 -18 34.5s-18 16.834 -18 21.501v2c0 8 6.66699 12 20 12h125c13.333 0 20 -4 20 -12v-2
c0 -4.66699 -3.16699 -9.33398 -9.5 -14.001s-12.666 -10.334 -18.999 -17.001s-9.5 -15 -9.5 -25v-326l326 323c9.33301 12 13 20.5 11 25.5s-6.33301 10.833 -13 17.5s-10 12 -10 16v2c0 8 7 12 21 12h104c13.333 0 20 -4 20 -12v-2c0 -5.33301 -3.33301 -10.333 -10 -15
s-16.334 -11 -29.001 -19s-23.334 -16.333 -32.001 -25l-182 -180zM381.002 -59.999c17.333 0 31.668 -6.33301 43.001 -19s17 -29.667 17 -51c0 -66 -32.667 -121.667 -98 -167c-6.66699 -4.66699 -12.834 -4 -18.501 2s-5.16699 12 1.5 18
c28 27.333 45.667 55.666 53 84.999c2 9.33301 -1 14 -9 14c-13.333 0 -24.5 5.33301 -33.5 16s-13.5 24.334 -13.5 41.001c0 18 5.33301 32.667 16 44s24.667 17 42 17z" />
    <glyph glyph-name="uni0137" unicode="&#x137;" horiz-adv-x="523" 
d="M483 57c5.33301 -6.66699 15 -13.833 29 -21.5s21 -14.834 21 -21.501v-2c0 -8 -5 -12 -15 -12h-133c-10 0 -15 4 -15 12v2c0 4.66699 4.83301 10.834 14.5 18.501s10.834 15.834 3.50098 24.501l-152 191l-76 -70v-108c0 -12.667 6.5 -23.5 19.5 -32.5
s19.5 -16.167 19.5 -21.5v-3c0 -8.66699 -7 -13 -21 -13h-122c-13.333 0 -20 4.33301 -20 13v3c0 5.33301 6 12.5 18 21.5s18 19.833 18 32.5v562c0 11.333 -3.33301 20.833 -10 28.5s-13.167 13.834 -19.5 18.501s-9.5 9 -9.5 13v2c0 5.33301 4.66699 10.666 14 15.999
l81 38c10 4 17.833 4.5 23.5 1.5s8.5 -8.16699 8.5 -15.5v-502l202 178c7.33301 9.33301 9.33301 16.166 6 20.499s-8.83301 10 -16.5 17s-11.5 12.833 -11.5 17.5v3c0 8 5.33301 12 16 12h113c9.33301 0 14 -3.66699 14 -11v-3c0 -5.33301 -3.33301 -10.5 -10 -15.5
s-16.334 -11.167 -29.001 -18.5s-23 -14.333 -31 -21l-119 -110zM270 -59.999c17.333 0 31.833 -6.33398 43.5 -19.001s17.5 -29.667 17.5 -51c0 -66 -32.667 -121.667 -98 -167c-6.66699 -4.66699 -13 -4 -19 2s-5.66699 12 1 18c29.333 28 47 56.333 53 85
c2.66699 9.33301 0 14 -8 14c-14 0 -25.5 5.33301 -34.5 16s-13.5 24.334 -13.5 41.001c0 18 5.33301 32.667 16 44s24.667 17 42 17z" />
    <glyph glyph-name="kgreenlandic" unicode="&#x138;" horiz-adv-x="528" 
d="M493 57c6 -7.33301 15.334 -14.6689 28.001 -22.002s19 -14.333 19 -21v-2c0 -8 -5 -12 -15 -12h-129c-10.667 0 -16 4 -16 12v2c0 4.66699 4.83301 10.834 14.5 18.501s11.167 15.834 4.5 24.501l-155 191l-76 -69v-109c0 -12.667 6.5 -23.5 19.5 -32.5
s19.5 -16.167 19.5 -21.5v-3c0 -8.66699 -7 -13 -21 -13h-124c-14 -0 -21 4.33301 -21 13v3c0 5.33301 6.16699 12.5 18.5 21.5s18.5 19.833 18.5 32.5v398c0 14.667 -6.66699 27.334 -20 38.001s-20 17.667 -20 21v3c0 6 5 11 15 15l82 38c10 4.66699 18 5.5 24 2.5
s9 -8.16699 9 -15.5v-338l201 178c7.33301 9.33301 9.33301 16.166 6 20.499s-8.83301 10 -16.5 17s-11.5 12.833 -11.5 17.5v3c0 8 5.33301 12 16 12h113c10 0 15 -3.66699 15 -11v-3c0 -5.33301 -3.33301 -10.5 -10 -15.5s-16.334 -11.167 -29.001 -18.5
s-23 -14.333 -31 -21l-119 -110z" />
    <glyph glyph-name="Lacute" unicode="&#x139;" horiz-adv-x="575" 
d="M57 782c-12 -1.33301 -19.999 2.66602 -23.999 11.999c-2 10 1.66699 17.333 11 22l198 88c17.333 8.66699 28.666 3.66699 33.999 -15l9 -34c2 -7.33301 1.16699 -13.666 -2.5 -18.999s-9.5 -8.33301 -17.5 -9zM80.001 -0.000976562
c-13.333 0 -20.002 4.00195 -20.002 12.002v2c0 5.33301 6 12.666 18 21.999s18 20.666 18 33.999v570c0 14 -6 25.5 -18 34.5s-18 16.167 -18 21.5v2c0 8 6.66699 12 20 12h126c13.333 0 20 -4 20 -12v-2c0 -5.33301 -6.5 -12.5 -19.5 -21.5s-19.5 -20.5 -19.5 -34.5v-560
c0 -26 10.667 -39 32 -39h222c13.333 0 25.333 5.66699 36 17s19 24 25 38s13 26.667 21 38s15.667 17 23 17h8c10.667 0 14.334 -6 11.001 -18l-25 -110c-3.33301 -15.333 -11.666 -23 -24.999 -23h-435z" />
    <glyph glyph-name="lacute" unicode="&#x13a;" horiz-adv-x="238" 
d="M6 791c-12.667 -1.33301 -20.6641 2.33203 -23.9971 10.999c-2.66699 10 0.666016 17.667 9.99902 23l198 88c17.333 8 28.666 3 33.999 -15l9 -34c2.66699 -7.33301 2.16699 -13.666 -1.5 -18.999s-9.83398 -8.33301 -18.501 -9zM57.0029 -0.00195312
c-12.667 0 -19 4.33301 -19 13v3c0 5.33301 5.83301 12.5 17.5 21.5s17.5 19.833 17.5 32.5v562c0 11.333 -2.83301 20.833 -8.5 28.5s-11.5 13.834 -17.5 18.501s-9 9 -9 13v2c0 5.33301 4.66699 10.666 14 15.999l78 38c10 4 17.667 4.5 23 1.5s8 -8.16699 8 -15.5v-664
c0 -12.667 6.5 -23.5 19.5 -32.5s19.5 -16.167 19.5 -21.5v-3c0 -8.66699 -6.66699 -13 -20 -13h-123z" />
    <glyph glyph-name="uni013B" unicode="&#x13b;" horiz-adv-x="575" 
d="M80 0c-13.333 0 -20.002 4.00195 -20.002 12.002v2c0 5.33301 6 12.666 18 21.999s18 20.666 18 33.999v570c0 14 -6 25.5 -18 34.5s-18 16.167 -18 21.5v2c0 8 6.66699 12 20 12h126c13.333 0 20 -4 20 -12v-2c0 -5.33301 -6.5 -12.5 -19.5 -21.5
s-19.5 -20.5 -19.5 -34.5v-560c0 -26 10.667 -39 32 -39h222c13.333 0 25.333 5.66699 36 17s19 24 25 38s13 26.667 21 38s15.667 17 23 17h8c10.667 0 14.334 -6 11.001 -18l-25 -110c-3.33301 -15.333 -11.666 -23 -24.999 -23h-435zM275.998 -296.998
c-7.33301 -4.66699 -13.833 -4.00098 -19.5 1.99902s-5.16699 12 1.5 18c29.333 28.667 47 57 53 85c2 9.33301 -0.666992 14 -8 14c-14 0 -25.5 5.33301 -34.5 16s-13.5 24.334 -13.5 41.001c0 18 5.33301 32.667 16 44s24.667 17 42 17s31.833 -6.33301 43.5 -19
s17.5 -29.667 17.5 -51c0 -65.333 -32.667 -121 -98 -167z" />
    <glyph glyph-name="uni013C" unicode="&#x13c;" horiz-adv-x="238" 
d="M57 0c-12.667 0 -19 4.33301 -19 13v3c0 5.33301 5.83301 12.5 17.5 21.5s17.5 19.833 17.5 32.5v562c0 11.333 -2.83301 20.833 -8.5 28.5s-11.5 13.834 -17.5 18.501s-9 9 -9 13v2c0 5.33301 4.66699 10.666 14 15.999l78 38c10 4 17.667 4.5 23 1.5
s8 -8.16699 8 -15.5v-664c0 -12.667 6.5 -23.5 19.5 -32.5s19.5 -16.167 19.5 -21.5v-3c0 -8.66699 -6.66699 -13 -20 -13h-123zM88 -281c-7.33301 -4 -13.666 -3.16895 -18.999 2.49805s-5 11.834 1 18.501c29.333 28 47 56 53 84c2 9.33301 -1 14 -9 14
c-13.333 0 -24.5 5.33301 -33.5 16s-13.5 24.334 -13.5 41.001c0 18 5.33301 32.833 16 44.5s24.667 17.5 42 17.5s31.666 -6.33301 42.999 -19s17 -30 17 -52c0 -66 -32.333 -121.667 -97 -167z" />
    <glyph glyph-name="Lcaron" unicode="&#x13d;" horiz-adv-x="577" 
d="M356 510l-6.00098 4.00098c-7.33301 5.33301 -6.66602 13.666 2.00098 24.999c39.333 53.333 59 117 59 191c0 14 5 21 15 21h34c11.333 0 17 -7 17 -21c0 -88.667 -31.667 -161 -95 -217c-10 -8.66699 -18.667 -9.66699 -26 -3zM79.999 0.000976562
c-13.333 0 -20.002 4.00195 -20.002 12.002v2c0 5.33301 6 12.666 18 21.999s18 20.666 18 33.999v570c0 14 -6 25.5 -18 34.5s-18 16.167 -18 21.5v2c0 8 6.66699 12 20 12h126c13.333 0 20 -4 20 -12v-2c0 -5.33301 -6.5 -12.5 -19.5 -21.5s-19.5 -20.5 -19.5 -34.5v-560
c0 -26 10.667 -39 32 -39h222c13.333 0 25.333 5.66699 36 17s19 24 25 38s13 26.667 21 38s15.667 17 23 17h8c10.667 0 14.334 -6 11.001 -18l-25 -110c-3.33301 -15.333 -11.666 -23 -24.999 -23h-435z" />
    <glyph glyph-name="lcaron" unicode="&#x13e;" horiz-adv-x="253" 
d="M201 564l-5.00098 3.99902c-7.33301 6 -6.66602 14.333 2.00098 25c38.667 53.333 58 117.333 58 192c0 5.33301 1.5 10 4.5 14s6.83301 6 11.5 6h33c11.333 0 17 -6.66699 17 -20c0 -89.333 -31.333 -161.666 -94 -216.999c-9.33301 -8 -18.333 -9.33301 -27 -4z
M56.999 -0.000976562c-12.667 0 -19 4.33301 -19 13v3c0 5.33301 5.83301 12.5 17.5 21.5s17.5 19.833 17.5 32.5v562c0 11.333 -2.83301 20.833 -8.5 28.5s-11.5 13.834 -17.5 18.501s-9 9 -9 13v2c0 5.33301 4.66699 10.666 14 15.999l78 38c10 4 17.667 4.5 23 1.5
s8 -8.16699 8 -15.5v-664c0 -12.667 6.5 -23.5 19.5 -32.5s19.5 -16.167 19.5 -21.5v-3c0 -8.66699 -6.66699 -13 -20 -13h-123z" />
    <glyph glyph-name="Ldot" unicode="&#x13f;" horiz-adv-x="578" 
d="M80 0c-13.333 0 -20.002 4.00195 -20.002 12.002v2c0 5.33301 6 12.666 18 21.999s18 20.666 18 33.999v570c0 14 -6 25.5 -18 34.5s-18 16.167 -18 21.5v2c0 8 6.66699 12 20 12h126c13.333 0 20 -4 20 -12v-2c0 -5.33301 -6.5 -12.5 -19.5 -21.5
s-19.5 -20.5 -19.5 -34.5v-560c0 -26 10.667 -39 32 -39h222c13.333 0 25.333 5.66699 36 17s19 24 25 38s13 26.667 21 38s15.667 17 23 17h8c10.667 0 14.334 -6 11.001 -18l-25 -110c-3.33301 -15.333 -11.666 -23 -24.999 -23h-435zM403.998 324.002
c-18.667 0 -34 5.16699 -46 15.5s-18 25.166 -18 44.499c0 20 6 35.167 18 45.5s27.333 15.5 46 15.5s34 -5.16699 46 -15.5s18 -25.5 18 -45.5c0 -19.333 -6 -34.166 -18 -44.499s-27.333 -15.5 -46 -15.5z" />
    <glyph glyph-name="ldot" unicode="&#x140;" horiz-adv-x="325" 
d="M57 0c-12.667 0 -19 4.33301 -19 13v3c0 5.33301 5.83301 12.5 17.5 21.5s17.5 19.833 17.5 32.5v562c0 11.333 -2.83301 20.833 -8.5 28.5s-11.5 13.834 -17.5 18.501s-9 9 -9 13v2c0 5.33301 4.66699 10.666 14 15.999l78 38c10 4 17.667 4.5 23 1.5
s8 -8.16699 8 -15.5v-664c0 -12.667 6.5 -23.5 19.5 -32.5s19.5 -16.167 19.5 -21.5v-3c0 -8.66699 -6.66699 -13 -20 -13h-123zM272 326c-18.667 0 -34.167 5.16699 -46.5 15.5s-18.5 25.166 -18.5 44.499c0 20 6.16699 35.167 18.5 45.5s27.833 15.5 46.5 15.5
s34 -5.33301 46 -16s18 -25.667 18 -45s-6 -34.166 -18 -44.499s-27.333 -15.5 -46 -15.5z" />
    </font>
</defs>
</svg>
